<!DOCTYPE svg PUBLIC "-//W3C//DTD SVG 1.1//EN" "https://www.w3.org/Graphics/SVG/1.1/DTD/svg11.dtd" [
	<!ENTITY ns_extend "http://ns.adobe.com/Extensibility/1.0/">
	<!ENTITY ns_ai "http://ns.adobe.com/AdobeIllustrator/10.0/">
	<!ENTITY ns_graphs "http://ns.adobe.com/Graphs/1.0/">
	<!ENTITY ns_vars "http://ns.adobe.com/Variables/1.0/">
	<!ENTITY ns_imrep "http://ns.adobe.com/ImageReplacement/1.0/">
	<!ENTITY ns_sfw "http://ns.adobe.com/SaveForWeb/1.0/">
	<!ENTITY ns_custom "http://ns.adobe.com/GenericCustomNamespace/1.0/">
	<!ENTITY ns_adobe_xpath "http://ns.adobe.com/XPath/1.0/">
]>
<svg version="1.1" id="Groupe_5" xmlns:x="&ns_extend;" xmlns:i="&ns_ai;" xmlns:graph="&ns_graphs;"
	 xmlns="http://www.w3.org/2000/svg" xmlns:xlink="http://www.w3.org/1999/xlink" x="0px" y="0px" width="64px" height="64px"
	 viewBox="0 0 64 64" style="enable-background:new 0 0 64 64;" xml:space="preserve">
<style type="text/css">
	.st0-add-rounded-info{fill:#0081AC;}
	.st1-add-rounded-info{fill-rule:evenodd;clip-rule:evenodd;fill:#FFFFFF;}
</style>
<metadata>
	<sfw  xmlns="&ns_sfw;">
		<slices></slices>
		<sliceSourceBounds  bottomLeftOrigin="true" height="64" width="64" x="0" y="0"></sliceSourceBounds>
	</sfw>
</metadata>
<circle class="st0-add-rounded-info" cx="32" cy="32" r="32"/>
<path class="st1-add-rounded-info" d="M32,12c-11,0-20,9-20,20s9,20,20,20s20-9,20-20C52,21,43,12,32,12z M32,47.5
	c-8.6,0-15.5-6.9-15.5-15.5S23.4,16.5,32,16.5S47.5,23.4,47.5,32l0,0C47.5,40.6,40.6,47.5,32,47.5z M39.6,29.8h-5.4v-5.4
	c0-1.2-1-2.2-2.2-2.2s-2.2,1-2.2,2.2v5.4h-5.4c-1.2,0-2.2,1-2.2,2.2s1,2.2,2.2,2.2h5.4v5.4c0,1.2,1,2.2,2.2,2.2s2.2-1,2.2-2.2v-5.4
	h5.4c1.2,0,2.2-1,2.2-2.2C41.9,30.8,40.9,29.8,39.6,29.8L39.6,29.8z"/>
</svg>
