<svg version="1.1" id="Calque_1" xmlns="http://www.w3.org/2000/svg" xmlns:xlink="http://www.w3.org/1999/xlink" x="0px" y="0px"
	 viewBox="0 0 131.27 86.98" style="enable-background:new 0 0 131.27 86.98;" xml:space="preserve">
<style type="text/css">
	.st0{fill:#F8A166;}
</style>
	<g>
	<path d="M55.92,78.66l-0.34-0.75l4.79-2.15l2.92,6.53l-0.86,0.38l-2.59-5.78L55.92,78.66z"/>
		<path d="M55.69,84.74c-0.04-0.14-0.06-0.32-0.04-0.59c0.02-0.47,0.12-0.95,0.17-1.24l0.41,0.03c-0.01,0.38-0.01,0.84,0.02,1.15
		c0.25-0.04,0.47,0.11,0.55,0.34c0.09,0.28-0.06,0.59-0.38,0.69C56.07,85.23,55.78,85.04,55.69,84.74z"/>
		<path d="M47.4,81.23l4.24-0.68l0.41-1.64l0.98-0.16l-2.02,7.61l-1.25,0.2l-4.29-6.6l1.03-0.17L47.4,81.23z M47.88,81.98l2.44,3.85
		l1.11-4.41L47.88,81.98z"/>
		<path d="M36.91,83.05l0.28-3.28c0.98-0.25,1.91-0.34,2.72-0.27c2.52,0.21,4.02,1.86,3.84,4.06c-0.18,2.15-1.89,3.55-4.56,3.32
		c-0.73-0.06-1.4-0.24-2.01-0.49l0.08-0.82c0.62,0.26,1.28,0.41,1.85,0.46c2.2,0.18,3.56-0.9,3.71-2.61c0.13-1.58-1-2.93-2.98-3.09
		c-0.55-0.04-1.18,0-1.85,0.17l-0.22,2.63L36.91,83.05z"/>
		<path d="M29.14,77.8l0.25-0.76l5.16,1.71l-2.25,6.79l-5.07-1.68l0.25-0.75l4.18,1.38l0.75-2.25l-4.01-1.33l0.24-0.73l4.01,1.33
		l0.76-2.31L29.14,77.8z"/>
		<path d="M17.65,78.52l3.82-6.06l0.69,0.43l0.92,7.01l0.04,0.29l0.02,0.01l3.02-4.79l0.75,0.47l-3.82,6.06l-0.69-0.43l-0.9-6.9
		c-0.02-0.13-0.04-0.29-0.05-0.42l-0.02-0.01L18.4,79L17.65,78.52z"/>
		<path d="M15.03,66.65c0.65,0.23,1.13,0.51,1.79,1.2c1.56,1.63,1.62,3.89,0.02,5.42c-1.6,1.53-3.82,1.33-5.38-0.29
		c-0.66-0.69-1-1.26-1.2-1.76l0.62-0.59c0.26,0.68,0.64,1.21,1.12,1.7c1.23,1.29,2.99,1.4,4.19,0.26c1.2-1.14,1.19-2.95-0.04-4.24
		c-0.51-0.54-0.97-0.87-1.72-1.13L15.03,66.65z"/>
		<path d="M10.28,60.04l0.68-0.41l2.78,4.66L7.6,67.96l-2.74-4.59l0.68-0.4l2.25,3.78l2.04-1.21l-2.16-3.63l0.66-0.39l2.16,3.62
		l2.09-1.25L10.28,60.04z"/>
		<path d="M3.77,47.68c2.19-0.44,3.82,0.8,4.34,3.44l0.49,2.46l-7.02,1.4l-0.49-2.46C0.57,49.92,1.59,48.12,3.77,47.68z M3.96,48.63
		c-1.72,0.36-2.49,1.75-2.1,3.75l0.31,1.55l5.49-1.09l-0.31-1.55C6.96,49.32,5.68,48.28,3.96,48.63z"/>
		<path d="M6.69,38.87l0.8,0.04l-0.25,5.43L0.08,44l0.25-5.34l0.79,0.04l-0.2,4.4l2.37,0.11l0.2-4.22l0.77,0.03l-0.19,4.22l2.43,0.11
		L6.69,38.87z"/>
		<path d="M6.97,25.31c1.51,0.6,2.11,1.99,1.45,3.64l-0.55,1.38l1.66,0.66L8.82,32.8l-6.66-2.65l1.27-3.19
		C4.09,25.31,5.49,24.71,6.97,25.31z M6.3,27.02c-0.62-0.24-1.2,0.04-1.48,0.74l-0.46,1.17l2.05,0.81l0.46-1.17
		C7.15,27.88,6.91,27.26,6.3,27.02z"/>
		<path d="M10.28,15.43l3.46,2.48c1.49,1.07,1.67,2.86,0.45,4.56c-1.19,1.67-2.94,2.06-4.43,0.99l-3.46-2.48l1.14-1.59l3.26,2.34
		c0.76,0.55,1.59,0.43,2.13-0.32c0.54-0.76,0.37-1.55-0.39-2.1l-3.26-2.33L10.28,15.43z"/>
		<path d="M21.65,11.91c0.81,0.96,0.48,2.26-0.94,3.45l-2.83,2.38l-4.6-5.48l2.81-2.37c1.27-1.07,2.48-1.14,3.22-0.25
		c0.46,0.55,0.52,1.19,0.3,1.75C20.35,11.15,21.1,11.26,21.65,11.91z M15.64,12.09l0.98,1.16l1.19-1c0.36-0.3,0.46-0.79,0.16-1.14
		c-0.3-0.36-0.78-0.33-1.22,0.04L15.64,12.09z M19.88,13.14c-0.33-0.4-0.86-0.3-1.21-0.01l-1.26,1.06l1.04,1.23l1.18-0.99
		C20.07,14.06,20.2,13.53,19.88,13.14z"/>
		<path d="M29.09,8.36l0.75,1.46l-4.93,2.52l-3.26-6.38l1.74-0.89l2.51,4.92L29.09,8.36z"/>
		<path d="M31.8,9.21l-2.15-6.83l1.86-0.59l2.15,6.83L31.8,9.21z"/>
		<path d="M42.03,6.76C41.49,7.15,40.9,7.42,40,7.53c-2.37,0.3-4.27-0.98-4.55-3.18c-0.28-2.19,1.21-3.86,3.61-4.17
		c1-0.13,1.7-0.02,2.15,0.12l0.23,1.79c-0.76-0.25-1.33-0.26-1.86-0.2c-1.38,0.18-2.13,1.1-2,2.18c0.14,1.07,1.1,1.83,2.48,1.66
		c0.55-0.07,1.07-0.23,1.75-0.73L42.03,6.76z"/>
		<path d="M44.49,7.24l0.37-7.15l1.95,0.1l-0.37,7.15L44.49,7.24z"/>
		<path d="M56.39,3.6l-2.35-0.55l-1.26,5.37l-1.9-0.45l1.26-5.37l-2.35-0.55l0.38-1.6l6.61,1.55L56.39,3.6z"/>
		<path d="M62.9,10.81l-0.69,1.43L56.98,9.7l3.13-6.45l5.15,2.5l-0.69,1.43l-3.39-1.65l-0.54,1.11l3.23,1.57l-0.64,1.31l-3.23-1.57
		l-0.57,1.17L62.9,10.81z M62.14,3.64l0.09-0.97l2.62,0.1l-0.13,1.3L62.14,3.64z"/>
</g>
	<path d="M45.7,21.14c1.54,0,2.89,0.14,4.06,0.41c1.17,0.28,2.05,0.52,2.63,0.74l-1.26,5.48c-0.62-0.29-1.34-0.53-2.17-0.71
	c-0.82-0.18-1.71-0.28-2.66-0.28c-1.06,0-1.96,0.16-2.69,0.47c-0.73,0.31-1.32,0.74-1.76,1.29c-0.44,0.55-0.75,1.22-0.93,2
	c-0.18,0.79-0.27,1.64-0.27,2.55v1.92h10.42v5.54H40.66v23.15h-6.64V32.99c0-3.69,0.97-6.59,2.91-8.69
	C38.86,22.19,41.79,21.14,45.7,21.14z"/>
	<path d="M68.31,65.06c-5.12,0-8.23-2.45-9.88-4.4c-1.05-1.23-1.85-2.62-2.44-4.12c-4.65,0.17-7.88-0.9-8.12-0.98l1.89-5.46
	c0.16,0.05,2.12,0.68,5.03,0.7c-0.25-4.52,0.97-9.14,3.18-12.36c3.19-4.64,8.2-6.32,13.42-4.48c2.32,0.82,5.2,3.05,5.67,6.65
	c0.35,2.69-0.62,6.85-7.25,11.35c-2.68,1.82-5.36,2.97-7.87,3.67c0.26,0.47,0.56,0.91,0.89,1.3c3.27,3.85,9,2.27,13.22,0.28
	l2.47,5.22C74.46,64.33,71.08,65.06,68.31,65.06z M67.24,38.99c-1.78,0-3.27,0.9-4.52,2.72c-1.57,2.29-2.31,5.38-2.21,8.31
	c1.93-0.55,3.98-1.44,6.05-2.85c4.71-3.2,4.84-5.27,4.77-5.83c-0.13-0.99-1.18-1.71-1.86-1.94C68.68,39.13,67.94,38.99,67.24,38.99z
	"/>
	<path d="M61.93,30.41c-0.74,0-1.47-0.04-2.21-0.11l0.6-5.75c4.38,0.46,8.97-0.99,12.56-3.98l3.69,4.44
	C72.39,28.5,67.15,30.41,61.93,30.41z"/>
	<rect x="97.41" y="35.01" width="5.78" height="28.71"/>
	<path d="M93.34,63.58h-0.22c-5.65,0-10.25-4.6-10.25-10.25V21.23h5.78v32.09c0,2.47,2.01,4.48,4.48,4.48h0.22V63.58z"/>
	<circle class="st0" cx="100.44" cy="25.15" r="3.92"/>
	<path d="M108.65,63.55v-5.78c4.64,0,8.42-3.78,8.42-8.42s-3.78-8.41-8.42-8.41v-5.78c7.83,0,14.19,6.37,14.19,14.19
	C122.84,57.18,116.47,63.55,108.65,63.55z"/>
	<path d="M131.25,63.55c-7.83,0-14.19-6.37-14.19-14.19c0-7.83,6.37-14.19,14.19-14.19v5.78c-4.64,0-8.42,3.77-8.42,8.41
	s3.78,8.42,8.42,8.42V63.55z"/>
</svg>