<svg class="m-auto" fill="#000000" width="15" xmlns="http://www.w3.org/2000/svg" xmlns:xlink="http://www.w3.org/1999/xlink" x="0px" y="0px" viewBox="0 0 83.3 83.3" style="enable-background:new 0 0 83.3 83.3;">
    <path d="M29.2,44.5c0,0.9,0.6,1.8,1.5,2c16,4.4,19.1,7.5,23.5,23.5c0.2,0.9,1.1,1.5,2,1.5s1.8-0.6,2-1.5c4.4-16,7.5-19.1,23.5-23.5
	c0.9-0.2,1.5-1.1,1.5-2s-0.6-1.8-1.5-2C65.8,38.1,62.7,35,58.3,19c-0.2-0.9-1.1-1.5-2-1.5s-1.8,0.6-2,1.5
	c-4.4,16-7.5,19.1-23.5,23.5C29.8,42.8,29.2,43.6,29.2,44.5z M56.2,26.6C59.8,36.7,64,41,74.2,44.5C64,48.1,59.8,52.3,56.2,62.4
	c-3.5-10.1-7.8-14.4-17.9-17.9C48.5,41,52.7,36.7,56.2,26.6z"></path>
    <path d="M9.2,19.7c9.8,2.7,11.5,4.4,14.2,14.2c0.2,0.9,1.1,1.5,2,1.5s1.8-0.6,2-1.5c2.7-9.8,4.4-11.5,14.2-14.2
	c0.9-0.2,1.5-1.1,1.5-2c0-0.9-0.6-1.8-1.5-2C31.8,13,30.1,11.3,27.4,1.5c-0.2-0.9-1.1-1.5-2-1.5s-1.8,0.6-2,1.5
	C20.7,11.3,19,13,9.2,15.7c-0.9,0.2-1.5,1.1-1.5,2C7.7,18.6,8.3,19.5,9.2,19.7z M25.4,8.7c1.9,4.6,4.4,7.1,9,9c-4.6,1.9-7.1,4.4-9,9
	c-1.9-4.6-4.4-7.1-9-9C21,15.8,23.4,13.3,25.4,8.7z"></path>
    <path d="M1.5,66.6c10.4,2.9,12.4,4.9,15.2,15.2c0.2,0.9,1.1,1.5,2,1.5s1.8-0.6,2-1.5c2.9-10.4,4.9-12.4,15.2-15.2
	c0.9-0.2,1.5-1.1,1.5-2s-0.6-1.8-1.5-2c-10.4-2.9-12.4-4.9-15.2-15.2c-0.2-0.9-1.1-1.5-2-1.5s-1.8,0.6-2,1.5
	c-2.9,10.4-4.9,12.4-15.2,15.2c-0.9,0.2-1.5,1.1-1.5,2S0.6,66.3,1.5,66.6z M18.8,54.6c2.1,5.2,4.8,7.9,10,10c-5.2,2.1-7.9,4.8-10,10
	c-2.1-5.2-4.8-7.9-10-10C13.9,62.5,16.6,59.8,18.8,54.6z"></path>
</svg>
