<svg version="1.1" id="svgpencil" xmlns="http://www.w3.org/2000/svg"
     xmlns:xlink="http://www.w3.org/1999/xlink" x="0px" y="0px"
     width="45"
     viewBox="0 0 128 128" style="enable-background:new 0 0 128 128;">
  <g>
    <path d="M113.1,11.7L113.1,11.7c-5.9-5.9-15.4-5.9-21.2,0c0,0-4.6,4.6-7.5,7.5c-0.5-0.2-1-0.3-1.6-0.5
		c-19-5.5-29.7,6.6-34.9,12.4c-0.6,0.7-1.3,1.4-1.8,1.9c-3.3-1.5-7-2.9-7.2-2.9c-1.6-0.6-3.3,0.2-3.8,1.8c-0.6,1.6,0.2,3.3,1.8,3.8
		c0,0,4.7,1.7,7.9,3.3c2.9,1.4,5.1-1.1,7.6-3.9c4.4-5,11.4-12.9,23.4-11.7L30.9,68.5c-8.1,8.1-13.4,18.7-15,30l-1,7.3l-2.7,2.7
		c-1.2,1.2-1.3,3.4,0,4.5c0.6,0.5,1.3,0.7,2,0.7c0.8,0,1.5-0.3,2.1-0.9l2.8-2.8l7.3-1c11.3-1.6,21.9-6.9,30-15l49.1-49.1
		c0.8-0.8,1.1-1.9,0.8-2.9c-0.1-0.5-0.3-1-0.5-1.6l7.4-7.4C119,27,119,17.5,113.1,11.7z M52.1,89.7C45,96.8,35.5,101.6,25.5,103
		l-4.3,0.6l0.6-4.3c1.4-10,6.2-19.4,13.3-26.6L82.8,25c10.3,3.6,15.6,10.9,17.1,16.8L52.1,89.7z"/>
    <path d="M111.7,112.3c-1.4-0.7-2.8-1.1-4.1-1.3c-4.9-0.5-8.3,2.8-11.4,5.8c-2.1,2-4.1,4-6,4.2
		c-2.8,0.3-5.9-3.5-8.8-7.2c-3.8-4.7-7.6-9.5-13.1-8.8c-2.7,0.3-5.1,3.3-11.3,11.8l-0.5,0.7c-1.8,2.4-4.6,3.9-7.6,3.9h-4.5
		c-1.7,0-3,1.3-3,3s1.3,3,3,3h4.5c4.9,0,9.6-2.4,12.5-6.3l0.5-0.7c2.5-3.3,6.1-8.3,7.6-9.4c2.1,0.1,4.9,3.5,7.4,6.6
		c3.8,4.7,8.1,10,14.1,9.4c4-0.4,6.9-3.3,9.6-5.8c2.3-2.2,4.5-4.3,6.6-4.1c0.6,0.1,1.3,0.3,2.1,0.7c1.5,0.7,3.3,0.1,4-1.4
		C113.8,114.8,113.2,113,111.7,112.3z"/>
    <circle cx="124.5" cy="124.4" r="3"/>
  </g>
</svg>