<svg xmlns="http://www.w3.org/2000/svg" xmlns:xlink="http://www.w3.org/1999/xlink" width="40.671" height="40.671" viewBox="0 0 40.671 40.671">
  <defs>
    <clipPath id="clip-path">
      <rect width="19" height="19" fill="#fff"/>
    </clipPath>
  </defs>
  <g transform="translate(-90.391 -275.09)">
    <g transform="translate(90.391 275.09)" fill="#56ba71" stroke="#fff" stroke-linejoin="round" stroke-width="2">
      <ellipse cx="20.335" cy="20.335" rx="20.335" ry="20.335" stroke="none"/>
      <ellipse cx="20.335" cy="20.335" rx="19.335" ry="19.335" fill="none"/>
    </g>
    <g transform="translate(102 285)">
      <g transform="translate(0 0)" clip-path="url(#clip-path)">
        <path d="M18.733.267a.917.917,0,0,0-1.294,0l-.793.794a2.939,2.939,0,0,1,1.293,1.293l.794-.794h0a.917.917,0,0,0,0-1.294M17.616,5.528l.181.181a.934.934,0,0,1,0,1.314l-3.7,3.7h0a.331.331,0,0,1-.468-.468l3.7-3.7a.272.272,0,0,0,0-.38l-.168-.168.234-.234h0a2.716,2.716,0,0,0,.221-.247ZM1.509,14.9,4.1,17.491,11.688,9.9,9.1,7.312ZM0,19l1.257-3.413,2.155,2.155ZM16.929,2.071a2.3,2.3,0,0,1,0,3.237L12.805,9.432h0a.459.459,0,0,1-.649,0L9.569,6.844a.459.459,0,0,1,0-.649l4.123-4.124a2.3,2.3,0,0,1,3.237,0Z" transform="translate(0 0)" fill="#fff" fill-rule="evenodd"/>
      </g>
    </g>
  </g>
</svg>
