<?xml version="1.0" encoding="utf-8"?>
<!-- Generator: Adobe Illustrator 27.8.0, SVG Export Plug-In . SVG Version: 6.00 Build 0)  -->
<svg version="1.1" id="Calque_1" xmlns="http://www.w3.org/2000/svg" xmlns:xlink="http://www.w3.org/1999/xlink" x="0px" y="0px"
	 viewBox="0 0 40 40" style="enable-background:new 0 0 40 40;" xml:space="preserve">
<path d="M32,8V6c0-3.3-2.7-6-6-6H14c-3.3,0-6,2.7-6,6v2h4V6c0-1.1,0.9-2,2-2h4v16h-6v4h16v-4h-6V4h4c1.1,0,2,0.9,2,2v2H32z"/>
<path d="M2,30h6c1.1,0,2,0.9,2,2v6c0,1.1-0.9,2-2,2H2c-1.1,0-2-0.9-2-2v-6C0,30.9,0.9,30,2,30z"/>
<path d="M32,30h6c1.1,0,2,0.9,2,2v6c0,1.1-0.9,2-2,2h-6c-1.1,0-2-0.9-2-2v-6C30,30.9,30.9,30,32,30z"/>
<path d="M17,30h6c1.1,0,2,0.9,2,2v6c0,1.1-0.9,2-2,2h-6c-1.1,0-2-0.9-2-2v-6C15,30.9,15.9,30,17,30z"/>
</svg>
