<svg version="1.1" xmlns="http://www.w3.org/2000/svg" xmlns:xlink="http://www.w3.org/1999/xlink" x="0px" y="0px"
	 viewBox="0 0 60 62" style="enable-background:new 0 0 60 62;" xml:space="preserve">
<path d="M42.8,39L31.3,6.3C30,2.5,26.5,0,22.5,0S15,2.5,13.7,6.3L0.2,47.1c-0.2,0.8-0.2,1.6,0.2,2.3s1,1.2,1.7,1.5
	c1.6,0.5,3.3-0.4,3.8-1.9l6.3-19h21.1l3.9,11c0.5,1.6,2.3,2.4,3.8,1.8S43.4,40.6,42.8,39L42.8,39z M14.2,24l5.2-15.8
	C19.9,6.9,21.1,6,22.5,6s2.7,0.9,3.1,2.3L31.2,24H14.2z"/>
<path d="M30,53.7c-0.1,0.9,0.2,1.8,0.9,2.4l2.9,2.9c1.9,1.9,4.5,3,7.2,3s5.3-1.1,7.2-3l10.9-10.9c0.6-0.6,0.9-1.5,0.9-2.4
	c-0.1-0.9-0.5-1.7-1.3-2.2c-1.2-0.8-2.9-0.6-4,0.5L43.9,54.9c-0.8,0.8-1.8,1.2-2.8,1.2s-2.1-0.4-2.8-1.2l-3-2.9
	C34.6,51.3,33.8,51,33,51c-0.5,0-1.1,0.2-1.6,0.5C30.6,52,30.1,52.8,30,53.7z"/>
</svg>
