<svg xmlns="http://www.w3.org/2000/svg" xmlns:xlink="http://www.w3.org/1999/xlink" width="40.671" height="40.671" viewBox="0 0 40.671 40.671">
  <defs>
    <clipPath id="clip-path">
      <rect width="20.785" height="23.041" transform="translate(0 0)" fill="#fff"/>
    </clipPath>
  </defs>
  <g transform="translate(-90.391 -275.089)">
    <g transform="translate(90.391 275.089)" fill="#db003f" stroke="#fff" stroke-linejoin="round" stroke-width="2">
      <ellipse cx="20.335" cy="20.335" rx="20.335" ry="20.335" stroke="none"/>
      <ellipse cx="20.335" cy="20.335" rx="19.335" ry="19.335" fill="none"/>
    </g>
    <g transform="translate(100.199 283.904)">
      <g transform="translate(0 -0.001)" clip-path="url(#clip-path)">
        <path d="M52.384,44.343a.581.581,0,0,0-.658.5l-1.051,7.877a.591.591,0,0,0,.114.433.584.584,0,0,0,.388.225.54.54,0,0,0,.078.006.587.587,0,0,0,.58-.508L52.887,45a.583.583,0,0,0-.115-.433A.589.589,0,0,0,52.384,44.343Z" transform="translate(-38.799 -33.95)" fill="#fff"/>
        <path d="M29.071,44.344a.589.589,0,0,0-.388.225.582.582,0,0,0-.114.433l1.055,7.877a.586.586,0,0,0,.579.508.533.533,0,0,0,.078-.006.585.585,0,0,0,.5-.658l-1.054-7.879a.582.582,0,0,0-.658-.5Z" transform="translate(-21.871 -33.951)" fill="#fff"/>
        <path d="M18.688,3.77H16.257v-.06A3.716,3.716,0,0,0,12.547,0H8.238a3.716,3.716,0,0,0-3.71,3.71v.061H2.1a2.089,2.089,0,0,0-.123,4.175L3.9,19.916A3.692,3.692,0,0,0,7.557,23.04h5.669a3.693,3.693,0,0,0,3.662-3.123L18.81,7.946a2.089,2.089,0,0,0-.123-4.175ZM5.7,3.709A2.542,2.542,0,0,1,8.238,1.17h4.309a2.542,2.542,0,0,1,2.539,2.539v.061H5.7ZM15.733,19.73a2.53,2.53,0,0,1-2.507,2.136H7.557A2.529,2.529,0,0,1,5.052,19.73L3.163,7.957H17.622ZM18.687,6.785H2.1a.923.923,0,0,1,0-1.844h16.59a.923.923,0,0,1,0,1.844" transform="translate(0 0.001)" fill="#fff"/>
      </g>
    </g>
  </g>
</svg>
