<svg xmlns="http://www.w3.org/2000/svg" width="82.865" height="82.865" viewBox="0 0 82.865 82.865">
  <path d="M3277.61,11208a41.433,41.433,0,1,0,41.432,41.433A41.435,41.435,0,0,0,3277.61,11208Zm15.333,58.323c-7.258.5-23.423.5-30.67,0-7.858-.539-8.773-4.386-8.832-16.891.059-12.53.984-16.352,8.832-16.891,7.247-.5,23.416-.5,30.67,0,7.862.539,8.773,4.386,8.835,16.891C3301.717,11261.962,3300.795,11265.784,3292.944,11266.323Zm-22.239-24.977,16.977,8.072-16.977,8.1Z" transform="translate(-3236.177 -11208)" />
</svg>
