<svg xmlns="http://www.w3.org/2000/svg" xmlns:xlink="http://www.w3.org/1999/xlink" width="100px" height="100px" viewBox="0 0 100 100" version="1.1">
<g id="surface1">
<path style=" stroke:none;fill-rule:nonzero;fill:rgb(100%,51.372549%,36.862745%);fill-opacity:1;" d="M 12.5 0 L 87.5 0 C 94.402344 0 100 5.597656 100 12.5 L 100 87.5 C 100 94.402344 94.402344 100 87.5 100 L 12.5 100 C 5.597656 100 0 94.402344 0 87.5 L 0 12.5 C 0 5.597656 5.597656 0 12.5 0 Z M 12.5 0 "/>
<path style=" stroke:none;fill-rule:nonzero;fill:rgb(100%,100%,100%);fill-opacity:1;" d="M 40.65625 11.144531 L 40.65625 40.65625 L 11.144531 40.65625 L 11.144531 59.34375 L 40.65625 59.34375 L 40.65625 88.855469 L 59.347656 88.855469 L 59.347656 59.34375 L 88.855469 59.34375 L 88.855469 40.65625 L 59.347656 40.65625 L 59.347656 11.144531 Z M 40.65625 11.144531 "/>
</g>
</svg>
