<svg xmlns="http://www.w3.org/2000/svg" xmlns:xlink="http://www.w3.org/1999/xlink" width="100px" height="100px" viewBox="0 0 100 100" version="1.1">
<g id="surface1">
<path style=" stroke:none;fill-rule:nonzero;fill:rgb(98.823529%,98.823529%,98.823529%);fill-opacity:1;" d="M 0.421875 50.421875 L 0.421875 0.421875 L 100.421875 0.421875 L 100.421875 100.421875 L 0.421875 100.421875 Z M 0.421875 50.421875 "/>
<path style=" stroke:none;fill-rule:nonzero;fill:rgb(63.529412%,64.705882%,65.098039%);fill-opacity:1;" d="M 0.421875 50.421875 L 0.421875 0.421875 L 100.421875 0.421875 L 100.421875 100.421875 L 0.421875 100.421875 Z M 60.773438 86.660156 C 64.136719 86.316406 69.941406 85.453125 70.617188 85.195312 L 71.054688 85.03125 L 70.972656 80.082031 C 70.925781 77.359375 70.824219 75.058594 70.742188 74.972656 C 70.660156 74.882812 69.152344 74.949219 67.394531 75.121094 C 59.636719 75.867188 52.023438 76.039062 49.347656 75.527344 C 44.539062 74.605469 42.234375 71.425781 42.148438 65.59375 L 42.121094 63.800781 L 56.902344 63.753906 L 71.679688 63.703125 L 71.796875 62.972656 C 72.097656 61.140625 72.269531 54.558594 72.101562 51.472656 C 71.738281 44.859375 70.46875 40.382812 68.035156 37.140625 C 65.679688 34 61.679688 31.941406 56.449219 31.171875 C 53.675781 30.765625 46.320312 30.878906 43.976562 31.367188 C 34.277344 33.386719 29.683594 39.457031 28.566406 51.730469 C 28.054688 57.332031 28.167969 64.078125 28.847656 68.648438 C 29.296875 71.652344 30.203125 74.863281 31.179688 76.929688 C 34.082031 83.050781 38.53125 85.957031 46.515625 86.941406 C 48.585938 87.195312 57.179688 87.027344 60.773438 86.660156 Z M 41.695312 55.382812 C 41.628906 55.210938 41.628906 53.871094 41.695312 52.40625 C 41.988281 45.683594 43.441406 42.804688 47.097656 41.679688 C 48.679688 41.191406 53.429688 41.214844 54.914062 41.714844 C 58.386719 42.886719 59.601562 45.601562 59.601562 52.164062 C 59.601562 54.285156 59.53125 55.300781 59.367188 55.460938 C 59.195312 55.636719 56.949219 55.695312 50.476562 55.695312 C 42.699219 55.695312 41.804688 55.664062 41.695312 55.382812 Z M 41.695312 55.382812 "/>
<path style=" stroke:none;fill-rule:nonzero;fill:rgb(75.294118%,82.352941%,23.921569%);fill-opacity:1;" d="M 0.421875 50.421875 L 0.421875 0.421875 L 100.421875 0.421875 L 100.421875 100.421875 L 0.421875 100.421875 Z M 61.652344 86.867188 C 65.226562 86.457031 70.539062 85.59375 71.011719 85.339844 C 71.367188 85.152344 71.375 84.929688 71.242188 79.941406 C 71.167969 77.082031 71.042969 74.679688 70.96875 74.605469 C 70.894531 74.53125 70.21875 74.546875 69.464844 74.640625 C 62.789062 75.484375 51.199219 75.785156 48.8125 75.179688 C 45.554688 74.351562 43.726562 72.570312 42.898438 69.421875 C 42.4375 67.664062 42.15625 64.507812 42.429688 64.175781 C 42.625 63.941406 44.941406 63.898438 57.261719 63.898438 C 70.042969 63.898438 71.878906 63.863281 71.976562 63.609375 C 72.039062 63.449219 72.199219 61.382812 72.328125 59.019531 C 72.515625 55.636719 72.519531 53.9375 72.332031 51.058594 C 71.96875 45.488281 71.285156 42.503906 69.628906 39.265625 C 67.222656 34.554688 62.871094 31.808594 56.3125 30.851562 C 53.742188 30.476562 47.457031 30.539062 44.855469 30.964844 C 34.875 32.609375 29.898438 38.441406 28.464844 50.167969 C 27.792969 55.691406 27.875 63.808594 28.660156 69.074219 C 29.933594 77.625 33.597656 83.136719 39.621094 85.5625 C 41.367188 86.265625 42.972656 86.699219 45.085938 87.042969 C 47.40625 87.417969 57.773438 87.308594 61.652344 86.867188 Z M 41.894531 54.992188 C 41.6875 54.453125 42.210938 48.765625 42.613281 47.195312 C 43.746094 42.765625 45.785156 41.511719 51.613281 41.664062 C 54.355469 41.734375 54.484375 41.753906 55.761719 42.386719 C 58.363281 43.667969 59.222656 45.9375 59.277344 51.691406 L 59.308594 55.207031 L 50.664062 55.257812 C 42.835938 55.304688 42.003906 55.28125 41.894531 54.992188 Z M 41.894531 54.992188 "/>
<path style=" stroke:none;fill-rule:nonzero;fill:rgb(73.72549%,80.392157%,27.058824%);fill-opacity:1;" d="M 0.421875 50.421875 L 0.421875 0.421875 L 100.421875 0.421875 L 100.421875 100.421875 L 0.421875 100.421875 Z M 61.652344 86.867188 C 65.226562 86.457031 70.539062 85.59375 71.011719 85.339844 C 71.367188 85.152344 71.375 84.929688 71.242188 79.941406 C 71.167969 77.082031 71.042969 74.679688 70.96875 74.605469 C 70.894531 74.53125 70.21875 74.546875 69.464844 74.640625 C 62.789062 75.484375 51.199219 75.785156 48.8125 75.179688 C 45.554688 74.351562 43.726562 72.570312 42.898438 69.421875 C 42.4375 67.664062 42.15625 64.507812 42.429688 64.175781 C 42.625 63.941406 44.941406 63.898438 57.261719 63.898438 C 70.042969 63.898438 71.878906 63.863281 71.976562 63.609375 C 72.039062 63.449219 72.199219 61.382812 72.328125 59.019531 C 72.515625 55.636719 72.519531 53.9375 72.332031 51.058594 C 71.96875 45.488281 71.285156 42.503906 69.628906 39.265625 C 67.222656 34.554688 62.871094 31.808594 56.3125 30.851562 C 53.742188 30.476562 47.457031 30.539062 44.855469 30.964844 C 34.875 32.609375 29.898438 38.441406 28.464844 50.167969 C 27.792969 55.691406 27.875 63.808594 28.660156 69.074219 C 29.933594 77.625 33.597656 83.136719 39.621094 85.5625 C 41.367188 86.265625 42.972656 86.699219 45.085938 87.042969 C 47.40625 87.417969 57.773438 87.308594 61.652344 86.867188 Z M 41.894531 54.992188 C 41.6875 54.453125 42.210938 48.765625 42.613281 47.195312 C 43.746094 42.765625 45.785156 41.511719 51.613281 41.664062 C 54.355469 41.734375 54.484375 41.753906 55.761719 42.386719 C 58.363281 43.667969 59.222656 45.9375 59.277344 51.691406 L 59.308594 55.207031 L 50.664062 55.257812 C 42.835938 55.304688 42.003906 55.28125 41.894531 54.992188 Z M 63.402344 23.203125 C 63.96875 22.75 63.972656 22.730469 63.648438 22.234375 C 63.375 21.820312 63.3125 21.25 63.3125 19.179688 C 63.3125 17.585938 63.398438 16.492188 63.539062 16.265625 C 63.664062 16.066406 63.710938 15.761719 63.644531 15.585938 C 63.492188 15.1875 62.753906 15.167969 62.605469 15.558594 C 62.503906 15.816406 60.980469 15.851562 50.519531 15.851562 C 40.0625 15.851562 38.539062 15.816406 38.4375 15.558594 C 38.371094 15.382812 38.074219 15.265625 37.679688 15.265625 C 36.566406 15.265625 36.359375 15.890625 36.359375 19.261719 C 36.359375 22.25 36.53125 23.019531 37.289062 23.449219 C 37.503906 23.574219 42.25 23.648438 50.226562 23.65625 L 62.824219 23.667969 Z M 37.371094 22.949219 C 37.46875 22.460938 37.921875 22.390625 37.921875 22.867188 C 37.921875 23.109375 37.796875 23.273438 37.617188 23.273438 C 37.433594 23.273438 37.335938 23.140625 37.371094 22.949219 Z M 37.964844 22.222656 L 37.324219 21.5625 L 37.378906 18.953125 C 37.433594 16.488281 37.457031 16.339844 37.824219 16.339844 C 38.195312 16.339844 38.21875 16.488281 38.269531 19.125 L 38.324219 21.90625 L 62.753906 21.90625 L 62.691406 22.347656 L 62.628906 22.785156 L 50.617188 22.835938 L 38.605469 22.882812 Z M 37.964844 22.222656 "/>
<path style=" stroke:none;fill-rule:nonzero;fill:rgb(74.509804%,82.352941%,23.921569%);fill-opacity:1;" d="M 0.421875 50.421875 L 0.421875 0.421875 L 100.421875 0.421875 L 100.421875 100.421875 L 0.421875 100.421875 Z M 61.652344 86.867188 C 65.226562 86.457031 70.539062 85.59375 71.011719 85.339844 C 71.367188 85.152344 71.375 84.929688 71.242188 79.941406 C 71.167969 77.082031 71.042969 74.679688 70.96875 74.605469 C 70.894531 74.53125 70.21875 74.546875 69.464844 74.640625 C 62.789062 75.484375 51.199219 75.785156 48.8125 75.179688 C 45.554688 74.351562 43.726562 72.570312 42.898438 69.421875 C 42.4375 67.664062 42.15625 64.507812 42.429688 64.175781 C 42.625 63.941406 44.941406 63.898438 57.261719 63.898438 C 70.042969 63.898438 71.878906 63.863281 71.976562 63.609375 C 72.039062 63.449219 72.199219 61.382812 72.328125 59.019531 C 72.515625 55.636719 72.519531 53.9375 72.332031 51.058594 C 71.96875 45.488281 71.285156 42.503906 69.628906 39.265625 C 67.222656 34.554688 62.871094 31.808594 56.3125 30.851562 C 53.742188 30.476562 47.457031 30.539062 44.855469 30.964844 C 34.875 32.609375 29.898438 38.441406 28.464844 50.167969 C 27.792969 55.691406 27.875 63.808594 28.660156 69.074219 C 29.933594 77.625 33.597656 83.136719 39.621094 85.5625 C 41.367188 86.265625 42.972656 86.699219 45.085938 87.042969 C 47.40625 87.417969 57.773438 87.308594 61.652344 86.867188 Z M 41.894531 54.992188 C 41.6875 54.453125 42.210938 48.765625 42.613281 47.195312 C 43.746094 42.765625 45.785156 41.511719 51.613281 41.664062 C 54.355469 41.734375 54.484375 41.753906 55.761719 42.386719 C 58.363281 43.667969 59.222656 45.9375 59.277344 51.691406 L 59.308594 55.207031 L 50.664062 55.257812 C 42.835938 55.304688 42.003906 55.28125 41.894531 54.992188 Z M 64.441406 19.578125 C 64.480469 16.046875 64.4375 14.964844 64.246094 14.84375 C 64.109375 14.757812 57.753906 14.6875 50.121094 14.683594 C 39.585938 14.683594 36.1875 14.738281 36.007812 14.914062 C 35.675781 15.25 35.675781 23.683594 36.011719 24.019531 C 36.191406 24.199219 39.535156 24.242188 50.316406 24.203125 L 64.386719 24.152344 Z M 36.6875 23.730469 C 36.613281 23.660156 36.554688 23.398438 36.554688 23.152344 L 36.554688 22.703125 L 37.007812 23.136719 C 37.257812 23.375 37.429688 23.632812 37.386719 23.714844 C 37.296875 23.894531 36.863281 23.90625 36.6875 23.730469 Z M 63.054688 23.734375 C 62.976562 23.65625 63.152344 23.398438 63.445312 23.167969 C 63.964844 22.75 63.972656 22.730469 63.648438 22.234375 C 63.375 21.820312 63.3125 21.246094 63.3125 19.121094 C 63.3125 17.691406 63.394531 16.433594 63.492188 16.332031 C 63.585938 16.230469 63.707031 15.96875 63.753906 15.753906 C 63.800781 15.539062 63.84375 16.15625 63.847656 17.121094 C 63.855469 18.089844 63.921875 19.671875 63.996094 20.640625 C 64.070312 21.609375 64.050781 22.707031 63.953125 23.082031 C 63.785156 23.730469 63.363281 24.039062 63.054688 23.734375 Z M 37.964844 22.222656 L 37.324219 21.5625 L 37.378906 18.953125 C 37.433594 16.488281 37.457031 16.339844 37.824219 16.339844 C 38.195312 16.339844 38.21875 16.488281 38.269531 19.125 L 38.324219 21.90625 L 62.753906 21.90625 L 62.691406 22.347656 L 62.628906 22.785156 L 50.617188 22.835938 L 38.605469 22.882812 Z M 36.554688 15.570312 C 36.554688 15.40625 36.644531 15.265625 36.75 15.265625 C 36.859375 15.265625 36.945312 15.351562 36.945312 15.453125 C 36.945312 15.550781 36.859375 15.6875 36.75 15.753906 C 36.644531 15.820312 36.554688 15.738281 36.554688 15.570312 Z M 38.4375 15.558594 C 38.339844 15.300781 39.761719 15.265625 50.519531 15.265625 C 61.28125 15.265625 62.703125 15.300781 62.605469 15.558594 C 62.503906 15.816406 60.980469 15.851562 50.519531 15.851562 C 40.0625 15.851562 38.539062 15.816406 38.4375 15.558594 Z M 38.4375 15.558594 "/>
<path style=" stroke:none;fill-rule:nonzero;fill:rgb(34.901961%,36.470588%,36.862745%);fill-opacity:1;" d="M 0.421875 50.421875 L 0.421875 0.421875 L 100.421875 0.421875 L 100.421875 100.421875 L 0.421875 100.421875 Z M 61.652344 86.867188 C 65.226562 86.457031 70.539062 85.59375 71.011719 85.339844 C 71.367188 85.152344 71.375 84.929688 71.242188 79.941406 C 71.167969 77.082031 71.042969 74.679688 70.96875 74.605469 C 70.894531 74.53125 70.21875 74.546875 69.464844 74.640625 C 62.789062 75.484375 51.199219 75.785156 48.8125 75.179688 C 45.554688 74.351562 43.726562 72.570312 42.898438 69.421875 C 42.4375 67.664062 42.15625 64.507812 42.429688 64.175781 C 42.625 63.941406 44.941406 63.898438 57.261719 63.898438 C 70.042969 63.898438 71.878906 63.863281 71.976562 63.609375 C 72.039062 63.449219 72.199219 61.382812 72.328125 59.019531 C 72.515625 55.636719 72.519531 53.9375 72.332031 51.058594 C 71.96875 45.488281 71.285156 42.503906 69.628906 39.265625 C 67.222656 34.554688 62.871094 31.808594 56.3125 30.851562 C 53.742188 30.476562 47.457031 30.539062 44.855469 30.964844 C 34.875 32.609375 29.898438 38.441406 28.464844 50.167969 C 27.792969 55.691406 27.875 63.808594 28.660156 69.074219 C 29.933594 77.625 33.597656 83.136719 39.621094 85.5625 C 41.367188 86.265625 42.972656 86.699219 45.085938 87.042969 C 47.40625 87.417969 57.773438 87.308594 61.652344 86.867188 Z M 41.894531 54.992188 C 41.6875 54.453125 42.210938 48.765625 42.613281 47.195312 C 43.746094 42.765625 45.785156 41.511719 51.613281 41.664062 C 54.355469 41.734375 54.484375 41.753906 55.761719 42.386719 C 58.363281 43.667969 59.222656 45.9375 59.277344 51.691406 L 59.308594 55.207031 L 50.664062 55.257812 C 42.835938 55.304688 42.003906 55.28125 41.894531 54.992188 Z M 64.441406 19.578125 C 64.480469 16.046875 64.4375 14.964844 64.246094 14.84375 C 64.109375 14.757812 57.753906 14.6875 50.121094 14.683594 C 39.585938 14.683594 36.1875 14.738281 36.007812 14.914062 C 35.675781 15.25 35.675781 23.683594 36.011719 24.019531 C 36.191406 24.199219 39.535156 24.242188 50.316406 24.203125 L 64.386719 24.152344 Z M 64.441406 19.578125 "/>
<path style=" stroke:none;fill-rule:nonzero;fill:rgb(32.941176%,36.078431%,18.431373%);fill-opacity:1;" d="M 0.421875 50.421875 L 0.421875 0.421875 L 100.421875 0.421875 L 100.421875 100.421875 L 0.421875 100.421875 Z M 55.792969 87.527344 C 61.464844 87.242188 70.101562 86.128906 71.195312 85.542969 C 71.554688 85.351562 71.566406 85.117188 71.476562 79.984375 C 71.421875 76.859375 71.304688 74.546875 71.191406 74.433594 C 71.0625 74.304688 70.398438 74.308594 69.257812 74.433594 C 63.054688 75.121094 54.152344 75.507812 51.128906 75.222656 C 46.757812 74.808594 44.679688 73.53125 43.503906 70.539062 C 43.046875 69.367188 42.648438 67.230469 42.59375 65.605469 L 42.546875 64.28125 L 57.210938 64.238281 C 65.277344 64.214844 71.945312 64.121094 72.03125 64.035156 C 72.523438 63.546875 72.855469 53.449219 72.503906 49.671875 C 71.859375 42.734375 70.3125 38.660156 67.117188 35.480469 C 65.308594 33.683594 64.007812 32.855469 61.503906 31.914062 C 58.808594 30.902344 56.496094 30.507812 52.46875 30.371094 C 34.773438 29.769531 27.761719 37.707031 27.769531 58.332031 C 27.773438 67.296875 28.695312 72.976562 30.882812 77.480469 C 34.234375 84.386719 40.246094 87.511719 50.519531 87.699219 C 51.273438 87.710938 53.644531 87.632812 55.792969 87.527344 Z M 42.136719 54.9375 C 41.960938 54.65625 42.390625 49.285156 42.699219 47.832031 C 43.355469 44.769531 44.675781 43.011719 46.855469 42.296875 C 48.4375 41.777344 53.5625 41.761719 55.019531 42.269531 C 57.019531 42.96875 58.144531 44.472656 58.71875 47.203125 C 59.046875 48.761719 59.335938 53.820312 59.140625 54.59375 L 59.011719 55.109375 L 50.625 55.109375 C 45.886719 55.109375 42.195312 55.035156 42.136719 54.9375 Z M 64.511719 19.464844 L 64.519531 14.777344 L 50.148438 14.730469 L 35.773438 14.679688 L 35.773438 24.253906 L 50.140625 24.203125 L 64.503906 24.152344 Z M 64.511719 19.464844 "/>
<path style=" stroke:none;fill-rule:nonzero;fill:rgb(18.431373%,20.784314%,21.568627%);fill-opacity:1;" d="M 0.421875 50.421875 L 0.421875 0.421875 L 100.421875 0.421875 L 100.421875 100.421875 L 0.421875 100.421875 Z M 55.792969 87.527344 C 61.464844 87.242188 70.101562 86.128906 71.195312 85.542969 C 71.554688 85.351562 71.566406 85.117188 71.476562 79.984375 C 71.421875 76.859375 71.304688 74.546875 71.191406 74.433594 C 71.0625 74.304688 70.398438 74.308594 69.257812 74.433594 C 63.054688 75.121094 54.152344 75.507812 51.128906 75.222656 C 46.757812 74.808594 44.679688 73.53125 43.503906 70.539062 C 43.046875 69.367188 42.648438 67.230469 42.59375 65.605469 L 42.546875 64.28125 L 57.210938 64.238281 C 65.277344 64.214844 71.945312 64.121094 72.03125 64.035156 C 72.292969 63.777344 72.460938 61.6875 72.605469 56.867188 C 73.0625 41.886719 69.570312 34.496094 60.675781 31.613281 C 58.171875 30.800781 56.027344 30.476562 52.363281 30.359375 C 34.75 29.804688 27.761719 37.75 27.769531 58.332031 C 27.773438 67.296875 28.695312 72.976562 30.882812 77.480469 C 34.234375 84.386719 40.246094 87.511719 50.519531 87.699219 C 51.273438 87.710938 53.644531 87.632812 55.792969 87.527344 Z M 42.136719 54.9375 C 41.960938 54.65625 42.390625 49.285156 42.699219 47.832031 C 43.355469 44.769531 44.675781 43.011719 46.855469 42.296875 C 48.4375 41.777344 53.5625 41.761719 55.019531 42.269531 C 57.019531 42.96875 58.144531 44.472656 58.71875 47.203125 C 59.046875 48.761719 59.335938 53.820312 59.140625 54.59375 L 59.011719 55.109375 L 50.625 55.109375 C 45.886719 55.109375 42.195312 55.035156 42.136719 54.9375 Z M 64.5 24.441406 C 64.855469 24.25 64.875 23.984375 64.875 19.464844 C 64.875 14.917969 64.859375 14.6875 64.492188 14.488281 C 64.230469 14.347656 59.621094 14.300781 50.023438 14.335938 C 36.546875 14.386719 35.925781 14.40625 35.671875 14.753906 C 35.46875 15.03125 35.402344 16.140625 35.390625 19.566406 C 35.378906 23.394531 35.421875 24.066406 35.6875 24.332031 C 35.964844 24.609375 37.460938 24.640625 50.058594 24.640625 C 59.378906 24.640625 64.25 24.574219 64.5 24.441406 Z M 64.5 24.441406 "/>
</g>
</svg>
