<svg version="1.0" xmlns="http://www.w3.org/2000/svg"
 width="512.000000pt" height="512.000000pt" viewBox="0 0 512.000000 512.000000"
 preserveAspectRatio="xMidYMid meet">

<g transform="translate(0.000000,512.000000) scale(0.100000,-0.100000)"
fill="#f93262" stroke="none">
<path d="M2375 4913 c-118 -10 -263 -37 -301 -55 -62 -28 -110 -89 -125 -153
-10 -43 -9 -61 6 -110 33 -116 121 -162 288 -151 400 25 571 17 790 -39 668
-170 1205 -707 1372 -1372 280 -1119 -473 -2221 -1615 -2363 -46 -5 -150 -10
-230 -10 -291 1 -534 55 -798 181 -712 337 -1145 1084 -1083 1864 7 84 9 165
5 181 -25 103 -95 165 -202 180 -73 9 -151 -27 -191 -92 -62 -96 -66 -123 -66
-404 0 -283 10 -371 70 -605 212 -829 877 -1489 1705 -1694 175 -43 299 -60
490 -67 1095 -42 2085 703 2355 1771 56 219 69 333 69 585 1 254 -13 365 -69
586 -168 655 -611 1211 -1206 1514 -275 140 -544 219 -858 250 -96 9 -314 11
-406 3z"/>
<path d="M83 4669 c-66 -19 -100 -102 -67 -163 18 -33 260 -247 1241 -1099
413 -359 483 -426 551 -527 71 -106 111 -248 112 -392 1 -192 98 -373 262
-488 39 -27 218 -124 398 -215 374 -188 386 -191 446 -131 l34 34 0 594 c0
659 1 651 -67 786 -45 90 -141 196 -231 255 -79 52 -2585 1342 -2622 1349 -14
3 -39 2 -57 -3z"/>
</g>
</svg>
