<svg xmlns="http://www.w3.org/2000/svg" xmlns:xlink="http://www.w3.org/1999/xlink" width="100px" height="100px" viewBox="0 0 100 100" version="1.1">
<g id="surface1">
<path style=" stroke:none;fill-rule:nonzero;fill:rgb(28.235294%,35.294118%,58.823529%);fill-opacity:1;" d="M 94.480469 100 C 97.527344 100 100 97.527344 100 94.480469 L 100 5.519531 C 100 2.46875 97.527344 0 94.480469 0 L 5.519531 0 C 2.46875 0 0 2.46875 0 5.519531 L 0 94.480469 C 0 97.527344 2.46875 100 5.519531 100 Z M 94.480469 100 "/>
<path style=" stroke:none;fill-rule:nonzero;fill:rgb(100%,100%,100%);fill-opacity:1;" d="M 69 100 L 69 61.273438 L 81.996094 61.273438 L 83.941406 46.183594 L 68.996094 46.183594 L 68.996094 36.546875 C 68.996094 32.175781 70.210938 29.199219 76.476562 29.199219 L 84.46875 29.195312 L 84.46875 15.699219 C 83.085938 15.515625 78.34375 15.101562 72.824219 15.101562 C 61.300781 15.101562 53.414062 22.136719 53.414062 35.054688 L 53.414062 46.183594 L 40.382812 46.183594 L 40.382812 61.273438 L 53.414062 61.273438 L 53.414062 100 Z M 69 100 "/>
</g>
</svg>
