<svg xmlns="http://www.w3.org/2000/svg" xmlns:xlink="http://www.w3.org/1999/xlink" width="100px" height="100px" viewBox="0 0 100 100" version="1.1">
<defs>
<radialGradient id="radial0" gradientUnits="userSpaceOnUse" cx="217.76" cy="3290.99" fx="217.76" fy="3290.99" r="4271.92" gradientTransform="matrix(0.0297203,0,0,0.0297203,0,0)">
<stop offset="0.09" style="stop-color:rgb(98.039216%,56.078431%,12.941176%);stop-opacity:1;"/>
<stop offset="0.78" style="stop-color:rgb(84.705882%,17.647059%,49.411765%);stop-opacity:1;"/>
</radialGradient>
<radialGradient id="radial1" gradientUnits="userSpaceOnUse" cx="2330.61" cy="3182.95" fx="2330.61" fy="3182.95" r="3759.33" gradientTransform="matrix(0.0297203,0,0,0.0297203,0,0)">
<stop offset="0.64" style="stop-color:rgb(54.901961%,22.745098%,66.666667%);stop-opacity:0;"/>
<stop offset="1" style="stop-color:rgb(54.901961%,22.745098%,66.666667%);stop-opacity:1;"/>
</radialGradient>
</defs>
<g id="surface1">
<path style=" stroke:none;fill-rule:nonzero;fill:url(#radial0);" d="M 25.355469 99.644531 C 19.410156 99.375 16.179688 98.386719 14.03125 97.546875 C 11.183594 96.441406 9.152344 95.121094 7.015625 92.984375 C 4.878906 90.851562 3.558594 88.820312 2.453125 85.976562 C 1.617188 83.828125 0.628906 80.59375 0.355469 74.648438 C 0.0585938 68.21875 0 66.292969 0 50.003906 C 0 33.71875 0.0664062 31.792969 0.355469 25.355469 C 0.625 19.410156 1.621094 16.1875 2.453125 14.03125 C 3.558594 11.183594 4.882812 9.152344 7.015625 7.015625 C 9.148438 4.878906 11.179688 3.554688 14.027344 2.453125 C 16.175781 1.613281 19.40625 0.625 25.355469 0.355469 C 31.785156 0.0585938 33.71875 0 50 0 C 66.285156 0 68.210938 0.0664062 74.644531 0.355469 C 80.59375 0.625 83.816406 1.621094 85.972656 2.453125 C 88.820312 3.554688 90.847656 4.878906 92.984375 7.015625 C 95.121094 9.148438 96.441406 11.179688 97.546875 14.027344 C 98.386719 16.175781 99.375 19.40625 99.644531 25.355469 C 99.941406 31.789062 100 33.714844 100 50 C 100 66.28125 99.941406 68.214844 99.644531 74.648438 C 99.375 80.59375 98.378906 83.828125 97.546875 85.976562 C 96.441406 88.820312 95.121094 90.851562 92.984375 92.984375 C 90.851562 95.121094 88.820312 96.441406 85.972656 97.546875 C 83.824219 98.386719 80.59375 99.375 74.644531 99.644531 C 68.21875 99.941406 66.285156 100 50 100 C 33.71875 100 31.785156 99.945312 25.355469 99.644531 "/>
<path style=" stroke:none;fill-rule:nonzero;fill:url(#radial1);" d="M 25.355469 99.644531 C 19.410156 99.375 16.179688 98.386719 14.03125 97.546875 C 11.183594 96.441406 9.152344 95.121094 7.015625 92.984375 C 4.878906 90.851562 3.558594 88.820312 2.453125 85.976562 C 1.617188 83.828125 0.628906 80.59375 0.355469 74.648438 C 0.0585938 68.21875 0 66.292969 0 50.003906 C 0 33.71875 0.0664062 31.792969 0.355469 25.355469 C 0.625 19.410156 1.621094 16.1875 2.453125 14.03125 C 3.558594 11.183594 4.882812 9.152344 7.015625 7.015625 C 9.148438 4.878906 11.179688 3.554688 14.027344 2.453125 C 16.175781 1.613281 19.40625 0.625 25.355469 0.355469 C 31.785156 0.0585938 33.71875 0 50 0 C 66.285156 0 68.210938 0.0664062 74.644531 0.355469 C 80.59375 0.625 83.816406 1.621094 85.972656 2.453125 C 88.820312 3.554688 90.847656 4.878906 92.984375 7.015625 C 95.121094 9.148438 96.441406 11.179688 97.546875 14.027344 C 98.386719 16.175781 99.375 19.40625 99.644531 25.355469 C 99.941406 31.789062 100 33.714844 100 50 C 100 66.28125 99.941406 68.214844 99.644531 74.648438 C 99.375 80.59375 98.378906 83.828125 97.546875 85.976562 C 96.441406 88.820312 95.121094 90.851562 92.984375 92.984375 C 90.851562 95.121094 88.820312 96.441406 85.972656 97.546875 C 83.824219 98.386719 80.59375 99.375 74.644531 99.644531 C 68.21875 99.941406 66.285156 100 50 100 C 33.71875 100 31.785156 99.945312 25.355469 99.644531 "/>
<path style=" stroke:none;fill-rule:nonzero;fill:rgb(100%,100%,100%);fill-opacity:1;" d="M 37.722656 50.214844 C 37.722656 43.375 43.265625 37.828125 50.105469 37.828125 C 56.941406 37.828125 62.488281 43.375 62.488281 50.214844 C 62.488281 57.050781 56.941406 62.597656 50.105469 62.597656 C 43.265625 62.597656 37.722656 57.050781 37.722656 50.214844 M 31.027344 50.214844 C 31.027344 60.75 39.566406 69.289062 50.105469 69.289062 C 60.640625 69.289062 69.179688 60.75 69.179688 50.214844 C 69.179688 39.675781 60.640625 31.136719 50.105469 31.136719 C 39.566406 31.136719 31.027344 39.675781 31.027344 50.214844 M 65.476562 30.378906 C 65.476562 32.84375 67.472656 34.839844 69.933594 34.839844 C 72.394531 34.839844 74.394531 32.847656 74.394531 30.382812 C 74.394531 27.921875 72.398438 25.925781 69.9375 25.925781 C 67.476562 25.925781 65.480469 27.917969 65.476562 30.378906 M 35.09375 80.453125 C 31.472656 80.289062 29.503906 79.683594 28.195312 79.175781 C 26.460938 78.5 25.222656 77.695312 23.921875 76.394531 C 22.621094 75.097656 21.816406 73.859375 21.144531 72.125 C 20.632812 70.816406 20.03125 68.847656 19.867188 65.226562 C 19.6875 61.3125 19.648438 60.132812 19.648438 50.214844 C 19.648438 40.292969 19.6875 39.121094 19.867188 35.199219 C 20.03125 31.578125 20.640625 29.613281 21.144531 28.300781 C 21.820312 26.566406 22.625 25.328125 23.921875 24.027344 C 25.222656 22.726562 26.457031 21.921875 28.195312 21.25 C 29.503906 20.738281 31.472656 20.136719 35.09375 19.972656 C 39.011719 19.792969 40.1875 19.753906 50.105469 19.753906 C 60.019531 19.753906 61.199219 19.792969 65.117188 19.972656 C 68.738281 20.136719 70.703125 20.746094 72.015625 21.25 C 73.75 21.921875 74.988281 22.730469 76.289062 24.027344 C 77.589844 25.328125 78.394531 26.566406 79.066406 28.300781 C 79.578125 29.609375 80.179688 31.578125 80.347656 35.199219 C 80.527344 39.121094 80.5625 40.292969 80.5625 50.214844 C 80.5625 60.136719 80.527344 61.308594 80.347656 65.226562 C 80.179688 68.847656 79.574219 70.816406 79.066406 72.125 C 78.394531 73.859375 77.589844 75.097656 76.289062 76.398438 C 74.988281 77.695312 73.75 78.5 72.015625 79.175781 C 70.707031 79.6875 68.738281 80.289062 65.117188 80.453125 C 61.203125 80.632812 60.023438 80.667969 50.105469 80.667969 C 40.183594 80.667969 39.011719 80.632812 35.09375 80.453125 M 34.789062 13.289062 C 30.832031 13.46875 28.128906 14.09375 25.769531 15.011719 C 23.328125 15.960938 21.257812 17.234375 19.1875 19.296875 C 17.121094 21.363281 15.851562 23.433594 14.902344 25.878906 C 13.984375 28.242188 13.359375 30.941406 13.179688 34.898438 C 12.996094 38.859375 12.953125 40.125 12.953125 50.214844 C 12.953125 60.300781 12.996094 61.566406 13.179688 65.53125 C 13.359375 69.484375 13.984375 72.183594 14.902344 74.546875 C 15.851562 76.988281 17.121094 79.0625 19.1875 81.128906 C 21.257812 83.191406 23.324219 84.460938 25.769531 85.414062 C 28.132812 86.332031 30.832031 86.957031 34.789062 87.136719 C 38.75 87.320312 40.015625 87.363281 50.105469 87.363281 C 60.191406 87.363281 61.460938 87.320312 65.421875 87.136719 C 69.375 86.957031 72.078125 86.332031 74.4375 85.414062 C 76.878906 84.460938 78.949219 83.191406 81.019531 81.128906 C 83.085938 79.0625 84.351562 76.988281 85.304688 74.546875 C 86.222656 72.183594 86.851562 69.484375 87.03125 65.53125 C 87.210938 61.566406 87.25 60.300781 87.25 50.214844 C 87.25 40.125 87.210938 38.859375 87.03125 34.898438 C 86.847656 30.941406 86.222656 28.238281 85.304688 25.878906 C 84.351562 23.4375 83.082031 21.367188 81.019531 19.296875 C 78.953125 17.230469 76.878906 15.960938 74.441406 15.011719 C 72.078125 14.09375 69.375 13.464844 65.421875 13.289062 C 61.460938 13.105469 60.195312 13.0625 50.109375 13.0625 C 40.019531 13.0625 38.753906 13.105469 34.789062 13.289062 "/>
</g>
</svg>
