<svg xmlns="http://www.w3.org/2000/svg" xmlns:xlink="http://www.w3.org/1999/xlink" width="100px" height="100px" viewBox="0 0 100 100" version="1.1">
<g id="surface1">
<path style=" stroke:none;fill-rule:nonzero;fill:rgb(0%,40%,60%);fill-opacity:1;" d="M 0 7.335938 C 0 3.398438 3.308594 0.199219 7.390625 0.199219 L 92.609375 0.199219 C 96.691406 0.199219 100 3.398438 100 7.335938 L 100 92.667969 C 100 96.605469 96.691406 99.800781 92.609375 99.800781 L 7.390625 99.800781 C 3.3125 99.800781 0 96.605469 0 92.667969 L 0 7.332031 Z M 0 7.335938 "/>
<path style=" stroke:none;fill-rule:nonzero;fill:rgb(100%,100%,100%);fill-opacity:1;" d="M 30.390625 83.550781 L 30.390625 38.710938 L 15.425781 38.710938 L 15.425781 83.550781 Z M 22.910156 32.589844 C 28.128906 32.589844 31.375 29.148438 31.375 24.84375 C 31.277344 20.441406 28.128906 17.097656 23.007812 17.097656 C 17.886719 17.097656 14.542969 20.441406 14.542969 24.84375 C 14.542969 29.148438 17.789062 32.589844 22.8125 32.589844 Z M 38.671875 83.550781 L 53.632812 83.550781 L 53.632812 58.515625 C 53.632812 57.175781 53.734375 55.832031 54.128906 54.878906 C 55.210938 52.199219 57.671875 49.425781 61.804688 49.425781 C 67.21875 49.425781 69.386719 53.539062 69.386719 59.566406 L 69.386719 83.550781 L 84.347656 83.550781 L 84.347656 57.84375 C 84.347656 44.070312 76.96875 37.660156 67.121094 37.660156 C 59.050781 37.660156 55.507812 42.152344 53.535156 45.214844 L 53.636719 45.214844 L 53.636719 38.714844 L 38.671875 38.714844 C 38.867188 42.917969 38.671875 83.554688 38.671875 83.554688 Z M 38.671875 83.550781 "/>
</g>
</svg>
