<svg xmlns="http://www.w3.org/2000/svg" xmlns:xlink="http://www.w3.org/1999/xlink" width="191px" height="100px" viewBox="0 0 190 100" version="1.1">
<g id="surface1">
<path style=" stroke:none;fill-rule:evenodd;fill:rgb(53.72549%,57.647059%,74.509804%);fill-opacity:1;" d="M 190 49.707031 C 190 22.253906 147.46875 0 95 0 C 42.53125 0 0 22.253906 0 49.707031 C 0 77.160156 42.53125 99.417969 95 99.417969 C 147.46875 99.417969 190 77.160156 190 49.707031 Z M 190 49.707031 "/>
<path style=" stroke:none;fill-rule:evenodd;fill:rgb(13.72549%,14.509804%,19.215686%);fill-opacity:1;" d="M 26.679688 79.140625 L 37.089844 26.160156 L 61.164062 26.160156 C 71.574219 26.816406 76.78125 32.046875 76.78125 41.207031 C 76.78125 56.902344 64.417969 66.058594 53.355469 65.40625 L 41.644531 65.40625 L 39.042969 79.140625 Z M 44.246094 55.59375 L 47.5 35.972656 L 55.957031 35.972656 C 60.511719 35.972656 63.765625 37.933594 63.765625 41.859375 C 63.117188 52.980469 57.910156 54.941406 52.054688 55.59375 Z M 74.359375 65.40625 L 84.773438 12.425781 L 97.136719 12.425781 L 94.53125 26.160156 L 106.242188 26.160156 C 116.65625 26.816406 120.558594 32.046875 119.257812 38.589844 L 114.703125 65.40625 L 101.691406 65.40625 L 106.246094 41.207031 C 106.894531 37.933594 106.894531 35.972656 102.339844 35.972656 L 92.582031 35.972656 L 86.726562 65.40625 Z M 113.871094 79.140625 L 124.28125 26.160156 L 148.355469 26.160156 C 158.765625 26.816406 163.972656 32.046875 163.972656 41.207031 C 163.972656 56.902344 151.609375 66.058594 140.546875 65.40625 L 128.835938 65.40625 L 126.234375 79.140625 Z M 131.4375 55.59375 L 134.691406 35.972656 L 143.152344 35.972656 C 147.707031 35.972656 150.957031 37.933594 150.957031 41.859375 C 150.308594 52.980469 145.101562 54.941406 139.246094 55.59375 Z M 131.4375 55.59375 "/>
</g>
</svg>
