<svg xmlns="http://www.w3.org/2000/svg" xmlns:xlink="http://www.w3.org/1999/xlink" width="100px" height="100px" viewBox="0 0 100 100" version="1.1">
<g id="surface1">
<path style=" stroke:none;fill-rule:nonzero;fill:rgb(79.215686%,12.941176%,15.294118%);fill-opacity:1;" d="M 98.527344 49.859375 C 98.527344 76.75 76.722656 98.554688 49.832031 98.554688 C 22.945312 98.554688 1.140625 76.75 1.140625 49.859375 C 1.140625 22.972656 22.945312 1.167969 49.832031 1.167969 C 76.722656 1.167969 98.527344 22.972656 98.527344 49.859375 Z M 98.527344 49.859375 "/>
<path style=" stroke:none;fill-rule:nonzero;fill:rgb(100%,100%,100%);fill-opacity:1;" d="M 45.75 17.472656 C 32.027344 18.945312 18.359375 29.5 17.804688 44.609375 C 17.445312 53.832031 21.304688 60.75 30.527344 62.695312 C 31.582031 58.332031 31.777344 55.972656 31.777344 55.972656 C 31.777344 55.972656 27.722656 52.082031 27.304688 49.609375 C 23.917969 29.722656 51.390625 16.140625 65.804688 30.027344 C 75.75 39.667969 69.195312 69.304688 53.140625 66.222656 C 37.75 63.277344 60.667969 39.695312 48.390625 35.054688 C 38.417969 31.277344 33.109375 46.582031 37.832031 54.167969 C 35.054688 67.222656 29.082031 79.527344 31.5 95.890625 C 39.359375 90.472656 42 80.082031 44.167969 69.25 C 48.109375 71.527344 50.222656 73.917969 55.25 74.277344 C 73.804688 75.640625 84.167969 56.640625 81.640625 39.082031 C 79.359375 23.527344 63.082031 15.609375 45.75 17.472656 Z M 45.75 17.472656 "/>
</g>
</svg>
