<svg xmlns="http://www.w3.org/2000/svg" xmlns:xlink="http://www.w3.org/1999/xlink" width="100px" height="100px" viewBox="0 0 100 100" version="1.1">
<defs>
<filter id="alpha" filterUnits="objectBoundingBox" x="0%" y="0%" width="100%" height="100%">
  <feColorMatrix type="matrix" in="SourceGraphic" values="0 0 0 0 1 0 0 0 0 1 0 0 0 0 1 0 0 0 1 0"/>
</filter>
<mask id="mask0">
  <g filter="url(#alpha)">
<rect x="0" y="0" width="100" height="100" style="fill:rgb(0%,0%,0%);fill-opacity:0.101961;stroke:none;"/>
  </g>
</mask>
<clipPath id="clip1">
  <rect x="0" y="0" width="100" height="100"/>
</clipPath>
<g id="surface5" clip-path="url(#clip1)">
<path style=" stroke:none;fill-rule:nonzero;fill:rgb(20%,70.588235%,29.019608%);fill-opacity:1;" d="M 100 50 C 100 77.613281 77.613281 100 50 100 C 22.386719 100 0 77.613281 0 50 C 0 22.386719 22.386719 0 50 0 C 77.613281 0 100 22.386719 100 50 Z M 100 50 "/>
</g>
<mask id="mask1">
  <g filter="url(#alpha)">
<rect x="0" y="0" width="100" height="100" style="fill:rgb(0%,0%,0%);fill-opacity:0.101961;stroke:none;"/>
  </g>
</mask>
<clipPath id="clip2">
  <rect x="0" y="0" width="100" height="100"/>
</clipPath>
<g id="surface8" clip-path="url(#clip2)">
<path style=" stroke:none;fill-rule:nonzero;fill:rgb(20%,70.588235%,29.019608%);fill-opacity:1;" d="M 50 0 L 50 100 C 77.613281 100 100 77.613281 100 50 C 100 22.386719 77.613281 0 50 0 Z M 50 0 "/>
</g>
</defs>
<g id="surface1">
<use xlink:href="#surface5" mask="url(#mask0)"/>
<use xlink:href="#surface8" mask="url(#mask1)"/>
<path style=" stroke:none;fill-rule:nonzero;fill:rgb(20%,70.588235%,29.019608%);fill-opacity:1;" d="M 93.660156 50 C 93.660156 74.113281 74.113281 93.660156 50 93.660156 C 25.886719 93.660156 6.339844 74.113281 6.339844 50 C 6.339844 25.886719 25.886719 6.339844 50 6.339844 C 74.113281 6.339844 93.660156 25.886719 93.660156 50 Z M 93.660156 50 "/>
<path style=" stroke:none;fill-rule:nonzero;fill:rgb(18.039216%,65.490196%,27.058824%);fill-opacity:1;" d="M 50 6.339844 L 50 93.65625 C 74.113281 93.65625 93.65625 74.113281 93.65625 50 C 93.65625 25.886719 74.113281 6.339844 50 6.339844 Z M 50 6.339844 "/>
<path style=" stroke:none;fill-rule:nonzero;fill:rgb(18.039216%,65.490196%,27.058824%);fill-opacity:1;" d="M 6.390625 48.046875 C 6.363281 48.695312 6.339844 49.34375 6.339844 50 C 6.339844 74.113281 25.886719 93.65625 50 93.65625 L 50 89.757812 C 26.542969 89.757812 7.410156 71.253906 6.390625 48.046875 Z M 6.390625 48.046875 "/>
<path style=" stroke:none;fill-rule:nonzero;fill:rgb(16.470588%,61.176471%,25.098039%);fill-opacity:1;" d="M 93.609375 48.046875 C 92.585938 71.253906 73.457031 89.757812 50 89.757812 L 50 93.65625 C 74.113281 93.65625 93.65625 74.113281 93.65625 50 C 93.65625 49.347656 93.636719 48.695312 93.609375 48.046875 Z M 93.609375 48.046875 "/>
<path style=" stroke:none;fill-rule:nonzero;fill:rgb(100%,100%,100%);fill-opacity:1;" d="M 40.414062 50.386719 C 40.414062 50.554688 40.378906 50.714844 40.367188 50.886719 L 58.15625 59.773438 C 59.675781 58.484375 61.628906 57.679688 63.777344 57.679688 C 68.617188 57.679688 72.539062 61.601562 72.539062 66.441406 C 72.539062 71.285156 68.617188 75.207031 63.777344 75.207031 C 58.9375 75.207031 55.015625 71.28125 55.015625 66.441406 C 55.015625 66.265625 55.058594 66.109375 55.066406 65.941406 L 37.277344 57.054688 C 35.753906 58.332031 33.808594 59.136719 31.652344 59.136719 C 26.816406 59.136719 22.894531 55.222656 22.894531 50.386719 C 22.894531 45.539062 26.816406 41.621094 31.652344 41.621094 C 33.808594 41.621094 35.75 42.429688 37.277344 43.714844 L 55.066406 34.824219 C 55.058594 34.652344 55.015625 34.492188 55.015625 34.316406 C 55.015625 29.484375 58.9375 25.5625 63.777344 25.5625 C 68.617188 25.5625 72.539062 29.484375 72.539062 34.316406 C 72.539062 39.160156 68.617188 43.082031 63.777344 43.082031 C 61.621094 43.082031 59.675781 42.273438 58.15625 40.984375 L 40.367188 49.882812 C 40.378906 50.046875 40.414062 50.207031 40.414062 50.386719 Z M 40.414062 50.386719 "/>
</g>
</svg>
