<svg xmlns="http://www.w3.org/2000/svg" xmlns:xlink="http://www.w3.org/1999/xlink" width="100px" height="100px" viewBox="0 0 100 100" version="1.1">
<g id="surface1">
<path style=" stroke:none;fill-rule:nonzero;fill:rgb(99.215686%,99.215686%,99.215686%);fill-opacity:1;" d="M 0.421875 50.421875 L 0.421875 0.421875 L 100.421875 0.421875 L 100.421875 100.421875 L 0.421875 100.421875 Z M 0.421875 50.421875 "/>
<path style=" stroke:none;fill-rule:nonzero;fill:rgb(80%,78.823529%,78.823529%);fill-opacity:1;" d="M 11.421875 98.957031 C 9.039062 98.632812 7.097656 97.8125 5.78125 96.566406 C 4.554688 95.40625 3.964844 94.191406 3.96875 92.839844 C 3.96875 92.21875 4 92.0625 4.238281 91.5625 C 4.601562 90.789062 5.289062 90.132812 6.195312 89.6875 C 8.085938 88.753906 10.109375 88.570312 17.582031 88.648438 C 22.234375 88.699219 24.558594 88.632812 27.132812 88.375 C 28.636719 88.226562 29.34375 88.117188 29.4375 88.023438 C 29.554688 87.910156 30.316406 84.574219 30.933594 81.480469 C 31.621094 78.035156 32.242188 74.378906 33.214844 68.046875 C 33.917969 63.496094 34.457031 60.183594 34.707031 58.921875 C 35.644531 54.210938 36.585938 50.789062 37.578125 48.433594 C 37.949219 47.566406 38.011719 47.316406 38.207031 46.007812 C 38.871094 41.515625 39.226562 37.703125 39.421875 32.964844 C 39.46875 31.820312 39.523438 30.714844 39.546875 30.507812 C 39.570312 30.300781 39.644531 29.570312 39.71875 28.882812 C 39.917969 26.96875 40.351562 24.542969 40.714844 23.320312 C 40.914062 22.652344 40.875 22.625 40.359375 23.070312 C 38.796875 24.421875 37.449219 24.746094 36.394531 24.027344 C 35.394531 23.34375 34.976562 21.65625 35.417969 20.058594 C 35.75 18.847656 36.410156 17.746094 37.617188 16.398438 C 37.980469 15.996094 38.261719 15.65625 38.246094 15.640625 C 38.230469 15.628906 38.0625 15.578125 37.875 15.523438 C 37.386719 15.382812 36.886719 14.992188 36.625 14.542969 C 36.316406 14.015625 36.253906 13.09375 36.472656 12.289062 C 36.929688 10.597656 38.789062 8.992188 41.375 8.058594 C 41.460938 8.027344 41.515625 7.988281 41.496094 7.96875 C 41.476562 7.949219 41.105469 7.863281 40.667969 7.773438 C 38.855469 7.402344 37.929688 6.550781 37.925781 5.246094 C 37.925781 4.777344 37.96875 4.605469 38.230469 4.082031 C 38.644531 3.25 39.238281 2.6875 40.210938 2.210938 C 41.503906 1.574219 42.019531 1.472656 44.046875 1.46875 C 45.550781 1.464844 45.933594 1.492188 46.734375 1.65625 C 49.675781 2.25 52.707031 3.546875 55.292969 5.316406 C 56.042969 5.828125 55.90625 5.820312 57.34375 5.441406 C 58.691406 5.082031 59.832031 4.921875 61.429688 4.867188 C 63.664062 4.785156 65.511719 5.042969 67.574219 5.722656 C 70.015625 6.519531 71.875 7.699219 74.175781 9.898438 L 74.800781 10.5 L 76.007812 10.585938 C 77.355469 10.683594 78.3125 10.835938 79.449219 11.132812 C 83.339844 12.144531 87.199219 14.367188 90.101562 17.265625 C 94.03125 21.1875 96.089844 26.105469 96.089844 31.5625 C 96.089844 32.285156 96.054688 32.851562 96.011719 32.878906 C 95.964844 32.90625 95.707031 32.777344 95.4375 32.59375 C 93.371094 31.183594 90.898438 30.917969 85.007812 31.464844 C 83.210938 31.632812 81.15625 31.738281 79.414062 31.757812 C 79.382812 31.757812 79.332031 31.894531 79.300781 32.0625 C 79.230469 32.433594 79.328125 32.539062 80.089844 32.953125 C 80.851562 33.367188 82.007812 33.726562 83.109375 33.890625 C 84.84375 34.144531 87.078125 33.910156 89.121094 33.257812 C 89.550781 33.117188 89.941406 33.007812 89.996094 33.007812 C 90.261719 33.007812 89.933594 34.292969 89.386719 35.382812 C 88.144531 37.847656 85.308594 39.652344 81.714844 40.257812 C 80.785156 40.414062 80.386719 40.4375 78.90625 40.410156 L 77.179688 40.382812 L 76.804688 40.753906 C 76.273438 41.273438 76.140625 41.710938 76.191406 42.789062 C 76.21875 43.394531 76.277344 43.738281 76.402344 44.007812 C 76.691406 44.644531 77.550781 49.183594 77.917969 52.007812 C 79.1875 61.738281 78.316406 69.480469 75.265625 75.589844 C 72.683594 80.765625 68.550781 84.636719 62.796875 87.265625 C 62.292969 87.496094 61.851562 87.71875 61.8125 87.757812 C 61.769531 87.792969 61.859375 88.132812 62.003906 88.515625 C 62.945312 90.957031 62.515625 93.316406 60.980469 94.105469 C 60.507812 94.351562 59.773438 94.347656 59.222656 94.105469 C 59 94.003906 58.808594 93.929688 58.800781 93.945312 C 58.792969 93.957031 58.699219 94.117188 58.589844 94.296875 C 57.992188 95.328125 57.144531 95.730469 56.132812 95.464844 C 55.414062 95.277344 54.894531 94.894531 53.960938 93.871094 C 53.507812 93.371094 52.621094 92.449219 51.992188 91.820312 C 50.683594 90.511719 50.910156 90.597656 49.300781 90.800781 C 48.75 90.871094 47.519531 90.996094 46.5625 91.078125 L 44.828125 91.226562 L 44.242188 91.871094 C 43.550781 92.625 43.398438 92.621094 43.65625 91.851562 C 43.75 91.578125 43.804688 91.332031 43.777344 91.304688 C 43.75 91.277344 43.515625 91.257812 43.253906 91.257812 C 42.78125 91.257812 42.773438 91.261719 42.078125 91.871094 C 41.695312 92.207031 41.101562 92.777344 40.757812 93.140625 C 40.175781 93.75 40.128906 93.78125 40.105469 93.585938 C 40.09375 93.46875 40.234375 92.945312 40.417969 92.425781 C 40.605469 91.90625 40.757812 91.441406 40.757812 91.398438 C 40.757812 91.347656 40.523438 91.335938 40.152344 91.371094 C 39.820312 91.398438 38.855469 91.464844 38.007812 91.515625 L 36.464844 91.613281 L 35.261719 92.492188 C 32.882812 94.226562 30.953125 95.445312 28.882812 96.515625 C 27.386719 97.289062 26.941406 97.472656 26.835938 97.367188 C 26.785156 97.320312 26.882812 96.914062 27.089844 96.296875 C 27.273438 95.753906 27.421875 95.277344 27.421875 95.238281 C 27.421875 95.203125 27.011719 95.378906 26.511719 95.628906 C 22.949219 97.417969 18.855469 98.671875 15.519531 99.003906 C 14.347656 99.121094 12.484375 99.097656 11.421875 98.953125 Z M 64.964844 30.507812 C 67.121094 30.277344 68.902344 29.390625 70.40625 27.796875 C 71.867188 26.253906 72.628906 24.464844 72.734375 22.332031 C 72.835938 20.25 72.269531 18.378906 71.03125 16.710938 C 69.546875 14.71875 67.222656 13.441406 64.796875 13.285156 C 63.488281 13.199219 61.242188 13.75 59.960938 14.464844 C 56.59375 16.347656 54.921875 20.273438 55.878906 24.039062 C 56.214844 25.367188 56.6875 26.226562 58.027344 27.945312 C 59.183594 29.425781 61.578125 30.484375 63.964844 30.578125 C 64.101562 30.582031 64.554688 30.550781 64.964844 30.507812 Z M 65.097656 26.542969 C 64.40625 26.355469 63.851562 26.019531 63.253906 25.425781 C 61.84375 24.019531 61.535156 22.097656 62.421875 20.289062 C 63.136719 18.832031 64.578125 17.921875 66.171875 17.921875 C 68.105469 17.921875 69.789062 19.273438 70.296875 21.226562 C 70.886719 23.484375 69.449219 25.964844 67.210938 26.546875 C 66.605469 26.703125 65.695312 26.703125 65.097656 26.542969 Z M 68.285156 21.996094 C 68.589844 21.839844 68.753906 21.570312 68.753906 21.214844 C 68.753906 20.695312 68.378906 20.339844 67.835938 20.339844 C 67.460938 20.339844 67.007812 20.804688 67.011719 21.1875 C 67.015625 21.875 67.6875 22.300781 68.285156 21.996094 Z M 68.285156 21.996094 "/>
<path style=" stroke:none;fill-rule:nonzero;fill:rgb(92.54902%,42.745098%,65.490196%);fill-opacity:1;" d="M 11.390625 98.882812 C 8.347656 98.449219 6.09375 97.242188 4.847656 95.375 C 4.273438 94.519531 4.050781 93.820312 4.050781 92.882812 C 4.046875 92.214844 4.078125 92.070312 4.308594 91.585938 C 4.875 90.386719 6.113281 89.566406 8.003906 89.125 C 9.589844 88.757812 10.4375 88.71875 16.421875 88.742188 C 23.1875 88.765625 26.089844 88.652344 28.859375 88.25 L 29.507812 88.15625 L 29.632812 87.730469 C 29.824219 87.085938 30.785156 82.699219 31.171875 80.71875 C 31.816406 77.398438 32.285156 74.597656 33.382812 67.464844 C 34.195312 62.183594 34.699219 59.21875 35.007812 57.921875 C 35.144531 57.351562 35.445312 56.058594 35.671875 55.046875 C 36.203125 52.722656 36.851562 50.558594 37.503906 48.964844 L 38.015625 47.714844 L 38.339844 45.507812 C 38.898438 41.707031 39.25 38.109375 39.425781 34.507812 C 39.5625 31.679688 39.660156 30.1875 39.75 29.632812 C 39.792969 29.355469 39.890625 28.605469 39.964844 27.964844 C 40.121094 26.648438 40.5625 24.339844 40.875 23.21875 C 40.992188 22.808594 41.066406 22.457031 41.046875 22.4375 C 41.011719 22.398438 40.855469 22.519531 39.964844 23.265625 C 38.511719 24.480469 36.976562 24.625 36.101562 23.632812 C 35.695312 23.171875 35.511719 22.730469 35.414062 22 C 35.175781 20.242188 35.992188 18.304688 37.726562 16.503906 C 38.433594 15.773438 38.554688 15.507812 38.195312 15.503906 C 37.960938 15.503906 37.320312 15.183594 37.0625 14.941406 C 36.429688 14.339844 36.25 13.238281 36.617188 12.234375 C 37.03125 11.109375 37.707031 10.265625 38.785156 9.519531 C 39.476562 9.042969 40.730469 8.410156 41.402344 8.199219 C 41.644531 8.121094 41.832031 8.019531 41.816406 7.96875 C 41.796875 7.921875 41.621094 7.851562 41.417969 7.8125 C 40.246094 7.59375 39.796875 7.472656 39.347656 7.246094 C 36.90625 6.027344 37.960938 2.972656 41.171875 1.941406 C 43.523438 1.183594 46.511719 1.453125 50.046875 2.738281 C 51.3125 3.195312 53.667969 4.40625 54.882812 5.214844 L 55.964844 5.9375 L 56.464844 5.804688 C 57.585938 5.5 58.769531 5.257812 59.699219 5.136719 C 60.824219 4.988281 63.050781 4.964844 64.09375 5.09375 C 67.015625 5.445312 69.710938 6.476562 71.839844 8.058594 L 72.382812 8.460938 L 72.046875 8.519531 C 71.867188 8.554688 71.398438 8.582031 71.007812 8.585938 C 69.613281 8.59375 67.417969 8.855469 65.632812 9.222656 C 61.164062 10.136719 57.488281 12.054688 55.105469 14.703125 C 50.371094 19.964844 50.742188 27.832031 56.144531 36.9375 C 56.4375 37.429688 56.671875 37.851562 56.671875 37.882812 C 56.671875 37.910156 56.371094 38.296875 56.003906 38.742188 C 55.132812 39.792969 54.261719 41.011719 54.257812 41.183594 C 54.257812 41.257812 54.457031 41.476562 54.703125 41.664062 C 55.324219 42.144531 56.617188 43.5 57.214844 44.296875 C 58.222656 45.640625 59.210938 47.507812 59.636719 48.859375 C 59.71875 49.125 59.816406 49.339844 59.847656 49.339844 C 60.140625 49.339844 62.570312 46.957031 63.589844 45.671875 C 64.730469 44.238281 65.90625 42.347656 66.585938 40.859375 C 66.695312 40.621094 66.835938 40.421875 66.894531 40.421875 C 67.015625 40.421875 67.027344 40.46875 67.222656 41.589844 C 67.488281 43.121094 68.296875 45.609375 68.925781 46.84375 L 69.113281 47.210938 L 69.359375 46.921875 C 69.785156 46.417969 70.644531 45.078125 71.121094 44.171875 C 71.710938 43.050781 72.027344 42.316406 72.511719 40.921875 C 72.734375 40.285156 72.949219 39.796875 73.007812 39.796875 C 73.066406 39.796875 73.191406 40.074219 73.292969 40.421875 C 73.722656 41.902344 74.570312 43.035156 75.765625 43.730469 L 76.414062 44.105469 L 76.578125 44.828125 C 77.316406 48.039062 77.964844 52.332031 78.269531 56.046875 C 78.40625 57.675781 78.40625 62.484375 78.273438 63.882812 C 77.871094 68.101562 77.09375 71.34375 75.75 74.414062 C 73.191406 80.246094 68.773438 84.535156 62.351562 87.40625 C 61.839844 87.636719 61.585938 87.792969 61.617188 87.859375 C 62.230469 89.253906 62.375 89.847656 62.378906 90.964844 C 62.378906 92.382812 62 93.308594 61.191406 93.875 C 60.703125 94.21875 59.890625 94.277344 59.300781 94.015625 C 59.082031 93.917969 58.855469 93.839844 58.800781 93.839844 C 58.746094 93.839844 58.632812 93.992188 58.546875 94.175781 C 58.214844 94.914062 57.476562 95.425781 56.738281 95.421875 C 55.671875 95.421875 55.074219 95.023438 53.511719 93.261719 C 52.363281 91.96875 51.5625 91.167969 50.984375 90.722656 C 50.71875 90.523438 50.660156 90.507812 50.328125 90.582031 C 49.84375 90.6875 47.875 90.902344 46.171875 91.035156 L 44.796875 91.144531 L 44.265625 91.699219 C 43.96875 92.007812 43.714844 92.242188 43.695312 92.222656 C 43.675781 92.203125 43.71875 91.972656 43.796875 91.710938 C 43.871094 91.453125 43.921875 91.226562 43.90625 91.210938 C 43.890625 91.195312 43.628906 91.175781 43.320312 91.164062 C 42.769531 91.148438 42.757812 91.152344 42.3125 91.535156 C 42.0625 91.746094 41.5 92.285156 41.058594 92.726562 C 40.617188 93.171875 40.242188 93.519531 40.21875 93.496094 C 40.195312 93.476562 40.328125 93.027344 40.515625 92.503906 C 40.699219 91.976562 40.871094 91.480469 40.898438 91.394531 C 40.945312 91.253906 40.910156 91.242188 40.539062 91.285156 C 40.316406 91.3125 39.296875 91.378906 38.277344 91.433594 L 36.421875 91.535156 L 35.359375 92.324219 C 33.925781 93.394531 31.535156 94.972656 30.214844 95.714844 C 28.640625 96.605469 27.015625 97.382812 26.929688 97.292969 C 26.886719 97.246094 26.996094 96.796875 27.199219 96.199219 C 27.390625 95.640625 27.523438 95.160156 27.492188 95.132812 C 27.464844 95.105469 26.960938 95.320312 26.371094 95.613281 C 23.367188 97.113281 19.828125 98.285156 16.882812 98.761719 C 15.464844 98.992188 12.59375 99.054688 11.390625 98.882812 Z M 77.855469 40.273438 C 77.769531 40.214844 77.820312 39.894531 78.121094 38.664062 C 78.550781 36.925781 78.855469 35.367188 79.082031 33.816406 C 79.167969 33.230469 79.257812 32.730469 79.28125 32.707031 C 79.304688 32.683594 79.75 32.871094 80.269531 33.125 C 81.6875 33.816406 82.921875 34.085938 84.664062 34.089844 C 86.105469 34.089844 87.992188 33.765625 89.449219 33.261719 C 90.039062 33.058594 90.074219 33.105469 89.878906 33.851562 C 89.542969 35.148438 88.816406 36.359375 87.785156 37.347656 C 86.363281 38.703125 84.464844 39.625 82.121094 40.097656 C 81.433594 40.234375 80.824219 40.289062 79.589844 40.3125 C 78.695312 40.332031 77.917969 40.316406 77.855469 40.273438 Z M 95.277344 32.382812 C 94.609375 31.929688 93.683594 31.566406 92.585938 31.324219 C 91.792969 31.152344 91.511719 31.132812 89.464844 31.136719 C 87.792969 31.140625 86.746094 31.1875 85.382812 31.320312 C 82.886719 31.570312 80.488281 31.695312 79.882812 31.613281 L 79.382812 31.546875 L 79.421875 30.882812 C 79.523438 29.28125 79.457031 24.796875 79.3125 23.546875 C 78.90625 20 78.25 17.089844 77.367188 14.898438 C 77.160156 14.386719 76.921875 13.785156 76.839844 13.5625 C 76.648438 13.066406 76.027344 12.050781 75.492188 11.363281 C 75.273438 11.078125 75.089844 10.804688 75.089844 10.757812 C 75.089844 10.648438 75.597656 10.652344 76.6875 10.761719 C 79.242188 11.023438 82.238281 12.011719 84.789062 13.429688 C 90.972656 16.875 94.953125 22.480469 95.789062 28.925781 C 95.859375 29.453125 95.941406 30.527344 95.972656 31.320312 C 96.023438 32.523438 96.011719 32.753906 95.914062 32.746094 C 95.851562 32.742188 95.5625 32.578125 95.277344 32.382812 Z M 65.339844 26.5 C 64.777344 26.390625 63.847656 25.898438 63.40625 25.476562 C 60.941406 23.113281 61.960938 18.984375 65.21875 18.132812 C 67.902344 17.4375 70.554688 19.769531 70.3125 22.617188 C 70.183594 24.171875 69.320312 25.472656 67.992188 26.125 C 67.097656 26.5625 66.273438 26.679688 65.339844 26.5 Z M 68.433594 21.984375 C 69.207031 21.460938 68.835938 20.253906 67.902344 20.261719 C 67.132812 20.265625 66.6875 21.078125 67.089844 21.738281 C 67.375 22.203125 67.949219 22.308594 68.433594 21.984375 Z M 68.433594 21.984375 "/>
<path style=" stroke:none;fill-rule:nonzero;fill:rgb(61.568627%,81.568627%,57.254902%);fill-opacity:1;" d="M 11.390625 98.882812 C 8.347656 98.449219 6.09375 97.242188 4.847656 95.375 C 4.273438 94.519531 4.050781 93.820312 4.050781 92.882812 C 4.046875 92.214844 4.078125 92.070312 4.308594 91.585938 C 4.875 90.386719 6.113281 89.566406 8.003906 89.125 C 9.589844 88.757812 10.4375 88.71875 16.421875 88.742188 C 23.1875 88.765625 26.089844 88.652344 28.859375 88.25 L 29.507812 88.15625 L 29.632812 87.730469 C 29.824219 87.085938 30.785156 82.699219 31.171875 80.71875 C 31.816406 77.398438 32.285156 74.597656 33.382812 67.464844 C 34.195312 62.183594 34.699219 59.21875 35.007812 57.921875 C 35.144531 57.351562 35.445312 56.058594 35.671875 55.046875 C 36.203125 52.722656 36.851562 50.558594 37.503906 48.964844 L 38.015625 47.714844 L 38.339844 45.507812 C 38.898438 41.707031 39.25 38.109375 39.425781 34.507812 C 39.558594 31.714844 39.660156 30.195312 39.753906 29.589844 C 39.800781 29.292969 39.894531 28.5625 39.964844 27.964844 C 40.128906 26.585938 40.445312 24.910156 40.773438 23.632812 C 40.917969 23.082031 41.042969 22.539062 41.050781 22.421875 C 41.085938 22.066406 41.738281 20.300781 42.308594 19.019531 C 43.023438 17.417969 43.679688 16.226562 44.632812 14.796875 C 45.699219 13.199219 46.347656 12.40625 47.667969 11.089844 C 49.835938 8.929688 52.273438 7.320312 54.886719 6.320312 C 55.890625 5.9375 56.242188 5.835938 57.839844 5.46875 C 59.707031 5.035156 62.320312 4.878906 64.09375 5.09375 C 67.015625 5.445312 69.710938 6.476562 71.839844 8.058594 L 72.382812 8.460938 L 72.046875 8.519531 C 71.867188 8.554688 71.398438 8.582031 71.007812 8.585938 C 69.613281 8.59375 67.417969 8.855469 65.632812 9.222656 C 61.164062 10.136719 57.488281 12.054688 55.105469 14.703125 C 50.371094 19.964844 50.742188 27.832031 56.144531 36.9375 C 56.4375 37.429688 56.671875 37.851562 56.671875 37.882812 C 56.671875 37.910156 56.371094 38.296875 56.003906 38.742188 C 55.132812 39.792969 54.261719 41.011719 54.257812 41.183594 C 54.257812 41.257812 54.457031 41.476562 54.703125 41.664062 C 55.324219 42.144531 56.617188 43.5 57.214844 44.296875 C 58.222656 45.640625 59.210938 47.507812 59.636719 48.859375 C 59.71875 49.125 59.816406 49.339844 59.847656 49.339844 C 60.140625 49.339844 62.570312 46.957031 63.589844 45.671875 C 64.730469 44.238281 65.90625 42.347656 66.585938 40.859375 C 66.695312 40.621094 66.835938 40.421875 66.894531 40.421875 C 67.015625 40.421875 67.027344 40.46875 67.222656 41.589844 C 67.488281 43.121094 68.296875 45.609375 68.925781 46.84375 L 69.113281 47.210938 L 69.359375 46.921875 C 69.785156 46.417969 70.644531 45.078125 71.121094 44.171875 C 71.710938 43.050781 72.027344 42.316406 72.511719 40.921875 C 72.734375 40.285156 72.949219 39.796875 73.007812 39.796875 C 73.066406 39.796875 73.191406 40.074219 73.292969 40.421875 C 73.722656 41.902344 74.570312 43.035156 75.765625 43.730469 L 76.414062 44.105469 L 76.578125 44.828125 C 77.316406 48.039062 77.964844 52.332031 78.269531 56.046875 C 78.40625 57.675781 78.40625 62.484375 78.273438 63.882812 C 77.707031 69.835938 76.324219 74.15625 73.722656 78.132812 C 71.128906 82.085938 67.507812 85.042969 62.339844 87.421875 C 60.910156 88.082031 58.589844 88.921875 58.207031 88.921875 C 58.0625 88.921875 57.929688 88.789062 57.652344 88.359375 C 56.863281 87.144531 55.769531 86.195312 54.414062 85.554688 C 53.234375 84.996094 52.511719 84.828125 51.089844 84.78125 C 49.753906 84.734375 49.089844 84.808594 47.960938 85.136719 C 46.53125 85.546875 44.707031 86.585938 43.488281 87.675781 C 42.847656 88.246094 41.886719 89.539062 41.402344 90.476562 L 41.007812 91.242188 L 40.527344 91.289062 C 40.265625 91.316406 39.230469 91.382812 38.234375 91.4375 L 36.417969 91.535156 L 35.359375 92.328125 C 33.925781 93.394531 31.535156 94.972656 30.214844 95.714844 C 28.640625 96.605469 27.015625 97.382812 26.929688 97.292969 C 26.886719 97.246094 26.996094 96.796875 27.199219 96.199219 C 27.390625 95.640625 27.523438 95.160156 27.492188 95.132812 C 27.464844 95.105469 26.960938 95.320312 26.371094 95.613281 C 23.367188 97.113281 19.828125 98.285156 16.882812 98.761719 C 15.464844 98.992188 12.59375 99.054688 11.390625 98.882812 Z M 43.445312 91.191406 C 43.15625 91.179688 42.921875 91.128906 42.921875 91.085938 C 42.921875 90.960938 43.660156 90.453125 44.421875 90.058594 C 46.179688 89.148438 47.734375 89.027344 49.316406 89.6875 C 49.96875 89.957031 50.621094 90.386719 50.554688 90.5 C 50.480469 90.621094 48.550781 90.851562 45.964844 91.046875 C 45.046875 91.117188 44.222656 91.1875 44.132812 91.199219 C 44.039062 91.210938 43.730469 91.207031 43.445312 91.191406 Z M 65.339844 26.5 C 64.777344 26.390625 63.847656 25.898438 63.40625 25.476562 C 60.941406 23.113281 61.960938 18.984375 65.21875 18.132812 C 67.902344 17.4375 70.554688 19.769531 70.3125 22.617188 C 70.183594 24.171875 69.320312 25.472656 67.992188 26.125 C 67.097656 26.5625 66.273438 26.679688 65.339844 26.5 Z M 68.433594 21.984375 C 69.207031 21.460938 68.835938 20.253906 67.902344 20.261719 C 67.132812 20.265625 66.6875 21.078125 67.089844 21.738281 C 67.375 22.203125 67.949219 22.308594 68.433594 21.984375 Z M 68.433594 21.984375 "/>
<path style=" stroke:none;fill-rule:nonzero;fill:rgb(58.823529%,59.215686%,58.823529%);fill-opacity:1;" d="M 12.007812 98.867188 C 8.996094 98.5625 6.496094 97.421875 5.226562 95.773438 C 3.816406 93.941406 3.746094 92.027344 5.039062 90.722656 C 5.9375 89.8125 7.058594 89.339844 9.007812 89.054688 C 10.453125 88.839844 11.414062 88.8125 18.046875 88.800781 C 22.617188 88.792969 24.988281 88.757812 25.796875 88.683594 C 27.664062 88.515625 29.425781 88.273438 29.550781 88.171875 C 29.746094 88.011719 30.742188 83.609375 31.5 79.546875 C 32.050781 76.59375 32.519531 73.75 33.339844 68.421875 C 34.136719 63.230469 34.902344 58.664062 35.035156 58.277344 C 35.109375 58.058594 35.558594 57.652344 37.089844 56.417969 C 38.164062 55.550781 39.082031 54.839844 39.121094 54.839844 C 39.214844 54.839844 39.195312 55.074219 38.71875 59.632812 C 38.3125 63.492188 38.304688 63.589844 38.410156 63.589844 C 38.449219 63.589844 40.371094 62.125 42.683594 60.335938 C 44.992188 58.542969 46.929688 57.058594 46.988281 57.03125 C 47.238281 56.925781 47.253906 56.804688 46.5 61.667969 C 46.289062 63.035156 46.203125 63.816406 46.253906 63.871094 C 46.355469 63.972656 48.457031 62.941406 49.382812 62.335938 C 50.75 61.441406 51.972656 60.289062 52.679688 59.226562 C 52.867188 58.945312 53.0625 58.714844 53.113281 58.714844 C 53.238281 58.714844 53.398438 59.382812 53.515625 60.382812 C 53.652344 61.535156 53.558594 63.390625 53.222656 66.367188 C 53.199219 66.582031 53.222656 66.699219 53.300781 66.726562 C 53.421875 66.773438 54.253906 66.234375 55.285156 65.441406 C 56.847656 64.238281 58.027344 63 59.003906 61.539062 C 59.519531 60.773438 59.589844 60.609375 59.789062 59.789062 C 60.292969 57.675781 60.5625 55.195312 60.46875 53.589844 C 60.394531 52.386719 60.203125 50.976562 60 50.199219 L 59.832031 49.546875 L 60.273438 49.171875 C 62.972656 46.875 64.792969 44.617188 66.320312 41.695312 C 66.617188 41.128906 66.871094 40.679688 66.890625 40.695312 C 66.90625 40.710938 66.996094 41.136719 67.089844 41.636719 C 67.3125 42.796875 67.765625 44.398438 68.148438 45.375 C 68.605469 46.53125 68.988281 47.339844 69.078125 47.339844 C 69.296875 47.339844 70.332031 45.882812 71.09375 44.507812 C 71.625 43.542969 72.304688 41.996094 72.675781 40.902344 C 72.828125 40.457031 72.976562 40.089844 73.007812 40.089844 C 73.039062 40.089844 73.125 40.320312 73.203125 40.597656 C 73.585938 41.972656 74.460938 43.109375 75.632812 43.757812 C 75.976562 43.949219 76.292969 44.167969 76.335938 44.246094 C 76.433594 44.433594 77.101562 47.753906 77.375 49.421875 C 79.335938 61.417969 78.230469 70.699219 74.035156 77.492188 C 72.03125 80.734375 69.167969 83.515625 65.734375 85.558594 C 64.78125 86.125 62.863281 87.101562 62.070312 87.425781 C 61.804688 87.53125 61.589844 87.660156 61.589844 87.710938 C 61.589844 87.808594 61.359375 87.902344 59.601562 88.507812 C 58.941406 88.738281 58.316406 88.921875 58.207031 88.921875 C 58.0625 88.921875 57.929688 88.789062 57.652344 88.359375 C 56.863281 87.144531 55.769531 86.195312 54.414062 85.554688 C 53.234375 84.996094 52.511719 84.828125 51.089844 84.78125 C 49.753906 84.734375 49.089844 84.808594 47.960938 85.136719 C 46.535156 85.546875 44.707031 86.585938 43.496094 87.667969 C 42.855469 88.238281 41.9375 89.464844 41.4375 90.414062 L 41.027344 91.191406 L 40.453125 91.214844 C 40.140625 91.230469 39.09375 91.285156 38.132812 91.34375 L 36.382812 91.445312 L 35.296875 92.246094 C 33.808594 93.347656 31.875 94.628906 30.519531 95.414062 C 29.152344 96.207031 27.117188 97.226562 27.046875 97.160156 C 27.019531 97.132812 27.125 96.738281 27.28125 96.289062 C 27.675781 95.144531 27.707031 95.007812 27.546875 95.007812 C 27.476562 95.007812 27.054688 95.191406 26.609375 95.414062 C 23.011719 97.214844 19.242188 98.402344 15.839844 98.800781 C 14.914062 98.910156 12.792969 98.945312 12.007812 98.867188 Z M 43.855469 91.152344 C 43.808594 91.109375 43.582031 91.085938 43.347656 91.101562 C 43.113281 91.117188 42.921875 91.105469 42.921875 91.070312 C 42.921875 90.957031 43.703125 90.433594 44.421875 90.058594 C 46.179688 89.148438 47.734375 89.027344 49.316406 89.6875 C 49.867188 89.917969 50.644531 90.394531 50.578125 90.464844 C 50.523438 90.519531 47.644531 90.832031 46.339844 90.925781 C 45.628906 90.976562 44.972656 91.050781 44.882812 91.089844 C 44.621094 91.203125 43.945312 91.242188 43.855469 91.152344 Z M 38.257812 46.890625 C 38.257812 46.824219 38.347656 46.140625 38.460938 45.367188 C 38.957031 41.9375 39.339844 38.03125 39.503906 34.632812 C 39.761719 29.480469 39.839844 28.558594 40.226562 26.296875 C 40.347656 25.609375 40.582031 24.484375 40.753906 23.796875 C 40.925781 23.109375 41.066406 22.472656 41.066406 22.382812 C 41.070312 22.105469 41.730469 20.316406 42.308594 19.019531 C 43.023438 17.417969 43.679688 16.226562 44.632812 14.796875 C 45.699219 13.199219 46.347656 12.40625 47.667969 11.089844 C 49.835938 8.929688 52.273438 7.320312 54.886719 6.320312 C 55.890625 5.9375 56.242188 5.835938 57.839844 5.46875 C 59.707031 5.035156 62.320312 4.878906 64.09375 5.09375 C 67.015625 5.445312 69.710938 6.476562 71.839844 8.058594 L 72.382812 8.460938 L 72.046875 8.519531 C 71.867188 8.554688 71.398438 8.582031 71.007812 8.585938 C 69.613281 8.59375 67.417969 8.855469 65.632812 9.222656 C 61.164062 10.136719 57.488281 12.054688 55.105469 14.703125 C 50.371094 19.964844 50.742188 27.832031 56.144531 36.9375 C 56.4375 37.429688 56.671875 37.855469 56.671875 37.882812 C 56.671875 37.914062 56.378906 38.292969 56.015625 38.726562 C 55.652344 39.160156 55.105469 39.871094 54.796875 40.304688 C 54.488281 40.738281 54.203125 41.113281 54.164062 41.136719 C 54.121094 41.164062 53.875 41.054688 53.609375 40.894531 C 50.921875 39.265625 47.5625 39.316406 43.972656 41.042969 C 41.933594 42.023438 40.164062 43.800781 38.71875 46.320312 C 38.503906 46.699219 38.308594 47.007812 38.292969 47.007812 C 38.273438 47.007812 38.257812 46.953125 38.257812 46.890625 Z M 65.226562 26.457031 C 63.632812 26.070312 62.324219 24.601562 62.089844 22.925781 C 61.78125 20.722656 63.113281 18.683594 65.21875 18.132812 C 67.273438 17.597656 69.414062 18.847656 70.140625 21.007812 C 70.371094 21.6875 70.351562 22.957031 70.101562 23.671875 C 69.375 25.765625 67.285156 26.957031 65.226562 26.457031 Z M 68.40625 22.003906 C 68.988281 21.648438 69.03125 20.917969 68.496094 20.46875 C 68.191406 20.214844 67.644531 20.183594 67.378906 20.40625 C 66.902344 20.808594 66.804688 21.269531 67.089844 21.738281 C 67.367188 22.191406 67.917969 22.304688 68.40625 22.003906 Z M 68.40625 22.003906 "/>
<path style=" stroke:none;fill-rule:nonzero;fill:rgb(26.27451%,70.196078%,27.843137%);fill-opacity:1;" d="M 12.007812 98.867188 C 8.996094 98.5625 6.496094 97.421875 5.226562 95.773438 C 3.816406 93.941406 3.746094 92.027344 5.039062 90.722656 C 5.9375 89.8125 7.058594 89.339844 9.007812 89.054688 C 10.453125 88.839844 11.414062 88.8125 18.046875 88.800781 C 22.617188 88.792969 24.988281 88.757812 25.796875 88.683594 C 27.664062 88.515625 29.425781 88.273438 29.550781 88.171875 C 29.746094 88.011719 30.742188 83.609375 31.5 79.546875 C 32.050781 76.59375 32.519531 73.75 33.339844 68.421875 C 34.136719 63.230469 34.902344 58.664062 35.035156 58.277344 C 35.109375 58.058594 35.558594 57.652344 37.089844 56.417969 C 38.164062 55.550781 39.082031 54.839844 39.121094 54.839844 C 39.214844 54.839844 39.195312 55.074219 38.71875 59.632812 C 38.3125 63.492188 38.304688 63.589844 38.410156 63.589844 C 38.449219 63.589844 40.371094 62.125 42.683594 60.335938 C 44.992188 58.542969 46.929688 57.058594 46.988281 57.03125 C 47.238281 56.925781 47.253906 56.804688 46.5 61.667969 C 46.289062 63.035156 46.203125 63.816406 46.253906 63.871094 C 46.355469 63.972656 48.457031 62.941406 49.382812 62.335938 C 50.75 61.441406 51.972656 60.289062 52.679688 59.226562 C 52.867188 58.945312 53.0625 58.714844 53.113281 58.714844 C 53.238281 58.714844 53.398438 59.382812 53.515625 60.382812 C 53.652344 61.535156 53.558594 63.390625 53.222656 66.367188 C 53.199219 66.582031 53.222656 66.699219 53.300781 66.726562 C 53.421875 66.773438 54.253906 66.234375 55.285156 65.441406 C 56.847656 64.238281 58.027344 63 59.003906 61.539062 C 59.519531 60.773438 59.589844 60.609375 59.789062 59.789062 C 60.613281 56.320312 60.691406 52.882812 60.003906 50.199219 L 59.835938 49.546875 L 60.148438 49.296875 C 62.617188 47.332031 64.753906 44.699219 66.320312 41.695312 C 66.617188 41.128906 66.871094 40.679688 66.890625 40.695312 C 66.90625 40.710938 66.996094 41.136719 67.089844 41.636719 C 67.3125 42.796875 67.765625 44.398438 68.148438 45.375 C 68.605469 46.53125 68.988281 47.339844 69.078125 47.339844 C 69.296875 47.339844 70.332031 45.882812 71.09375 44.507812 C 71.625 43.542969 72.304688 41.996094 72.675781 40.902344 C 72.828125 40.457031 72.976562 40.089844 73.007812 40.089844 C 73.039062 40.089844 73.128906 40.324219 73.207031 40.609375 C 73.488281 41.613281 74.214844 42.75 74.964844 43.339844 C 75.148438 43.488281 75.53125 43.734375 75.816406 43.894531 C 76.425781 44.234375 76.351562 44.046875 76.832031 46.464844 C 79.867188 61.707031 78.25 72.941406 71.960938 80.339844 C 71.21875 81.210938 69.679688 82.71875 68.839844 83.398438 C 66.355469 85.402344 63.128906 87.160156 59.757812 88.339844 C 58.058594 88.9375 58.15625 88.933594 57.820312 88.410156 C 57.007812 87.140625 55.933594 86.179688 54.566406 85.507812 C 53.28125 84.871094 52.335938 84.65625 50.796875 84.644531 C 48.539062 84.625 46.871094 85.15625 44.769531 86.566406 C 43.230469 87.597656 42.042969 88.941406 41.230469 90.558594 L 40.933594 91.152344 L 40.367188 91.203125 C 40.054688 91.230469 39.03125 91.296875 38.089844 91.347656 L 36.382812 91.445312 L 35.296875 92.246094 C 33.808594 93.347656 31.875 94.628906 30.519531 95.414062 C 29.152344 96.207031 27.117188 97.226562 27.046875 97.160156 C 27.019531 97.132812 27.125 96.738281 27.28125 96.289062 C 27.675781 95.144531 27.707031 95.007812 27.546875 95.007812 C 27.476562 95.007812 27.054688 95.191406 26.609375 95.414062 C 23.011719 97.214844 19.242188 98.402344 15.839844 98.800781 C 14.914062 98.910156 12.792969 98.945312 12.007812 98.867188 Z M 43.089844 91.050781 C 43.089844 90.960938 44.171875 90.292969 44.789062 90.003906 C 45.742188 89.558594 46.402344 89.402344 47.339844 89.40625 C 48.238281 89.410156 49.136719 89.648438 49.902344 90.089844 C 50.605469 90.496094 50.582031 90.507812 48.714844 90.710938 C 46.144531 90.992188 43.089844 91.175781 43.089844 91.050781 Z M 38.257812 46.890625 C 38.257812 46.824219 38.347656 46.140625 38.460938 45.367188 C 39.050781 41.28125 39.40625 37.355469 39.589844 32.882812 C 39.703125 30.058594 39.691406 30.140625 40.109375 29.890625 C 40.300781 29.777344 40.480469 29.699219 40.511719 29.71875 C 40.542969 29.738281 40.59375 30.308594 40.625 30.984375 C 40.800781 35.003906 41.230469 37.492188 42.089844 39.484375 C 42.191406 39.726562 42.308594 39.921875 42.34375 39.921875 C 42.378906 39.921875 42.628906 39.710938 42.894531 39.449219 C 43.160156 39.1875 44.410156 38.074219 45.671875 36.972656 C 46.933594 35.871094 48.382812 34.585938 48.898438 34.113281 C 49.410156 33.640625 49.859375 33.257812 49.898438 33.257812 C 50.003906 33.257812 49.984375 39.617188 49.882812 39.691406 C 49.835938 39.726562 49.6875 39.734375 49.546875 39.707031 C 49.183594 39.640625 47.574219 39.824219 46.757812 40.023438 C 43.21875 40.886719 40.710938 42.851562 38.71875 46.320312 C 38.503906 46.699219 38.308594 47.007812 38.292969 47.007812 C 38.273438 47.007812 38.257812 46.953125 38.257812 46.890625 Z M 65.195312 26.378906 C 63.878906 26.023438 62.867188 25.082031 62.335938 23.714844 C 62.066406 23.015625 62.0625 21.617188 62.328125 20.890625 C 62.820312 19.539062 63.976562 18.492188 65.328125 18.175781 C 65.910156 18.039062 66.921875 18.105469 67.519531 18.320312 C 69.484375 19.023438 70.652344 21.261719 70.128906 23.300781 C 69.933594 24.0625 69.617188 24.636719 69.082031 25.210938 C 68.074219 26.289062 66.558594 26.746094 65.195312 26.378906 Z M 68.648438 21.890625 C 69.09375 21.40625 69.007812 20.699219 68.460938 20.335938 C 67.960938 20.007812 67.25 20.207031 66.964844 20.757812 C 66.789062 21.097656 66.8125 21.4375 67.03125 21.765625 C 67.285156 22.144531 67.554688 22.273438 68.003906 22.226562 C 68.300781 22.199219 68.433594 22.128906 68.648438 21.890625 Z M 68.648438 21.890625 "/>
<path style=" stroke:none;fill-rule:nonzero;fill:rgb(60%,40%,19.215686%);fill-opacity:1;" d="M 11.839844 98.78125 C 7.972656 98.367188 5.066406 96.511719 4.414062 94.035156 C 4.1875 93.179688 4.226562 92.234375 4.511719 91.632812 C 4.957031 90.679688 6.25 89.792969 7.710938 89.421875 C 9.410156 88.992188 9.832031 88.972656 16.964844 88.957031 C 24.285156 88.945312 25.738281 88.882812 29.027344 88.453125 C 29.246094 88.425781 29.421875 88.417969 29.421875 88.4375 C 29.421875 88.460938 29.21875 89.238281 28.964844 90.167969 C 28.714844 91.097656 28.507812 91.941406 28.507812 92.046875 C 28.507812 92.152344 28.339844 92.792969 28.132812 93.46875 C 27.925781 94.148438 27.757812 94.714844 27.757812 94.734375 C 27.757812 94.75 27.160156 95.058594 26.429688 95.414062 C 22.769531 97.210938 19.316406 98.300781 15.976562 98.714844 C 15.066406 98.828125 12.636719 98.867188 11.839844 98.78125 Z M 36.761719 91.289062 C 36.765625 91.25 37.113281 90.945312 37.535156 90.613281 C 42.597656 86.640625 48.320312 80.628906 52.230469 75.171875 C 55.515625 70.589844 57.5625 66.730469 59.167969 62.070312 C 60.234375 58.976562 60.539062 57.269531 60.542969 54.382812 C 60.542969 52.5 60.480469 51.824219 60.160156 50.390625 L 59.976562 49.566406 L 60.46875 49.144531 C 60.742188 48.910156 61.425781 48.273438 61.984375 47.722656 C 62.546875 47.175781 63.023438 46.746094 63.042969 46.765625 C 63.332031 47.054688 63.40625 52.414062 63.144531 54.257812 C 62.75 57.03125 62.199219 59.40625 61.34375 62.007812 C 60.304688 65.164062 59.492188 67.003906 57.601562 70.488281 C 55.371094 74.605469 54.4375 76.6875 53.945312 78.664062 C 53.640625 79.878906 53.621094 81.578125 53.898438 82.464844 C 54.140625 83.234375 54.792969 84.3125 55.488281 85.097656 C 56.316406 86.027344 57.414062 87.007812 57.632812 87.007812 C 57.855469 87.007812 60.121094 86.246094 61.339844 85.757812 C 64.699219 84.421875 67.714844 82.519531 69.886719 80.378906 C 76.652344 73.6875 78.402344 62.722656 75.453125 45.480469 C 75.292969 44.527344 75.175781 43.726562 75.195312 43.707031 C 75.21875 43.683594 75.464844 43.789062 75.746094 43.941406 C 76.339844 44.261719 76.285156 44.125 76.71875 46.273438 C 78.378906 54.453125 78.6875 61.761719 77.625 67.589844 C 76.160156 75.601562 72.304688 81.457031 65.90625 85.375 C 64.890625 85.996094 63.160156 86.875 61.753906 87.488281 C 60.8125 87.898438 58.421875 88.757812 58.226562 88.757812 C 58.171875 88.757812 57.96875 88.523438 57.78125 88.234375 C 56.960938 87.003906 55.894531 86.070312 54.558594 85.425781 C 52.355469 84.355469 49.898438 84.242188 47.4375 85.101562 C 45.953125 85.621094 44.179688 86.738281 43.082031 87.847656 C 42.425781 88.507812 41.53125 89.769531 41.121094 90.609375 C 40.851562 91.164062 40.925781 91.140625 39.339844 91.210938 C 38.765625 91.238281 37.953125 91.285156 37.527344 91.3125 C 37.089844 91.34375 36.757812 91.332031 36.761719 91.289062 Z M 43.664062 90.707031 C 45.179688 89.683594 46.800781 89.265625 48.179688 89.542969 C 48.917969 89.691406 50.332031 90.304688 50.203125 90.421875 C 50.066406 90.550781 45.101562 91.007812 43.84375 91.007812 L 43.21875 91.007812 Z M 38.378906 46.402344 C 38.441406 46.109375 38.738281 43.941406 38.921875 42.421875 C 39.292969 39.332031 39.53125 36.226562 39.675781 32.714844 C 39.722656 31.523438 39.78125 30.464844 39.804688 30.359375 C 39.839844 30.199219 40.269531 29.839844 40.433594 29.839844 C 40.460938 29.839844 40.507812 30.449219 40.542969 31.195312 C 40.652344 33.835938 40.859375 35.574219 41.261719 37.242188 C 41.527344 38.355469 42.121094 39.972656 42.28125 40.03125 C 42.335938 40.050781 42.683594 39.78125 43.046875 39.433594 C 43.414062 39.082031 44.898438 37.761719 46.339844 36.496094 C 47.785156 35.230469 49.171875 34.007812 49.421875 33.777344 L 49.882812 33.363281 L 49.859375 36.457031 L 49.835938 39.546875 L 48.859375 39.601562 C 47.25 39.6875 45.742188 40.082031 44.101562 40.847656 C 42.070312 41.792969 40.234375 43.535156 38.890625 45.789062 C 38.628906 46.230469 38.394531 46.589844 38.375 46.589844 C 38.355469 46.589844 38.355469 46.507812 38.378906 46.402344 Z M 65.195312 26.378906 C 63.878906 26.023438 62.867188 25.082031 62.335938 23.714844 C 62.066406 23.015625 62.0625 21.617188 62.328125 20.890625 C 62.820312 19.539062 63.976562 18.492188 65.328125 18.175781 C 65.910156 18.039062 66.921875 18.105469 67.519531 18.320312 C 69.484375 19.023438 70.652344 21.261719 70.128906 23.300781 C 69.933594 24.0625 69.617188 24.636719 69.082031 25.210938 C 68.074219 26.289062 66.558594 26.746094 65.195312 26.378906 Z M 68.648438 21.890625 C 69.09375 21.40625 69.007812 20.699219 68.460938 20.335938 C 67.960938 20.007812 67.25 20.207031 66.964844 20.757812 C 66.789062 21.097656 66.8125 21.4375 67.03125 21.765625 C 67.285156 22.144531 67.554688 22.273438 68.003906 22.226562 C 68.300781 22.199219 68.433594 22.128906 68.648438 21.890625 Z M 68.648438 21.890625 "/>
<path style=" stroke:none;fill-rule:nonzero;fill:rgb(11.764706%,66.27451%,28.627451%);fill-opacity:1;" d="M 11.839844 98.78125 C 7.972656 98.367188 5.066406 96.511719 4.414062 94.035156 C 4.1875 93.179688 4.226562 92.234375 4.511719 91.632812 C 4.957031 90.679688 6.25 89.792969 7.710938 89.421875 C 9.410156 88.992188 9.832031 88.972656 16.964844 88.957031 C 24.285156 88.945312 25.738281 88.882812 29.027344 88.453125 C 29.246094 88.425781 29.421875 88.417969 29.421875 88.4375 C 29.421875 88.460938 29.21875 89.238281 28.964844 90.167969 C 28.714844 91.097656 28.507812 91.941406 28.507812 92.046875 C 28.507812 92.152344 28.339844 92.792969 28.132812 93.46875 C 27.925781 94.148438 27.757812 94.714844 27.757812 94.734375 C 27.757812 94.75 27.160156 95.058594 26.429688 95.414062 C 22.769531 97.210938 19.316406 98.300781 15.976562 98.714844 C 15.066406 98.828125 12.636719 98.867188 11.839844 98.78125 Z M 36.761719 91.289062 C 36.765625 91.25 37.113281 90.945312 37.535156 90.613281 C 42.597656 86.640625 48.320312 80.628906 52.230469 75.171875 C 55.515625 70.589844 57.5625 66.730469 59.167969 62.070312 C 60.234375 58.976562 60.539062 57.269531 60.542969 54.382812 C 60.542969 52.5 60.480469 51.824219 60.160156 50.390625 L 59.976562 49.566406 L 60.46875 49.144531 C 60.742188 48.910156 61.425781 48.273438 61.984375 47.722656 C 62.546875 47.175781 63.023438 46.746094 63.042969 46.765625 C 63.332031 47.054688 63.40625 52.414062 63.144531 54.257812 C 62.75 57.03125 62.199219 59.40625 61.34375 62.007812 C 60.304688 65.164062 59.492188 67.003906 57.601562 70.488281 C 55.371094 74.605469 54.4375 76.6875 53.945312 78.664062 C 53.640625 79.878906 53.621094 81.578125 53.898438 82.464844 C 54.140625 83.234375 54.792969 84.3125 55.488281 85.097656 C 56.316406 86.027344 57.414062 87.007812 57.632812 87.007812 C 57.855469 87.007812 60.121094 86.246094 61.339844 85.757812 C 64.699219 84.421875 67.714844 82.519531 69.886719 80.378906 C 76.652344 73.6875 78.402344 62.722656 75.453125 45.480469 C 75.292969 44.527344 75.175781 43.726562 75.195312 43.707031 C 75.21875 43.683594 75.464844 43.789062 75.746094 43.941406 C 76.339844 44.261719 76.285156 44.125 76.71875 46.273438 C 78.378906 54.453125 78.6875 61.761719 77.625 67.589844 C 76.160156 75.601562 72.304688 81.457031 65.90625 85.375 C 64.890625 85.996094 63.160156 86.875 61.753906 87.488281 C 60.8125 87.898438 58.421875 88.757812 58.226562 88.757812 C 58.171875 88.757812 57.96875 88.523438 57.78125 88.234375 C 56.960938 87.003906 55.894531 86.070312 54.558594 85.425781 C 52.355469 84.355469 49.898438 84.242188 47.4375 85.101562 C 45.953125 85.621094 44.179688 86.738281 43.082031 87.847656 C 42.425781 88.507812 41.53125 89.769531 41.121094 90.609375 C 40.851562 91.164062 40.925781 91.140625 39.339844 91.210938 C 38.765625 91.238281 37.953125 91.285156 37.527344 91.3125 C 37.089844 91.34375 36.757812 91.332031 36.761719 91.289062 Z M 43.664062 90.707031 C 45.179688 89.683594 46.800781 89.265625 48.179688 89.542969 C 48.917969 89.691406 50.332031 90.304688 50.203125 90.421875 C 50.066406 90.550781 45.101562 91.007812 43.84375 91.007812 L 43.21875 91.007812 Z M 38.378906 46.402344 C 38.441406 46.109375 38.738281 43.941406 38.921875 42.421875 C 39.292969 39.332031 39.53125 36.226562 39.675781 32.714844 C 39.722656 31.523438 39.78125 30.464844 39.804688 30.359375 C 39.839844 30.199219 40.269531 29.839844 40.433594 29.839844 C 40.460938 29.839844 40.507812 30.449219 40.542969 31.195312 C 40.652344 33.835938 40.859375 35.574219 41.261719 37.242188 C 41.527344 38.355469 42.121094 39.972656 42.28125 40.03125 C 42.335938 40.050781 42.683594 39.78125 43.046875 39.433594 C 43.414062 39.082031 44.898438 37.761719 46.339844 36.496094 C 47.785156 35.230469 49.171875 34.007812 49.421875 33.777344 L 49.882812 33.363281 L 49.859375 36.457031 L 49.835938 39.546875 L 48.859375 39.601562 C 47.25 39.6875 45.742188 40.082031 44.101562 40.847656 C 42.070312 41.792969 40.234375 43.535156 38.890625 45.789062 C 38.628906 46.230469 38.394531 46.589844 38.375 46.589844 C 38.355469 46.589844 38.355469 46.507812 38.378906 46.402344 Z M 66.046875 23.9375 C 65.390625 23.621094 65.007812 23.007812 65.007812 22.257812 C 65.007812 21.289062 65.675781 20.53125 66.667969 20.375 C 67.042969 20.3125 67.105469 20.414062 66.878906 20.710938 C 66.605469 21.070312 66.785156 21.820312 67.226562 22.167969 C 67.492188 22.378906 68.21875 22.40625 68.46875 22.21875 C 68.734375 22.019531 68.78125 22.070312 68.726562 22.480469 C 68.65625 23 68.34375 23.507812 67.917969 23.804688 C 67.457031 24.121094 66.570312 24.183594 66.046875 23.9375 Z M 66.046875 23.9375 "/>
</g>
</svg>
