<svg xmlns="http://www.w3.org/2000/svg" xmlns:xlink="http://www.w3.org/1999/xlink" width="123px" height="100px" viewBox="0 0 123 100" version="1.1">
<g id="surface1">
<path style="fill-rule:nonzero;fill:rgb(36.470588%,65.882353%,86.27451%);fill-opacity:1;stroke-width:0.5;stroke-linecap:butt;stroke-linejoin:miter;stroke:rgb(36.470588%,65.882353%,86.27451%);stroke-opacity:1;stroke-miterlimit:4;" d="M 740.996452 0.207793 L 740.996452 -0.00349609 L 793.01247 -0.00349609 L 812.007479 3.799707 C 824.659071 6.264746 836.182945 9.504512 846.508618 13.483789 C 856.834291 17.498281 866.842793 22.181855 876.498883 27.499297 C 886.154972 32.816738 894.930032 38.275039 902.788821 43.80377 C 910.612368 49.26207 917.590127 55.07252 923.792579 61.199902 C 929.924548 67.397715 939.510156 69.017598 952.51416 65.989121 C 965.482923 62.995859 979.508922 58.840508 994.486434 53.487852 C 1009.499187 48.17041 1024.335734 42.183887 1038.996075 35.493066 C 1053.656416 28.837461 1062.607682 24.61168 1065.814631 22.815723 C 1068.951098 20.949336 1070.607435 19.928105 1070.783641 19.787246 L 1070.995088 19.505527 L 1072.017083 19.01252 L 1073.003837 18.484297 L 1073.990591 17.991289 L 1075.012586 17.498281 L 1075.188792 17.216562 L 1075.505962 17.005273 L 1075.787892 16.793984 L 1075.999339 16.512266 L 1076.986093 16.195332 L 1078.008088 15.984043 L 1077.796641 17.498281 L 1077.514711 19.01252 L 1076.986093 20.491543 L 1076.492716 22.005781 L 1075.999339 22.991797 L 1075.505962 24.013027 L 1075.012586 25.492051 C 1074.660174 26.513281 1074.343003 27.81623 1073.990591 29.506543 C 1073.67342 31.161641 1070.501711 37.817246 1064.510707 49.508574 C 1058.484461 61.164687 1051.013326 72.996875 1041.991577 85.005137 C 1033.00507 97.013398 1024.934834 106.063613 1017.816111 112.190996 C 1010.591664 118.388809 1005.834102 122.720234 1003.508182 125.185273 C 1001.182263 127.720742 998.327725 130.080137 995.015052 132.193027 L 990.010801 135.503223 L 988.988806 135.99623 L 988.002053 136.489238 L 987.790605 136.806172 L 987.508676 137.017461 L 987.191505 137.193535 L 987.015299 137.510469 L 985.993304 138.003477 L 985.00655 138.496484 L 984.795103 138.813418 L 984.513173 138.989492 L 984.196002 139.200781 L 983.984555 139.4825 L 983.808349 139.799434 L 983.491178 140.010723 L 983.209249 140.186797 L 982.997802 140.50373 L 988.002053 140.50373 L 1015.983569 134.517207 C 1034.661407 130.502715 1052.493456 125.678281 1069.514958 120.008691 L 1096.50972 110.993691 L 1099.505223 110.007676 L 1100.985353 109.514668 L 1102.007348 108.986445 L 1102.994102 108.493437 L 1104.016097 108.00043 L 1105.00285 107.507422 L 1107.011599 107.190488 L 1108.985106 107.014414 L 1108.985106 108.986445 L 1108.49173 109.197734 L 1107.998353 109.514668 L 1107.786905 109.796387 L 1107.504976 110.007676 L 1107.187805 110.18375 L 1107.011599 110.500684 L 1106.800152 110.782402 L 1106.482981 110.993691 L 1106.201051 111.20498 L 1105.989604 111.486699 L 1105.813398 111.803633 L 1105.496227 112.014922 L 1104.509473 113.986953 L 1104.192303 114.198242 C 1104.051338 114.409531 1099.822393 120.079121 1091.505469 131.207012 C 1083.153304 142.405332 1078.677671 148.074922 1078.008088 148.215781 C 1077.338505 148.391855 1076.386993 149.413086 1075.188792 151.209043 C 1074.061073 153.07543 1067.012832 160.505762 1054.008828 173.500039 C 1041.004824 186.494316 1028.282749 198.08 1015.807363 208.18666 C 1003.261494 218.398965 996.918077 230.935449 996.812354 245.796113 C 996.600906 260.586348 995.8256 277.348613 994.486434 296.01248 C 993.18251 314.676348 990.680384 334.819238 987.015299 356.511582 C 983.350214 378.168711 977.67638 402.678242 969.993797 430.004961 C 962.346456 457.33168 953.007537 483.989316 942.012281 510.013086 C 931.017025 536.001641 919.493152 559.349082 907.511142 579.98498 C 895.493892 600.656094 884.498636 618.157871 874.490134 632.490312 C 864.516873 646.822754 854.332165 660.345254 844.006492 672.987383 C 833.680819 685.664727 820.606333 699.926738 804.818273 715.808633 C 788.92449 731.584883 780.255154 740.282949 778.810265 741.797187 C 777.259652 743.276211 770.740029 748.734512 759.216155 758.207305 C 747.727522 767.750527 735.393101 777.258535 722.212891 786.801758 C 709.067921 796.274551 697.01543 804.162676 685.984933 810.501348 C 674.989677 816.84002 661.738984 824.059062 646.197613 832.193691 C 630.726725 840.39875 613.987153 848.005156 596.014139 855.01291 C 578.005883 861.985449 559.010874 868.500195 538.99387 874.486719 C 519.012107 880.508457 499.664686 885.156816 480.986848 888.502227 C 462.344251 891.847637 441.164287 894.664824 417.517439 896.989004 L 381.994306 900.510488 L 381.994306 901.003496 L 317.009525 901.003496 L 317.009525 900.510488 L 308.516395 900.01748 C 302.842561 899.665332 298.155481 899.348398 294.490396 898.99625 C 290.82531 898.679316 277.010758 896.848145 253.011498 893.502734 C 229.012238 890.157324 210.158194 886.847129 196.484607 883.501719 C 182.846261 880.156309 162.512086 873.817637 135.517324 864.485703 C 108.48732 855.15377 85.404331 845.716191 66.197875 836.208184 C 47.061901 826.735391 35.079892 820.748867 30.216606 818.213398 C 25.388561 815.748359 19.996656 812.649453 14.005652 808.987109 L 4.983903 803.493594 L 4.807697 803.211875 L 4.490527 803.000586 L 4.208597 802.789297 L 3.99715 802.507578 L 3.010396 802.01457 L 1.988401 801.486348 L 1.812195 801.204629 L 1.495024 800.99334 L 1.213095 800.817266 L 0.7902 800.183398 L 0.50827 800.007324 L 0.0148936 800.007324 L 0.0148936 798.000078 L 1.001647 798.211367 L 1.988401 798.493086 L 6.499275 798.986094 C 9.494777 799.338242 17.670737 799.83125 30.991912 800.500332 C 44.348328 801.169414 58.515293 801.169414 73.492804 800.500332 C 88.505557 799.83125 103.835481 798.317012 119.482576 795.992832 C 135.164912 793.668652 153.666544 789.65416 174.987472 783.98457 C 196.343642 778.350195 215.937752 771.588945 233.805042 763.806465 C 251.60185 755.91834 264.253442 750.072676 271.79506 746.199043 C 279.266195 742.39584 290.684346 735.317656 306.014269 724.999707 L 328.991535 709.505176 L 329.202982 709.188242 L 329.484911 709.012168 L 329.802082 708.800879 L 330.013529 708.483945 L 330.189735 708.202227 L 330.506906 707.990937 L 330.788836 707.814863 L 331.000283 707.49793 L 331.987037 707.216211 L 333.009032 707.004922 L 333.185238 705.983691 L 333.502409 704.997676 L 333.784338 704.786387 L 333.995786 704.504668 L 325.996032 704.01166 C 320.67461 703.659512 315.494153 703.342578 310.489902 702.99043 C 305.485651 702.673496 297.662104 701.159258 286.984019 698.48293 C 276.341175 695.841816 264.817302 691.827324 252.48288 686.509883 C 240.1837 681.157227 228.166449 674.818555 216.501611 667.493867 C 204.836772 660.16918 196.414124 654.077012 191.198426 649.217363 C 186.05321 644.39293 179.392623 637.596465 171.216663 628.792754 C 163.075945 619.918613 155.992463 610.833184 150.001459 601.50125 C 144.010454 592.169316 138.266138 581.393574 132.803751 569.209238 L 124.486827 551.003164 L 123.99345 549.488926 L 123.500073 548.009902 L 123.182902 546.988672 L 123.006696 546.002656 L 124.486827 546.213945 L 126.002198 546.495664 L 136.997454 548.009902 C 144.327625 548.995918 155.851498 549.348066 171.498593 548.995918 C 187.180929 548.678984 197.999979 548.009902 203.990983 546.988672 C 210.017229 546.002656 213.682314 545.333574 214.986239 545.016641 L 216.994988 544.488418 L 221.999239 543.502402 L 222.210686 543.185469 L 222.492616 543.009395 L 222.809786 542.798105 L 222.985992 542.516387 L 221.012485 541.988164 L 214.986239 540.509141 L 213.012732 540.016133 C 211.673566 539.663984 209.347646 538.994902 205.999732 538.008887 C 202.651818 536.987656 193.66531 533.325312 179.00497 526.986641 C 164.344629 520.683184 152.67979 514.485371 144.010454 508.498848 C 135.305876 502.477109 127.024193 495.891934 119.200646 488.81375 C 111.41234 481.594707 102.848727 472.333203 93.509808 460.994023 C 84.170889 449.654844 75.818724 436.484492 68.488553 421.482969 C 61.158383 406.51666 55.660755 392.184219 51.99567 378.485645 C 48.330584 364.92793 45.934183 351.018066 44.806464 337.002559 L 43.009163 316.014512 L 43.995916 316.190586 L 44.98267 316.50752 L 46.004665 317.000527 L 46.991419 317.493535 L 48.013414 317.986543 L 49.000167 318.514766 L 64.506297 325.487305 C 74.83197 330.170879 87.659768 334.150156 102.989692 337.495566 C 118.319616 340.840977 127.51757 342.672148 130.513073 342.989082 L 134.988706 343.517305 L 144.010454 343.517305 L 143.799007 343.200371 L 143.517077 342.989082 L 143.199906 342.813008 L 142.988459 342.496074 L 142.812253 342.214355 L 142.495082 342.003066 L 142.213152 341.791777 L 142.001705 341.510059 L 141.014951 341.017051 L 139.992957 340.488828 L 139.816751 340.207109 L 139.182409 339.784531 L 139.006203 339.502812 L 137.984208 339.009805 L 136.997454 338.516797 L 136.786007 338.199863 C 136.609801 338.059004 133.720022 335.946113 128.187153 331.790762 C 122.724767 327.600195 117.015691 322.177109 110.989446 315.486289 C 104.998441 308.830684 99.007436 301.82293 93.016431 294.498242 C 86.990185 287.13834 81.633522 279.28543 77.016925 271.009941 C 72.329845 262.664023 67.396076 252.064355 62.215619 239.210937 C 57.070403 226.392734 53.158629 213.504102 50.515539 200.509824 C 47.837208 187.515547 46.321836 174.662129 46.004665 161.984785 C 45.652253 149.342656 46.004665 138.496484 46.991419 129.516699 C 48.013414 120.501699 49.986921 110.324609 52.982423 98.98543 C 56.013167 87.681465 60.347835 75.673203 65.986428 62.995859 L 74.514799 44.015059 L 75.501553 40.986582 L 75.783483 40.810508 L 75.99493 40.493574 L 76.206377 40.211855 L 76.488307 40.000566 L 76.805477 40.211855 L 77.016925 40.493574 L 77.193131 40.810508 L 77.510302 40.986582 L 77.792231 41.197871 L 78.003678 41.514805 L 78.215126 41.796523 L 78.497055 42.007812 L 78.990432 42.993828 L 79.483809 44.015059 L 79.80098 44.191133 L 80.012427 44.508066 L 93.509808 59.50959 C 102.496315 69.510605 113.1744 80.673711 125.508822 92.998906 C 137.843243 105.324102 144.680037 111.733203 145.983961 112.190996 C 147.323127 112.719219 149.014705 114.268672 150.988212 116.804141 C 152.996961 119.26918 159.657548 125.150059 171.005216 134.517207 C 182.317643 143.849141 197.15419 154.660098 215.514857 166.985293 C 233.840283 179.345703 254.174458 191.494824 276.517382 203.503086 C 298.825064 215.511348 322.824324 226.322305 348.515162 236.006387 C 374.170758 245.655254 392.179014 251.993926 402.504686 254.987187 C 412.830359 258.015664 430.486203 261.818867 455.507457 266.502441 C 480.493471 271.150801 499.347515 274.179277 511.999108 275.517441 C 524.6507 276.820391 533.320036 277.595117 538.007116 277.806406 L 544.984875 277.98248 L 544.808669 276.503457 L 544.491498 274.989219 L 542.482749 262.487949 C 541.178825 254.177246 540.509242 242.485918 540.509242 227.484395 C 540.509242 212.482871 541.672202 198.678652 543.998121 186.001309 C 546.324041 173.323965 549.848161 160.505762 554.5 147.511484 C 559.151839 134.517207 563.733195 124.058398 568.208828 116.205488 C 572.719703 108.387793 578.675466 99.513652 586.005637 89.512637 C 593.335807 79.511621 602.850932 69.158457 614.515771 58.488359 C 626.180609 47.818262 639.501784 38.345469 654.514537 29.999551 C 669.492049 21.653633 683.341842 15.350176 695.993435 10.983535 C 708.680268 6.652109 719.323112 3.834922 727.992448 2.496758 C 736.661784 1.158594 740.996452 0.383867 740.996452 0.207793 Z M 740.996452 0.207793 " transform="matrix(0.110843,0,0,0.110926,0.0374116,0.0277316)"/>
<path style="fill-rule:nonzero;fill:rgb(100%,100%,100%);fill-opacity:1;stroke-width:0.5;stroke-linecap:butt;stroke-linejoin:miter;stroke:rgb(100%,100%,100%);stroke-opacity:1;stroke-miterlimit:4;" d="M 0.0148936 399.015898 L 0.0148936 -0.00349609 L 740.996452 -0.00349609 L 740.996452 0.207793 C 740.996452 0.383867 736.661784 1.158594 727.992448 2.496758 C 719.323112 3.834922 708.680268 6.652109 695.993435 10.983535 C 683.341842 15.350176 669.492049 21.653633 654.514537 29.999551 C 639.501784 38.345469 626.180609 47.818262 614.515771 58.488359 C 602.850932 69.158457 593.335807 79.511621 586.005637 89.512637 C 578.675466 99.513652 572.719703 108.387793 568.208828 116.205488 C 563.733195 124.058398 559.151839 134.517207 554.5 147.511484 C 549.848161 160.505762 546.324041 173.323965 543.998121 186.001309 C 541.672202 198.678652 540.509242 212.482871 540.509242 227.484395 C 540.509242 242.485918 541.178825 254.177246 542.482749 262.487949 L 544.491498 274.989219 L 544.808669 276.503457 L 544.984875 277.98248 L 538.007116 277.806406 C 533.320036 277.595117 524.6507 276.820391 511.999108 275.517441 C 499.347515 274.179277 480.493471 271.150801 455.507457 266.502441 C 430.486203 261.818867 412.830359 258.015664 402.504686 254.987187 C 392.179014 251.993926 374.170758 245.655254 348.515162 236.006387 C 322.824324 226.322305 298.825064 215.511348 276.517382 203.503086 C 254.174458 191.494824 233.840283 179.345703 215.514857 166.985293 C 197.15419 154.660098 182.317643 143.849141 171.005216 134.517207 C 159.657548 125.150059 152.996961 119.26918 150.988212 116.804141 C 149.014705 114.268672 147.323127 112.719219 145.983961 112.190996 C 144.680037 111.733203 137.843243 105.324102 125.508822 92.998906 C 113.1744 80.673711 102.496315 69.510605 93.509808 59.50959 L 80.012427 44.508066 L 79.80098 44.191133 L 79.483809 44.015059 L 78.990432 42.993828 L 78.497055 42.007812 L 78.215126 41.796523 L 78.003678 41.514805 L 77.792231 41.197871 L 77.510302 40.986582 L 77.193131 40.810508 L 77.016925 40.493574 L 76.805477 40.211855 L 76.488307 40.000566 L 76.206377 40.211855 L 75.99493 40.493574 L 75.783483 40.810508 L 75.501553 40.986582 L 74.514799 44.015059 L 65.986428 62.995859 C 60.347835 75.673203 56.013167 87.681465 52.982423 98.98543 C 49.986921 110.324609 48.013414 120.501699 46.991419 129.516699 C 46.004665 138.496484 45.652253 149.342656 46.004665 161.984785 C 46.321836 174.662129 47.837208 187.515547 50.515539 200.509824 C 53.158629 213.504102 57.070403 226.392734 62.215619 239.210937 C 67.396076 252.064355 72.329845 262.664023 77.016925 271.009941 C 81.668764 279.320645 86.990185 287.173555 93.016431 294.498242 C 99.007436 301.82293 104.998441 308.830684 110.989446 315.486289 C 117.015691 322.177109 122.724767 327.600195 128.187153 331.790762 C 133.720022 335.946113 136.609801 338.059004 136.786007 338.199863 L 136.997454 338.516797 L 137.984208 339.009805 L 139.006203 339.502812 L 139.182409 339.784531 L 139.816751 340.207109 L 139.992957 340.488828 L 141.014951 341.017051 L 142.001705 341.510059 L 142.213152 341.791777 L 142.495082 342.003066 L 142.812253 342.214355 L 142.988459 342.496074 L 143.199906 342.813008 L 143.517077 342.989082 L 143.799007 343.200371 L 144.010454 343.517305 L 134.988706 343.517305 L 130.513073 342.989082 C 127.51757 342.672148 118.319616 340.840977 102.989692 337.495566 C 87.659768 334.150156 74.83197 330.170879 64.506297 325.487305 L 49.000167 318.514766 L 48.013414 317.986543 L 46.991419 317.493535 L 46.004665 317.000527 L 44.98267 316.50752 L 43.995916 316.190586 L 43.009163 316.014512 L 44.806464 337.002559 C 45.934183 350.982852 48.330584 364.822285 51.99567 378.485645 C 55.660755 392.184219 61.158383 406.51666 68.488553 421.482969 C 75.818724 436.484492 84.170889 449.654844 93.509808 460.994023 C 102.848727 472.333203 111.41234 481.594707 119.200646 488.81375 C 127.024193 495.891934 135.305876 502.477109 144.010454 508.498848 C 152.67979 514.485371 164.344629 520.683184 179.00497 526.986641 C 193.66531 533.325312 202.651818 536.987656 205.999732 538.008887 C 209.347646 538.994902 211.673566 539.663984 213.012732 540.016133 L 214.986239 540.509141 L 221.012485 541.988164 L 222.985992 542.516387 L 222.809786 542.798105 L 222.492616 543.009395 L 222.210686 543.185469 L 221.999239 543.502402 L 216.994988 544.488418 L 214.986239 545.016641 C 213.682314 545.333574 210.017229 546.002656 203.990983 546.988672 C 197.999979 548.009902 187.180929 548.678984 171.498593 548.995918 C 155.851498 549.348066 144.327625 548.995918 136.997454 548.009902 L 126.002198 546.495664 L 124.486827 546.213945 L 123.006696 546.002656 L 123.182902 546.988672 L 123.500073 548.009902 L 123.99345 549.488926 L 124.486827 551.003164 L 132.803751 569.209238 C 138.266138 581.393574 144.010454 592.169316 150.001459 601.50125 C 155.992463 610.833184 163.075945 619.918613 171.216663 628.792754 C 179.392623 637.596465 186.05321 644.39293 191.198426 649.217363 C 196.414124 654.077012 204.836772 660.16918 216.501611 667.493867 C 228.166449 674.818555 240.1837 681.157227 252.48288 686.509883 C 264.817302 691.827324 276.341175 695.841816 286.984019 698.48293 C 297.662104 701.159258 305.485651 702.673496 310.489902 702.99043 C 315.494153 703.342578 320.67461 703.659512 325.996032 704.01166 L 333.995786 704.504668 L 333.784338 704.786387 L 333.502409 704.997676 L 333.185238 705.983691 L 333.009032 707.004922 L 331.987037 707.216211 L 331.000283 707.49793 L 330.788836 707.814863 L 330.506906 707.990937 L 330.189735 708.202227 L 330.013529 708.483945 L 329.802082 708.800879 L 329.484911 709.012168 L 329.202982 709.188242 L 328.991535 709.505176 L 306.014269 724.999707 C 290.684346 735.317656 279.266195 742.39584 271.79506 746.199043 C 264.253442 750.072676 251.60185 755.91834 233.805042 763.806465 C 215.937752 771.588945 196.343642 778.350195 174.987472 783.98457 C 153.666544 789.65416 135.164912 793.668652 119.482576 795.992832 C 103.835481 798.317012 88.505557 799.83125 73.492804 800.500332 C 58.515293 801.169414 44.348328 801.169414 30.991912 800.500332 C 17.670737 799.83125 9.494777 799.338242 6.499275 798.986094 L 1.988401 798.493086 L 1.001647 798.211367 L 0.0148936 798.000078 Z M 1107.786905 109.796387 L 1107.998353 109.514668 L 1108.49173 109.197734 L 1108.985106 108.986445 L 1108.985106 901.003496 L 381.994306 901.003496 L 381.994306 900.510488 L 417.517439 896.989004 C 441.164287 894.664824 462.344251 891.847637 480.986848 888.502227 C 499.664686 885.156816 519.012107 880.508457 538.99387 874.486719 C 559.010874 868.500195 578.005883 861.985449 596.014139 855.01291 C 613.987153 848.005156 630.726725 840.39875 646.197613 832.193691 C 661.738984 824.059062 674.989677 816.84002 685.984933 810.501348 C 697.01543 804.162676 709.067921 796.274551 722.212891 786.801758 C 735.393101 777.258535 747.727522 767.750527 759.216155 758.207305 C 770.740029 748.734512 777.259652 743.276211 778.810265 741.797187 C 780.255154 740.282949 788.92449 731.584883 804.818273 715.808633 C 820.606333 699.926738 833.680819 685.664727 844.006492 672.987383 C 854.332165 660.345254 864.516873 646.822754 874.490134 632.490312 C 884.498636 618.157871 895.493892 600.656094 907.511142 579.98498 C 919.493152 559.349082 931.017025 536.001641 942.012281 510.013086 C 953.007537 483.989316 962.346456 457.33168 969.993797 430.004961 C 977.67638 402.678242 983.350214 378.168711 987.015299 356.511582 C 990.680384 334.819238 993.18251 314.676348 994.486434 296.01248 C 995.8256 277.348613 996.600906 260.586348 996.812354 245.796113 C 996.918077 230.935449 1003.261494 218.398965 1015.807363 208.18666 C 1028.282749 198.08 1041.004824 186.494316 1054.008828 173.500039 C 1067.012832 160.505762 1074.061073 153.07543 1075.188792 151.209043 C 1076.386993 149.413086 1077.338505 148.391855 1078.008088 148.215781 C 1078.677671 148.074922 1083.153304 142.405332 1091.505469 131.207012 C 1099.822393 120.079121 1104.051338 114.409531 1104.192303 114.198242 L 1104.509473 113.986953 L 1105.496227 112.014922 L 1105.813398 111.803633 L 1105.989604 111.486699 L 1106.201051 111.20498 L 1106.482981 110.993691 L 1106.800152 110.782402 L 1107.011599 110.500684 L 1107.187805 110.18375 L 1107.504976 110.007676 Z M 812.007479 3.799707 L 793.01247 -0.00349609 L 1108.985106 -0.00349609 L 1108.985106 107.014414 L 1107.011599 107.190488 L 1105.00285 107.507422 L 1104.016097 108.00043 L 1102.994102 108.493437 L 1102.007348 108.986445 L 1100.985353 109.514668 L 1099.505223 110.007676 L 1096.50972 110.993691 L 1069.514958 120.008691 C 1052.493456 125.678281 1034.661407 130.502715 1015.983569 134.517207 L 988.002053 140.50373 L 982.997802 140.50373 L 983.209249 140.186797 L 983.491178 140.010723 L 983.808349 139.799434 L 983.984555 139.4825 L 984.196002 139.200781 L 984.513173 138.989492 L 984.795103 138.813418 L 985.00655 138.496484 L 985.993304 138.003477 L 987.015299 137.510469 L 987.191505 137.193535 L 987.508676 137.017461 L 987.790605 136.806172 L 988.002053 136.489238 L 988.988806 135.99623 L 990.010801 135.503223 L 995.015052 132.193027 C 998.327725 130.080137 1001.182263 127.720742 1003.508182 125.185273 C 1005.834102 122.720234 1010.591664 118.388809 1017.816111 112.190996 C 1024.934834 106.063613 1033.00507 97.013398 1041.991577 85.005137 C 1051.013326 72.996875 1058.484461 61.164687 1064.510707 49.508574 C 1070.501711 37.817246 1073.67342 31.161641 1073.990591 29.506543 C 1074.343003 27.81623 1074.660174 26.513281 1075.012586 25.492051 L 1075.505962 24.013027 L 1075.999339 22.991797 L 1076.492716 22.005781 L 1076.986093 20.491543 L 1077.514711 19.01252 L 1077.796641 17.498281 L 1078.008088 15.984043 L 1076.986093 16.195332 L 1075.999339 16.512266 L 1075.787892 16.793984 L 1075.505962 17.005273 L 1075.188792 17.216562 L 1075.012586 17.498281 L 1073.990591 17.991289 L 1073.003837 18.484297 L 1072.017083 19.01252 L 1070.995088 19.505527 L 1070.783641 19.787246 C 1070.607435 19.928105 1068.951098 20.949336 1065.814631 22.815723 C 1062.607682 24.61168 1053.656416 28.837461 1038.996075 35.493066 C 1024.335734 42.183887 1009.499187 48.17041 994.486434 53.487852 C 979.508922 58.840508 965.482923 62.995859 952.51416 65.989121 C 939.510156 69.017598 929.924548 67.397715 923.792579 61.199902 C 917.590127 55.07252 910.612368 49.26207 902.788821 43.80377 C 894.930032 38.275039 886.154972 32.816738 876.498883 27.499297 C 866.842793 22.146641 856.799049 17.498281 846.508618 13.483789 C 836.182945 9.504512 824.659071 6.264746 812.007479 3.799707 Z M 0.0148936 850.50541 L 0.0148936 800.007324 L 0.50827 800.007324 L 0.7902 800.183398 L 1.213095 800.817266 L 1.495024 800.99334 L 1.812195 801.204629 L 1.988401 801.486348 L 3.010396 802.01457 L 3.99715 802.507578 L 4.208597 802.789297 L 4.490527 803.000586 L 4.807697 803.211875 L 4.983903 803.493594 L 14.005652 808.987109 C 19.996656 812.649453 25.388561 815.748359 30.216606 818.213398 C 35.079892 820.748867 47.061901 826.735391 66.197875 836.208184 C 85.404331 845.716191 108.48732 855.15377 135.517324 864.485703 C 162.512086 873.817637 182.846261 880.156309 196.484607 883.501719 C 210.158194 886.847129 229.012238 890.157324 253.011498 893.502734 C 277.010758 896.848145 290.82531 898.679316 294.490396 898.99625 C 298.155481 899.348398 302.842561 899.665332 308.516395 900.01748 L 317.009525 900.510488 L 317.009525 901.003496 L 0.0148936 901.003496 Z M 0.0148936 850.50541 " transform="matrix(0.110843,0,0,0.110926,0.0374116,0.0277316)"/>
</g>
</svg>
