<svg style="enable-background:new 0 0 512 512;" version="1.1" viewBox="0 0 512 512" xml:space="preserve" xmlns="http://www.w3.org/2000/svg" xmlns:xlink="http://www.w3.org/1999/xlink"><style>
	.st0-typekit{display:none;}
	.st1-typekit{fill:#86EB00;}
	.st2-typekit{fill:#152600;}
</style><g class="st0-typekit"/><g><rect class="st1-typekit" height="384" width="384" x="64" y="64"/><rect class="st2-typekit" height="337.9" width="337.9" x="87.3" y="86.6"/><path class="st1-typekit" d="M300.7,257.2c0.1,0.4,0.5,0.5,0.8,0.3c1.1-1.1,1.5-1.6,2.6-3.1c11.7-15.8,23.5-31.6,35.1-47.4   c1.8-2.4,3.8-4.2,6.9-4.1c7,0.2,9.7,0.2,16.8,0.3c1.5,0,7.8-0.4,8.6,1.2c0.9,1.9-1.2,3.1-2.2,4.4c-13.2,16.5-26.3,33-39.8,49.2   c-2.8,3.4-2.7,5.6-0.2,9c15.6,21.3,30.9,42.7,46.3,64.1c0.9,1.2,2.2,1.9,1.5,3.5c-0.9,2-2.6,1.6-4.2,1.6c-8.5,0.1-16.7,0-25.1,0.3   c-3.1,0.1-5.2-1.2-6.9-3.7c-12.2-18-24.5-35.9-36.8-53.8c-0.7-1.1-1.5-2.1-2.4-3.3c-0.2-0.3-0.6-0.2-0.7,0.1   c-0.6,1.7-0.6,2.9-0.6,4.2c-0.1,17.1-0.2,34.2,0.1,51.3c0.1,4.5-1,4.9-6.6,4.9c-5.5,0-11,0.1-16.5,0.1c-4.8,0-6-0.9-6-5.3   c0.2-42.5,0.1-85.1,0.1-127.6c0-13.6,0.1-27.2-0.1-40.8c-0.1-4,0.8-5,6.1-4.9c5,0,9.9,0.1,14.9,0c6.3-0.1,8.2,0.1,8.2,5.4   c-0.2,29.9-0.1,59.8-0.1,89.7C300.4,255.2,300.3,255.4,300.7,257.2z"/><path class="st1-typekit" d="M179.4,259.7c0-23.7-0.1-47.3,0.1-71c0-3.9-0.9-5.2-5-5.1c-12.3,0.3-24.6,0-36.9,0.1c-3,0-4.4-0.5-3.7-4   c1.1-5.8,1.7-11.7,2.4-17.6c0.4-3.1,1.4-4.6,5.1-4.6c35.5,0.2,71,0.1,106.5,0c3.3,0,4.5,3,4.7,4.3c0.7,5.5,1.2,11.1,1.7,16.7   c0.4,4.4-0.4,5.3-4.7,5.2c-11.8-0.3-23.7,0.1-35.5-0.2c-4.6-0.1-5.5,1.5-5.5,5.7c0.1,46.5,0.1,93.1,0.1,139.6c0,7.3,0,7.3-7.2,7.3   c-5.6,0-11.2,0-16.8,0.1c-4,0-5.2-1-5.2-5.1C179.4,307.4,179.4,283.6,179.4,259.7z"/></g></svg>