<svg xmlns="http://www.w3.org/2000/svg" xmlns:xlink="http://www.w3.org/1999/xlink" width="100px" height="100px" viewBox="0 0 100 100" version="1.1">
<g id="surface1">
<path style=" stroke:none;fill-rule:nonzero;fill:rgb(10.588235%,71.764706%,91.764706%);fill-opacity:1;" d="M 12.5 0 L 87.5 0 C 94.402344 0 100 5.597656 100 12.5 L 100 87.5 C 100 94.402344 94.402344 100 87.5 100 L 12.5 100 C 5.597656 100 0 94.402344 0 87.5 L 0 12.5 C 0 5.597656 5.597656 0 12.5 0 Z M 12.5 0 "/>
<path style=" stroke:none;fill-rule:nonzero;fill:rgb(100%,100%,100%);fill-opacity:1;" d="M 88.671875 32.273438 C 84.304688 56.878906 59.917969 77.695312 52.582031 82.457031 C 45.238281 87.203125 38.546875 80.542969 36.121094 75.511719 C 33.34375 69.765625 25.011719 38.628906 22.835938 36.046875 C 20.652344 33.460938 14.109375 38.628906 14.109375 38.628906 L 10.9375 34.460938 C 10.9375 34.460938 24.226562 18.597656 34.335938 16.605469 C 45.058594 14.511719 45.039062 33.070312 47.625 43.382812 C 50.117188 53.359375 51.789062 59.054688 53.96875 59.054688 C 56.148438 59.054688 60.316406 53.496094 64.875 44.96875 C 69.441406 36.4375 64.679688 28.898438 55.75 34.261719 C 59.324219 12.847656 93.039062 7.695312 88.671875 32.273438 Z M 88.671875 32.273438 "/>
</g>
</svg>
