<svg xmlns="http://www.w3.org/2000/svg" xmlns:xlink="http://www.w3.org/1999/xlink" width="100px" height="100px" viewBox="0 0 100 100" version="1.1">
<g id="surface1">
<path style=" stroke:none;fill-rule:nonzero;fill:rgb(3.137255%,12.941176%,23.921569%);fill-opacity:1;" d="M 94.964844 93.058594 C 88.574219 88.390625 81.539062 84.765625 74.054688 82.285156 C 70.710938 81.175781 67.300781 80.304688 63.839844 79.671875 C 69.019531 77.726562 73.765625 74.683594 77.792969 70.65625 C 85.21875 63.230469 89.308594 53.359375 89.308594 42.859375 C 89.308594 32.363281 85.21875 22.492188 77.792969 15.066406 C 70.371094 7.640625 60.5 3.554688 50 3.554688 C 39.5 3.554688 29.628906 7.640625 22.207031 15.066406 C 14.78125 22.492188 10.691406 32.363281 10.691406 42.859375 C 10.691406 53.359375 14.78125 63.230469 22.207031 70.65625 C 26.234375 74.683594 30.980469 77.726562 36.160156 79.671875 C 32.699219 80.304688 29.289062 81.175781 25.945312 82.285156 C 18.460938 84.765625 11.425781 88.390625 5.035156 93.058594 C 4.378906 93.535156 4.105469 94.382812 4.355469 95.152344 C 4.609375 95.925781 5.328125 96.445312 6.140625 96.445312 L 93.859375 96.445312 C 94.671875 96.445312 95.390625 95.925781 95.644531 95.152344 C 95.894531 94.382812 95.621094 93.535156 94.964844 93.058594 Z M 14.441406 42.859375 C 14.441406 23.253906 30.394531 7.304688 50 7.304688 C 69.605469 7.304688 85.558594 23.253906 85.558594 42.859375 C 85.558594 62.46875 69.605469 78.417969 50 78.417969 C 30.394531 78.417969 14.441406 62.46875 14.441406 42.859375 Z M 12.316406 92.695312 C 23.648438 85.789062 36.554688 82.167969 50 82.167969 C 63.445312 82.167969 76.351562 85.789062 87.683594 92.695312 Z M 12.316406 92.695312 "/>
<path style=" stroke:none;fill-rule:nonzero;fill:rgb(3.137255%,12.941176%,23.921569%);fill-opacity:1;" d="M 50 21.59375 C 38.273438 21.59375 28.734375 31.132812 28.734375 42.859375 C 28.734375 54.585938 38.273438 64.128906 50 64.128906 C 61.726562 64.128906 71.265625 54.585938 71.265625 42.859375 C 71.265625 31.132812 61.726562 21.59375 50 21.59375 Z M 45.148438 28.835938 C 50.203125 28.835938 54.320312 32.949219 54.320312 38.007812 C 54.320312 43.066406 50.203125 47.179688 45.148438 47.179688 C 40.089844 47.179688 35.976562 43.066406 35.976562 38.007812 C 35.976562 32.949219 40.089844 28.835938 45.148438 28.835938 Z M 50 60.378906 C 40.339844 60.378906 32.484375 52.519531 32.484375 42.859375 C 32.484375 42.238281 32.515625 41.621094 32.582031 41.015625 C 33.941406 46.695312 39.058594 50.929688 45.148438 50.929688 C 52.273438 50.929688 58.070312 45.132812 58.070312 38.007812 C 58.070312 31.917969 53.835938 26.800781 48.15625 25.441406 C 48.761719 25.378906 49.378906 25.34375 50 25.34375 C 59.660156 25.34375 67.515625 33.203125 67.515625 42.859375 C 67.515625 52.519531 59.660156 60.378906 50 60.378906 Z M 50 60.378906 "/>
</g>
</svg>
