<svg xmlns="http://www.w3.org/2000/svg" xmlns:xlink="http://www.w3.org/1999/xlink" width="142px" height="100px" viewBox="0 0 142 100" version="1.1">
<g id="surface1">
<path style=" stroke:none;fill-rule:nonzero;fill:rgb(100%,100%,100%);fill-opacity:1;" d="M 94.589844 48.542969 C 81.570312 41.566406 69.101562 35.152344 56.359375 28.457031 L 56.359375 68.515625 C 69.769531 61.207031 83.902344 54.511719 94.644531 48.542969 Z M 94.589844 48.542969 "/>
<path style=" stroke:none;fill-rule:nonzero;fill:rgb(90.980392%,87.843137%,87.843137%);fill-opacity:1;" d="M 94.589844 48.542969 C 81.570312 41.566406 56.359375 28.457031 56.359375 28.457031 L 89.972656 51.109375 C 89.972656 51.109375 83.847656 54.511719 94.589844 48.542969 Z M 94.589844 48.542969 "/>
<path style=" stroke:none;fill-rule:nonzero;fill:rgb(80.392157%,12.54902%,12.156863%);fill-opacity:1;" d="M 58.808594 99.871094 C 31.765625 99.371094 22.53125 98.921875 16.851562 97.75 C 13.011719 96.96875 9.675781 95.238281 7.226562 92.730469 C 5.335938 90.832031 3.832031 87.933594 2.664062 83.914062 C 1.664062 80.5625 1.273438 77.777344 0.714844 70.972656 C -0.132812 55.609375 -0.335938 43.050781 0.714844 29.015625 C 1.585938 21.265625 2.007812 12.066406 7.78125 6.699219 C 10.507812 4.1875 13.679688 2.570312 17.242188 1.902344 C 22.808594 0.84375 46.511719 0.00390625 71.050781 0.00390625 C 95.539062 0.00390625 119.296875 0.84375 124.863281 1.902344 C 129.316406 2.738281 133.488281 5.25 135.9375 8.484375 C 141.207031 16.792969 141.300781 27.128906 141.835938 35.210938 C 142.054688 39.0625 142.054688 60.929688 141.835938 64.78125 C 141 77.554688 140.332031 82.074219 138.441406 86.757812 C 137.269531 89.714844 136.273438 91.277344 134.542969 93.007812 C 131.832031 95.671875 128.378906 97.441406 124.636719 98.085938 C 101.234375 99.847656 81.363281 100.230469 58.808594 99.871094 Z M 94.648438 48.542969 C 81.628906 41.566406 69.160156 35.097656 56.417969 28.402344 L 56.417969 68.460938 C 69.828125 61.152344 83.964844 54.457031 94.703125 48.488281 Z M 94.648438 48.542969 "/>
</g>
</svg>
