<?xml version="1.0" standalone="no"?>
<!DOCTYPE svg PUBLIC "-//W3C//DTD SVG 20010904//EN"
 "http://www.w3.org/TR/2001/REC-SVG-20010904/DTD/svg10.dtd">
<svg version="1.0" xmlns="http://www.w3.org/2000/svg"
 width="4096.000000pt" height="4096.000000pt" viewBox="0 0 4096.000000 4096.000000"
 preserveAspectRatio="xMidYMid meet">

<g transform="translate(0.000000,4096.000000) scale(0.100000,-0.100000)"
fill="#000000" stroke="none">
<path d="M19864 39709 c-3606 -106 -7114 -1199 -10154 -3162 -1613 -1041
-3083 -2330 -4354 -3817 -200 -233 -546 -665 -742 -925 -2840 -3770 -4234
-8388 -3959 -13115 126 -2164 597 -4263 1408 -6271 1473 -3651 4035 -6812
7312 -9024 1927 -1301 4031 -2240 6280 -2804 1962 -491 4053 -680 6095 -551
2250 143 4444 662 6504 1540 3556 1514 6612 4053 8763 7280 2548 3824 3680
8390 3222 13000 -376 3786 -1853 7409 -4236 10385 -710 888 -1498 1718 -2338
2466 -1582 1408 -3417 2574 -5360 3407 -2662 1140 -5514 1678 -8441 1591z
m-3483 -8660 c782 -80 1464 -554 1804 -1254 123 -252 146 -339 285 -1050 56
-286 204 -1037 330 -1670 126 -632 237 -1208 246 -1280 23 -176 23 -524 0
-700 -45 -347 -139 -660 -288 -960 -168 -336 -307 -509 -573 -711 -205 -155
-382 -264 -802 -495 -592 -325 -853 -479 -853 -505 0 -40 213 -588 348 -894
105 -238 338 -707 463 -930 428 -768 941 -1482 1536 -2137 199 -219 614 -632
823 -817 545 -486 1118 -908 1737 -1281 l213 -128 47 18 c157 59 346 168 868
500 431 274 601 376 796 475 266 135 471 206 687 236 158 22 500 22 687 -1
487 -58 937 -220 1340 -482 94 -61 253 -179 1410 -1043 452 -338 1469 -1138
1600 -1258 383 -354 625 -824 690 -1342 25 -194 17 -475 -19 -660 -58 -302
-166 -572 -325 -810 -31 -47 -513 -672 -1071 -1390 -718 -924 -1040 -1331
-1104 -1395 -274 -273 -649 -408 -1044 -375 -70 6 -248 24 -397 41 -2744 306
-5382 1262 -7685 2785 -730 482 -1431 1027 -2100 1632 -217 196 -868 842
-1062 1053 -1714 1867 -2954 4020 -3673 6374 -894 2928 -925 6080 -90 9045 56
199 84 272 142 370 136 231 370 408 628 474 33 8 254 42 490 75 1805 253 3239
455 3340 471 66 11 140 21 165 23 102 8 315 6 411 -4z"/>
<path d="M16045 29814 c-16 -3 -50 -9 -75 -14 -25 -5 -835 -119 -1800 -255
-965 -135 -1760 -247 -1766 -249 -6 -3 -14 -15 -16 -28 -3 -13 -35 -138 -71
-278 -132 -506 -225 -957 -301 -1455 -381 -2490 -137 -4975 720 -7337 826
-2279 2252 -4396 4094 -6079 2564 -2343 5814 -3796 9290 -4153 137 -15 224
-19 240 -14 17 6 353 430 1030 1302 1071 1379 1071 1378 1126 1561 25 81 27
106 28 250 1 138 -2 172 -22 244 -42 154 -115 288 -221 404 -98 106 -1102 891
-1965 1536 -468 349 -887 659 -931 689 -109 74 -317 173 -450 215 -203 64
-357 88 -581 88 -135 -1 -171 -4 -230 -22 -181 -56 -370 -164 -1070 -612 -386
-247 -635 -387 -837 -472 -60 -24 -115 -51 -123 -59 -179 -179 -465 -229 -699
-122 -68 31 -385 208 -580 324 -1287 765 -2462 1789 -3395 2957 -954 1195
-1663 2501 -2140 3945 -96 289 -116 380 -105 474 21 190 96 326 285 517 222
223 469 387 1130 749 550 301 767 434 885 542 113 103 241 381 294 638 30 142
42 324 31 467 -7 92 -64 395 -224 1200 -118 593 -269 1357 -336 1697 -67 341
-132 647 -144 680 -152 404 -502 659 -921 671 -66 2 -133 1 -150 -1z"/>
</g>
</svg>
