<svg version="1.1" xmlns="http://www.w3.org/2000/svg" xmlns:xlink="http://www.w3.org/1999/xlink" x="0px" y="0px" viewBox="0 0 200 200" style="enable-background:new 0 0 200 200;" xml:space="preserve">
<g>
	<path d="M100,0C44.8,0,0,44.8,0,100c0,55.2,44.8,100,100,100s100-44.8,100-100S155.2,0,100,0z M121.9,155c-0.2-0.3-0.6-0.9-0.9-1.3
		c-0.7-1.1-1.6-2.2-2.3-3.3l-0.9-1.3c-0.2-0.3-0.3-0.5-0.5-0.7c-0.3-0.5-0.6-0.8-0.9-1.3c-0.3-0.4-0.6-0.8-0.9-1.3l-3.7-5.2
		c-0.3-0.4-0.6-0.9-0.9-1.3l-2.8-3.9c-2.1-3.1-4.3-6.1-6.5-9.1L92.8,114c-0.1-0.2-0.3-0.5-0.5-0.6c-0.3,0.5-0.8,0.9-1.1,1.3
		c-0.2,0.2-0.4,0.4-0.6,0.6l-1.7,1.9c-0.3,0.4-0.7,0.9-1.1,1.3l-6.1,7.2c-0.2,0.3-0.4,0.5-0.6,0.7l-1.1,1.3
		c-0.4,0.4-0.7,0.8-1.1,1.3l-2.2,2.6c-0.3,0.3-0.3,0.4-0.6,0.7l-1.7,1.9c-0.4,0.4-0.7,0.9-1.1,1.3c-0.8,0.9-2.5,3-3.3,3.9
		c-0.3,0.3-0.4,0.5-0.6,0.7c-0.2,0.3-0.3,0.3-0.6,0.6c-0.4,0.4-0.7,0.8-1.1,1.3c-0.2,0.2-0.4,0.4-0.6,0.6l-5,5.9
		c-1.1,1.2-2.1,2.6-3.3,3.9c-0.5,0.5-1.9,2-2.2,2.6h-9.5c0.3-0.5,1-1,1.3-1.5l3.8-4.5c0.5-0.5,0.8-1,1.3-1.5s0.8-1,1.3-1.5l2.6-3
		c0.3-0.3,0.5-0.5,0.7-0.8l3.2-3.7c0.8-1,1.6-2,2.5-3c0.2-0.3,0.3-0.5,0.6-0.8c0.3-0.3,0.4-0.4,0.6-0.7c0.5-0.6,0.9-1,1.3-1.5
		l1.3-1.5c0.5-0.5,0.8-0.9,1.3-1.5c0.4-0.5,0.7-1,1.2-1.5s0.8-0.9,1.3-1.5l6.3-7.4c0.5-0.5,0.8-1,1.3-1.5l8.9-10.4l-6.2-9.1
		c-0.8-1-1.3-1.9-2.1-2.9c-0.5-0.6-1-1.3-1.4-1.9l-6.9-9.7c-1-1.3-1.9-2.6-2.8-3.9L63,72c-0.9-1.3-1.9-2.6-2.8-3.9l-11-15.5
		c-0.2-0.3-0.5-0.7-0.7-1l-2.1-2.9c-0.9-1.3-1.9-2.6-2.7-3.9h34.6c0.3,0,0.8,0.9,1,1.2c0.3,0.5,0.6,0.9,0.9,1.3
		c1,1.2,1.8,2.6,2.7,3.8c1,1.3,1.7,2.6,2.7,3.8l16,22.6c1.6,2.3,3.3,4.6,4.9,6.9c0.1,0.3,0.2,0.4,0.4,0.6l0.6-0.8
		c0.2-0.3,0.4-0.5,0.6-0.7l3.6-4.3c0.4-0.5,0.8-0.9,1.2-1.4l7.2-8.5c0.3-0.3,0.4-0.4,0.6-0.7c1.2-1.2,3.1-3.8,4.2-4.9l8.4-9.9
		c0.2-0.2,0.3-0.4,0.6-0.7c0.3-0.3,0.3-0.4,0.6-0.7l5.4-6.3c0.5-0.5,0.7-1.2,1.5-1.2c2,0,8-0.1,9.1,0l-3.7,4.4
		c-1.1,1.2-4.2,5.1-4.9,5.8l-4.3,5.1c-0.2,0.3-0.4,0.4-0.6,0.7l-3.7,4.3c-0.1,0.1-0.2,0.2-0.3,0.4c-1.3,1.6-3.5,4-4.6,5.4l-4.9,5.8
		c-0.8,1-1.5,1.9-2.4,2.9c-1.3,1.4-2.4,2.9-3.7,4.3l-3.7,4.3c-0.8,0.9-1.7,1.9-2.4,2.9c0.2,0.5,1.1,1.6,1.4,2.1
		c0.5,0.7,0.9,1.3,1.4,2l25.4,35.8c1.3,2.1,2.8,4,4.2,6l7.1,9.9c1.8,2.7,3.8,5.3,5.6,8H121.9z"/>
    <path d="M137.2,141.6c-0.7-1-1.4-2-2.1-3c-0.4-0.5-0.7-1-1.1-1.5l-3.2-4.4c-0.7-0.9-1.3-2-2.1-3c-0.8-1-1.4-2-2.1-3
		c-0.4-0.5-0.7-1-1.1-1.5l-5.3-7.4c-0.3-0.4-0.7-0.9-1-1.4c-1.7-2.4-3.7-5.2-5.3-7.5c-1.6-2.4-3.6-5-5.3-7.5c-0.4-0.5-0.8-1-1.1-1.5
		l-2.1-3c-0.3-0.6-0.6-1-1-1.5l-5.3-7.5c-0.7-1-1.3-2-2.1-3c-0.7-1-1.3-2.1-2.1-3c-1-1.3-3.1-4.5-4.2-6c-1.7-2.2-3.6-5.1-5.3-7.4
		l-4.2-6c-0.8-1.1-7.3-10.4-7.5-10.4H58.8l9.5,13.4c0.2,0.2,0.4,0.5,0.6,0.7c3.9,5.6,8.2,11.6,12.1,17.1l9.5,13.5
		c1,1.4,3.4,4.8,4.2,6c0.6,1,1.4,1.9,2.1,2.9l7.4,10.4c0.4,0.5,0.7,1,1.1,1.5l4.2,6c2.7,4,5.7,8,8.4,11.9l2.1,3
		c0.4,0.5,0.8,1,1.1,1.5l4.2,6c0.1,0.3,0.3,0.6,0.5,0.8c0.2,0.3,0.3,0.5,0.5,0.8l15.1-0.1c-0.1-0.2-0.4-0.5-0.5-0.7L137.2,141.6z"/>
</g>
</svg>