<?xml version="1.0" encoding="utf-8"?>
<!-- Generator: Adobe Illustrator 27.3.1, SVG Export Plug-In . SVG Version: 6.00 Build 0)  -->
<svg version="1.1" id="language_icons_set" xmlns="http://www.w3.org/2000/svg" xmlns:xlink="http://www.w3.org/1999/xlink" x="0px"
	 y="0px" viewBox="0 0 687.2 687.2" style="enable-background:new 0 0 687.2 687.2;" xml:space="preserve">
<g>
	<g>
		
			<radialGradient id="SVGID_1_" cx="-739.7072" cy="1215.7911" r="0" gradientTransform="matrix(0.7278 0 0 -0.7278 881.9589 885.2528)" gradientUnits="userSpaceOnUse">
			<stop  offset="0" style="stop-color:#FFFFFF"/>
			<stop  offset="1" style="stop-color:#231F20"/>
		</radialGradient>
		<path style="opacity:0.75;fill:url(#SVGID_1_);enable-background:new    ;" d="M343.6,0.4L343.6,0.4L343.6,0.4z"/>
		<path style="fill:#F02D3C;" d="M586.7,587c134-134,134-352.1,0-486.1C549.8,64,506.5,37.3,460.3,20.7v646.5
			C506.5,650.6,549.8,623.9,586.7,587z"/>
		<path style="fill:#FADC46;" d="M226.9,667.2c75.3,27,158.1,27,233.4,0V20.7C422.7,7.2,383.2,0.4,343.6,0.4h-0.1
			c-39.5,0-79,6.8-116.7,20.3L226.9,667.2L226.9,667.2z"/>
		<path style="fill:#000;" d="M100.5,100.9c-134,134-134,352.1,0,486.1c36.9,36.9,80.2,63.6,126.4,80.2V20.7C180.7,37.3,137.4,64,100.5,100.9z"/>
	</g>
</g>
<g>
	<circle style="fill:#FFFFFF;" cx="523.4" cy="170.7" r="155.8"/>
	<path style="fill:#FFFFFF;" d="M523.4,23.2c81.5,0,147.5,66.1,147.5,147.5s-66.1,147.5-147.5,147.5s-147.5-66.1-147.5-147.5
		S442,23.2,523.4,23.2 M523.4,6.6c-22.1,0-43.6,4.3-63.9,12.9c-19.5,8.3-37.1,20.1-52.2,35.2s-26.9,32.6-35.2,52.2
		c-8.6,20.2-12.9,41.7-12.9,63.9c0,22.1,4.3,43.6,12.9,63.9c8.3,19.5,20.1,37.1,35.2,52.2s32.6,26.9,52.2,35.2
		c20.2,8.6,41.7,12.9,63.9,12.9c22.1,0,43.6-4.3,63.9-12.9c19.5-8.3,37.1-20.1,52.2-35.2c15.1-15.1,26.9-32.6,35.2-52.2
		c8.6-20.2,12.9-41.7,12.9-63.9c0-22.1-4.3-43.6-12.9-63.9c-8.3-19.5-20.1-37.1-35.2-52.2c-15.1-15.1-32.6-26.9-52.2-35.2
		C567.1,11,545.6,6.6,523.4,6.6L523.4,6.6z"/>
</g>
<g>
	<path style="fill:#21409A;" d="M373.4,170.7c0,61,36.4,113.4,88.6,136.9V33.8C409.8,57.3,373.4,109.7,373.4,170.7z"/>
	<path style="fill:#FFFFFF;" d="M584.9,33.8c-18.8-8.4-39.6-13.1-61.5-13.1c-21.9,0-42.7,4.7-61.4,13.1v273.8
		c18.7,8.4,39.5,13.1,61.4,13.1c21.9,0,42.7-4.7,61.5-13.1V33.8z"/>
	<path style="fill:#EC1C24;" d="M673.4,170.7c0-60.9-36.3-113.4-88.5-136.9v273.7C637.1,284.1,673.4,231.6,673.4,170.7z"/>
</g>
</svg>
