<?xml version="1.0" encoding="utf-8"?>
<!-- Generator: Adobe Illustrator 27.3.1, SVG Export Plug-In . SVG Version: 6.00 Build 0)  -->
<svg version="1.1" id="language_icons_set" xmlns="http://www.w3.org/2000/svg" xmlns:xlink="http://www.w3.org/1999/xlink" x="0px"
	 y="0px" viewBox="0 0 687.2 687.2" style="enable-background:new 0 0 687.2 687.2;" xml:space="preserve">
<g>
	<path style="fill:none;" d="M343.4,687.1c-149.2,0-276.4-95.4-323.6-228.2C7.1,422.7,0,384.1,0,343.7l0,0
		C0,533.3,153.8,687.1,343.4,687.1S687,533.3,687,343.5l0,0c0,40.4-7,79.3-19.8,115.1C619.8,591.9,492.8,687.1,343.4,687.1z"/>
	<path style="fill:none;" d="M321.8,0.8c7.3-0.5,14.3-0.7,21.6-0.7c7.3,0,14.5,0.2,21.6,0.7h0.2c-7.3-0.5-14.5-0.7-21.8-0.7
		s-14.8,0.2-21.8,0.7H321.8z"/>
	<path style="fill:none;" d="M343.4,0.1c-7.3,0-14.5,0.2-21.6,0.7h43.4C357.9,0.3,350.7,0.1,343.4,0.1z"/>
	<path style="fill:#005FD9;" d="M343.4,687.1c149.2,0,276.4-95.4,323.6-228.2H19.8C67,591.9,194.2,687.1,343.4,687.1z"/>
	<path style="fill:#FFFFFF;" d="M19.3,229.9C6.9,265.6,0,303.7,0,343.7l0,0C0,303.7,6.9,265.4,19.3,229.9L19.3,229.9z"/>
	<path style="fill:#FFFFFF;" d="M687,343.7L687,343.7c0-40-6.8-78.1-19.3-113.8l0,0C680.2,265.4,687,303.7,687,343.7z"/>
	<path style="fill:#FFFFFF;" d="M19.3,229.9C6.9,265.6,0,303.7,0,343.7c0,40.4,7,79.3,19.8,115.1h647.5
		C680,422.7,687,384.1,687,343.7c0-40-6.8-78.1-19.3-113.8L19.3,229.9L19.3,229.9z"/>
	<path style="fill:#F20000;" d="M667.7,229.9L667.7,229.9C623,102.8,505.6,9.7,365.4,0.8h-0.2C505.6,9.7,623,102.5,667.7,229.9z"/>
	<path style="fill:#F20000;" d="M321.8,0.8h-0.2C181.3,9.7,63.9,102.5,19.3,229.9l0,0C63.9,102.5,181.5,9.7,321.8,0.8z"/>
	<path style="fill:#F20000;" d="M19.3,229.9h648.4C623,102.5,505.6,9.7,365.2,0.8h-43.4C181.5,9.7,63.9,102.5,19.3,229.9z"/>
</g>
</svg>
