<?xml version="1.0" encoding="utf-8"?>
<!-- Generator: Adobe Illustrator 27.3.1, SVG Export Plug-In . SVG Version: 6.00 Build 0)  -->
<svg version="1.1" id="language_icons_set" xmlns="http://www.w3.org/2000/svg" xmlns:xlink="http://www.w3.org/1999/xlink" x="0px"
	 y="0px" viewBox="0 0 687.2 687.2" style="enable-background:new 0 0 687.2 687.2;" xml:space="preserve">
<g>
	<g>
		
			<radialGradient id="SVGID_1_" cx="-722.503" cy="-556.6996" r="0" gradientTransform="matrix(0.7278 0 0 0.7278 869.4377 405.566)" gradientUnits="userSpaceOnUse">
			<stop  offset="0" style="stop-color:#FFFFFF"/>
			<stop  offset="1" style="stop-color:#231F20"/>
		</radialGradient>
		<path style="opacity:0.75;fill:url(#SVGID_1_);enable-background:new    ;" d="M343.6,0.4L343.6,0.4L343.6,0.4z"/>
		<path style="fill:#F02D3C;" d="M586.7,587c134-134,134-352.1,0-486.1C549.8,64,506.5,37.3,460.3,20.7v646.5
			C506.5,650.6,549.8,623.9,586.7,587z"/>
		<path style="fill:#FADC46;" d="M226.9,667.2c75.3,27,158.1,27,233.4,0V20.7C422.7,7.2,383.2,0.4,343.6,0.4h-0.1
			c-39.5,0-79,6.8-116.7,20.3L226.9,667.2L226.9,667.2z"/>
		<path style="fill:#000;" d="M100.5,100.9c-134,134-134,352.1,0,486.1c36.9,36.9,80.2,63.6,126.4,80.2V20.7C180.7,37.3,137.4,64,100.5,100.9z"/>
	</g>
</g>
<g>
	<circle style="fill:#FFFFFF;" cx="523.4" cy="170.7" r="155.8"/>
	<path style="fill:#FFFFFF;" d="M523.4,23.2c81.5,0,147.5,66.1,147.5,147.5s-66.1,147.5-147.5,147.5s-147.5-66.1-147.5-147.5
		S442,23.2,523.4,23.2 M523.4,6.6c-22.1,0-43.6,4.3-63.9,12.9c-19.5,8.3-37.1,20.1-52.2,35.2s-26.9,32.6-35.2,52.2
		c-8.6,20.2-12.9,41.7-12.9,63.9c0,22.1,4.3,43.6,12.9,63.9c8.3,19.5,20.1,37.1,35.2,52.2s32.6,26.9,52.2,35.2
		c20.2,8.6,41.7,12.9,63.9,12.9c22.1,0,43.6-4.3,63.9-12.9c19.5-8.3,37.1-20.1,52.2-35.2c15.1-15.1,26.9-32.6,35.2-52.2
		c8.6-20.2,12.9-41.7,12.9-63.9c0-22.1-4.3-43.6-12.9-63.9c-8.3-19.5-20.1-37.1-35.2-52.2c-15.1-15.1-32.6-26.9-52.2-35.2
		C567.1,11,545.6,6.6,523.4,6.6L523.4,6.6z"/>
</g>
<g>
	<path style="fill:none;" d="M523.4,323.2c-65.7,0-121.7-42-142.5-100.5c-5.6-15.9-8.7-32.9-8.7-50.7l0,0
		C372.2,255.5,439.9,323.2,523.4,323.2s151.3-67.7,151.3-151.3l0,0c0,17.8-3.1,34.9-8.7,50.7C645.1,281.3,589.2,323.2,523.4,323.2z"
		/>
	<path style="fill:none;" d="M513.9,21c3.2-0.2,6.3-0.3,9.5-0.3s6.4,0.1,9.5,0.3h0.1c-3.2-0.2-6.4-0.3-9.6-0.3S516.9,20.8,513.9,21
		L513.9,21z"/>
	<path style="fill:none;" d="M523.4,20.7c-3.2,0-6.4,0.1-9.5,0.3H533C529.8,20.8,526.6,20.7,523.4,20.7z"/>
	<path style="fill:#005FD9;" d="M523.4,323.2c65.7,0,121.7-42,142.5-100.5h-285C401.7,281.3,457.7,323.2,523.4,323.2z"/>
	<path style="fill:#FFFFFF;" d="M380.7,121.9c-5.5,15.7-8.5,32.5-8.5,50.1l0,0C372.2,154.4,375.2,137.5,380.7,121.9L380.7,121.9z"/>
	<path style="fill:#FFFFFF;" d="M674.7,172L674.7,172c0-17.6-3-34.4-8.5-50.1l0,0C671.7,137.5,674.7,154.4,674.7,172z"/>
	<path style="fill:#FFFFFF;" d="M380.7,121.9c-5.5,15.7-8.5,32.5-8.5,50.1c0,17.8,3.1,34.9,8.7,50.7H666c5.6-15.9,8.7-32.9,8.7-50.7
		c0-17.6-3-34.4-8.5-50.1H380.7z"/>
	<path style="fill:#F20000;" d="M666.2,121.9L666.2,121.9c-19.7-56-71.4-97-133.1-100.9H533C594.8,24.9,646.5,65.8,666.2,121.9z"/>
	<path style="fill:#F20000;" d="M513.9,21L513.9,21C452,24.9,400.3,65.8,380.7,121.9l0,0C400.3,65.8,452.1,24.9,513.9,21z"/>
	<path style="fill:#F20000;" d="M380.7,121.9h285.5C646.5,65.8,594.8,24.9,533,21h-19.1C452.1,24.9,400.3,65.8,380.7,121.9z"/>
</g>
</svg>
