<svg version="1.1" xmlns="http://www.w3.org/2000/svg" xmlns:xlink="http://www.w3.org/1999/xlink" x="0px" y="0px"
	 viewBox="0 0 152.4 66" style="enable-background:new 0 0 152.4 66;" xml:space="preserve">
<circle fill="#7F1300" cx="32.5" cy="32.7" r="32.5"/>
<path fill="#FFFFFF" d="M46.6,12.2c-3.3,0.1-6.2,1.9-8.3,4.4c-2.4,2.8-4,6-5.1,9.4c-2-1.7-3.6-3.8-6.9-4.8c-2.5-0.7-5.2-0.4-7.6,1.4
	c-1.2,0.9-1.9,2.2-2.3,3.4c-1,3.2,1,6,1.9,7l2,2.1c0.4,0.4,1.4,1.5,0.9,3.1c-0.5,1.7-2.6,2.8-4.7,2.2c-0.9-0.3-2.3-1-2-2
	c0.1-0.4,0.4-0.7,0.6-1.1c0.1-0.3,0.2-0.5,0.3-0.7c0.4-1.3-0.1-2.9-1.5-3.3c-1.3-0.4-2.5-0.1-3,1.5c-0.6,1.8,0.3,5.2,5,6.6
	c5.5,1.7,10.2-1.3,10.8-5.2c0.4-2.5-0.7-4.3-2.7-6.6l-1.7-1.8c-1-1-1.3-2.7-0.3-4c0.9-1.1,2.1-1.6,4.2-1c3,0.8,4.3,2.9,6.5,4.5
	c-0.9,3-1.5,6-2.1,8.7l-0.3,2c-1.6,8.3-2.8,12.9-5.9,15.5c-0.6,0.5-1.5,1.1-2.9,1.2c-0.7,0-0.9-0.5-1-0.7c0-0.5,0.4-0.7,0.7-1
	c0.4-0.2,1.1-0.6,1-1.8c0-1.4-1.2-2.7-3-2.6c-1.3,0-3.3,1.3-3.2,3.5c0.1,2.3,2.2,4,5.4,3.9c1.7-0.1,5.6-0.8,9.4-5.3
	c4.4-5.2,5.7-11.1,6.6-15.4l1-5.7c0.6,0.1,1.2,0.1,1.9,0.1c5.5,0.1,8.3-2.7,8.3-4.8c0-1.3-0.8-2.5-2-2.5c-0.9,0-1.9,0.6-2.2,1.8
	c-0.3,1.2,1.8,2.2,0.2,3.2c-1.1,0.7-3.1,1.2-5.9,0.8l0.5-2.8c1-5.3,2.3-11.9,7.2-12.1c0.4,0,1.7,0,1.7,0.9c0,0.3-0.1,0.4-0.4,1
	c-0.3,0.5-0.5,0.9-0.5,1.4c0,1.4,1.1,2.3,2.6,2.2c2-0.1,2.6-2,2.6-3C52.4,13.6,49.9,12.1,46.6,12.2L46.6,12.2z"/>
<g>
	<g>
		<path fill="#7F1300" d="M76,27.3L75.7,29c-0.2,1.2-0.1,1.5,0.4,1.5c0.4,0,0.6-0.4,0.8-1.5c0.3-1.5-0.1-2.4-1.4-4
			c-1.7-2.1-2.9-3.5-2.2-7c0.7-3.2,2.2-4.6,5.2-4.6c4.7,0,4.9,3.1,4.2,6.1L82.6,20h-4.1l0.3-1.4c0.2-1.1,0.2-1.6-0.4-1.6
			c-0.3,0-0.6,0.1-0.8,1c-0.3,1.6-0.1,1.9,1.2,3.5c2.4,3,3.2,4.3,2.5,7.8c-0.7,3.5-2.4,4.8-5.7,4.8c-3.9,0-5.1-2.2-4.2-5.9l0.2-0.8
			H76z"/>
		<path fill="#7F1300" d="M85.9,13.7h8.5l-0.8,3.8h-3.9l-0.9,4h3.6l-0.8,3.8h-3.5l-1.7,8.4h-4.6L85.9,13.7z"/>
		<path fill="#7F1300" d="M103.4,26.3l-0.4,1.8c-0.6,3.1-1.5,5.9-6,5.9c-3.2,0-5.5-1.1-4.4-6l1.9-9.2c0.9-4.3,2.8-5.3,5.8-5.3
			c5,0,5,3.3,4.5,5.6l-0.4,1.8H100l0.5-2.5c0.2-0.8,0.1-1.3-0.5-1.3c-0.5,0-0.7,0.3-0.9,1.3l-2.2,10.8c-0.2,1-0.1,1.4,0.4,1.4
			c0.5,0,0.8-0.4,1-1.4l0.6-2.7H103.4z"/>
		<path fill="#7F1300" d="M114.3,28.9c0.6-2.7,1.5-7.2,2.1-9.9h-0.2c-1.4,4.9-3.8,13.4-4.1,14.7h-3.3c0.4-2.8,1.5-11,2-14.8h-0.2
			c-0.5,2.4-1.2,6.4-1.9,9.8l-1,5h-4.2l4.1-20h6.2c-0.2,1.9-0.7,6.4-1,8.8h0.1c0.9-2.8,1.3-4.7,2.6-8.8h6.5l-4.1,20h-4.5L114.3,28.9
			z"/>
		<path fill="#7F1300" d="M125.3,27.3l-0.4,1.7c-0.2,1.2-0.1,1.5,0.4,1.5c0.4,0,0.6-0.4,0.8-1.5c0.3-1.5-0.1-2.4-1.4-4
			c-1.7-2.1-2.9-3.5-2.2-7c0.7-3.2,2.2-4.6,5.2-4.6c4.7,0,4.9,3.1,4.2,6.1l-0.1,0.5h-4.1l0.3-1.4c0.2-1.1,0.2-1.6-0.4-1.6
			c-0.3,0-0.6,0.1-0.8,1c-0.3,1.6-0.1,1.9,1.2,3.5c2.4,3,3.2,4.3,2.5,7.8c-0.7,3.5-2.4,4.8-5.7,4.8c-3.9,0-5.1-2.2-4.2-5.9l0.2-0.8
			H125.3z"/>
		<path fill="#F4A262" d="M147.1,14.3l-0.8,3.6c-2.8,4.3-5.5,9.7-7.1,15.8h-4.9c1.4-5.9,4.8-12,7.5-15.5h-4.6l0.8-3.8H147.1z"/>
	</g>
</g>
<g>
	<g>
		<path fill="#FFFFFF" d="M77.3,48.1l-1.4,4h-1.2c0.9-2.5,3.4-9.3,4.5-12h1.6l-0.6,12h-1.1l0.2-4H77.3z M79.4,47.1c0.1-2.5,0.2-4.9,0.4-6h0
			c-0.2,0.8-1.2,3.6-2,6H79.4z"/>
		<path fill="#FFFFFF" d="M85.6,51.9c-0.4,1.9-0.6,3.5-2.8,3.5c-1.8,0-2.1-1.2-1.9-2.2l0-0.1H82l0,0.1c-0.1,0.5-0.1,1.2,0.9,1.2
			c1,0,1.2-0.8,1.5-2.3l0.2-1.1c-0.3,0.6-0.7,1-1.6,1c-1.5,0-1.7-1.4-1.4-2.7l0.8-3.8c0.3-1.2,0.8-2.7,2.3-2.7c0.9,0,1.3,0.5,1.4,1
			c0.1-0.3,0.2-0.7,0.2-0.9h1.1c-0.1,0.5-0.3,1.3-0.5,2.4L85.6,51.9z M83.6,45.5l-0.8,3.8c-0.2,1-0.2,1.8,0.7,1.8
			c1.1,0,1.4-1.3,1.7-2.6l0.5-2.2c0.2-1.1,0.4-2.4-0.8-2.4C84.1,43.8,83.8,44.7,83.6,45.5z"/>
		<path fill="#FFFFFF" d="M89,47.8C89,48,88.8,49,88.7,49.3c-0.2,1.1-0.2,2,0.7,2c0.8,0,1.1-0.7,1.3-1.6l0.1-0.2h1.1l-0.1,0.2
			c-0.3,1.2-0.7,2.5-2.5,2.5c-2,0-2-1.7-1.7-3.2l0.7-3.3c0.3-1.4,0.8-2.9,2.6-2.9c2,0,2,1.6,1.8,3c-0.1,0.3-0.3,1.6-0.4,1.9H89z
			 M91.4,46.9c0-0.2,0.2-1.1,0.3-1.3c0.2-0.9,0-1.7-0.8-1.7c-0.9,0-1.2,1-1.3,1.8l-0.3,1.3H91.4z"/>
		<path fill="#FFFFFF" d="M94.1,45.8c0.4-1.8,0.5-2.4,0.6-2.8h1.1c0,0.2-0.1,0.5-0.2,0.9c0.4-0.6,1-1,1.8-1c1,0,1.6,0.6,1.3,2.1l-1.5,7.1H96
			l1.5-6.9c0.2-0.9,0.1-1.4-0.7-1.4c-0.8,0-1.4,0.6-1.7,2.3l-1.3,6h-1.1L94.1,45.8z"/>
		<path fill="#FFFFFF" d="M103.4,49.5l-0.1,0.2c-0.3,1.1-0.6,2.6-2.5,2.6c-2,0-2-1.6-1.7-3l0.8-3.7c0.3-1.5,0.8-2.8,2.5-2.8c1.9,0,2,1.4,1.8,2.6
			l-0.1,0.5h-1.1l0.1-0.5c0.2-1,0.1-1.6-0.8-1.6c-0.7,0-1,0.6-1.3,1.8l-0.8,3.9c-0.2,1.1-0.1,1.8,0.7,1.8c0.7,0,1-0.6,1.2-1.5
			l0.1-0.3H103.4z"/>
		<path fill="#FFFFFF" d="M106,47.8c-0.1,0.3-0.3,1.2-0.3,1.6c-0.2,1.1-0.2,2,0.7,2c0.8,0,1.1-0.7,1.3-1.6l0.1-0.2h1.1l-0.1,0.2
			c-0.3,1.2-0.7,2.5-2.5,2.5c-2,0-2-1.7-1.7-3.2l0.7-3.3c0.3-1.4,0.8-2.9,2.6-2.9c2,0,2,1.6,1.8,3c-0.1,0.3-0.3,1.6-0.4,1.9H106z
			 M108.3,46.9c0-0.2,0.2-1.1,0.3-1.3c0.2-0.9,0-1.7-0.8-1.7c-0.9,0-1.2,1-1.3,1.8l-0.3,1.3H108.3z"/>
		<path fill="#FFFFFF" d="M114.7,40.1h4l-0.2,1h-2.9l-0.9,4.2h2.7l-0.2,1h-2.7l-1.2,5.8h-1.1L114.7,40.1z"/>
		<path fill="#FFFFFF" d="M119.1,47.8c-0.1,0.3-0.3,1.2-0.3,1.6c-0.2,1.1-0.2,2,0.7,2c0.8,0,1.1-0.7,1.3-1.6l0.1-0.2h1.1l-0.1,0.2
			c-0.3,1.2-0.7,2.5-2.5,2.5c-2,0-2-1.7-1.7-3.2l0.7-3.3c0.3-1.4,0.8-2.9,2.6-2.9c2,0,2,1.6,1.8,3c-0.1,0.3-0.3,1.6-0.4,1.9H119.1z
			 M121.4,46.9c0-0.2,0.2-1.1,0.3-1.3c0.2-0.9,0-1.7-0.8-1.7c-0.9,0-1.2,1-1.3,1.8l-0.3,1.3H121.4z M124.1,39.4l-2.5,2.3h-1.1
			l2.1-2.3H124.1z"/>
		<path fill="#FFFFFF" d="M122.8,52.2l2.7-12.6h1.1l-2.7,12.6H122.8z"/>
		<path fill="#FFFFFF" d="M127.6,43h1.1l-1.9,9.1h-1.1L127.6,43z M128.3,39.6h1.1l-0.4,1.8h-1.1L128.3,39.6z"/>
		<path fill="#FFFFFF" d="M130.7,43c0.3,1.5,0.5,3,0.6,3.4h0c0.3-0.6,1-1.9,1.8-3.4h1.2l-2.6,4.4l0.9,4.7h-1.1c-0.3-1.7-0.6-3.2-0.6-3.7h0
			c-0.3,0.5-1,1.9-2,3.7h-1.2l2.8-4.7l-0.9-4.4H130.7z"/>
	</g>
</g>
<rect x="315" y="37.9" style="fill:none;" width="0" height="3"/>
</svg>
