<svg xmlns="http://www.w3.org/2000/svg" width="82.865" height="82.865" viewBox="0 0 82.865 82.865">
  <path d="M3121.8,11229.759c-2.548-.118-3.315-.138-9.768-.138s-7.216.023-9.764.138c-6.557.3-9.609,3.4-9.909,9.91-.114,2.547-.142,3.31-.142,9.764s.028,7.217.142,9.768c.3,6.487,3.339,9.609,9.909,9.909,2.545.114,3.311.143,9.764.143s7.22-.025,9.768-.143c6.557-.3,9.605-3.411,9.909-9.909.114-2.548.138-3.314.138-9.768s-.024-7.217-.138-9.764C3131.408,11233.166,3128.353,11230.06,3121.8,11229.759Zm-9.768,32.086a12.411,12.411,0,1,1,12.412-12.412A12.412,12.412,0,0,1,3112.035,11261.845Zm12.9-22.411a2.9,2.9,0,1,1,2.9-2.9A2.9,2.9,0,0,1,3124.938,11239.434Zm-4.848,10a8.055,8.055,0,1,1-8.055-8.055A8.055,8.055,0,0,1,3120.09,11249.433Zm-8.055-41.433a41.433,41.433,0,1,0,41.432,41.433A41.435,41.435,0,0,0,3112.035,11208Zm24.024,51.4c-.4,8.787-5.29,13.655-14.056,14.059-2.579.118-3.4.146-9.968.146s-7.385-.027-9.965-.146c-8.783-.4-13.655-5.278-14.059-14.059-.117-2.576-.145-3.4-.145-9.965s.028-7.386.145-9.964c.4-8.785,5.279-13.656,14.059-14.057,2.579-.121,3.4-.149,9.965-.149s7.389.028,9.968.149c8.787.4,13.662,5.29,14.056,14.057.117,2.578.145,3.4.145,9.964S3136.177,11256.821,3136.059,11259.4Z" transform="translate(-3070.603 -11208)" />
</svg>
