<svg version="1.1" xmlns="http://www.w3.org/2000/svg" xmlns:xlink="http://www.w3.org/1999/xlink" x="0px" y="0px"
	 viewBox="0 0 200 200" style="enable-background:new 0 0 200 200;" xml:space="preserve">
<g>
	<path d="M41.45,26.12c-11.3,0-18.69,7.42-18.69,17.18c0,9.54,7.17,17.17,18.26,17.17h0.21
		c11.52,0,18.7-7.63,18.7-17.17C59.72,33.54,52.76,26.12,41.45,26.12z"/>
	<path d="M24.71,74.04h33.04v99.42H24.71V74.04z"/>
	<path d="M138.87,71.71c-17.83,0-29.78,16.75-29.78,16.75V74.04H76.04v99.42h33.04v-55.52c0-2.97,0.22-5.94,1.09-8.06
		c2.39-5.93,7.83-12.08,16.95-12.08c11.96,0,16.74,9.12,16.74,22.48v53.18h33.04v-57C176.91,85.92,160.61,71.71,138.87,71.71z"/>
</g>
</svg>
