<svg width="60" height="79" viewBox="0 0 60 79" fill="none" xmlns="http://www.w3.org/2000/svg">
<g clip-path="url(#clip0_386_1821)">
<path d="M6.19044 0.888672H5.32812V78.2202H6.19044V0.888672Z" fill="#B48608"/>
<path d="M11.3897 0.888672H10.5273V78.2202H11.3897V0.888672Z" fill="#B48608"/>
<path d="M16.5908 0.888672H15.7285V78.2202H16.5908V0.888672Z" fill="#B48608"/>
<path d="M21.79 0.888672H20.9277V78.2202H21.79V0.888672Z" fill="#B48608"/>
<path d="M0.983405 0.888672H0.121094V78.2202H0.983405V0.888672Z" fill="#B48608"/>
<path d="M35.5809 0C32.7457 0 30.0281 0.486525 27.5 1.38173C36.8221 4.67713 43.505 13.4994 43.505 23.8722C43.505 34.2449 36.8286 43.0737 27.5 46.3626C30.0281 47.2578 32.7457 47.7443 35.5809 47.7443C48.8814 47.7443 60 37.0537 60 23.8722C60 10.6906 48.8814 0 35.5809 0Z" fill="#B48608"/>
</g>
<defs>
<clipPath id="clip0_386_1821">
<rect width="60" height="79" fill="white"/>
</clipPath>
</defs>
</svg>
