<svg version="1.0" xmlns="http://www.w3.org/2000/svg"
 width="1000.000000pt" height="1000.000000pt" viewBox="0 0 1000.000000 1000.000000"
 preserveAspectRatio="xMidYMid meet">
<metadata>
Created by potrace 1.14, written by Peter Selinger 2001-2017
</metadata>
<g transform="translate(0.000000,1000.000000) scale(0.100000,-0.100000)"
fill="#000000" stroke="none">
<path d="M4665 9121 c-11 -5 -60 -11 -110 -15 -156 -12 -433 -62 -610 -111
-117 -32 -172 -48 -203 -61 -18 -8 -39 -14 -47 -14 -8 0 -29 -6 -47 -14 -18
-8 -51 -21 -73 -29 -58 -22 -147 -57 -170 -67 -128 -55 -320 -150 -404 -199
-25 -15 -53 -30 -61 -34 -23 -11 -69 -41 -215 -135 -383 -250 -792 -651 -1085
-1068 -122 -173 -303 -499 -390 -699 -11 -27 -25 -59 -30 -70 -5 -11 -19 -45
-30 -75 -11 -30 -25 -64 -30 -75 -9 -19 -63 -182 -94 -285 -30 -98 -68 -255
-90 -375 -61 -323 -70 -423 -70 -795 0 -372 9 -472 70 -795 22 -120 60 -277
90 -375 31 -103 85 -266 94 -285 5 -11 19 -45 30 -75 11 -30 25 -64 30 -75 5
-11 19 -42 30 -70 87 -200 268 -526 390 -699 293 -417 702 -818 1085 -1068
146 -94 192 -124 215 -135 8 -4 36 -19 61 -34 84 -49 276 -144 404 -199 23
-10 112 -45 170 -67 22 -8 55 -21 73 -29 18 -8 39 -14 47 -14 8 0 29 -6 47
-14 44 -18 205 -64 318 -90 332 -77 544 -100 925 -100 359 0 493 13 800 75
138 27 223 47 300 70 39 11 84 24 100 29 28 8 49 15 135 45 216 77 507 208
650 293 19 11 53 30 74 42 21 12 78 47 125 78 47 31 91 59 96 61 19 8 286 212
362 278 198 169 455 443 609 648 94 126 226 324 274 411 12 21 30 54 41 73 25
43 149 287 149 294 0 3 15 38 34 79 77 165 177 471 230 698 73 314 106 610
106 950 0 418 -51 781 -164 1170 -46 158 -123 372 -172 478 -19 41 -34 76 -34
79 0 7 -124 251 -149 294 -11 19 -29 52 -41 73 -48 87 -180 285 -274 411 -154
205 -411 479 -609 648 -76 66 -343 270 -362 278 -5 2 -49 30 -96 61 -47 31
-104 66 -125 78 -21 12 -55 31 -74 42 -143 85 -434 216 -650 293 -86 30 -107
37 -135 45 -16 5 -61 18 -100 29 -168 49 -434 101 -660 128 -143 18 -725 28
-760 14z m2382 -1540 c98 -25 149 -45 244 -97 48 -26 136 -123 162 -178 83
-175 7 -423 -155 -507 -87 -45 -238 -42 -327 7 -91 49 -135 125 -134 234 0 69
4 82 46 162 76 145 78 189 12 232 -34 22 -169 31 -253 17 -149 -24 -313 -140
-420 -295 -52 -74 -133 -236 -167 -331 -9 -27 -24 -64 -31 -82 -8 -17 -14 -36
-14 -41 0 -6 -13 -53 -29 -104 -15 -51 -36 -127 -45 -168 -47 -205 -42 -181
-90 -430 -8 -41 -22 -118 -31 -170 -9 -52 -23 -126 -31 -164 -20 -99 -20 -99
163 -104 277 -9 501 49 601 153 41 45 42 79 0 159 -81 157 -82 160 -53 246 24
71 100 150 169 173 166 57 301 -34 341 -229 15 -75 15 -83 -3 -151 -25 -91
-60 -152 -136 -231 -81 -85 -189 -157 -296 -199 -208 -81 -376 -107 -659 -102
l-174 3 -9 -23 c-4 -13 -15 -67 -24 -120 -17 -107 -36 -213 -59 -343 -8 -49
-22 -125 -30 -170 -8 -46 -23 -126 -35 -178 -11 -52 -25 -113 -30 -135 -22
-103 -40 -176 -60 -250 -12 -44 -26 -93 -30 -110 -4 -16 -12 -46 -18 -65 -7
-19 -21 -62 -32 -95 -141 -437 -330 -798 -588 -1125 -95 -120 -303 -328 -407
-407 -224 -169 -454 -271 -709 -313 -147 -24 -174 -24 -301 -1 -201 38 -333
115 -417 243 -60 92 -73 140 -73 263 1 105 3 113 35 179 41 81 129 167 217
211 47 24 74 30 142 33 145 7 253 -43 327 -151 42 -61 54 -104 54 -196 0 -103
-21 -144 -105 -204 -65 -47 -105 -96 -105 -129 0 -9 16 -33 35 -54 l35 -37 78
6 c92 8 156 29 246 82 89 52 231 195 307 309 62 93 162 290 194 381 9 28 21
59 26 70 16 37 68 206 94 305 46 178 67 260 75 305 4 22 17 83 29 135 12 52
31 142 42 200 11 58 26 134 34 170 25 118 44 224 50 280 6 55 27 170 44 245 6
22 19 85 31 140 46 213 53 244 81 365 54 228 87 353 105 403 24 64 18 88 -29
124 -23 17 -105 89 -182 158 -77 70 -175 154 -217 186 -80 62 -213 136 -283
158 -178 56 -269 69 -360 52 -228 -42 -375 -277 -307 -488 29 -87 52 -119 204
-283 243 -262 359 -429 419 -602 31 -87 33 -102 33 -228 0 -135 -11 -201 -50
-287 -8 -17 -14 -34 -14 -37 0 -11 -64 -111 -108 -169 -114 -150 -331 -280
-558 -333 -118 -28 -375 -26 -504 3 -331 76 -567 222 -692 429 -145 239 -109
541 76 636 60 31 200 23 279 -16 142 -69 200 -259 132 -431 -15 -38 -43 -94
-61 -124 -42 -69 -50 -108 -31 -152 22 -54 74 -99 162 -140 112 -52 205 -66
312 -46 196 37 328 158 364 335 11 50 11 74 0 124 -22 108 -46 141 -268 378
-237 252 -326 410 -369 653 -37 214 24 435 177 642 112 152 309 273 548 337
104 28 351 30 461 4 162 -39 304 -100 440 -189 97 -63 139 -98 285 -232 201
-184 216 -196 228 -192 6 2 15 17 18 33 4 16 13 45 20 64 36 102 54 146 61
155 4 5 8 15 8 22 0 26 135 306 208 433 225 388 482 676 747 836 44 27 175 92
230 114 63 26 234 67 305 74 95 8 299 -4 377 -23z"/>
</g>
</svg>
