<svg version="1.1" xmlns="http://www.w3.org/2000/svg" xmlns:xlink="http://www.w3.org/1999/xlink" x="0px" y="0px"
	 width="59.1px" height="66.8px" viewBox="0 0 59.1 66.8" style="enable-background:new 0 0 59.1 66.8;" xml:space="preserve">
<style>
	.st0-market-grey{fill:#FFFFFF;}
	.st1-market-grey{fill:#55606F;}
</style>
<path class="st0-market-grey" d="M19.5,39.2c-5.9-6-5.9-15.6,0-21.6c5.9-6,15.5-6,21.4,0c5.9,6,5.9,15.6,0,21.6C35,45.2,25.4,45.1,19.5,39.2z"/>
<g>
	<g>
		<path class="st1-market-grey" d="M48.3,10.2c-10-10-26.1-10-36.1,0c-10,10-10,26.3,0,36.3c5,5.1,18,18.2,18,18.2s13.1-13.2,18-18.2
			C58.2,36.6,58.2,20.3,48.3,10.2z M39.9,38.1c-5.3,5.4-13.9,5.3-19.2,0c-5.3-5.4-5.3-14,0-19.4c5.3-5.4,13.9-5.4,19.2,0
			C45.2,24.1,45.2,32.7,39.9,38.1z M27.3,25.4c-1.7,1.7-1.7,4.4,0,6.1c1.7,1.7,4.4,1.7,6,0c1.7-1.7,1.7-4.4,0-6.1
			C31.6,23.7,28.9,23.7,27.3,25.4z"/>
	</g>
</g>
</svg>
