<svg version="1.1" xmlns="http://www.w3.org/2000/svg" xmlns:xlink="http://www.w3.org/1999/xlink" x="0px" y="0px"
	 viewBox="0 0 135 135" style="enable-background:new 0 0 135 135;" xml:space="preserve">
<g id="_Task_Completed">
	<path d="M15.5,126.1c0.3,0,0.5-0.2,0.5-0.5s-0.2-0.5-0.5-0.5h-0.7c-0.3,0-0.5,0.2-0.5,0.5s0.2,0.5,0.5,0.5H15.5z"/>
	<path d="M126.1,125.6c0-0.3-0.2-0.5-0.5-0.5h-1.4c0.2-0.3,0.2-0.6,0.2-0.9v-5.5c0-1.1-0.9-1.9-1.9-1.9h-3.2V16.6
		c0-3.1-2.5-5.6-5.6-5.6H91.5v-0.1c0-1.1-1-1.9-2.2-1.9H57c-1.2,0-2.2,0.9-2.2,1.9V11H32.6c-3.1,0-5.6,2.5-5.6,5.6v53.4
		c-4.3,0.3-7.6,3.8-7.6,8.1c0,2.9,1.5,4.8,4.3,5.6c0,0,0,0,0,0.1v1c-9.6,1.8-17,10.3-17,20.4c0,6.5,2.9,12.4,8,16.4
		c1.9,1.5,4.1,2.6,6.4,3.4h-3c-0.3,0-0.5,0.2-0.5,0.5s0.2,0.5,0.5,0.5h107.6C125.9,126.1,126.1,125.9,126.1,125.6z M41.1,89.6v-2.3
		c0-1.1,0.9-2,2-2h11.5c1.1,0,2,0.9,2,2v11.5c0,1.1-0.9,2-2,2h-6.9C46.8,96.5,44.5,92.6,41.1,89.6z M47.9,101.9h6.8c1.7,0,3-1.4,3-3
		V87.3c0-1.7-1.4-3-3-3H43.1c-1.7,0-3,1.4-3,3v1.5c-2.1-1.6-4.3-2.8-7.1-3.6V83c1.7-1,2.5-2.6,2.5-4.8c0-2.2-0.9-4.3-2.5-5.9V17.1
		h21.8c0.2,0.9,1,1.7,2.1,1.7h1.4v0c0,1.9,1.5,3.4,3.4,3.4h21.6c1.9,0,3.4-1.5,3.4-3.4v0h2.5c1.1,0,2-0.7,2.1-1.7h21.8v87.6H98.5
		c-0.3,0-0.5,0.2-0.5,0.5v11.5l-20.4,0c-0.1,0-0.1,0-0.1,0c0,0,0,0,0,0c-15.7,5.6,1.2-0.4-9,3.2H42.2c3.7-3.8,6.1-8.9,6.1-14.7
		C48.2,104.1,48.1,103,47.9,101.9z M31.3,83.7c0.3-0.1,0.6-0.2,0.8-0.3V85c-0.3-0.1-0.5-0.1-0.8-0.2L31.3,83.7
		C31.3,83.8,31.3,83.8,31.3,83.7z M59.4,18.8h26.4v0c0,1.3-1.1,2.4-2.4,2.4H61.8C60.5,21.2,59.4,20.1,59.4,18.8L59.4,18.8z
		 M67.2,121.4l3.7-1.3c0.3,0.9,0.3,1.8,0.1,2.6C71,122.7,67,121.3,67.2,121.4z M71.8,119.8l5.2-1.8v6.9l-5.1-1.8
		C72.2,121.9,72.2,121,71.8,119.8z M114.2,125c-0.2,0-0.3,0-0.5,0H78v-3.2h36.2V125z M115.2,117.7h2.8v7.4h-2.8V117.7z M114.2,120.9
		H78v-3.2l20.4,0c0,0,0,0,0,0s0,0,0,0h3.2c0,0,0,0,0,0s0,0,0,0l12.5,0V120.9z M99,116.7v-11h13.5l-11,11H99z M41.1,120.9h24.4
		c-0.2,0.1-0.3,0.3-0.3,0.5c0,0.2,0.1,0.4,0.3,0.5l0,0c0,0,0,0,0,0c0.1,0,6,2.1,5.6,2c0,0,0,0,0,0l3.5,1.2H33.8
		C36.5,124.2,39,122.8,41.1,120.9z M123.5,118.6v5.5c0,0.5-0.4,0.9-0.9,0.9H119v-7.4h3.6C123.1,117.7,123.5,118.1,123.5,118.6z
		 M113.7,12c2.6,0,4.6,2.1,4.6,4.6v100.1c-1.6,0,5.7,0-15.4,0c0.1-0.1,11.3-11.2,11.2-11.1c0.1-0.1,0.1-0.1,0.1-0.2c0,0,0,0,0-0.1
		c0,0,0,0,0-0.1V16.6c0-0.3-0.2-0.5-0.5-0.5H91.5V12H113.7z M55.8,10.9c0-0.5,0.5-0.9,1.2-0.9h32.3c0.6,0,1.2,0.4,1.2,0.9v0.6
		c0,0,0,0,0,0s0,0,0,0v5.1c0,0,0,0,0,0s0,0,0,0v0.2c0,0.5-0.5,0.9-1.2,0.9h-2.5v-1.9c1-0.2,1.7-1.1,1.7-2.2c0-1.2-1-2.2-2.2-2.2
		c-1.2,0-2.2,1-2.2,2.2c0,1.1,0.7,1.9,1.7,2.2v1.9H59.4v-1.9c1-0.2,1.7-1.1,1.7-2.2c0-1.2-1-2.2-2.2-2.2c-1.2,0-2.2,1-2.2,2.2
		c0,1.1,0.7,1.9,1.7,2.2v1.9H57c-0.6,0-1.2-0.4-1.2-0.9V10.9z M86.3,15c-0.7,0-1.2-0.5-1.2-1.2c0-0.7,0.5-1.2,1.2-1.2
		c0.7,0,1.2,0.5,1.2,1.2C87.5,14.4,86.9,15,86.3,15z M58.9,15c-0.7,0-1.2-0.5-1.2-1.2c0-0.7,0.5-1.2,1.2-1.2c0.7,0,1.2,0.5,1.2,1.2
		C60.1,14.4,59.6,15,58.9,15z M32.6,12h22.2v4.1H32.6c-0.3,0-0.5,0.2-0.5,0.5v54.9c-1.2-0.9-2.6-1.4-4.1-1.4V16.6
		C27.9,14,30,12,32.6,12z M20.3,78.2c0-3.9,3.2-7.2,7.1-7.2c3.9,0,7.1,3.2,7.1,7.2c0,1.9-0.7,3.3-2.2,4.1c-0.3,0.2-0.8,0.3-1.2,0.5
		c-0.1-0.4-0.3-0.8-0.5-1.1c1.3-0.4,2.1-1,2.5-1.9c0,0,0,0,0,0c0,0,0,0,0,0c0.2-0.4,0.2-0.9,0.2-1.5c0-0.6-0.1-1.1-0.2-1.6
		c0,0,0,0,0,0c0,0,0,0,0,0c-0.7-2.5-3-4.2-5.6-4.2c0,0,0,0,0,0c0,0,0,0,0,0c0,0,0,0,0,0c-3.2,0-5.9,2.6-5.9,5.9
		c0,1.3,0.3,2.8,2.7,3.5c-0.3,0.4-0.4,0.7-0.6,1.1C21.5,82.1,20.3,80.5,20.3,78.2z M25.1,80.8c-2.3-0.4-2.6-1.5-2.6-2.6
		c0-2.5,1.9-4.5,4.4-4.8V80C26.3,80.1,25.7,80.4,25.1,80.8z M27.9,73.3c1.9,0.2,3.6,1.5,4.1,3.4v2.6c-0.2,0.5-0.7,1.1-2.4,1.4
		c-0.5-0.4-1.1-0.6-1.8-0.7V73.3z M24.6,83.8c0-0.1,0-0.2,0-0.4c0.1-0.7,0.4-1.3,1-1.8c1-0.9,2.6-0.9,3.7,0c0,0,0.1,0.1,0.1,0.1
		c0.4,0.4,0.7,1,0.8,1.7c0,0.1,0,0.2,0,0.3v0.9c-0.9-0.1-1.9-0.2-2.8-0.2c-1,0-1.9,0.1-2.8,0.2V83.8z M7.6,105.3
		c0-11.1,9.1-19.8,19.8-19.8c11,0,19.8,9,19.8,19.8c0,10.9-8.9,19.8-19.8,19.8c-4.5,0-8.7-1.4-12.2-4.2
		C10.4,117.1,7.6,111.4,7.6,105.3z"/>
	<path d="M127.6,125.1c-0.3,0-0.5,0.2-0.5,0.5s0.2,0.5,0.5,0.5h0.2c0.3,0,0.5-0.2,0.5-0.5s-0.2-0.5-0.5-0.5H127.6z"/>
	<path d="M107.2,88.1H81.6c-0.3,0-0.5,0.2-0.5,0.5s0.2,0.5,0.5,0.5h25.6c0.3,0,0.5-0.2,0.5-0.5S107.5,88.1,107.2,88.1z"/>
	<path d="M63.9,89.1h13c0.3,0,0.5-0.2,0.5-0.5s-0.2-0.5-0.5-0.5h-13c-0.3,0-0.5,0.2-0.5,0.5S63.6,89.1,63.9,89.1z"/>
	<path d="M63.9,93.6h39.9c0.3,0,0.5-0.2,0.5-0.5s-0.2-0.5-0.5-0.5H63.9c-0.3,0-0.5,0.2-0.5,0.5S63.6,93.6,63.9,93.6z"/>
	<path d="M99.9,97h-10c-0.3,0-0.5,0.2-0.5,0.5s0.2,0.5,0.5,0.5h10c0.3,0,0.5-0.2,0.5-0.5S100.1,97,99.9,97z"/>
	<path d="M63.9,98h21.2c0.3,0,0.5-0.2,0.5-0.5S85.4,97,85.1,97H63.9c-0.3,0-0.5,0.2-0.5,0.5S63.6,98,63.9,98z"/>
	<path d="M52.6,89.7l-5.3,5.3l-1.9-1.9c-0.2-0.2-0.5-0.2-0.7,0s-0.2,0.5,0,0.7L47,96c0.1,0.1,0.2,0.1,0.4,0.1s0.3,0,0.4-0.1l5.6-5.6
		c0.2-0.2,0.2-0.5,0-0.7S52.8,89.5,52.6,89.7z"/>
	<path d="M107.2,63.5H81.6c-0.3,0-0.5,0.2-0.5,0.5s0.2,0.5,0.5,0.5h25.6c0.3,0,0.5-0.2,0.5-0.5S107.5,63.5,107.2,63.5z"/>
	<path d="M63.9,64.5h13c0.3,0,0.5-0.2,0.5-0.5s-0.2-0.5-0.5-0.5h-13c-0.3,0-0.5,0.2-0.5,0.5S63.6,64.5,63.9,64.5z"/>
	<path d="M63.9,69h39.9c0.3,0,0.5-0.2,0.5-0.5s-0.2-0.5-0.5-0.5H63.9c-0.3,0-0.5,0.2-0.5,0.5S63.6,69,63.9,69z"/>
	<path d="M99.9,73.4c0.3,0,0.5-0.2,0.5-0.5s-0.2-0.5-0.5-0.5h-10c-0.3,0-0.5,0.2-0.5,0.5s0.2,0.5,0.5,0.5H99.9z"/>
	<path d="M63.9,73.4h21.2c0.3,0,0.5-0.2,0.5-0.5s-0.2-0.5-0.5-0.5H63.9c-0.3,0-0.5,0.2-0.5,0.5S63.6,73.4,63.9,73.4z"/>
	<path d="M54.7,59.7H43.2c-1.7,0-3,1.4-3,3v11.5c0,1.7,1.4,3,3,3h11.5c1.7,0,3-1.4,3-3V62.7C57.7,61,56.3,59.7,54.7,59.7z
		 M56.7,74.2c0,1.1-0.9,2-2,2H43.2c-1.1,0-2-0.9-2-2V62.7c0-1.1,0.9-2,2-2h11.5c1.1,0,2,0.9,2,2V74.2z"/>
	<path d="M52.6,65l-5.3,5.3l-1.9-1.9c-0.2-0.2-0.5-0.2-0.7,0s-0.2,0.5,0,0.7l2.2,2.2c0.1,0.1,0.2,0.1,0.4,0.1s0.3,0,0.4-0.1l5.6-5.6
		c0.2-0.2,0.2-0.5,0-0.7S52.8,64.8,52.6,65z"/>
	<path d="M81.6,37.3h25.6c0.3,0,0.5-0.2,0.5-0.5s-0.2-0.5-0.5-0.5H81.6c-0.3,0-0.5,0.2-0.5,0.5S81.3,37.3,81.6,37.3z"/>
	<path d="M63.9,37.3h13c0.3,0,0.5-0.2,0.5-0.5s-0.2-0.5-0.5-0.5h-13c-0.3,0-0.5,0.2-0.5,0.5S63.6,37.3,63.9,37.3z"/>
	<path d="M63.9,41.8h39.9c0.3,0,0.5-0.2,0.5-0.5s-0.2-0.5-0.5-0.5H63.9c-0.3,0-0.5,0.2-0.5,0.5S63.6,41.8,63.9,41.8z"/>
	<path d="M99.9,46.2c0.3,0,0.5-0.2,0.5-0.5s-0.2-0.5-0.5-0.5h-10c-0.3,0-0.5,0.2-0.5,0.5s0.2,0.5,0.5,0.5H99.9z"/>
	<path d="M63.9,46.2h21.2c0.3,0,0.5-0.2,0.5-0.5s-0.2-0.5-0.5-0.5H63.9c-0.3,0-0.5,0.2-0.5,0.5S63.6,46.2,63.9,46.2z"/>
	<path d="M54.7,32.5H43.2c-1.7,0-3,1.4-3,3v11.5c0,1.7,1.4,3,3,3h11.5c1.7,0,3-1.4,3-3V35.5C57.7,33.9,56.3,32.5,54.7,32.5z
		 M56.7,47.1c0,1.1-0.9,2-2,2H43.2c-1.1,0-2-0.9-2-2V35.5c0-1.1,0.9-2,2-2h11.5c1.1,0,2,0.9,2,2V47.1z"/>
	<path d="M52.6,37.9l-5.3,5.3l-1.9-1.9c-0.2-0.2-0.5-0.2-0.7,0s-0.2,0.5,0,0.7l2.2,2.2c0.2,0.2,0.5,0.2,0.7,0l5.6-5.6
		c0.2-0.2,0.2-0.5,0-0.7S52.8,37.7,52.6,37.9z"/>
	<path d="M43.8,105.3c0-9-7.3-16.4-16.4-16.4c-9,0-16.4,7.3-16.4,16.4s7.3,16.4,16.4,16.4C36.5,121.6,43.8,114.3,43.8,105.3z
		 M12.1,105.3c0-8.5,6.9-15.4,15.4-15.4s15.4,6.9,15.4,15.4c0,8.5-6.9,15.4-15.4,15.4S12.1,113.7,12.1,105.3z"/>
	<path d="M27.4,94.6c0.3,0,0.5-0.2,0.5-0.5v-1.4c0-0.3-0.2-0.5-0.5-0.5s-0.5,0.2-0.5,0.5v1.4C26.9,94.4,27.2,94.6,27.4,94.6z"/>
	<path d="M27.9,117.9v-1.4c0-0.3-0.2-0.5-0.5-0.5s-0.5,0.2-0.5,0.5v1.4c0,0.3,0.2,0.5,0.5,0.5S27.9,118.2,27.9,117.9z"/>
	<path d="M18.9,96c-0.2-0.2-0.5-0.2-0.7,0s-0.2,0.5,0,0.7l1,1c0.2,0.2,0.5,0.2,0.7,0c0.2-0.2,0.2-0.5,0-0.7L18.9,96z"/>
	<path d="M36,114.6c0.2,0.2,0.5,0.2,0.7,0c0.2-0.2,0.2-0.5,0-0.7l-1-1c-0.2-0.2-0.5-0.2-0.7,0s-0.2,0.5,0,0.7L36,114.6z"/>
	<path d="M16.2,104.8h-1.4c-0.3,0-0.5,0.2-0.5,0.5s0.2,0.5,0.5,0.5h1.4c0.3,0,0.5-0.2,0.5-0.5S16.5,104.8,16.2,104.8z"/>
	<path d="M38.6,105.8h1.4c0.3,0,0.5-0.2,0.5-0.5s-0.2-0.5-0.5-0.5h-1.4c-0.3,0-0.5,0.2-0.5,0.5S38.4,105.8,38.6,105.8z"/>
	<path d="M19.2,112.8l-1,1c-0.2,0.2-0.2,0.5,0,0.7c0.2,0.2,0.5,0.2,0.7,0l1-1c0.2-0.2,0.2-0.5,0-0.7S19.4,112.7,19.2,112.8z"/>
	<path d="M35.7,97.7l1-1c0.2-0.2,0.2-0.5,0-0.7s-0.5-0.2-0.7,0l-1,1c-0.2,0.2-0.2,0.5,0,0.7C35.2,97.9,35.5,97.9,35.7,97.7z"/>
	<path d="M27.4,107.4c1.3,0,2.4-1,2.4-2.3c0-0.7-0.3-1.3-0.7-1.7l3.1-5c0.1-0.2,0.1-0.5-0.2-0.7c-0.2-0.1-0.5-0.1-0.7,0.2l-3.1,5
		c-0.2-0.1-0.5-0.1-0.8-0.1c-1.3,0-2.4,1.1-2.4,2.4c0,0.7,0.3,1.2,0.7,1.7l-0.5,0.7c-0.1,0.2-0.1,0.5,0.2,0.7
		c0.2,0.1,0.5,0.1,0.7-0.2l0.5-0.8C26.9,107.3,27.2,107.4,27.4,107.4z M28.1,103.9C28.1,103.9,28.1,103.9,28.1,103.9
		C28.1,103.9,28.2,103.9,28.1,103.9c0.4,0.3,0.7,0.7,0.7,1.2c0,1-1.1,1.7-2,1.1c0,0,0,0,0,0c0,0,0,0,0,0c-0.4-0.2-0.6-0.6-0.6-1.1
		C26.1,104,27.2,103.3,28.1,103.9z"/>
</g>
</svg>
