<svg version="1.1" xmlns="http://www.w3.org/2000/svg" xmlns:xlink="http://www.w3.org/1999/xlink" x="0px" y="0px"
	 viewBox="0 0 66 66" enable-background="new 0 0 66 66" xml:space="preserve">
<g>
	<path d="M10.5761719,28.3227367c0.0292969,0.0058594,0.0576172,0.0078125,0.0869141,0.0078125
		c0.2382813,0,0.4492188-0.1708984,0.4912109-0.4140625c0.8496094-4.8640747,3.3496094-9.3278198,7.0375366-12.6419077
		c1.0369511,0.9480124,2.5576744,1.0442705,3.7007446,0.2600708c3.296875-2.2597656,7.1357422-3.4550781,11.1025391-3.4550781
		c3.9716797,0,7.8154297,1.1953125,11.1142578,3.4560547c1.3615913,0.9352598,3.2291718,0.5815229,4.1572266-0.7763672
		c0.9316406-1.359375,0.5830078-3.2236328-0.7773438-4.15625C43.1904297,7.6567206,38.1777344,6.10008,32.9951172,6.10008
		c-5.1796875,0-10.1894531,1.5576172-14.4853649,4.5039058c-1.2134476,0.83358-1.6913586,2.4636116-0.9300404,3.874939
		c-3.885376,3.4682016-6.5179443,8.1560068-7.40979,13.265687C10.1220703,28.0160961,10.3037109,28.2758617,10.5761719,28.3227367z
		 M19.0761719,11.4282045C23.2041016,8.5971498,28.0175781,7.10008,32.9951172,7.10008
		c4.9804688,0,9.796875,1.4960933,13.9287109,4.327148c0.9052734,0.6210938,1.1376953,1.8623047,0.5185547,2.7675781
		c-0.5986328,0.8720703-1.8925781,1.1162109-2.7675781,0.5166016c-3.4667969-2.3759766-7.5058594-3.6318359-11.6796875-3.6318359
		c-4.1699219,0-8.2041016,1.2558594-11.6689453,3.6308594c-0.9238853,0.6351709-2.1551266,0.3757792-2.7666016-0.515625
		C17.9394531,13.2905092,18.1708984,12.0492983,19.0761719,11.4282045z"/>
	<path d="M16.0078125,11.4926577c0.3242188-0.8710938,0.8964844-1.6064453,1.6523438-2.1259766
		c1.21875-0.8359375,2.5126953-1.5761714,3.8447266-2.1992183c0.25-0.1171875,0.3583984-0.4150391,0.2412109-0.6650391
		c-0.1171875-0.2509766-0.4160156-0.3583984-0.6650391-0.2412109c-1.3818359,0.6464844-2.7226563,1.4140625-3.9873047,2.2812495
		c-0.9267578,0.6367188-1.6259766,1.5361328-2.0234375,2.6005859c-0.0966797,0.2587891,0.0351563,0.546875,0.2939453,0.6435547
		C15.6193981,11.8817406,15.9099712,11.7544146,16.0078125,11.4926577z"/>
	<path d="M23.7265625,6.2436347c0.9511719-0.3457031,1.9316406-0.6416016,2.9140625-0.8789063
		c0.2685547-0.0654297,0.4335938-0.3359375,0.3691273-0.6035156c-0.0644398-0.2675781-0.3320179-0.4296875-0.6035023-0.3691406
		c-1.0185547,0.2470703-2.0351563,0.5537109-3.0214977,0.9121094c-0.2597523,0.09375-0.3935413,0.3808594-0.2988148,0.640625
		C23.178566,6.2016978,23.4640942,6.3386664,23.7265625,6.2436347z"/>
	<path d="M60.6298828,33.2383232v-0.1138306c0-1.7890606-1.4550781-3.2441387-3.2431641-3.2441387h-1.2900391
		c-0.4040527-5.000061-2.4421387-9.7952881-5.7958984-13.5458984c-0.1855469-0.2070313-0.5029297-0.2226563-0.7060547-0.0400391
		c-0.2060547,0.1845703-0.2236328,0.5009766-0.0400391,0.7060547c3.1907349,3.5684204,5.1357422,8.1253662,5.5377197,12.8798828
		h-2.5689697c-0.2763672,0-0.5,0.2236328-0.5,0.5v14.3388653c0,0.2763672,0.2236328,0.5,0.5,0.5h2.5966797
		c-0.4838867,9.491394-14.5129395,12.2081909-17.3649292,12.6591797c-0.250061-1.5302124-1.5714111-2.7050781-3.1712036-2.7050781
		h-3.1669922c-1.7773438,0-3.2236328,1.4462891-3.2236328,3.2236328s1.4462891,3.2236328,3.2236328,3.2236328h3.1669922
		c1.6061401,0,2.9306641-1.1845703,3.1730957-2.7236938c5.3824463-0.6994019,17.9296875-4.3255615,18.3671265-13.6776733h1.2625122
		c1.7880859,0,3.2431641-1.4550781,3.2431641-3.2441406v-0.1140137C62.8023071,41.609417,64.5,39.7804375,64.5,37.5414848
		C64.5,35.3116264,62.8023071,33.4890556,60.6298828,33.2383232z M34.5839844,60.6205864h-3.1669922
		c-1.2265625,0-2.2236328-0.9970703-2.2236328-2.2236328s0.9970703-2.2236328,2.2236328-2.2236328h3.1669922
		c1.2265625,0,2.2236328,0.9970703,2.2236328,2.2236328S35.8105469,60.6205864,34.5839844,60.6205864z M59.6298828,41.9750786
		c0,1.2373047-1.0058594,2.2441406-2.2431641,2.2441406h-4.3632813V30.8803539h4.3632813
		c1.2373047,0,2.2431641,1.0068359,2.2431641,2.2441387C59.6298828,34.9703979,59.6298828,39.0291252,59.6298828,41.9750786z
		 M60.6298828,40.8744926v-6.6494141C62.2519531,34.4662895,63.5,35.8617973,63.5,37.5414848
		C63.5,39.2299614,62.2519531,40.6323051,60.6298828,40.8744926z"/>
	<path d="M9.8691406,46.7192192c-0.2763672,0-0.5,0.2236328-0.5,0.5s0.2236328,0.5,0.5,0.5h2.5605469
		c0.2763672,0,0.5-0.2236328,0.5-0.5s-0.2236328-0.5-0.5-0.5H9.8691406z"/>
	<path d="M7.5029297,47.6010551c0.2304688,0,0.4375-0.1601563,0.4882813-0.3935547
		c0.0585938-0.2705078-0.1123047-0.5361328-0.3818359-0.5947266c-1.5712891-0.3417969-2.8925781-1.4921875-3.4492188-3.0039063
		c-0.0957031-0.2597656-0.3847656-0.3935547-0.6416016-0.2958984c-0.2588017,0.0947266-0.3916016,0.3828125-0.2958984,0.6416016
		c0.6728516,1.8291016,2.2724609,3.2216797,4.1738281,3.6347656C7.4326172,47.5971489,7.4677734,47.6010551,7.5029297,47.6010551z"
		/>
	<path d="M5.3701172,41.9750786c0,1.7890625,1.4550781,3.2441406,3.2441406,3.2441406h4.8623047c0.2763672,0,0.5-0.2236328,0.5-0.5
		V30.3803539c0-0.2763672-0.2236328-0.5-0.5-0.5H8.6142578c-1.7890625,0-3.2441406,1.4550781-3.2441406,3.2441387v0.1138306
		C3.1976929,33.4890556,1.5,35.3116264,1.5,37.5414848c0,2.2389526,1.6976929,4.0679321,3.8701172,4.3195801V41.9750786z
		 M6.3701172,33.1244926c0-1.2373028,1.0068359-2.2441387,2.2441406-2.2441387h4.3623047v13.3388653H8.6142578
		c-1.2373047,0-2.2441406-1.0068359-2.2441406-2.2441406C6.3701172,40.1291771,6.3701172,36.070446,6.3701172,33.1244926z
		 M2.5,37.5414848c0-1.6796875,1.2480469-3.0751953,2.8701172-3.3164063v6.6494141
		C3.7480469,40.6323051,2.5,39.2299614,2.5,37.5414848z"/>
	<path d="M48.6240234,36.7631645c0.2421875-0.0390625,0.4199219-0.2480469,0.4199219-0.4931641v-4.8203106
		c0-0.2451172-0.1777344-0.4541016-0.4199219-0.4931641l-3.3369141-0.5400391
		c-0.2646484-0.9746094-0.6533203-1.9179688-1.1572266-2.8095703l1.9775391-2.7451172
		c0.1435547-0.1982422,0.1220703-0.4716797-0.0517578-0.6455078l-3.4111328-3.4111328
		c-0.1728516-0.1728516-0.4482422-0.1943359-0.6464844-0.0517578l-2.7421875,1.9863281
		c-0.8857422-0.5078125-1.828125-0.8984375-2.8115234-1.1660156l-0.5410156-3.3369141
		c-0.0390625-0.2421875-0.2480469-0.4199219-0.4931641-0.4199219h-4.8193359c-0.2451172,0-0.4541016,0.1777344-0.4931641,0.4199219
		l-0.5410156,3.3369141c-0.9833984,0.2675781-1.9257813,0.6582031-2.8115234,1.1660156l-2.7421875-1.9863281
		c-0.1972656-0.1425781-0.4726563-0.1210938-0.6464844,0.0517578l-3.4111328,3.4111328
		c-0.1738281,0.1738281-0.1953125,0.4472656-0.0517578,0.6455078l1.9765625,2.7451172
		c-0.5039063,0.8925781-0.8916016,1.8349609-1.15625,2.8095703l-3.3369141,0.5400391
		c-0.2422009,0.0390625-0.4199219,0.2480469-0.4199219,0.4931641v4.8203106c0,0.2451172,0.177721,0.4541016,0.4199219,0.4931641
		l3.3369141,0.5400391c0.2675781,0.984375,0.6591797,1.9277344,1.1669922,2.8125l-1.9873047,2.7421875
		c-0.1435547,0.1982422-0.1220703,0.4726563,0.0517578,0.6464844l3.4111328,3.4101563
		c0.1738281,0.1748047,0.4492188,0.1953125,0.6464844,0.0517578l2.7421875-1.9863281
		c0.8847656,0.5078125,1.828125,0.8994141,2.8115234,1.1669922l0.5410156,3.3369141
		c0.0390625,0.2421875,0.2480469,0.4199219,0.4931641,0.4199219h4.8193359c0.2451172,0,0.4541016-0.1777344,0.4931641-0.4199219
		l0.5410156-3.3369141c0.9833984-0.2675781,1.9267578-0.6591797,2.8115234-1.1669922l2.7421875,1.9863281
		c0.1982422,0.1435547,0.4736328,0.1230469,0.6464844-0.0517578l3.4111328-3.4101563
		c0.1738281-0.1738281,0.1953125-0.4482422,0.0517578-0.6464844l-1.9873047-2.7421875
		c0.5078125-0.8847656,0.8994141-1.828125,1.1669922-2.8125L48.6240234,36.7631645z M44.3984375,36.7436333
		c-0.2685547,1.109375-0.7070313,2.1650391-1.3027344,3.1386719c-0.1054688,0.171875-0.0966797,0.390625,0.0214844,0.5537109
		l1.9296875,2.6630859l-2.8076172,2.8066406l-2.6630859-1.9287109c-0.1621094-0.1162109-0.3818359-0.1259766-0.5537109-0.0214844
		c-0.9736328,0.5957031-2.0292969,1.0341797-3.1377106,1.3027344c-0.1952972,0.0478516-0.3427582,0.2080078-0.375,0.40625
		l-0.5253754,3.2392578h-3.9677734l-0.5253906-3.2392578c-0.0322266-0.1982422-0.1796875-0.3583984-0.375-0.40625
		c-1.1083984-0.2685547-2.1640625-0.7070313-3.1376953-1.3027344c-0.171875-0.1044922-0.3916016-0.0947266-0.5537109,0.0214844
		l-2.6630859,1.9287109l-2.8076172-2.8066406l1.9296875-2.6630859c0.1181641-0.1630859,0.1269531-0.3818359,0.0214844-0.5537109
		c-0.5957031-0.9736328-1.0341797-2.0292969-1.3027344-3.1386719c-0.0478516-0.1953125-0.2080078-0.34375-0.40625-0.375
		l-3.2392578-0.5244141v-3.9687481l3.2392578-0.5244141c0.1982422-0.03125,0.3583984-0.1796875,0.40625-0.375
		c0.265625-1.0966797,0.7001953-2.1542969,1.2919922-3.1416016c0.1025391-0.1708984,0.09375-0.3867188-0.0234375-0.5488281
		l-1.9179688-2.6630859l2.8085938-2.8085938l2.6630859,1.9287109c0.1621094,0.1162109,0.3818359,0.1269531,0.5537109,0.0214844
		c0.9746094-0.5957031,2.0302734-1.0332031,3.1376953-1.3017578c0.1953125-0.0478516,0.3427734-0.2080078,0.375-0.40625
		l0.5253906-3.2392578h3.9677734l0.5253754,3.2392578c0.0322418,0.1982422,0.1797028,0.3583984,0.375,0.40625
		c1.1074371,0.2685547,2.1631012,0.7060547,3.1377106,1.3017578c0.171875,0.1054688,0.3916016,0.0947266,0.5537109-0.0214844
		l2.6630859-1.9287109l2.8085938,2.8085938l-1.9189453,2.6630859c-0.1171875,0.1621094-0.1259766,0.3779297-0.0234375,0.5498047
		c0.5927734,0.9863281,1.0273438,2.0429688,1.2929688,3.140625c0.0478516,0.1953125,0.2080078,0.34375,0.40625,0.375
		l3.2392578,0.5244141v3.9687481l-3.2392578,0.5244141C44.6064453,36.3998833,44.4462891,36.5483208,44.3984375,36.7436333z"/>
	<path d="M41.0029297,28.7739086c-0.2412109,0.1357422-0.3261719,0.4404297-0.1904297,0.6806641
		c0.7539063,1.3369141,1.1523438,2.8632793,1.1523438,4.4140606c0,3.3828125-1.8720703,6.4394531-4.8847656,7.9785156
		c-0.2460938,0.1259766-0.34375,0.4267578-0.2177734,0.6728516c0.0888672,0.1728516,0.2636719,0.2724609,0.4453125,0.2724609
		c0.0771332,0,0.1542969-0.0175781,0.2275391-0.0546875c3.3486328-1.7099609,5.4296875-5.1083984,5.4296875-8.8691406
		c0-1.7226563-0.4433594-3.4179668-1.28125-4.904295C41.546875,28.7221508,41.2392578,28.639143,41.0029297,28.7739086z"/>
	<path d="M24.6464844,29.3774242c0.0810547,0.0488281,0.1699219,0.0722656,0.2587891,0.0722656
		c0.1689453,0,0.3339844-0.0859375,0.4277344-0.2412109c1.6367188-2.7001953,4.5-4.3125,7.6591797-4.3125
		c1.9453125,0,3.7929688,0.6074219,5.3447266,1.7568359c0.2226563,0.1650391,0.5361328,0.1191406,0.6992188-0.1035156
		c0.1650391-0.2216797,0.1181641-0.5351563-0.1035156-0.6992188c-1.7255859-1.2783203-3.7792969-1.9541016-5.9404297-1.9541016
		c-3.5117188,0-6.6943359,1.7919922-8.5146484,4.7949219C24.3349609,28.9262524,24.4101563,29.2338696,24.6464844,29.3774242z"/>
	<path d="M34.1201172,42.755352c-0.3759766,0.0458984-0.7548828,0.0693359-1.1279297,0.0693359
		c-4.9384766,0-8.9560547-4.0175781-8.9560547-8.9560547c0-0.4492188,0.0332031-0.8994141,0.0976563-1.3388672
		c0.0410156-0.2734375-0.1474609-0.5273438-0.4208984-0.5673809c-0.2646484-0.0400391-0.5273438,0.1484356-0.5673828,0.4208965
		c-0.0722656,0.4873047-0.109375,0.9873047-0.109375,1.4853516c0,5.4902344,4.4658203,9.9560547,9.9560547,9.9560547
		c0.4130859,0,0.8339844-0.0263672,1.2490234-0.0771484c0.2744141-0.0332031,0.4697266-0.2832031,0.4355469-0.5566406
		C34.6425781,42.9155083,34.3886719,42.7162895,34.1201172,42.755352z"/>
	<path d="M40.2382813,33.8617973c0-2.88867-3.1816406-5.1513653-7.2431641-5.1513653
		c-4.0556641,0-7.2333984,2.2626953-7.2333984,5.1513653c0,1.8203125,1.3359375,3.4941406,3.5068359,4.4208984l0.3632813,2.2910156
		c0.0332031,0.2041016,0.1875,0.3671875,0.3896484,0.4111328c0.0351563,0.0068359,0.0693359,0.0107422,0.1044922,0.0107422
		c0.1660156,0,0.3251953-0.0830078,0.4179688-0.2265625l1.2001953-1.8339844
		c0.4023438,0.0517578,0.8212891,0.078125,1.2509766,0.078125C36.9892578,39.0131645,40.2382813,36.7026176,40.2382813,33.8617973z
		 M32.9951172,38.0131645c-0.4912109,0-0.9667969-0.0380859-1.4111328-0.1123047
		c-0.2011719-0.0361328-0.3935547,0.0537109-0.5009766,0.2197266l-0.6660156,1.0175781l-0.2050781-1.2900391
		c-0.0283203-0.1757813-0.1474609-0.3242188-0.3134766-0.3886719c-1.9345703-0.7470703-3.1367188-2.1259766-3.1367188-3.5976563
		c0-2.2890606,2.7958984-4.1513653,6.2333984-4.1513653c3.4423828,0,6.2431641,1.8623047,6.2431641,4.1513653
		S36.4375,38.0131645,32.9951172,38.0131645z"/>
	<path d="M32.5625,34.6557426c1,0,0,0,1,0v-1h-1V34.6557426z"/>
	<path d="M35.5625,34.6557426c1,0,0,0,1,0v-1h-1V34.6557426z"/>
	<path d="M29.5625,34.6557426c1,0,0,0,1,0v-1h-1V34.6557426z"/>
</g>
</svg>
