<?xml version="1.0" encoding="utf-8"?>
<!-- Generator: Adobe Illustrator 22.0.1, SVG Export Plug-In . SVG Version: 6.00 Build 0)  -->
<svg version="1.1" id="Layer_1" xmlns="http://www.w3.org/2000/svg" xmlns:xlink="http://www.w3.org/1999/xlink" x="0px" y="0px"
	 viewBox="0 0 68 68" style="enable-background:new 0 0 68 68;" xml:space="preserve">
<g>
	<g>
		<g>
			<g>
				<path d="M3.8951523,30.7001171c-0.112793,0-0.2231445-0.0380859-0.3129883-0.1098633
					C3.464,30.495039,3.3951523,30.3519726,3.3951523,30.2001171V17.0897655c0-1.6850576,0.7485349-3.2622061,2.054199-4.3271475
					c0.1499023-0.121582,0.3564453-0.1459961,0.5302734-0.0644531c0.1743164,0.0830078,0.2856445,0.2587891,0.2856445,0.4516602
					c0,0.1782227,0.0288086,0.359375,0.0898438,0.5703125l4.472168,16.2875977
					c0.0415039,0.1503906,0.0102539,0.3115234-0.0844727,0.4355469c-0.0942383,0.1240234-0.2416992,0.1967773-0.3974609,0.1967773
					H4.4454451c-0.1513672,0-0.2958984,0.015625-0.4418945,0.0483398
					C3.9679062,30.6962109,3.9312851,30.7001171,3.8951523,30.7001171z M5.4420271,14.1717978
					c-0.6728516,0.8134766-1.046875,1.8388662-1.046875,2.9179678v12.5507813
					c0.0166016-0.0004883,0.0336914-0.0004883,0.050293-0.0004883h5.2441406L5.4420271,14.1717978z"/>
			</g>
			<g>
				<path d="M63.945446,25.620039c-0.0253906,0-0.0507813-0.0019531-0.0756836-0.0058594
					c-0.1049805-0.0161133-0.2099609-0.0244141-0.3144531-0.0244141h-3.0102539
					c-0.1435547,0-0.2807617-0.0620117-0.3754883-0.1699219s-0.1386719-0.2514648-0.1206055-0.394043l0.840332-6.5097656
					c0.0214844-0.1655273,0.1245117-0.3095703,0.2739258-0.3837891c0.1508789-0.0742188,0.3266602-0.0678711,0.4716797,0.0141602
					c1.7333984,0.9975586,2.8105431,2.8569336,2.8105431,4.8535156v2.1201172c0,0.1459961-0.0634766,0.284668-0.1743164,0.3793945
					C64.1798172,25.5775585,64.0640945,25.620039,63.945446,25.620039z M61.113903,24.5897655h2.331543v-1.5898438
					c0-1.3774414-0.6245117-2.6762695-1.6694336-3.5419922L61.113903,24.5897655z"/>
			</g>
		</g>
	</g>
	<g>
		<path d="M28.6651726,30.6400585H10.3453474c-0.2250977,0-0.4223633-0.1503906-0.4819336-0.3676758L5.393199,13.9921103
			C4.8033552,11.816329,6.0953474,9.5585165,8.2725935,8.9579306l24.0205078-6.6000981
			c1.0532227-0.2866211,2.1567383-0.1479492,3.1054688,0.3911133c0.9506836,0.5405273,1.6323242,1.4174805,1.9189453,2.4697266
			l0.4594727,1.6577148c0.0400391,0.144043,0.0131836,0.2983398-0.0727539,0.4204102
			c-0.0859375,0.1225586-0.222168,0.2001953-0.3710938,0.2114258c-1.2363281,0.0942383-2.2460938,1.054688-2.4018555,2.2846684
			l-1.9804688,15.3613272c-0.0322266,0.2490234-0.2446289,0.4355469-0.4956055,0.4355469
			c-1.0751953,0-1.949707,0.875-1.949707,1.9501953v1.2597656C30.5055046,29.8143749,29.679821,30.6400585,28.6651726,30.6400585z
			 M10.7266951,29.6400585h17.9384766c0.4633789,0,0.840332-0.3769531,0.840332-0.840332v-1.2597656
			c0-1.4760742,1.0893555-2.7021484,2.5063477-2.9169922l1.9272461-14.956542
			c0.1894531-1.496582,1.2963867-2.7055669,2.7255859-3.0600591l-0.3115234-1.1230469
			c-0.2163086-0.7954102-0.730957-1.4570313-1.4487305-1.8652344c-0.7172852-0.4077148-1.5512695-0.5126953-2.3476563-0.2958984
			L8.5377302,9.9217978c-1.6469727,0.4545898-2.6254883,2.1625977-2.1801758,3.8071289L10.7266951,29.6400585z"/>
	</g>
	<g>
		<path d="M28.6651726,30.6400585H14.905406c-0.1591797,0-0.3085938-0.0756836-0.402832-0.2041016
			c-0.0942383-0.1279297-0.1220703-0.293457-0.0742188-0.4453125l3.500001-11.1704102
			c0.1689453-0.5532227,0.6049805-0.984375,1.1650391-1.1499023c0.5654297-0.1679688,1.1723633-0.0419922,1.6230469,0.3369141
			l6.6025391,5.6015625c0.1826172,0.1547852,0.4238281,0.2109375,0.6557617,0.1547852
			c0.2275391-0.0556641,0.4091797-0.2104492,0.4985352-0.4257813l1.5527344-3.6245117
			c0.2192383-0.512207,0.6542969-0.8808594,1.1938477-1.0112305c0.5400391-0.1313477,1.0961914-0.0019531,1.5244141,0.3525391
			l0.6928711,0.5825195c0.1303711,0.1098633,0.1958008,0.2783203,0.1738281,0.4472656l-0.6601563,5.0698242
			c-0.0322266,0.2490234-0.2446289,0.4355469-0.4956055,0.4355469c-1.0751953,0-1.949707,0.875-1.949707,1.9501953v1.2597656
			C30.5055046,29.8143749,29.679821,30.6400585,28.6651726,30.6400585z M15.5860701,29.6400585h13.0791025
			c0.4633789,0,0.840332-0.3769531,0.840332-0.840332v-1.2597656c0-1.4760742,1.0893555-2.7021484,2.5063477-2.9169922
			l0.5722656-4.3964844l-0.4804688-0.4038086c-0.1806641-0.1494141-0.4160156-0.203125-0.6489258-0.1489258
			c-0.2299805,0.0556641-0.4155273,0.2138672-0.5097656,0.4331055l-1.550293,3.6196289
			c-0.2104492,0.5078125-0.6430664,0.8769531-1.1835938,1.0087891c-0.546875,0.1323242-1.1069336,0-1.5380859-0.362793
			l-6.6010742-5.6010742c-0.1933594-0.1625977-0.4467773-0.2138672-0.6948242-0.1425781
			c-0.2407227,0.0717773-0.4208984,0.2490234-0.4936523,0.4868164L15.5860701,29.6400585z"/>
	</g>
	<g>
		<path d="M25.3770866,15.8573446c-1.4189453,0-2.7241211-0.9433594-3.1176758-2.3769531
			c-0.472168-1.7182617,0.5424805-3.5004883,2.2607422-3.9726563c1.7172852-0.4746094,3.5009766,0.5424805,3.9731445,2.2607422l0,0
			c0.472168,1.71875-0.5419922,3.5009766-2.2607422,3.9726563C25.9469109,15.819747,25.6598015,15.8573446,25.3770866,15.8573446z
			 M25.3751335,10.3920126c-0.1953125,0-0.3930664,0.0258789-0.590332,0.0795898
			c-1.1865234,0.3261719-1.887207,1.5571289-1.5615234,2.7441406c0.3261719,1.1870117,1.5551758,1.887207,2.7446289,1.5615234
			c1.1865234-0.3261719,1.887207-1.5566406,1.5615234-2.7441406l0,0
			C27.2574577,11.0433798,26.3556023,10.3920126,25.3751335,10.3920126z"/>
	</g>
	<g>
		<path d="M60.5450554,25.5897655H32.4552116c-0.144043,0-0.2807617-0.0620117-0.3754883-0.1699219
			c-0.0952148-0.1083984-0.1386719-0.2519531-0.1201172-0.3945313l1.9794922-15.3588858
			c0.215332-1.6982427,1.6103516-3.0253911,3.3178711-3.1552739c0.2548828-0.0131836,0.4946289-0.0112305,0.7456055,0.0229492
			l21.4365234,2.7695317c1.9760742,0.2563477,3.3764648,2.0727539,3.1220703,4.050293l0,0l-1.5200195,11.7998037
			C61.0089226,25.4032421,60.7965202,25.5897655,60.5450554,25.5897655z M33.0245476,24.5897655H60.105114l1.4638672-11.3637686
			c0.1845703-1.4306641-0.8286133-2.7451172-2.2583008-2.9301758l-21.4394531-2.77002
			c-0.190918-0.0263672-0.3725586-0.0258789-0.5532227-0.0166016c-1.2211914,0.0932617-2.230957,1.0537114-2.3867188,2.2836919
			L33.0245476,24.5897655z M62.0650749,13.2899618h0.0097656H62.0650749z"/>
	</g>
	<g>
		<path d="M48.0753288,25.5897655H36.7852898c-0.1948242,0-0.371582-0.112793-0.4536133-0.2895508
			c-0.0820313-0.1762695-0.0537109-0.3842773,0.0717773-0.5332031l5.9589844-7.0786133
			c0.3447266-0.4067383,0.8657227-0.6118164,1.3925781-0.550293c0.5273438,0.0620117,0.9858398,0.3818359,1.2260742,0.8554688
			l3.409668,6.6894531c0.1625977,0.1342773,0.2246094,0.3671875,0.1533203,0.5654297
			C48.4723015,25.4466991,48.2862663,25.5897655,48.0753288,25.5897655z M37.8619499,24.5897655h9.3603516l-3.1323242-6.1430664
			c-0.090332-0.1777344-0.2548828-0.2919922-0.4516602-0.3154297c-0.1962891-0.0224609-0.3833008,0.0512695-0.5117188,0.2016602
			L37.8619499,24.5897655z"/>
	</g>
	<g>
		<path d="M54.8453484,25.5897655h-5.0898438c-0.2036133,0-0.3867188-0.1235352-0.4633789-0.3120117
			c-0.0766602-0.1889648-0.0307617-0.4052734,0.1152344-0.546875l2.3496094-2.2797852
			c0.3652344-0.3515625,0.8583984-0.5039063,1.359375-0.4213867c0.4970703,0.0825195,0.9135742,0.3852539,1.1430664,0.8310547
			l1.0302734,2c0.0800781,0.1552734,0.0732422,0.340332-0.0175781,0.4892578S55.0196648,25.5897655,54.8453484,25.5897655z
			 M50.988903,24.5897655h3.0366211l-0.6547852-1.2709961c-0.0834961-0.1621094-0.2358398-0.2724609-0.418457-0.3027344
			c-0.1826172-0.0288086-0.3662109,0.0258789-0.5004883,0.1542969L50.988903,24.5897655z"/>
	</g>
	<g>
		<path d="M50.4635124,18.1415234c-0.1235352,0-0.2480469-0.0078125-0.3730469-0.0239258
			c-0.7607422-0.0981445-1.4375-0.4868164-1.9057617-1.09375c-0.46875-0.6069336-0.6723633-1.3603506-0.574707-2.1210928
			c0.0981445-0.7607422,0.4868164-1.4375,1.09375-1.9057617c0.6074219-0.4682617,1.3574219-0.6723633,2.1210938-0.574707
			c0.7607422,0.0981445,1.4375,0.4868164,1.9057617,1.0942383c0.46875,0.6069336,0.6723633,1.3603516,0.574707,2.1206055l0,0
			c-0.0981445,0.7607412-0.4868164,1.437499-1.0942383,1.9057608
			C51.7037468,17.9344921,51.0938835,18.1415234,50.4635124,18.1415234z M50.4537468,13.3983603
			c-0.4111328,0-0.8081055,0.1347656-1.1391602,0.3901367c-0.3955078,0.3051758-0.6489258,0.746582-0.7124023,1.2421875
			c-0.0639648,0.4956055,0.0688477,0.9868155,0.3740234,1.3823233s0.7465668,0.6489258,1.2421875,0.7124023
			c0.4946289,0.0639648,0.9863281-0.0688477,1.3823242-0.3740234c0.3955078-0.3051758,0.6489258-0.746582,0.7124023-1.2421865l0,0
			c0.0639648-0.4956055-0.0688477-0.9863281-0.3740234-1.3823242c-0.3051758-0.3955078-0.746582-0.6489258-1.2421875-0.7124023
			C50.6158562,13.4037313,50.5343132,13.3983603,50.4537468,13.3983603z"/>
	</g>
	<g>
		<path d="M61.7642937,65.7880096H6.1930037c-1.5493164,0-2.8403318-1.2109375-2.9394529-2.7573242l-1.7475587-30.262207
			c-0.0517578-0.805666,0.2363281-1.6088886,0.7910157-2.2001972s1.3378906-0.9306641,2.1484373-0.9306641h24.2216797
			c0.4628906,0,0.8398438-0.3764648,0.8398438-0.8393555v-1.2602539c0-1.6240234,1.3212891-2.9453125,2.9453125-2.9453125
			h31.1020508c0.8178673,0,1.5776329,0.3271484,2.1396446,0.9213867c0.5620117,0.59375,0.8466797,1.3701172,0.8012695,2.1865234
			l-1.7895508,35.3027344C64.618782,64.5658417,63.327282,65.7880096,61.7642937,65.7880096z M4.4454451,30.6376171
			c-0.5434568,0-1.047363,0.2182617-1.4189451,0.6147461c-0.371582,0.3959961-0.5571289,0.9130878-0.5224609,1.45508
			l1.7475584,30.2626953c0.0654297,1.0180664,0.9179688,1.8178711,1.9414063,1.8178711h55.5712891
			c1.0322266,0,1.8857422-0.8071289,1.9428711-1.8378906l1.789547-35.3022461c0-0.0004883,0-0.0014648,0.0004883-0.0024414
			c0.0297852-0.5390625-0.1582031-1.0522461-0.5292969-1.4443359s-0.8735352-0.6083984-1.4135704-0.6083984H32.452282
			c-1.0727539,0-1.9453125,0.8725586-1.9453125,1.9453125v1.2602539c0,1.0141602-0.8251953,1.8393555-1.8398438,1.8393555H4.4454451
			z"/>
	</g>
	<g>
		<path d="M56.6851921,61.7723846H39.2896843c-1.097168,0-1.9897461-0.8925781-1.9897461-1.9892578v-6.9169922
			c0-1.0966797,0.8925781-1.9892578,1.9897461-1.9892578h17.3955078c1.097168,0,1.9897461,0.8925781,1.9897461,1.9892578v6.9169922
			C58.6749382,60.8798065,57.7823601,61.7723846,56.6851921,61.7723846z M39.2896843,51.8768768
			c-0.5458984,0-0.9897461,0.4438477-0.9897461,0.9892578v6.9169922c0,0.5454102,0.4438477,0.9892578,0.9897461,0.9892578
			h17.3955078c0.5458984,0,0.9897461-0.4438477,0.9897461-0.9892578v-6.9169922
			c0-0.5454102-0.4438477-0.9892578-0.9897461-0.9892578H39.2896843z"/>
	</g>
	<g>
		<g>
			<path d="M54.1539421,55.1683807h-7.9790039c-0.2763672,0-0.5-0.2236328-0.5-0.5s0.2236328-0.5,0.5-0.5h7.9790039
				c0.2763672,0,0.5,0.2236328,0.5,0.5S54.4303093,55.1683807,54.1539421,55.1683807z"/>
		</g>
		<g>
			<path d="M43.7999382,55.1683807h-1.9790039c-0.2763672,0-0.5-0.2236328-0.5-0.5s0.2236328-0.5,0.5-0.5h1.9790039
				c0.2763672,0,0.5,0.2236328,0.5,0.5S44.0763054,55.1683807,43.7999382,55.1683807z"/>
		</g>
		<g>
			<path d="M54.1539421,58.4808807H51.351696c-0.2763672,0-0.5-0.2236328-0.5-0.5s0.2236328-0.5,0.5-0.5h2.8022461
				c0.2763672,0,0.5,0.2236328,0.5,0.5S54.4303093,58.4808807,54.1539421,58.4808807z"/>
		</g>
		<g>
			<path d="M48.5499382,58.4808807h-6.7290039c-0.2763672,0-0.5-0.2236328-0.5-0.5s0.2236328-0.5,0.5-0.5h6.7290039
				c0.2763672,0,0.5,0.2236328,0.5,0.5S48.8263054,58.4808807,48.5499382,58.4808807z"/>
		</g>
	</g>
</g>
</svg>
