<svg version="1.1" xmlns="http://www.w3.org/2000/svg" xmlns:xlink="http://www.w3.org/1999/xlink" x="0px" y="0px"
	 viewBox="0 0 105 105" style="enable-background:new 0 0 105 105;" xml:space="preserve">
<g>
	<g>
		<g>
			<g>
				<path d="M86.7,11.4c-0.4,0-0.7-0.2-0.7-0.6l-0.1-0.3c-0.6-3.1-3.5-5.1-6.6-4.6l-29.7,5.5c-0.4,0.1-0.8-0.2-0.9-0.6
					c-0.1-0.4,0.2-0.8,0.6-0.9L79,4.4c1.9-0.3,3.8,0.1,5.4,1.2c1.6,1.1,2.6,2.7,3,4.6l0.1,0.3c0.1,0.4-0.2,0.8-0.6,0.9
					C86.8,11.4,86.7,11.4,86.7,11.4z"/>
			</g>
			<g>
				<path d="M12.8,56.7c-0.4,0-0.7-0.3-0.7-0.6l-5.7-31c-0.7-3.9,1.9-7.6,5.8-8.4l0.5-0.1c0.4-0.1,0.8,0.2,0.9,0.6
					c0.1,0.4-0.2,0.8-0.6,0.9l-0.5,0.1c-3.1,0.6-5.1,3.5-4.6,6.6l5.7,31c0.1,0.4-0.2,0.8-0.6,0.9C12.9,56.7,12.8,56.7,12.8,56.7z"/>
			</g>
			<g>
				<path d="M99.1,78.9c-0.4,0-0.7-0.3-0.7-0.6l-5.5-29.6c-0.1-0.4,0.2-0.8,0.6-0.9c0.4-0.1,0.8,0.2,0.9,0.6l5.5,29.6
					c0.1,0.4-0.2,0.8-0.6,0.9C99.2,78.9,99.2,78.9,99.1,78.9z"/>
			</g>
			<g>
				<path d="M26.2,100.2c-3.4,0-6.4-2.4-7.1-5.9L19,94c-0.1-0.4,0.2-0.8,0.6-0.9c0.4-0.1,0.8,0.2,0.9,0.6l0.1,0.3
					c0.6,3.1,3.5,5.1,6.6,4.6l29.7-5.5c0.4-0.1,0.8,0.2,0.9,0.6c0.1,0.4-0.2,0.8-0.6,0.9l-29.7,5.5C27,100.2,26.6,100.2,26.2,100.2z
					"/>
			</g>
			<g>
				<path d="M93.7,78.8c-0.4,0-0.8-0.3-0.8-0.8v-61c0-3.1-2.5-5.7-5.7-5.7h-68c-3.1,0-5.7,2.6-5.7,5.7v40.3c0,0.4-0.3,0.8-0.8,0.8
					s-0.8-0.3-0.8-0.8V17.1c0-4,3.2-7.2,7.2-7.2h68c4,0,7.2,3.2,7.2,7.2v61C94.4,78.5,94.1,78.8,93.7,78.8z"/>
			</g>
			<g>
				<path d="M73.6,94.6H19.2c-4,0-7.2-3.2-7.2-7.2v-13c0-0.4,0.3-0.8,0.8-0.8s0.8,0.3,0.8,0.8v13c0,3.1,2.6,5.7,5.7,5.7h54.4
					c0.4,0,0.8,0.3,0.8,0.8S74.1,94.6,73.6,94.6z"/>
			</g>
			<g>
				<path d="M67,88.6H18.8c-0.4,0-0.8-0.3-0.8-0.8s0.3-0.8,0.8-0.8H67c0.4,0,0.8,0.3,0.8,0.8S67.5,88.6,67,88.6z"/>
			</g>
			<g>
				<path d="M48.6,82H18.8c-0.4,0-0.8-0.3-0.8-0.8s0.3-0.8,0.8-0.8h29.8c0.4,0,0.8,0.3,0.8,0.8S49,82,48.6,82z"/>
			</g>
			<g>
				<path d="M70.4,82H54.6c-0.4,0-0.8-0.3-0.8-0.8s0.3-0.8,0.8-0.8h15.8c0.4,0,0.8,0.3,0.8,0.8S70.9,82,70.4,82z"/>
			</g>
			<g>
				<path d="M63.1,75.3H29.8c-0.4,0-0.8-0.3-0.8-0.8s0.3-0.8,0.8-0.8h33.3c0.4,0,0.8,0.3,0.8,0.8S63.5,75.3,63.1,75.3z"/>
			</g>
			<g>
				<path d="M87.7,75.3H67c-0.4,0-0.8-0.3-0.8-0.8s0.3-0.8,0.8-0.8h20.6c0.4,0,0.8,0.3,0.8,0.8S88.1,75.3,87.7,75.3z"/>
			</g>
			<g>
				<path d="M87.7,68.7H31.4c-0.4,0-0.8-0.3-0.8-0.8s0.3-0.8,0.8-0.8h56.3c0.4,0,0.8,0.3,0.8,0.8S88.1,68.7,87.7,68.7z"/>
			</g>
			<g>
				<path d="M45.1,61.5H26.4c-0.4,0-0.8-0.3-0.8-0.8s0.3-0.8,0.8-0.8h18.7c0.8,0,1.5-0.7,1.5-1.5V44.1c0-0.8-0.7-1.5-1.5-1.5h-24
					c-0.8,0-1.5,0.7-1.5,1.5v13.3c0,0.4-0.3,0.8-0.8,0.8s-0.8-0.3-0.8-0.8V44.1c0-1.7,1.4-3,3-3h24c1.7,0,3,1.4,3,3v14.5
					C48.1,60.2,46.7,61.5,45.1,61.5z"/>
			</g>
			<g>
				<path d="M85.4,36.4H21.1c-1.7,0-3-1.4-3-3V18.9c0-1.7,1.4-3,3-3h64.3c1.7,0,3,1.4,3,3v14.4C88.4,35,87.1,36.4,85.4,36.4z
					 M21.1,17.4c-0.8,0-1.5,0.7-1.5,1.5v14.4c0,0.8,0.7,1.5,1.5,1.5h64.3c0.8,0,1.5-0.7,1.5-1.5V18.9c0-0.9-0.7-1.5-1.5-1.5H21.1z"
					/>
			</g>
			<g>
				<path d="M85.4,61.5h-24c-1.7,0-3-1.4-3-3V44.1c0-1.7,1.4-3,3-3h24c1.7,0,3,1.4,3,3v14.4C88.4,60.2,87.1,61.5,85.4,61.5z
					 M61.4,42.6c-0.8,0-1.5,0.7-1.5,1.5v14.4c0,0.8,0.7,1.5,1.5,1.5h24c0.8,0,1.5-0.7,1.5-1.5V44.1c0-0.8-0.7-1.5-1.5-1.5H61.4z"/>
			</g>
			<g>
				<g>
					<path d="M33.1,21.1h1.6l5.1,8.1v-8.1h1.3v10.1h-1.5L34.4,23v8.1h-1.3V21.1z"/>
				</g>
				<g>
					<path d="M43.3,21.1h7.3v1.2h-6v3.1h5.6v1.2h-5.6v3.4h6.1v1.2h-7.4V21.1z"/>
				</g>
				<g>
					<path d="M53.2,21.1l1.9,8.2l2.3-8.2h1.5l2.3,8.2l1.9-8.2h1.5l-2.6,10.1h-1.4l-2.3-8.3l-2.3,8.3h-1.4l-2.6-10.1H53.2z"/>
				</g>
				<g>
					<path d="M66.7,27.9c0,0.6,0.2,1,0.4,1.4c0.5,0.7,1.2,1,2.4,1c0.5,0,1-0.1,1.4-0.2c0.8-0.3,1.2-0.8,1.2-1.5
						c0-0.5-0.2-0.9-0.5-1.2c-0.3-0.2-0.9-0.4-1.6-0.6l-1.4-0.3c-0.9-0.2-1.5-0.4-1.9-0.7c-0.6-0.4-1-1-1-1.9c0-0.9,0.3-1.6,0.9-2.2
						c0.6-0.6,1.5-0.9,2.7-0.9c1.1,0,2,0.3,2.7,0.8c0.7,0.5,1.1,1.3,1.1,2.4h-1.3c-0.1-0.5-0.2-1-0.4-1.2C71,22.3,70.3,22,69.3,22
						c-0.8,0-1.4,0.2-1.7,0.5c-0.4,0.3-0.5,0.7-0.5,1.2c0,0.5,0.2,0.9,0.6,1.1c0.3,0.1,0.9,0.3,1.8,0.5l1.4,0.3
						c0.7,0.2,1.2,0.4,1.6,0.6c0.6,0.5,1,1.2,1,2c0,1.1-0.4,1.9-1.2,2.4c-0.8,0.5-1.8,0.7-2.8,0.7c-1.3,0-2.2-0.3-2.9-1
						c-0.7-0.6-1.1-1.5-1-2.6H66.7z"/>
				</g>
			</g>
			<g>
				<g>
					<g>
						<g>
							<path d="M24.6,47.3h1.2l2.9,8h-1.2l-0.8-2.4h-3.2l-0.9,2.4h-1.1L24.6,47.3z M26.4,52l-1.2-3.6L23.9,52H26.4z"/>
						</g>
						<g>
							<path d="M29.8,47.3H33c1.1,0,2,0.4,2.6,1.2c0.5,0.7,0.8,1.6,0.8,2.7c0,0.9-0.2,1.6-0.5,2.3c-0.6,1.2-1.5,1.8-2.9,1.8h-3.2
								V47.3z M32.8,54.4c0.4,0,0.7,0,0.9-0.1c0.4-0.1,0.8-0.4,1-0.8c0.2-0.3,0.4-0.7,0.5-1.2c0.1-0.3,0.1-0.6,0.1-0.8
								c0-1-0.2-1.8-0.6-2.3c-0.4-0.6-1-0.8-1.9-0.8h-1.9v6.2H32.8z"/>
						</g>
						<g>
							<path d="M38.5,52.7c0,0.5,0.1,0.8,0.3,1.1c0.4,0.5,1,0.8,1.9,0.8c0.4,0,0.8-0.1,1.1-0.2c0.7-0.2,1-0.6,1-1.2
								c0-0.4-0.1-0.8-0.4-0.9c-0.3-0.2-0.7-0.3-1.3-0.5l-1.1-0.2c-0.7-0.2-1.2-0.3-1.5-0.5c-0.5-0.3-0.8-0.8-0.8-1.5
								c0-0.7,0.3-1.3,0.8-1.8c0.5-0.5,1.2-0.7,2.1-0.7c0.8,0,1.6,0.2,2.2,0.6s0.9,1.1,0.9,2h-1c-0.1-0.4-0.2-0.8-0.4-1
								C42,48.2,41.4,48,40.6,48c-0.6,0-1.1,0.1-1.4,0.4c-0.3,0.3-0.4,0.6-0.4,0.9c0,0.4,0.2,0.7,0.5,0.9c0.2,0.1,0.7,0.3,1.5,0.4
								l1.1,0.3c0.5,0.1,1,0.3,1.3,0.5c0.5,0.4,0.8,0.9,0.8,1.6c0,0.9-0.3,1.5-1,1.9c-0.6,0.4-1.4,0.6-2.3,0.6c-1,0-1.8-0.3-2.4-0.8
								c-0.6-0.5-0.8-1.2-0.8-2.1H38.5z"/>
						</g>
					</g>
				</g>
			</g>
			<g>
				<g>
					<g>
						<g>
							<path d="M65.2,47.3h1.2l2.9,8h-1.2l-0.8-2.4h-3.2l-0.9,2.4h-1.1L65.2,47.3z M67,52l-1.2-3.6L64.5,52H67z"/>
						</g>
						<g>
							<path d="M70.4,47.3h3.3c1.1,0,2,0.4,2.6,1.2c0.5,0.7,0.8,1.6,0.8,2.7c0,0.9-0.2,1.6-0.5,2.3c-0.6,1.2-1.5,1.8-2.9,1.8h-3.2
								V47.3z M73.5,54.4c0.4,0,0.7,0,0.9-0.1c0.4-0.1,0.8-0.4,1-0.8c0.2-0.3,0.4-0.7,0.5-1.2c0.1-0.3,0.1-0.6,0.1-0.8
								c0-1-0.2-1.8-0.6-2.3c-0.4-0.6-1-0.8-1.9-0.8h-1.9v6.2H73.5z"/>
						</g>
						<g>
							<path d="M79.2,52.7c0,0.5,0.1,0.8,0.3,1.1c0.4,0.5,1,0.8,1.9,0.8c0.4,0,0.8-0.1,1.1-0.2c0.7-0.2,1-0.6,1-1.2
								c0-0.4-0.1-0.8-0.4-0.9c-0.3-0.2-0.7-0.3-1.3-0.5l-1.1-0.2c-0.7-0.2-1.2-0.3-1.5-0.5c-0.5-0.3-0.8-0.8-0.8-1.5
								c0-0.7,0.3-1.3,0.8-1.8c0.5-0.5,1.2-0.7,2.1-0.7c0.8,0,1.6,0.2,2.2,0.6s0.9,1.1,0.9,2h-1c-0.1-0.4-0.2-0.8-0.4-1
								c-0.3-0.4-0.9-0.6-1.7-0.6c-0.6,0-1.1,0.1-1.4,0.4s-0.4,0.6-0.4,0.9c0,0.4,0.2,0.7,0.5,0.9c0.2,0.1,0.7,0.3,1.5,0.4l1.1,0.3
								c0.5,0.1,1,0.3,1.3,0.5c0.5,0.4,0.8,0.9,0.8,1.6c0,0.9-0.3,1.5-1,1.9c-0.6,0.4-1.4,0.6-2.3,0.6c-1,0-1.8-0.3-2.4-0.8
								c-0.6-0.5-0.8-1.2-0.8-2.1H79.2z"/>
						</g>
					</g>
				</g>
			</g>
		</g>
		<g>
			<g>
				<g>
					<g>
						<path d="M98.2,100.9H76.4c-1.9,0-3.5-1.6-3.5-3.5V80.8c0-1.9,1.6-3.5,3.5-3.5h21.8c1.9,0,3.5,1.6,3.5,3.5v16.6
							C101.7,99.3,100.2,100.9,98.2,100.9z M76.4,78.8c-1.1,0-2,0.9-2,2v16.6c0,1.1,0.9,2,2,2h21.8c1.1,0,2-0.9,2-2V80.8
							c0-1.1-0.9-2-2-2H76.4z"/>
					</g>
				</g>
				<g>
					<g>
						<path d="M95.8,97H78.8c-0.7,0-1.3-0.4-1.7-1c-0.3-0.6-0.3-1.3,0-1.9l0,0l5.2-9c0.3-0.6,0.9-0.9,1.6-0.9c0.6,0,1.3,0.3,1.6,0.8
							l3.3,4.7c0.1,0.2,0.3,0.2,0.3,0.2c0.1,0,0.2,0,0.3-0.2l1.2-1.8c0.4-0.6,1-0.9,1.7-0.9c0.7,0,1.3,0.4,1.6,1l3.4,6.2
							c0.3,0.6,0.3,1.3,0,1.9C97.1,96.7,96.5,97,95.8,97z M78.5,94.9c-0.1,0.2,0,0.3,0,0.4s0.1,0.2,0.4,0.2h16.9
							c0.2,0,0.3-0.1,0.3-0.2c0-0.1,0.1-0.2,0-0.4l-3.4-6.2c-0.1-0.2-0.3-0.2-0.3-0.2c-0.1,0-0.2,0-0.4,0.2l-1.2,1.8
							c-0.3,0.5-0.9,0.8-1.6,0.9c-0.6,0-1.2-0.3-1.6-0.8l-3.4-4.7c-0.1-0.2-0.3-0.2-0.3-0.2c-0.1,0-0.2,0-0.3,0.2L78.5,94.9z"/>
					</g>
					<g>
						<path d="M89.6,86.3c-1.4,0-2.6-1.1-2.6-2.6s1.1-2.6,2.6-2.6s2.6,1.1,2.6,2.6S91.1,86.3,89.6,86.3z M89.6,82.7
							c-0.6,0-1.1,0.5-1.1,1.1s0.5,1.1,1.1,1.1s1.1-0.5,1.1-1.1S90.2,82.7,89.6,82.7z"/>
					</g>
				</g>
			</g>
		</g>
		<g>
			<g>
				<g>
					<g>
						<path d="M24.9,78.8c-0.5,0-1-0.2-1.4-0.5l-4-3.1h-11c-2.2,0-4-1.8-4-4V60.7c0-2.2,1.8-4,4-4h14.5c2.2,0,4,1.8,4,4v15.9
							c0,0.9-0.5,1.6-1.3,2C25.5,78.7,25.2,78.8,24.9,78.8z M8.5,58.1c-1.4,0-2.5,1.1-2.5,2.5v10.5c0,1.4,1.1,2.5,2.5,2.5h11.2
							c0.2,0,0.3,0.1,0.5,0.2l4.2,3.3c0.3,0.3,0.7,0.1,0.8,0.1c0.1,0,0.4-0.2,0.4-0.7V60.7c0-1.4-1.1-2.5-2.5-2.5H8.5z"/>
					</g>
				</g>
			</g>
			<g>
				<g>
					<path d="M15.8,62.7H9.5c-0.4,0-0.8-0.3-0.8-0.8s0.3-0.8,0.8-0.8h6.3c0.4,0,0.8,0.3,0.8,0.8S16.2,62.7,15.8,62.7z"/>
				</g>
				<g>
					<path d="M22.1,62.7h-2.6c-0.4,0-0.8-0.3-0.8-0.8s0.3-0.8,0.8-0.8h2.6c0.4,0,0.8,0.3,0.8,0.8S22.5,62.7,22.1,62.7z"/>
				</g>
				<g>
					<path d="M11,66.6H9.5c-0.4,0-0.8-0.3-0.8-0.8s0.3-0.8,0.8-0.8H11c0.4,0,0.8,0.3,0.8,0.8S11.4,66.6,11,66.6z"/>
				</g>
				<g>
					<path d="M22.1,66.6h-8.7c-0.4,0-0.8-0.3-0.8-0.8s0.3-0.8,0.8-0.8h8.7c0.4,0,0.8,0.3,0.8,0.8S22.5,66.6,22.1,66.6z"/>
				</g>
				<g>
					<path d="M22.1,70.4h-8.2c-0.4,0-0.8-0.3-0.8-0.8s0.3-0.8,0.8-0.8h8.2c0.4,0,0.8,0.3,0.8,0.8S22.5,70.4,22.1,70.4z"/>
				</g>
			</g>
		</g>
		<g>
			<path d="M96.9,42.5c-0.4,0-0.8-0.3-0.8-0.8v-13c0-0.4,0.3-0.8,0.8-0.8s0.8,0.3,0.8,0.8v13C97.7,42.2,97.4,42.5,96.9,42.5z"/>
		</g>
		<g>
			<path d="M96.9,26.5c-0.4,0-0.8-0.3-0.8-0.8v-1.6c0-0.4,0.3-0.8,0.8-0.8s0.8,0.3,0.8,0.8v1.6C97.7,26.2,97.4,26.5,96.9,26.5z"/>
		</g>
	</g>
	<g>
		<path d="M99.5,12c-2.5,0-4.6-2-4.6-4.6c0-2.5,2-4.5,4.6-4.5c2.5,0,4.5,2,4.5,4.5C104,9.9,102,12,99.5,12z M99.5,4.4
			c-1.7,0-3.1,1.4-3.1,3c0,1.7,1.4,3.1,3.1,3.1c1.7,0,3-1.4,3-3.1C102.5,5.8,101.2,4.4,99.5,4.4z"/>
	</g>
	<g>
		<path d="M7.8,102.1c-0.4,0-0.8-0.3-0.9-0.7C6.7,100.1,6,98.9,5.1,98C4.1,97,3,96.4,1.7,96.1C1.3,96,1,95.7,1,95.2s0.3-0.8,0.7-0.9
			c1.3-0.3,2.5-0.9,3.4-1.8c0.9-0.9,1.6-2.1,1.8-3.4c0.1-0.4,0.5-0.7,0.9-0.7s0.8,0.3,0.9,0.7c0.3,1.3,0.9,2.5,1.8,3.4
			c0.9,0.9,2.1,1.6,3.4,1.8c0.4,0.1,0.7,0.5,0.7,0.9s-0.3,0.8-0.7,0.9c0,0,0,0,0,0c-2.6,0.5-4.7,2.6-5.2,5.3
			C8.6,101.8,8.2,102.1,7.8,102.1z M3.8,95.2c0.9,0.4,1.7,1,2.4,1.7c0.7,0.7,1.3,1.5,1.7,2.4c0.8-1.8,2.3-3.2,4-4.1
			c-0.9-0.4-1.7-1-2.4-1.7c-0.7-0.7-1.3-1.5-1.7-2.4c-0.4,0.9-1,1.7-1.7,2.4C5.5,94.3,4.6,94.8,3.8,95.2z M13.8,95.4L13.8,95.4
			L13.8,95.4z"/>
	</g>
</g>
</svg>
