<svg version="1.1" id="Layer_1" xmlns="http://www.w3.org/2000/svg" xmlns:xlink="http://www.w3.org/1999/xlink" x="0px" y="0px"
	 viewBox="0 0 68 68" style="enable-background:new 0 0 68 68;" xml:space="preserve">
<g>
	<g>
		<path d="M63.4291992,66.0874023H4.5722656c-1.4863281,0-2.6958008-1.2055664-2.6958008-2.6870003V4.6123047
			c0-1.4868164,1.2094727-2.6962891,2.6958008-2.6962891h58.8569336c1.4873047,0,2.6972656,1.2094727,2.6972656,2.6962891
			v58.7880974C66.1264648,64.8818359,64.9165039,66.0874023,63.4291992,66.0874023z M4.5722656,2.6660156
			c-1.0727539,0-1.9458008,0.8730469-1.9458008,1.9462891v58.7880974c0,1.0678596,0.8730469,1.9370003,1.9458008,1.9370003
			h58.8569336c1.0737305,0,1.9472656-0.8691406,1.9472656-1.9370003V4.6123047c0-1.0732422-0.8735352-1.9462891-1.9472656-1.9462891
			H4.5722656z"/>
	</g>
	<g>
		<path d="M65.7485352,15.7329102h-3.300293c-1.5078125,0-2.7348633-1.2270508-2.7348633-2.7353516
			c0-1.0942383-0.890625-1.9848633-1.9848633-1.9848633H43.0083008c-1.0942383,0-1.9848633,0.890625-1.9848633,1.9848633
			c0,1.5083008-1.2270508,2.7353516-2.7348633,2.7353516H2.2485352c-0.2070313,0-0.375-0.1679688-0.375-0.375v-10.75
			c0-1.4863281,1.2089844-2.6953125,2.6948242-2.6953125h58.8603516c1.4858398,0,2.6948242,1.2089844,2.6948242,2.6953125v10.75
			C66.1235352,15.5649414,65.9555664,15.7329102,65.7485352,15.7329102z M43.0083008,10.2626953h14.7202148
			c1.5078125,0,2.7348633,1.2270508,2.7348633,2.7348633c0,1.0947266,0.890625,1.9853516,1.9848633,1.9853516h2.925293v-10.375
			c0-1.0727539-0.8725586-1.9453125-1.9448242-1.9453125H4.5683594c-1.0722656,0-1.9448242,0.8725586-1.9448242,1.9453125v10.375
			h35.6650391c1.0942383,0,1.9848633-0.890625,1.9848633-1.9853516
			C40.2734375,11.4897461,41.5004883,10.2626953,43.0083008,10.2626953z"/>
	</g>
	<g>
		<path d="M9.2661133,11.949707c-1.7231445,0-3.125-1.4018555-3.125-3.125s1.4018555-3.125,3.125-3.125s3.125,1.4018555,3.125,3.125
			S10.9892578,11.949707,9.2661133,11.949707z M9.2661133,6.449707c-1.3095703,0-2.375,1.0654297-2.375,2.375
			s1.0654297,2.375,2.375,2.375s2.375-1.0654297,2.375-2.375S10.5756836,6.449707,9.2661133,6.449707z"/>
	</g>
	<g>
		<path d="M18.5673828,11.949707c-1.7231445,0-3.125-1.4018555-3.125-3.125s1.4018555-3.125,3.125-3.125
			s3.125,1.4018555,3.125,3.125S20.2905273,11.949707,18.5673828,11.949707z M18.5673828,6.449707
			c-1.3095703,0-2.375,1.0654297-2.375,2.375s1.0654297,2.375,2.375,2.375s2.375-1.0654297,2.375-2.375
			S19.8769531,6.449707,18.5673828,6.449707z"/>
	</g>
	<g>
		<path d="M27.8686523,11.949707c-1.7231445,0-3.125-1.4018555-3.125-3.125s1.4018555-3.125,3.125-3.125
			s3.125,1.4018555,3.125,3.125S29.5917969,11.949707,27.8686523,11.949707z M27.8686523,6.449707
			c-1.3095703,0-2.375,1.0654297-2.375,2.375s1.0654297,2.375,2.375,2.375s2.375-1.0654297,2.375-2.375
			S29.1782227,6.449707,27.8686523,6.449707z"/>
	</g>
	<g>
		<path d="M31.4814453,41.3378906H8.3881836c-0.8188477,0-1.5039063-0.5825195-1.628418-1.3852539
			c-0.0234375-0.0893555-0.0234375-0.1796875-0.0234375-0.2675781V20.980957c0-0.9262695,0.7255859-1.6518555,1.6518555-1.6518555
			h23.0932617c0.9111328,0,1.652832,0.7412109,1.652832,1.6518555v18.7231445
			C33.1098633,40.6396484,32.3994141,41.3378906,31.4814453,41.3378906z M8.3881836,20.0791016
			c-0.5058594,0-0.9018555,0.3959961-0.9018555,0.9018555v18.7041016c0,0.0678711,0.0004883,0.0883789,0.0083008,0.1201172
			c0.074707,0.4741211,0.4399414,0.7827148,0.8935547,0.7827148h23.0932617c0.5097656,0,0.8891602-0.3759766,0.902832-0.8935547
			V20.980957c0-0.4970703-0.4047852-0.9018555-0.902832-0.9018555H8.3881836z"/>
	</g>
	<g>
		<path d="M31.4814453,41.3378906H8.3881836c-0.8188477,0-1.5039063-0.5825195-1.628418-1.3852539
			c-0.0141602-0.0922852,0.0063477-0.1865234,0.0581055-0.2646484l5.8730469-8.8681641
			c0.2416992-0.355957,0.6391602-0.574707,1.0654297-0.5888672c0.4291992-0.0161133,0.824707,0.1713867,1.0878906,0.5087891
			l3.012207,3.8510742c0.1210938,0.1547852,0.2973633,0.2397461,0.5004883,0.2241211
			c0.1958008-0.012207,0.3647461-0.1147461,0.4643555-0.2807617l4.5571289-7.7021484
			c0.2353516-0.409668,0.6635742-0.6567383,1.1430664-0.6567383c0,0,0,0,0.0004883,0
			c0.4790039,0.0004883,0.9067383,0.2475586,1.1445313,0.6606445l7.4165039,12.659668
			c0.0336914,0.0576172,0.0512695,0.1230469,0.0512695,0.1894531v0.019043
			C33.1098633,40.6396484,32.3994141,41.3378906,31.4814453,41.3378906z M7.53125,39.96875
			c0.1142578,0.3706055,0.449707,0.6191406,0.8569336,0.6191406h23.0932617c0.4819336,0,0.8476563-0.3359375,0.8974609-0.8100586
			l-7.3613281-12.5654297c-0.1035156-0.1806641-0.2885742-0.2866211-0.4960938-0.2871094l0,0
			c-0.2075195,0-0.3925781,0.1064453-0.4951172,0.284668l-4.5605469,7.7080078
			c-0.2260742,0.3774414-0.6225586,0.6176758-1.0620117,0.6455078c-0.4350586,0.0351563-0.8652344-0.1625977-1.1376953-0.5102539
			l-3.0131836-3.8520508c-0.1147461-0.1459961-0.2939453-0.2314453-0.4716797-0.2207031
			c-0.1904297,0.0063477-0.3608398,0.1000977-0.4677734,0.2573242L7.53125,39.96875z"/>
	</g>
	<g>
		<path d="M17.1088867,30.0288086c-2.3076172,0-4.1850586-1.8671875-4.1850586-4.1621094
			c0-2.2944336,1.8774414-4.1611328,4.1850586-4.1611328c2.2949219,0,4.1621094,1.8666992,4.1621094,4.1611328
			C21.2709961,28.1616211,19.4038086,30.0288086,17.1088867,30.0288086z M17.1088867,22.4555664
			c-1.894043,0-3.4350586,1.5302734-3.4350586,3.4111328c0,1.8813477,1.5410156,3.4121094,3.4350586,3.4121094
			c1.8813477,0,3.4121094-1.5307617,3.4121094-3.4121094C20.5209961,23.9858398,18.9902344,22.4555664,17.1088867,22.4555664z"/>
	</g>
	<g>
		<path d="M60.1484375,52.0429688H8.1787109c-0.7861328,0-1.425293-0.6347656-1.425293-1.4150391v-4.4799805
			c0-0.7802734,0.6391602-1.4150391,1.425293-1.4150391h51.9697266c0.793457,0,1.4150391,0.621582,1.4150391,1.4150391v4.4799805
			C61.5634766,51.4213867,60.9418945,52.0429688,60.1484375,52.0429688z M8.1787109,45.4829102
			c-0.3789063,0-0.675293,0.2919922-0.675293,0.6650391v4.4799805c0,0.3730469,0.2963867,0.6650391,0.675293,0.6650391h51.9697266
			c0.3730469,0,0.6650391-0.2919922,0.6650391-0.6650391v-4.4799805c0-0.3730469-0.2919922-0.6650391-0.6650391-0.6650391H8.1787109
			z"/>
	</g>
	<g>
		<path d="M60.1484375,60.3193359H8.1787109c-0.7861328,0-1.425293-0.6347656-1.425293-1.4150391v-2.4799805
			c0-0.7802734,0.6391602-1.4150391,1.425293-1.4150391h51.9697266c0.793457,0,1.4150391,0.621582,1.4150391,1.4150391v2.4799805
			C61.5634766,59.6977539,60.9418945,60.3193359,60.1484375,60.3193359z M8.1787109,55.7592773
			c-0.3789063,0-0.675293,0.2919922-0.675293,0.6650391v2.4799805c0,0.3730469,0.2963867,0.6650391,0.675293,0.6650391h51.9697266
			c0.3730469,0,0.6650391-0.2919922,0.6650391-0.6650391v-2.4799805c0-0.3730469-0.2919922-0.6650391-0.6650391-0.6650391H8.1787109
			z"/>
	</g>
	<g>
		<path d="M61.1884766,20.0786133H37.1816406c-0.2070313,0-0.375-0.1679688-0.375-0.375s0.1679688-0.375,0.375-0.375h24.0068359
			c0.2070313,0,0.375,0.1679688,0.375,0.375S61.3955078,20.0786133,61.1884766,20.0786133z"/>
	</g>
	<g>
		<path d="M61.1884766,25.1826172H37.1816406c-0.2070313,0-0.375-0.1679688-0.375-0.375s0.1679688-0.375,0.375-0.375h24.0068359
			c0.2070313,0,0.375,0.1679688,0.375,0.375S61.3955078,25.1826172,61.1884766,25.1826172z"/>
	</g>
	<g>
		<path d="M61.1884766,30.2866211H37.1816406c-0.2070313,0-0.375-0.1679688-0.375-0.375s0.1679688-0.375,0.375-0.375h24.0068359
			c0.2070313,0,0.375,0.1679688,0.375,0.375S61.3955078,30.2866211,61.1884766,30.2866211z"/>
	</g>
	<g>
		<path d="M61.1884766,35.390625H37.1816406c-0.2070313,0-0.375-0.1679688-0.375-0.375s0.1679688-0.375,0.375-0.375h24.0068359
			c0.2070313,0,0.375,0.1679688,0.375,0.375S61.3955078,35.390625,61.1884766,35.390625z"/>
	</g>
	<g>
		<path d="M61.1884766,40.4946289H37.1816406c-0.2070313,0-0.375-0.1679688-0.375-0.375s0.1679688-0.375,0.375-0.375h24.0068359
			c0.2070313,0,0.375,0.1679688,0.375,0.375S61.3955078,40.4946289,61.1884766,40.4946289z"/>
	</g>
</g>
</svg>
