<svg version="1.1" xmlns="http://www.w3.org/2000/svg" xmlns:xlink="http://www.w3.org/1999/xlink" x="0px" y="0px"
	 viewBox="0 0 105 105" style="enable-background:new 0 0 105 105;" xml:space="preserve">
<g>
	<g>
		<g>
			<g>
				<path d="M87.4162598,95.7208252H18.3361816c-4.6977539,0-8.5200195-3.8266602-8.5200195-8.5300293V52.020874
					c0-0.4143066,0.3359375-0.75,0.75-0.75s0.75,0.3356934,0.75,0.75v35.1699219
					c0,3.8764648,3.1489258,7.0300293,7.0200195,7.0300293h69.0800781c3.8764648,0,7.0297852-3.1535645,7.0297852-7.0300293
					V76.1407471c0-0.4143066,0.3359375-0.75,0.75-0.75s0.75,0.3356934,0.75,0.75v11.0500488
					C95.9460449,91.894165,92.1193848,95.7208252,87.4162598,95.7208252z"/>
			</g>
			<g>
				<path d="M95.1960449,52.7508545c-0.4140625,0-0.75-0.3356934-0.75-0.75V20.8209229
					c0-0.5043945-0.046875-0.9660645-0.1430664-1.411377c-0.0463867-0.2314453-0.0981445-0.4509277-0.168457-0.661377
					c-0.1376953-0.4499512-0.3168945-0.8740234-0.5371094-1.2788086c-0.3237305-0.5932617-0.7314453-1.1379395-1.2114258-1.6181641
					c-0.1401367-0.1479492-0.2749023-0.277832-0.4155273-0.3937988c-0.0371094-0.0227051-0.0722656-0.0488281-0.1049805-0.0778809
					c-0.1459961-0.1306152-0.2993164-0.2399902-0.453125-0.3479004c-0.0288086-0.0148926-0.0561523-0.0317383-0.0820313-0.0505371
					c-0.1850586-0.1318359-0.3701172-0.2363281-0.5634766-0.3417969c-0.1972656-0.107666-0.394043-0.206543-0.609375-0.2961426
					c-0.2197266-0.0915527-0.4306641-0.1647949-0.6601563-0.2380371c-0.21875-0.0727539-0.4384766-0.125-0.6586914-0.1689453
					c-0.4570313-0.0983887-0.9189453-0.1452637-1.4223633-0.1452637H18.3361816
					c-3.8710938,0-7.0200195,3.1535645-7.0200195,7.0300293v7.0598145c0,0.4143066-0.3359375,0.75-0.75,0.75
					s-0.75-0.3356934-0.75-0.75v-7.0598145c0-4.7033691,3.8222656-8.5300293,8.5200195-8.5300293h69.0800781
					c0.6108398,0,1.1757813,0.0578613,1.7280273,0.1767578c0.269043,0.0539551,0.5493164,0.1218262,0.8183594,0.2114258
					c0.2631836,0.0842285,0.512207,0.1711426,0.7719727,0.2792969c0.2651367,0.1105957,0.5078125,0.2314453,0.7509766,0.3640137
					c0.2207031,0.1206055,0.4326172,0.2421875,0.6435547,0.387207c0.0268555,0.013916,0.0527344,0.029541,0.0771484,0.0466309
					c0.1977539,0.1386719,0.3945313,0.2780762,0.5844727,0.4399414c0.0170898,0.0112305,0.0341797,0.0231934,0.050293,0.0361328
					c0.2177734,0.171875,0.4243164,0.3664551,0.6201172,0.5732422c0.5668945,0.5666504,1.0610352,1.2265625,1.4536133,1.9460449
					c0.2685547,0.4936523,0.4868164,1.0114746,0.6484375,1.5397949c0.0839844,0.251709,0.1523438,0.5322266,0.2080078,0.8129883
					c0.1166992,0.5388184,0.1748047,1.104248,0.1748047,1.7165527v31.1799316
					C95.9460449,52.4151611,95.6101074,52.7508545,95.1960449,52.7508545z"/>
			</g>
			<g>
				<path d="M95.1960449,30.4908447H83.2062988c-1.5166016,0-2.75-1.2336426-2.75-2.75v-0.4099121
					c0-0.6948242-0.5654297-1.2600098-1.2602539-1.2600098H68.0061035c-0.2231445,0-0.4492188,0.0634766-0.6376953,0.1789551
					l-6.4160156,3.8537598c-0.4345703,0.2578125-0.9130859,0.387207-1.4262695,0.387207H37.5559082
					c-0.4140625,0-0.75-0.3356934-0.75-0.75s0.3359375-0.75,0.75-0.75H59.526123
					c0.2436523,0,0.4589844-0.057373,0.6577148-0.1750488l6.40625-3.8481445
					c0.4208984-0.2583008,0.9125977-0.3967285,1.4160156-0.3967285h11.1899414c1.5219727,0,2.7602539,1.2380371,2.7602539,2.7600098
					v0.4099121c0,0.7009277,0.5488281,1.25,1.25,1.25h11.2397461v-8.1699219c0-0.5043945-0.046875-0.9660645-0.1430664-1.411377
					c-0.0463867-0.2314453-0.0981445-0.4509277-0.168457-0.661377c-0.1376953-0.4499512-0.3168945-0.8740234-0.5371094-1.2788086
					c-0.3237305-0.5932617-0.7314453-1.1379395-1.2114258-1.6181641c-0.1391602-0.1386719-0.2919922-0.2773438-0.440918-0.4099121
					c-0.0214844-0.0144043-0.0424805-0.0302734-0.0625-0.046875c-0.1523438-0.128418-0.3110352-0.2490234-0.4711914-0.3630371
					c-0.0209961-0.0112305-0.0415039-0.0234375-0.0615234-0.0366211c-0.1914063-0.1274414-0.3823242-0.2463379-0.5830078-0.3554688
					c-0.2006836-0.1096191-0.4101563-0.2094727-0.6201172-0.3007813c-0.2089844-0.0869141-0.4199219-0.1601563-0.6494141-0.2333984
					c-0.21875-0.0727539-0.4384766-0.125-0.6586914-0.1689453c-0.4570313-0.0983887-0.9189453-0.1452637-1.4223633-0.1452637
					H18.3361816c-3.8710938,0-7.0200195,3.1535645-7.0200195,7.0300293v7.0598145c0,0.4143066-0.3359375,0.75-0.75,0.75
					s-0.75-0.3356934-0.75-0.75v-7.0598145c0-4.7033691,3.8222656-8.5300293,8.5200195-8.5300293h69.0800781
					c0.6108398,0,1.1757813,0.0578613,1.7280273,0.1767578c0.269043,0.0539551,0.5493164,0.1218262,0.8183594,0.2114258
					c0.2631836,0.0842285,0.512207,0.1711426,0.7719727,0.2792969c0.2607422,0.1135254,0.5112305,0.2333984,0.7509766,0.3640137
					c0.215332,0.1176758,0.4228516,0.2443848,0.6289063,0.3796387c0.0322266,0.0158691,0.0629883,0.0339355,0.0917969,0.0541992
					c0.1938477,0.1359863,0.387207,0.2802734,0.5732422,0.4333496c0.0336914,0.0209961,0.065918,0.0446777,0.0952148,0.0710449
					c0.1904297,0.1694336,0.3911133,0.3493652,0.5712891,0.529541c0.5820313,0.5820313,1.0761719,1.2419434,1.46875,1.9614258
					c0.2685547,0.4936523,0.4868164,1.0114746,0.6484375,1.5397949c0.0839844,0.251709,0.1523438,0.5322266,0.2080078,0.8129883
					c0.1166992,0.5388184,0.1748047,1.104248,0.1748047,1.7165527v8.9199219
					C95.9460449,30.1551514,95.6101074,30.4908447,95.1960449,30.4908447z"/>
			</g>
			<g>
				<g>
					<path d="M19.2800293,24.3922119c-1.6547852,0-3.0009766-1.3461914-3.0009766-3.0009766
						s1.3461914-3.0009766,3.0009766-3.0009766s3.0009766,1.3461914,3.0009766,3.0009766
						S20.9348145,24.3922119,19.2800293,24.3922119z M19.2800293,19.8902588c-0.8276367,0-1.5009766,0.6733398-1.5009766,1.5009766
						s0.6733398,1.5009766,1.5009766,1.5009766s1.5009766-0.6733398,1.5009766-1.5009766
						S20.107666,19.8902588,19.2800293,19.8902588z"/>
				</g>
				<g>
					<path d="M27.0085449,24.3922119c-1.6547852,0-3.0014648-1.3461914-3.0014648-3.0009766
						s1.3466797-3.0009766,3.0014648-3.0009766s3.0009766,1.3461914,3.0009766,3.0009766
						S28.6633301,24.3922119,27.0085449,24.3922119z M27.0085449,19.8902588c-0.828125,0-1.5014648,0.6733398-1.5014648,1.5009766
						s0.6733398,1.5009766,1.5014648,1.5009766c0.8276367,0,1.5009766-0.6733398,1.5009766-1.5009766
						S27.8361816,19.8902588,27.0085449,19.8902588z"/>
				</g>
				<g>
					<path d="M34.7365723,24.3922119c-1.6547852,0-3.0009766-1.3461914-3.0009766-3.0009766
						s1.3461914-3.0009766,3.0009766-3.0009766s3.0009766,1.3461914,3.0009766,3.0009766
						S36.3913574,24.3922119,34.7365723,24.3922119z M34.7365723,19.8902588c-0.8276367,0-1.5009766,0.6733398-1.5009766,1.5009766
						s0.6733398,1.5009766,1.5009766,1.5009766s1.5009766-0.6733398,1.5009766-1.5009766
						S35.564209,19.8902588,34.7365723,19.8902588z"/>
				</g>
				<g>
					<path d="M88.7312012,22.1412354H57.6276855c-0.4140625,0-0.75-0.3356934-0.75-0.75s0.3359375-0.75,0.75-0.75h31.1035156
						c0.4140625,0,0.75,0.3356934,0.75,0.75S89.1452637,22.1412354,88.7312012,22.1412354z"/>
				</g>
			</g>
			<g>
				<g>
					<path d="M89.1462402,52.7506104c-0.4140625,0-0.75-0.3356934-0.75-0.75v-2.5c0-0.4143066,0.3359375-0.75,0.75-0.75
						s0.75,0.3356934,0.75,0.75v2.5C89.8962402,52.414917,89.5603027,52.7506104,89.1462402,52.7506104z"/>
				</g>
				<g>
					<path d="M60.4172363,60.0108643h-1.4614258c-1.6650391,0-3.0610352-1.1882324-3.3188477-2.8251953
						c-0.0644531-0.4089355,0.2148438-0.7929688,0.6240234-0.8574219c0.4086914-0.0646973,0.7929688,0.2145996,0.8574219,0.6240234
						c0.1425781,0.9030762,0.9150391,1.5585938,1.8374023,1.5585938h1.4614258c0.4140625,0,0.75,0.3356934,0.75,0.75
						S60.8312988,60.0108643,60.4172363,60.0108643z M56.3459473,52.6751709c-0.4140625,0-0.75-0.3356934-0.75-0.75v-5.1455078
						c0-0.4143066,0.3359375-0.75,0.75-0.75s0.75,0.3356934,0.75,0.75v5.1455078
						C57.0959473,52.3394775,56.7600098,52.6751709,56.3459473,52.6751709z M89.1462402,45.1051025
						c-0.4140625,0-0.75-0.3356934-0.75-0.75v-5.1455078c0-0.4143066,0.3359375-0.75,0.75-0.75s0.75,0.3356934,0.75,0.75v5.1455078
						C89.8962402,44.7694092,89.5603027,45.1051025,89.1462402,45.1051025z M56.3459473,42.3841553
						c-0.4140625,0-0.75-0.3356934-0.75-0.75v-3.9035645c0-0.534668,0.1289063-1.0671387,0.3730469-1.5395508
						c0.1904297-0.3681641,0.6455078-0.5112305,1.0107422-0.3220215c0.3681641,0.1901855,0.512207,0.6425781,0.3222656,1.010498
						c-0.1367188,0.2644043-0.2060547,0.5507813-0.2060547,0.8510742v3.9035645
						C57.0959473,42.0484619,56.7600098,42.3841553,56.3459473,42.3841553z M86.9694824,35.9063721
						c-0.0410156,0-0.0825195-0.0031738-0.1245117-0.0102539c-0.1000977-0.0166016-0.2036133-0.0253906-0.309082-0.0253906
						h-4.7109375c-0.4140625,0-0.75-0.3356934-0.75-0.75s0.3359375-0.75,0.75-0.75h4.7109375
						c0.1894531,0,0.375,0.015625,0.5561523,0.0458984c0.4082031,0.0681152,0.6845703,0.4545898,0.6162109,0.8630371
						C87.6472168,35.6466064,87.3293457,35.9063721,86.9694824,35.9063721z M76.6794434,35.8707275h-5.1455078
						c-0.4140625,0-0.75-0.3356934-0.75-0.75s0.3359375-0.75,0.75-0.75h5.1455078c0.4140625,0,0.75,0.3356934,0.75,0.75
						S77.0935059,35.8707275,76.6794434,35.8707275z M66.3884277,35.8707275h-5.1455078c-0.4140625,0-0.75-0.3356934-0.75-0.75
						s0.3359375-0.75,0.75-0.75h5.1455078c0.4140625,0,0.75,0.3356934,0.75,0.75S66.8024902,35.8707275,66.3884277,35.8707275z"/>
				</g>
				<g>
					<path d="M68.0861816,60.0108643h-2.5c-0.4140625,0-0.75-0.3356934-0.75-0.75s0.3359375-0.75,0.75-0.75h2.5
						c0.4140625,0,0.75,0.3356934,0.75,0.75S68.5002441,60.0108643,68.0861816,60.0108643z"/>
				</g>
			</g>
			<g>
				<path d="M68.2263184,75.1207275H18.8762207c-1.847168,0-3.3500977-1.5073242-3.3500977-3.3598633v-5.0900879
					c0-1.847168,1.5029297-3.3498535,3.3500977-3.3498535h49.2099609c0.4140625,0,0.75,0.3356934,0.75,0.75
					s-0.3359375,0.75-0.75,0.75H18.8762207c-1.0200195,0-1.8500977,0.829834-1.8500977,1.8498535v5.0900879
					c0,1.0256348,0.8300781,1.8598633,1.8500977,1.8598633h49.3500977c0.4140625,0,0.75,0.3356934,0.75,0.75
					S68.6403809,75.1207275,68.2263184,75.1207275z"/>
			</g>
			<g>
				<g>
					<path d="M40.1662598,35.8707275h-2.5c-0.4140625,0-0.75-0.3356934-0.75-0.75s0.3359375-0.75,0.75-0.75h2.5
						c0.4140625,0,0.75,0.3356934,0.75,0.75S40.5803223,35.8707275,40.1662598,35.8707275z"/>
				</g>
				<g>
					<path d="M43.6901855,60.0108643h-5.1699219c-0.4140625,0-0.75-0.3356934-0.75-0.75s0.3359375-0.75,0.75-0.75h5.1699219
						c0.4140625,0,0.75,0.3356934,0.75,0.75S44.104248,60.0108643,43.6901855,60.0108643z M33.3503418,60.0108643h-5.1694336
						c-0.4140625,0-0.75-0.3356934-0.75-0.75s0.3359375-0.75,0.75-0.75h5.1694336c0.4140625,0,0.75,0.3356934,0.75,0.75
						S33.7644043,60.0108643,33.3503418,60.0108643z M23.0109863,60.0108643h-4.1347656
						c-0.4501953,0-0.887207-0.0874023-1.2978516-0.2597656c-0.3818359-0.1604004-0.5620117-0.5998535-0.4013672-0.9819336
						c0.159668-0.3815918,0.5991211-0.5615234,0.9814453-0.4013672c0.2260742,0.0949707,0.4677734,0.1430664,0.7177734,0.1430664
						h4.1347656c0.4140625,0,0.75,0.3356934,0.75,0.75S23.4250488,60.0108643,23.0109863,60.0108643z M48.5354004,58.9874268
						c-0.1586914,0-0.3183594-0.0500488-0.4541016-0.1535645c-0.3295898-0.2512207-0.3930664-0.7216797-0.1416016-1.0512695
						c0.2460938-0.322998,0.3764648-0.7111816,0.3764648-1.1218262v-3.4758301c0-0.4143066,0.3359375-0.75,0.75-0.75
						s0.75,0.3356934,0.75,0.75v3.4758301c0,0.7421875-0.2363281,1.4445801-0.684082,2.0314941
						C48.9846191,58.8856201,48.7614746,58.9874268,48.5354004,58.9874268z M49.0661621,48.7652588
						c-0.4140625,0-0.75-0.3356934-0.75-0.75v-5.1696777c0-0.4143066,0.3359375-0.75,0.75-0.75s0.75,0.3356934,0.75,0.75v5.1696777
						C49.8161621,48.4295654,49.4802246,48.7652588,49.0661621,48.7652588z M49.0651855,38.4259033
						c-0.4067383,0-0.7412109-0.3256836-0.7495117-0.7346191c-0.0205078-1.0039063-0.8500977-1.8205566-1.8496094-1.8205566
						h-1.1303711c-0.4140625,0-0.75-0.3356934-0.75-0.75s0.3359375-0.75,0.75-0.75h1.1303711
						c1.8100586,0,3.3125,1.4758301,3.3496094,3.2897949c0.0083008,0.4143066-0.3208008,0.7568359-0.7348633,0.7651367
						C49.0759277,38.4259033,49.0705566,38.4259033,49.0651855,38.4259033z"/>
				</g>
				<g>
					<path d="M16.276123,55.2706299c-0.4140625,0-0.75-0.3356934-0.75-0.75v-2.5c0-0.4143066,0.3359375-0.75,0.75-0.75
						s0.75,0.3356934,0.75,0.75v2.5C17.026123,54.9349365,16.6901855,55.2706299,16.276123,55.2706299z"/>
				</g>
			</g>
			<g>
				<path d="M35.0700684,52.7689209H7.4802246c-1.847168,0-3.3500977-1.5029297-3.3500977-3.3500977V30.4886475
					c0-1.8525391,1.5029297-3.3598633,3.3500977-3.3598633h27.5898438c1.847168,0,3.3500977,1.5073242,3.3500977,3.3598633
					v18.9301758C38.420166,51.2659912,36.9172363,52.7689209,35.0700684,52.7689209z M7.4802246,28.6287842
					c-1.0200195,0-1.8500977,0.8342285-1.8500977,1.8598633v18.9301758c0,1.0202637,0.8300781,1.8500977,1.8500977,1.8500977
					h27.5898438c1.0200195,0,1.8500977-0.829834,1.8500977-1.8500977V30.4886475
					c0-1.0256348-0.8300781-1.8598633-1.8500977-1.8598633H7.4802246z"/>
			</g>
			<g>
				<g>
					<path d="M59.6960449,90.2208252H46.0563965c-1.847168,0-3.3500977-1.5073242-3.3500977-3.3598633v-5.090332
						c0-1.847168,1.5029297-3.3500977,3.3500977-3.3500977h13.6396484c1.8530273,0,3.3603516,1.5029297,3.3603516,3.3500977
						v5.090332C63.0563965,88.713501,61.5490723,90.2208252,59.6960449,90.2208252z M46.0563965,79.9205322
						c-1.0200195,0-1.8500977,0.829834-1.8500977,1.8500977v5.090332c0,1.0256348,0.8300781,1.8598633,1.8500977,1.8598633
						h13.6396484c1.0258789,0,1.8603516-0.8342285,1.8603516-1.8598633v-5.090332
						c0-1.0202637-0.8344727-1.8500977-1.8603516-1.8500977H46.0563965z"/>
				</g>
				<g>
					<path d="M32.5163574,90.2208252H18.8762207c-1.847168,0-3.3500977-1.5073242-3.3500977-3.3598633v-5.090332
						c0-1.847168,1.5029297-3.3500977,3.3500977-3.3500977h13.6401367c1.8525391,0,3.3598633,1.5029297,3.3598633,3.3500977
						v5.090332C35.8762207,88.713501,34.3688965,90.2208252,32.5163574,90.2208252z M18.8762207,79.9205322
						c-1.0200195,0-1.8500977,0.829834-1.8500977,1.8500977v5.090332c0,1.0256348,0.8300781,1.8598633,1.8500977,1.8598633
						h13.6401367c1.0253906,0,1.8598633-0.8342285,1.8598633-1.8598633v-5.090332
						c0-1.0202637-0.8344727-1.8500977-1.8598633-1.8500977H18.8762207z"/>
				</g>
				<g>
					<path d="M86.8762207,90.2208252H73.2463379c-1.8530273,0-3.3603516-1.5073242-3.3603516-3.3598633v-5.090332
						c0-1.847168,1.5073242-3.3500977,3.3603516-3.3500977h13.6298828c1.8525391,0,3.3598633,1.5029297,3.3598633,3.3500977
						v5.090332C90.236084,88.713501,88.7287598,90.2208252,86.8762207,90.2208252z M73.2463379,79.9205322
						c-1.0258789,0-1.8603516,0.829834-1.8603516,1.8500977v5.090332c0,1.0256348,0.8344727,1.8598633,1.8603516,1.8598633
						h13.6298828c1.0253906,0,1.8598633-0.8342285,1.8598633-1.8598633v-5.090332
						c0-1.0202637-0.8344727-1.8500977-1.8598633-1.8500977H73.2463379z"/>
				</g>
			</g>
			<g>
				<g>
					<path d="M98.2741699,76.8909912H70.6843262c-1.847168,0-3.3500977-1.5029297-3.3500977-3.3500977V54.6107178
						c0-1.8525391,1.5029297-3.3598633,3.3500977-3.3598633h27.5898438c1.847168,0,3.3500977,1.5073242,3.3500977,3.3598633
						v18.9301758C101.6242676,75.3880615,100.1213379,76.8909912,98.2741699,76.8909912z M70.6843262,52.7508545
						c-1.0200195,0-1.8500977,0.8342285-1.8500977,1.8598633v18.9301758c0,1.0202637,0.8300781,1.8500977,1.8500977,1.8500977
						h27.5898438c1.0200195,0,1.8500977-0.829834,1.8500977-1.8500977V54.6107178
						c0-1.0256348-0.8300781-1.8598633-1.8500977-1.8598633H70.6843262z"/>
				</g>
				<g>
					<g>
						<path d="M81.3171387,71.230835c-0.5908203,0-1.1821289-0.1547852-1.7216797-0.4645996
							c-1.0908203-0.6259766-1.7421875-1.751709-1.7421875-3.0109863V60.387085
							c0-1.2592773,0.6513672-2.3847656,1.7416992-3.0109863c1.0878906-0.6247559,2.3837891-0.6193848,3.4667969,0.0126953
							l6.324707,3.6977539c1.0756836,0.6245117,1.7182617,1.7407227,1.7182617,2.9846191s-0.6425781,2.3601074-1.7197266,2.9855957
							l-6.3232422,3.6960449C82.5163574,71.0714111,81.916748,71.230835,81.3171387,71.230835z M81.317627,58.4136963
							c-0.3349609,0-0.6699219,0.0876465-0.9755859,0.2634277c-0.6191406,0.3552246-0.9887695,0.9946289-0.9887695,1.7099609
							v7.3681641c0,0.715332,0.3696289,1.3547363,0.9887695,1.7099609c0.6166992,0.3540039,1.3510742,0.3508301,1.9628906-0.0073242
							l6.324707-3.6970215c0.0004883-0.0004883,0.0009766-0.0007324,0.0014648-0.0009766
							c0.6098633-0.354248,0.9736328-0.9855957,0.9736328-1.6887207s-0.3637695-1.3344727-0.9736328-1.6887207L82.3049316,58.68396
							C81.9963379,58.5037842,81.6569824,58.4136963,81.317627,58.4136963z"/>
					</g>
				</g>
			</g>
			<g>
				<g>
					<path d="M31.3244629,48.7144775H11.2287598c-0.8652344,0-1.6323242-0.484375-2.0019531-1.2641602
						c-0.3701172-0.7810059-0.2602539-1.6813965,0.2866211-2.3496094l8.1958008-9.9367676
						c0.472168-0.5639648,1.1860352-0.8544922,1.9165039-0.7880859c0.7290039,0.0693359,1.375,0.4912109,1.7285156,1.1286621
						l2.7895508,5.0493164c0.1411133,0.2583008,0.3666992,0.3344727,0.4887695,0.3571777
						c0.206543,0.0383301,0.4228516-0.0183105,0.5859375-0.15625l2.1977539-1.8400879
						c0.5327148-0.4558105,1.2373047-0.6247559,1.9296875-0.4597168c0.6948242,0.1660156,1.2504883,0.638916,1.5249023,1.2973633
						l2.4956055,5.8984375c0.2861328,0.6884766,0.2114258,1.4645996-0.1992188,2.0800781
						C32.7561035,48.3468018,32.067627,48.7144775,31.3244629,48.7144775z M19.4118652,35.8656006
						c-0.2138672,0-0.4106445,0.0913086-0.5483398,0.2565918l-8.190918,9.9306641
						c-0.2631836,0.3215332-0.1357422,0.6594238-0.090332,0.755127c0.0581055,0.1223145,0.2368164,0.4064941,0.6464844,0.4064941
						h20.0957031c0.2441406,0,0.4609375-0.1152344,0.5947266-0.315918c0.1337891-0.2004395,0.1572266-0.4436035,0.0639648-0.6674805
						l-2.4956055-5.8981934c-0.0893555-0.2143555-0.2670898-0.3657227-0.4902344-0.4189453
						c-0.2177734-0.0517578-0.4418945,0.0007324-0.6123047,0.145752l-2.2001953,1.8422852
						c-0.5058594,0.4282227-1.1704102,0.6054688-1.8266602,0.4838867c-0.6523438-0.121582-1.2099609-0.5258789-1.5292969-1.1096191
						l-2.7866211-5.0454102c-0.1147461-0.206543-0.3183594-0.3388672-0.5585938-0.3618164
						C19.4597168,35.8668213,19.4353027,35.8656006,19.4118652,35.8656006z"/>
				</g>
				<g>
					<path d="M25.557373,36.7369385c-1.53125,0-2.7768555-1.2456055-2.7768555-2.7768555s1.2456055-2.7768555,2.7768555-2.7768555
						s2.7768555,1.2456055,2.7768555,2.7768555S27.088623,36.7369385,25.557373,36.7369385z M25.557373,32.6832275
						c-0.7041016,0-1.2768555,0.5727539-1.2768555,1.2768555s0.5727539,1.2768555,1.2768555,1.2768555
						s1.2768555-0.5727539,1.2768555-1.2768555S26.2614746,32.6832275,25.557373,32.6832275z"/>
				</g>
			</g>
		</g>
		<g>
			<path d="M30.036377,99.8707275h-2.1518555c-0.4140625,0-0.75-0.3356934-0.75-0.75s0.3359375-0.75,0.75-0.75h2.1518555
				c0.4140625,0,0.75,0.3356934,0.75,0.75S30.4504395,99.8707275,30.036377,99.8707275z"/>
		</g>
		<g>
			<path d="M52.880127,99.8707275H34.8547363c-0.4140625,0-0.75-0.3356934-0.75-0.75s0.3359375-0.75,0.75-0.75H52.880127
				c0.4140625,0,0.75,0.3356934,0.75,0.75S53.2941895,99.8707275,52.880127,99.8707275z"/>
		</g>
		<g>
			<path d="M59.036377,8.8707275h-2.1518555c-0.4140625,0-0.75-0.3356934-0.75-0.75s0.3359375-0.75,0.75-0.75h2.1518555
				c0.4140625,0,0.75,0.3356934,0.75,0.75S59.4504395,8.8707275,59.036377,8.8707275z"/>
		</g>
		<g>
			<path d="M81.880127,8.8707275H63.8547363c-0.4140625,0-0.75-0.3356934-0.75-0.75s0.3359375-0.75,0.75-0.75H81.880127
				c0.4140625,0,0.75,0.3356934,0.75,0.75S82.2941895,8.8707275,81.880127,8.8707275z"/>
		</g>
	</g>
	<g>
		<g>
			<path d="M97.2263184,102.1246338c-2.4262695,0-4.3999023-1.973877-4.3999023-4.4001465
				c0-2.4223633,1.9736328-4.3933105,4.3999023-4.3933105c2.4228516,0,4.3935547,1.9709473,4.3935547,4.3933105
				C101.619873,100.1507568,99.6491699,102.1246338,97.2263184,102.1246338z M97.2263184,94.8311768
				c-1.5991211,0-2.8999023,1.2978516-2.8999023,2.8933105c0,1.5991211,1.3007813,2.9001465,2.8999023,2.9001465
				c1.5957031,0,2.8935547-1.3010254,2.8935547-2.9001465C100.119873,96.1290283,98.8220215,94.8311768,97.2263184,94.8311768z"/>
		</g>
	</g>
	<g>
		<g>
			<path d="M9.1618652,14.4586182c-0.4199219,0-0.7739258-0.2900391-0.8598633-0.7053223
				c-0.2119141-1.0432129-0.7236328-1.9902344-1.4804688-2.7419434C6.0646973,10.2493896,5.119873,9.7376709,4.0847168,9.52771
				C3.6652832,9.4398193,3.3757324,9.0860596,3.3757324,8.6661377C3.3762207,8.24646,3.6662598,7.8931885,4.0812988,7.8070068
				c1.0361328-0.2102051,1.9838867-0.7226563,2.7441406-1.482666C7.5803223,5.569458,8.0905762,4.6219482,8.3015137,3.5838623
				c0.0864258-0.418457,0.4404297-0.7084961,0.8603516-0.7084961s0.7739258,0.2900391,0.8598633,0.7053223
				c0.2114258,1.0412598,0.7216797,1.9887695,1.4765625,2.7438965c0.7602539,0.7597656,1.7080078,1.2722168,2.7402344,1.4816895
				c0.418457,0.0869141,0.7084961,0.4401855,0.7084961,0.8598633c0.0004883,0.4199219-0.2890625,0.7736816-0.7036133,0.8605957
				c-0.0009766,0.0002441-0.0019531,0.0002441-0.0024414,0.0004883c-2.1245117,0.4375-3.7802734,2.0959473-4.2192383,4.2250977
				C9.935791,14.1685791,9.5817871,14.4586182,9.1618652,14.4586182z M6.1271973,8.6668701
				C6.7702637,8.9954834,7.3620605,9.427124,7.8820801,9.9505615c0.5209961,0.5175781,0.9516602,1.1091309,1.2802734,1.7539063
				c0.6640625-1.3083496,1.7275391-2.3730469,3.0341797-3.0373535c-0.6425781-0.328125-1.2358398-0.7590332-1.7587891-1.2817383
				C9.9182129,6.8656006,9.4890137,6.274292,9.1618652,5.6314697c-0.3271484,0.642334-0.7558594,1.2338867-1.2758789,1.7536621
				C7.3635254,7.9075928,6.7702637,8.338501,6.1271973,8.6668701z M14.0895996,8.7926025h0.0097656H14.0895996z"/>
		</g>
	</g>
</g>
</svg>
