<svg height="480pt" viewBox="0 0 480 480" width="480pt" xmlns="http://www.w3.org/2000/svg"><path d="m240 0c-132.546875 0-240 107.453125-240 240s107.453125 240 240 240 240-107.453125 240-240c-.148438-132.484375-107.515625-239.851562-240-240zm0 464c-123.710938 0-224-100.289062-224-224s100.289062-224 224-224 224 100.289062 224 224c-.140625 123.652344-100.347656 223.859375-224 224zm0 0"/><path d="m320 128h-160c-4.417969 0-8 3.582031-8 8v208c0 3.03125 1.710938 5.800781 4.421875 7.15625s5.953125 1.0625 8.378906-.757812l75.199219-55.863282 75.199219 55.863282c2.425781 1.820312 5.667969 2.113281 8.378906.757812s4.421875-4.125 4.421875-7.15625v-208c0-4.417969-3.582031-8-8-8zm-8 200.097656-67.199219-49.945312c-2.832031-2.101563-6.707031-2.101563-9.535156 0l-67.265625 49.945312v-184.097656h144zm0 0"/></svg>