<svg height="480pt" viewBox="0 0 480 480" width="480pt" xmlns="http://www.w3.org/2000/svg"><path d="m16 8v336c0 4.417969 3.582031 8 8 8h56v120c0 4.417969 3.582031 8 8 8h288c4.417969 0 8-3.582031 8-8v-336c0-4.417969-3.582031-8-8-8h-56v-120c0-4.417969-3.582031-8-8-8h-96c-4.417969 0-8 3.582031-8 8 0 22.089844-17.910156 40-40 40s-40-17.910156-40-40c0-4.417969-3.582031-8-8-8h-96c-4.417969 0-8 3.582031-8 8zm352 456h-272v-320h80.566406c3.957032 27.570312 27.578125 48.042969 55.433594 48.042969s51.476562-20.472657 55.433594-48.042969h80.566406zm-336-448h80.566406c3.957032 27.570312 27.578125 48.042969 55.433594 48.042969s51.476562-20.472657 55.433594-48.042969h80.566406v112h-24c-4.417969 0-8 3.582031-8 8 0 22.089844-17.910156 40-40 40s-40-17.910156-40-40c0-4.417969-3.582031-8-8-8h-96c-4.417969 0-8 3.582031-8 8v200h-48zm0 0"/><path d="m40 400h-8v-8c0-4.417969-3.582031-8-8-8s-8 3.582031-8 8v8h-8c-4.417969 0-8 3.582031-8 8s3.582031 8 8 8h8v8c0 4.417969 3.582031 8 8 8s8-3.582031 8-8v-8h8c4.417969 0 8-3.582031 8-8s-3.582031-8-8-8zm0 0"/><path d="m456 272h-32c-4.417969 0-8 3.582031-8 8v32c0 4.417969 3.582031 8 8 8h32c4.417969 0 8-3.582031 8-8v-32c0-4.417969-3.582031-8-8-8zm-8 32h-16v-16h16zm0 0"/><path d="m472 128h-8v-8c0-4.417969-3.582031-8-8-8s-8 3.582031-8 8v8h-8c-4.417969 0-8 3.582031-8 8s3.582031 8 8 8h8v8c0 4.417969 3.582031 8 8 8s8-3.582031 8-8v-8h8c4.417969 0 8-3.582031 8-8s-3.582031-8-8-8zm0 0"/><path d="m304 392v8h-8c-4.417969 0-8 3.582031-8 8s3.582031 8 8 8h8v8c0 4.417969 3.582031 8 8 8s8-3.582031 8-8v-8h8c4.417969 0 8-3.582031 8-8s-3.582031-8-8-8h-8v-8c0-4.417969-3.582031-8-8-8s-8 3.582031-8 8zm0 0"/><path d="m360 32c-4.417969 0-8 3.582031-8 8v32c0 4.417969 3.582031 8 8 8h32c4.417969 0 8-3.582031 8-8v-32c0-4.417969-3.582031-8-8-8zm24 32h-16v-16h16zm0 0"/><path d="m184 336h-32c-4.417969 0-8 3.582031-8 8v32c0 4.417969 3.582031 8 8 8h32c4.417969 0 8-3.582031 8-8v-32c0-4.417969-3.582031-8-8-8zm-8 32h-16v-16h16zm0 0"/></svg>