<svg height="480pt" viewBox="0 0 480 480" width="480pt" xmlns="http://www.w3.org/2000/svg"><path d="m240 0c-132.546875 0-240 107.453125-240 240s107.453125 240 240 240 240-107.453125 240-240c-.148438-132.484375-107.515625-239.851562-240-240zm0 464c-123.710938 0-224-100.289062-224-224s100.289062-224 224-224 224 100.289062 224 224c-.140625 123.652344-100.347656 223.859375-224 224zm0 0"/><path d="m296 144c-24.398438 0-45.183594 8.136719-56 20.382812-10.816406-12.246093-31.601562-20.382812-56-20.382812-35.886719 0-64 17.601562-64 40v144c0 4.417969 3.582031 8 8 8h224c4.417969 0 8-3.582031 8-8v-144c0-22.398438-28.113281-40-64-40zm0 16c28.289062 0 48 12.648438 48 24v117.273438c-14.304688-9.140626-31.03125-13.765626-48-13.273438-16.96875-.492188-33.695312 4.132812-48 13.273438v-117.273438c0-11.351562 19.710938-24 48-24zm44.863281 160h-89.726562c6.597656-8.574219 23.199219-16 44.863281-16s38.265625 7.425781 44.863281 16zm-204.863281-136c0-11.351562 19.710938-24 48-24s48 12.648438 48 24v117.273438c-14.304688-9.140626-31.03125-13.765626-48-13.273438-16.96875-.492188-33.695312 4.132812-48 13.273438zm92.863281 136h-89.726562c6.597656-8.574219 23.199219-16 44.863281-16s38.265625 7.425781 44.863281 16zm0 0"/></svg>