<svg height="480pt" viewBox="-16 0 480 480" width="480pt" xmlns="http://www.w3.org/2000/svg"><path d="m16 8v425.472656c-9.554688 3.378906-15.9570312 12.394532-16 22.527344v16c0 4.417969 3.582031 8 8 8h64c4.417969 0 8-3.582031 8-8v-16c-.042969-10.132812-6.445312-19.148438-16-22.527344v-385.472656h56v17.472656c-9.554688 3.378906-15.957031 12.394532-16 22.527344v200c0 4.417969 3.582031 8 8 8h32c4.417969 0 8-3.582031 8-8v-200c-.042969-10.132812-6.445312-19.148438-16-22.527344v-17.472656h48v17.472656c-9.554688 3.378906-15.957031 12.394532-16 22.527344v240c0 4.417969 3.582031 8 8 8h32c4.417969 0 8-3.582031 8-8v-240c-.042969-10.132812-6.445312-19.148438-16-22.527344v-17.472656h48v17.472656c-9.554688 3.378906-15.957031 12.394532-16 22.527344v200c0 4.417969 3.582031 8 8 8h32c4.417969 0 8-3.582031 8-8v-200c-.042969-10.132812-6.445312-19.148438-16-22.527344v-17.472656h48v17.472656c-9.554688 3.378906-15.957031 12.394532-16 22.527344v240c0 4.417969 3.582031 8 8 8h32c4.417969 0 8-3.582031 8-8v-240c-.042969-10.132812-6.445312-19.148438-16-22.527344v-17.472656h56v385.472656c-9.554688 3.378906-15.957031 12.394532-16 22.527344v16c0 4.417969 3.582031 8 8 8h64c4.417969 0 8-3.582031 8-8v-16c-.042969-10.132812-6.445312-19.148438-16-22.527344v-425.472656c0-4.417969-3.582031-8-8-8h-32c-4.417969 0-8 3.582031-8 8v24h-56v-8c0-4.417969-3.582031-8-8-8s-8 3.582031-8 8v8h-48v-8c0-4.417969-3.582031-8-8-8s-8 3.582031-8 8v8h-48v-8c0-4.417969-3.582031-8-8-8s-8 3.582031-8 8v8h-48v-8c0-4.417969-3.582031-8-8-8s-8 3.582031-8 8v8h-56v-24c0-4.417969-3.582031-8-8-8h-32c-4.417969 0-8 3.582031-8 8zm112 72c4.417969 0 8 3.582031 8 8v56h-16v-56c0-4.417969 3.582031-8 8-8zm-8 200v-120h16v120zm72-200c4.417969 0 8 3.582031 8 8v64h-16v-64c0-4.417969 3.582031-8 8-8zm-8 240v-152h16v152zm72-240c4.417969 0 8 3.582031 8 8v56h-16v-56c0-4.417969 3.582031-8 8-8zm-8 200v-120h16v120zm72-200c4.417969 0 8 3.582031 8 8v64h-16v-64c0-4.417969 3.582031-8 8-8zm-8 240v-152h16v152zm120 144h-48v-8c0-4.417969 3.582031-8 8-8h32c4.417969 0 8 3.582031 8 8zm-32-448h16v416h-16zm-336 448h-48v-8c0-4.417969 3.582031-8 8-8h32c4.417969 0 8 3.582031 8 8zm-32-448h16v416h-16zm0 0"/></svg>