<svg height="480pt" viewBox="0 0 480 480" width="480pt" xmlns="http://www.w3.org/2000/svg"><path d="m240 0c-132.546875 0-240 107.453125-240 240s107.453125 240 240 240 240-107.453125 240-240c-.148438-132.484375-107.515625-239.851562-240-240zm0 464c-123.710938 0-224-100.289062-224-224s100.289062-224 224-224 224 100.289062 224 224c-.140625 123.652344-100.347656 223.859375-224 224zm0 0"/><path d="m240 112c-66.242188.074219-119.925781 53.757812-120 120v64c0 4.417969 3.582031 8 8 8s8-3.582031 8-8v-1.472656c2.5625.949218 5.269531 1.445312 8 1.472656 13.253906 0 24-10.746094 24-24v-32c0-13.253906-10.746094-24-24-24-2.3125.035156-4.605469.40625-6.808594 1.105469 7.371094-51.105469 51.167969-89.035157 102.800782-89.035157 51.632812 0 95.429687 37.929688 102.800781 89.035157-2.199219-.699219-4.488281-1.070313-6.792969-1.105469-13.253906 0-24 10.746094-24 24v32c0 13.253906 10.746094 24 24 24 2.730469-.027344 5.4375-.523438 8-1.472656v1.472656c0 2.199219-.945312 51.664062-64 55.617188v-7.617188c0-4.417969-3.582031-8-8-8h-32c-4.417969 0-8 3.582031-8 8v16c0 4.417969 3.582031 8 8 8h32c86.992188 0 88-71.28125 88-72v-64c-.074219-66.242188-53.757812-119.925781-120-120zm-96 120c4.417969 0 8 3.582031 8 8v32c0 4.417969-3.582031 8-8 8s-8-3.582031-8-8v-32c0-4.417969 3.582031-8 8-8zm192 48c-4.417969 0-8-3.582031-8-8v-32c0-4.417969 3.582031-8 8-8s8 3.582031 8 8v32c0 4.417969-3.582031 8-8 8zm0 0"/></svg>