<svg height="480pt" viewBox="0 0 480 480" width="480pt" xmlns="http://www.w3.org/2000/svg"><path d="m240 0c-132.546875 0-240 107.453125-240 240s107.453125 240 240 240 240-107.453125 240-240c-.148438-132.484375-107.515625-239.851562-240-240zm0 464c-123.710938 0-224-100.289062-224-224s100.289062-224 224-224 224 100.289062 224 224c-.140625 123.652344-100.347656 223.859375-224 224zm0 0"/><path d="m312 120h-144c-22.082031.027344-39.972656 17.917969-40 40v112c.027344 22.082031 17.917969 39.972656 40 40h40v32h-18.207031c-4.417969 0-8 3.582031-8 8s3.582031 8 8 8h100.414062c4.417969 0 8-3.582031 8-8s-3.582031-8-8-8h-18.207031v-32h40c22.082031-.027344 39.972656-17.917969 40-40v-112c-.027344-22.082031-17.917969-39.972656-40-40zm-144 16h144c13.253906 0 24 10.746094 24 24v88h-192v-88c0-13.253906 10.746094-24 24-24zm88 208h-32v-32h32zm56-48h-144c-13.253906 0-24-10.746094-24-24v-8h192v8c0 13.253906-10.746094 24-24 24zm0 0"/><path d="m247.726562 280c0 4.417969-3.582031 8-8 8-4.417968 0-8-3.582031-8-8s3.582032-8 8-8c4.417969 0 8 3.582031 8 8zm0 0"/></svg>