<svg height="480pt" viewBox="0 -72 480 480" width="480pt" xmlns="http://www.w3.org/2000/svg"><path d="m472 0c-4.417969 0-8 3.582031-8 8v24h-48v-24c0-4.417969-3.582031-8-8-8h-384c-13.253906 0-24 10.746094-24 24s10.746094 24 24 24h44.800781l143.566407 136-145.871094 138.191406c-2.128906 1.953125-3.042969 4.902344-2.386719 7.714844.65625 2.816406 2.78125 5.054688 5.554687 5.863281 2.773438.808594 5.765626.058594 7.832032-1.960937l146.503906-138.792969 146.496094 138.792969c2.066406 2.019531 5.058594 2.769531 7.832031 1.960937 2.773437-.808593 4.898437-3.046875 5.554687-5.863281.65625-2.8125-.257812-5.761719-2.386718-7.714844l-145.863282-138.191406 143.566407-136h92.800781c4.417969 0 8-3.582031 8-8v-32c0-4.417969-3.582031-8-8-8zm-248 172.976562-131.921875-124.976562h263.84375zm152-140.976562h-352c-4.417969 0-8-3.582031-8-8s3.582031-8 8-8h376v16zm0 0"/></svg>