<svg height="480pt" viewBox="0 0 480 480" width="480pt" xmlns="http://www.w3.org/2000/svg"><path d="m240 0c-132.546875 0-240 107.453125-240 240s107.453125 240 240 240 240-107.453125 240-240c-.148438-132.484375-107.515625-239.851562-240-240zm0 464c-123.710938 0-224-100.289062-224-224s100.289062-224 224-224 224 100.289062 224 224c-.140625 123.652344-100.347656 223.859375-224 224zm0 0"/><path d="m296 136c-23.285156.015625-44.726562 12.664062-56 33.039062-14.125-25.53125-43.734375-38.277343-71.988281-30.984374-28.253907 7.289062-48 32.765624-48.011719 61.945312 0 35.199219 84.425781 144 120 144s120-108.800781 120-144c-.039062-35.328125-28.671875-63.960938-64-64zm-56 192c-24.296875 0-104-98.097656-104-128 0-26.507812 21.492188-48 48-48s48 21.492188 48 48v6.527344c0 4.417968 3.582031 8 8 8s8-3.582032 8-8v-6.527344c0-26.507812 21.492188-48 48-48s48 21.492188 48 48c0 29.902344-79.703125 128-104 128zm0 0"/></svg>