<svg height="480pt" viewBox="-40 0 480 480" width="480pt" xmlns="http://www.w3.org/2000/svg"><path d="m0 392v48c0 4.417969 3.582031 8 8 8h8v8c0 13.464844 8.191406 24 18.664062 24h10.671876c10.472656 0 18.664062-10.535156 18.664062-24v-8h272v8c0 13.464844 8.191406 24 18.664062 24h10.671876c10.472656 0 18.664062-10.535156 18.664062-24v-8h8c4.417969 0 8-3.582031 8-8v-48c0-4.417969-3.582031-8-8-8h-184v-240h80c4.417969 0 8-3.582031 8-8v-128c0-4.417969-3.582031-8-8-8h-176c-4.417969 0-8 3.582031-8 8v128c0 4.417969 3.582031 8 8 8h80v240h-184c-4.417969 0-8 3.582031-8 8zm120-376h160v112h-160zm-72 440c.269531 2.949219-.757812 5.871094-2.816406 8h-10.304688c-2.113281-2.097656-3.171875-5.035156-2.878906-8v-8h16zm320 0c.269531 2.949219-.757812 5.871094-2.816406 8h-10.304688c-2.113281-2.097656-3.171875-5.035156-2.878906-8v-8h16zm-352-56h368v32h-368zm0 0"/><path d="m248 72v-32c0-4.417969-3.582031-8-8-8h-80c-4.417969 0-8 3.582031-8 8v32c0 4.417969 3.582031 8 8 8h80c4.417969 0 8-3.582031 8-8zm-16-8h-64v-16h64zm0 0"/><path d="m208 104c0 4.417969-3.582031 8-8 8s-8-3.582031-8-8 3.582031-8 8-8 8 3.582031 8 8zm0 0"/><path d="m232 104c0 4.417969-3.582031 8-8 8s-8-3.582031-8-8 3.582031-8 8-8 8 3.582031 8 8zm0 0"/><path d="m184 104c0 4.417969-3.582031 8-8 8s-8-3.582031-8-8 3.582031-8 8-8 8 3.582031 8 8zm0 0"/></svg>