<svg height="478pt" viewBox="0 -127 478.79863 478" width="478pt" xmlns="http://www.w3.org/2000/svg"><path d="m66.238281 224.398438h116.800781c17.648438.464843 33.46875-10.828126 38.757813-27.671876l23.402344-84.328124h209.597656c13.257813 0 24-10.746094 24-24 0-13.253907-10.742187-24-24-24h-230.789063c-19.074218 0-28.519531-11.839844-40.496093-26.839844-13.90625-17.414063-29.648438-37.160156-63.503907-37.160156-33.855468 0-49.601562 19.746093-63.503906 37.160156-11.976562 15-21.425781 26.839844-40.496094 26.839844h-8c-2.429687 0-4.726562 1.097656-6.246093 2.992187s-2.097657 4.375-1.570313 6.746094l26.855469 120.847656c4.660156 17.707031 20.886719 29.886719 39.191406 29.414063zm397.769531-136c-.371093 4.742187-4.484374 8.308593-9.234374 8h-204.519532l4-16h200.519532c4.75-.308594 8.863281 3.257812 9.234374 8zm-395.007812-40.855469c12.78125-16.015625 24.847656-31.144531 51.007812-31.144531 26.160157 0 38.222657 15.128906 51.007813 31.144531 4.542969 5.953125 9.492187 11.582031 14.808594 16.855469h-131.632813c5.316406-5.273438 10.261719-10.902344 14.808594-16.855469zm168.488281 32.855469-31.128906 112.039062c-3.355469 9.925781-12.871094 16.433594-23.335937 15.960938h-116.800782c-10.816406.496093-20.5625-6.484376-23.566406-16.886719l-24.679688-111.113281zm0 0"/></svg>