<svg height="480pt" viewBox="0 0 480 480" width="480pt" xmlns="http://www.w3.org/2000/svg"><path d="m240 0c-132.546875 0-240 107.453125-240 240s107.453125 240 240 240 240-107.453125 240-240c-.148438-132.484375-107.515625-239.851562-240-240zm0 464c-123.710938 0-224-100.289062-224-224s100.289062-224 224-224 224 100.289062 224 224c-.140625 123.652344-100.347656 223.859375-224 224zm0 0"/><path d="m340.441406 153.34375-48-32c-.558594-.261719-1.113281-.53125-1.664062-.800781-1.789063-.671875-3.765625-.671875-5.554688 0-.550781.269531-1.105468.539062-1.664062.800781l-43.558594 29.054688-43.558594-29.039063c-.558594-.261719-1.113281-.53125-1.664062-.800781-1.789063-.671875-3.765625-.671875-5.554688 0-.550781.269531-1.105468.539062-1.664062.800781l-48 32c-2.21875 1.480469-3.554688 3.972656-3.558594 6.640625v192c0 2.949219 1.625 5.664062 4.226562 7.054688 2.601563 1.390624 5.757813 1.238281 8.214844-.398438l43.558594-29.054688 43.558594 29.039063c.558594.261719 1.113281.53125 1.664062.800781 1.789063.671875 3.765625.671875 5.554688 0 .550781-.269531 1.105468-.539062 1.664062-.800781l43.558594-29.039063 43.558594 29.039063c2.453125 1.636719 5.609375 1.789063 8.207031.402344 2.601563-1.386719 4.230469-4.09375 4.234375-7.042969v-192c0-2.675781-1.335938-5.171875-3.558594-6.65625zm-140.441406-10.390625 32 21.328125v172.796875l-32-21.324219zm48 21.328125 32-21.328125v172.800781l-32 21.324219zm-96 0 32-21.328125v172.800781l-32 21.335938zm176 172.796875-32-21.335937v-172.796876l32 21.328126zm0 0"/></svg>