<svg height="480pt" viewBox="0 -8 480 480" width="480pt" xmlns="http://www.w3.org/2000/svg"><path d="m472 168c-4.417969 0-8 3.582031-8 8v64c-.046875 28.007812-20.765625 51.679688-48.519531 55.441406-.402344-11.582031-6.109375-22.335937-15.480469-29.152344v-258.289062c0-4.417969-3.582031-8-8-8s-8 3.582031-8 8v258.289062c-9.480469 5.269532-16 19.65625-16 37.710938 0 1.390625.152344 2.6875.230469 4-20.121094 13.332031-32.222657 35.863281-32.230469 60v24c-.039062 30.910156-25.089844 55.960938-56 56h-192c-39.703125 0-72-39.480469-72-88v-64c0-45.214844 28.054688-82.542969 64-87.425781v101.539062l-31.160156 62.3125c-1.238282 2.480469-1.105469 5.425781.351562 7.78125 1.460938 2.359375 4.035156 3.792969 6.808594 3.792969h240c2.78125.015625 5.367188-1.414062 6.835938-3.773438 1.46875-2.363281 1.605468-5.316406.363281-7.800781l-31.199219-62.3125v-204.226562l31.199219-62.3125c1.242187-2.484375 1.105469-5.4375-.363281-7.800781-1.46875-2.359376-4.054688-3.789063-6.835938-3.773438h-240c-2.773438 0-5.347656 1.433594-6.808594 3.792969-1.457031 2.355469-1.589844 5.300781-.351562 7.78125l31.160156 62.3125v86.59375c-44.800781 4.800781-80 49.367187-80 103.519531v64c0 57.34375 39.480469 104 88 104h192c39.746094-.042969 71.957031-32.253906 72-72v-24c.003906-16.347656 7.175781-31.875 19.617188-42.480469 4.160156 11.234375 11.582031 18.480469 20.382812 18.480469 12.113281 0 21.550781-13.496094 23.566406-32.40625 36.609375-3.910156 64.386719-34.777344 64.433594-71.59375v-64c0-4.417969-3.582031-8-8-8zm-355.3125-56 139.3125 139.3125v25.375l-160-160v-4.6875zm48 0 91.3125 91.3125v25.375l-116.6875-116.6875zm48 0 43.3125 43.3125v25.375l-68.6875-68.6875zm43.3125 20.6875-20.6875-20.6875h20.6875zm0 166.625v4.6875h-20.6875l-139.3125-139.3125v-25.375zm-43.3125 4.6875h-25.375l-91.3125-91.3125v-25.375zm-73.375 0-43.3125-43.3125v-25.375l68.6875 68.6875zm-43.3125-20.6875 20.6875 20.6875h-20.6875zm-27.054688 84.6875 24-48h166.109376l24 48zm214.109376-320-24 48h-166.109376l-24-48zm108.945312 232c1.601562 0 5.960938 5.863281 7.449219 16.558594-5.207031.625-10.324219 1.824218-15.265625 3.578125.894531-12.992188 6-20.136719 7.816406-20.136719zm0 48c-1.34375 0-4.496094-4-6.398438-11.28125 4.363282-1.914062 8.960938-3.257812 13.671876-4-1.671876 9.898438-5.671876 15.28125-7.273438 15.28125zm0 0"/></svg>