<svg height="480pt" viewBox="0 0 480 480" width="480pt" xmlns="http://www.w3.org/2000/svg"><path d="m240 0c-132.546875 0-240 107.453125-240 240s107.453125 240 240 240 240-107.453125 240-240c-.148438-132.484375-107.515625-239.851562-240-240zm0 464c-123.710938 0-224-100.289062-224-224s100.289062-224 224-224 224 100.289062 224 224c-.140625 123.652344-100.347656 223.859375-224 224zm0 0"/><path d="m327.054688 132.222656c-1.390626-2.601562-4.105469-4.222656-7.054688-4.222656h-160c-4.417969 0-8 3.582031-8 8v208c0 4.417969 3.582031 8 8 8s8-3.582031 8-8v-104h152c2.949219 0 5.664062-1.625 7.054688-4.226562 1.390624-2.601563 1.238281-5.757813-.398438-8.214844l-29.054688-43.558594 29.039063-43.558594c1.644531-2.453125 1.804687-5.613281.414063-8.21875zm-45.710938 47.335938c-1.792969 2.691406-1.792969 6.191406 0 8.882812l23.703125 35.558594h-137.046875v-80h137.046875zm0 0"/></svg>