<svg height="480pt" viewBox="0 0 480 480" width="480pt" xmlns="http://www.w3.org/2000/svg"><path d="m240 0c-132.546875 0-240 107.453125-240 240s107.453125 240 240 240 240-107.453125 240-240c-.148438-132.484375-107.515625-239.851562-240-240zm0 464c-123.710938 0-224-100.289062-224-224s100.289062-224 224-224 224 100.289062 224 224c-.140625 123.652344-100.347656 223.859375-224 224zm0 0"/><path d="m336 200h-32v-56c0-4.417969-3.582031-8-8-8h-112c-4.417969 0-8 3.582031-8 8v56h-32c-4.417969 0-8 3.582031-8 8v112c0 4.417969 3.582031 8 8 8h40v24c0 4.417969 3.582031 8 8 8h96c4.417969 0 8-3.582031 8-8v-24h40c4.417969 0 8-3.582031 8-8v-112c0-4.417969-3.582031-8-8-8zm-144-48h96v48h-96zm88 192h-80v-48h80zm48-32h-32v-24c0-4.417969-3.582031-8-8-8h-96c-4.417969 0-8 3.582031-8 8v24h-32v-96h176zm0 0"/><path d="m168 240c0 4.417969 3.582031 8 8 8h128c4.417969 0 8-3.582031 8-8s-3.582031-8-8-8h-128c-4.417969 0-8 3.582031-8 8zm0 0"/></svg>