<svg height="480pt" viewBox="0 0 480 480" width="480pt" xmlns="http://www.w3.org/2000/svg"><path d="m240 0c-132.546875 0-240 107.453125-240 240s107.453125 240 240 240 240-107.453125 240-240c-.148438-132.484375-107.515625-239.851562-240-240zm0 464c-123.710938 0-224-100.289062-224-224s100.289062-224 224-224 224 100.289062 224 224c-.140625 123.652344-100.347656 223.859375-224 224zm0 0"/><path d="m376 232h-8.640625c-4.023437-28.183594-28.574219-48.847656-57.03125-48.003906s-51.742187 22.925781-54.089844 51.300781c-9.949219 6.160156-22.527343 6.160156-32.476562 0-2.347657-28.375-25.632813-50.457031-54.089844-51.300781s-53.007813 19.820312-57.03125 48.003906h-8.640625c-4.417969 0-8 3.582031-8 8s3.582031 8 8 8h8.640625c3.832031 26.710938 26.1875 46.882812 53.152344 47.949219 26.964843 1.070312 50.847656-17.265625 56.78125-43.589844 11.125 4.789063 23.726562 4.789063 34.851562 0 5.933594 26.324219 29.816407 44.660156 56.78125 43.589844 26.964844-1.066407 49.320313-21.238281 53.152344-47.949219h8.640625c4.417969 0 8-3.582031 8-8s-3.582031-8-8-8zm-208 48c-22.089844 0-40-17.910156-40-40s17.910156-40 40-40 40 17.910156 40 40c-.027344 22.082031-17.917969 39.972656-40 40zm144 0c-22.089844 0-40-17.910156-40-40s17.910156-40 40-40 40 17.910156 40 40c-.027344 22.082031-17.917969 39.972656-40 40zm0 0"/></svg>