<svg height="480pt" viewBox="0 0 480 480.09942" width="480pt" xmlns="http://www.w3.org/2000/svg"><path d="m472.050781 96h-6.238281l14.078125-70.398438c.882813-4.332031-1.910156-8.558593-6.238281-9.441406-4.332032-.882812-8.558594 1.910156-9.441406 6.238282l-9.976563 49.859374c-1.136719-1.746093-2.398437-3.441406-3.703125-5.105468-.039062-.046875-.046875-.121094-.089844-.167969-.039062-.046875-.183594-.191406-.269531-.296875-2.085937-2.597656-4.34375-5.058594-6.753906-7.359375-.253907-.25-.542969-.464844-.796875-.703125-1.960938-1.808594-4.035156-3.539062-6.226563-5.191406-1.023437-.785156-2.070312-1.546875-3.136719-2.289063-1.453124-1.007812-2.972656-1.96875-4.511718-2.914062-2.90625-1.78125-5.90625-3.410157-8.984375-4.878907-.796875-.375-1.535157-.800781-2.34375-1.152343-2-.894531-4.0625-1.695313-6.144531-2.480469-.949219-.351562-1.894532-.703125-2.863282-1.039062-2.167968-.75-4.351562-1.464844-6.597656-2.085938-.664062-.1875-1.351562-.328125-2.023438-.503906-4.53125-1.175782-9.125-2.085938-13.761718-2.730469-.910156-.136719-1.808594-.296875-2.726563-.398437-2.273437-.273438-4.5625-.441407-6.875-.59375-.65625 0-1.292969-.136719-1.949219-.167969-31.417968-22.238281-68.074218-32.199219-118.425781-32.199219-51.695312 0-119.144531 11.0625-150.398437 32.230469-.648438 0-1.273438.121093-1.914063.167969-2.34375.144531-4.671875.320312-6.96875.59375-.855469.097656-1.6875.246093-2.542969.367187-4.6875.648437-9.332031 1.566406-13.910156 2.753906-.671875.175781-1.367187.320313-2.03125.503907-2.242187.621093-4.425781 1.335937-6.59375 2.085937-.976562.335937-1.929687.6875-2.886718 1.050781-2.074219.796875-4.136719 1.597656-6.128907 2.46875-.839843.378906-1.601562.800782-2.449219 1.203125-3.03125 1.445313-5.988281 3.046875-8.855468 4.796875-1.601563.953125-3.097656 1.921875-4.574219 2.945313-1.050781.734375-2.089844 1.480469-3.097656 2.257812-2.214844 1.6875-4.328125 3.4375-6.320313 5.277344-.230468.207031-.488281.410156-.710937.625-2.425781 2.308594-4.691407 4.78125-6.785157 7.390625-.070312.097656-.175781.183594-.253906.28125-.03125.054688-.058594.109375-.082031.167969-1.320313 1.65625-2.566406 3.351562-3.710937 5.105469l-9.945313-49.875c-.882813-4.328126-5.109375-7.121094-9.4375-6.238282-4.332031.882813-7.125 5.109375-6.242187 9.441406l14.082031 70.398438h-6.242188c-4.417969 0-7.9999998 3.582031-7.9999998 8v16c0 13.253906 10.7460938 24 23.9999998 24h.511719l15.488281 232.296875v31.703125c0 4.417969 3.582031 8 8 8h24v17.472656c-11.019531 3.894532-17.628906 15.164063-15.652343 26.683594 1.976562 11.523438 11.964843 19.941406 23.652343 19.941406s21.679688-8.417968 23.65625-19.941406c1.976563-11.519531-4.636719-22.789062-15.65625-26.683594v-17.472656h304v17.472656c-11.019531 3.894532-17.628906 15.164063-15.652343 26.683594 1.976562 11.523438 11.964843 19.941406 23.652343 19.941406s21.679688-8.417968 23.65625-19.941406c1.976563-11.519531-4.636719-22.789062-15.65625-26.683594v-17.472656h24c4.417969 0 8-3.582031 8-8v-31.703125l15.488281-232.296875h.511719c13.253907 0 24-10.746094 24-24v-16c0-4.417969-3.582031-8-8-8zm-392 368c-4.417969 0-8-3.582031-8-8s3.582031-8 8-8 8 3.582031 8 8-3.582031 8-8 8zm320 0c-4.417969 0-8-3.582031-8-8s3.582031-8 8-8 8 3.582031 8 8-3.582031 8-8 8zm-53.734375-430.136719c-7.492187 1.277344-14.839844 3.28125-21.945312 5.976563-4.125 1.585937-6.1875 6.214844-4.605469 10.339844 1.585937 4.128906 6.214844 6.1875 10.339844 4.605468 12.132812-4.542968 24.992187-6.839844 37.945312-6.785156 1.785157 0 3.519531.167969 5.28125.257812 4.320313.1875 8.628907.632813 12.894531 1.335938.257813.046875.511719.070312.761719.109375 2.101563.367187 4.160157.800781 6.191407 1.304687.65625.148438 1.3125.308594 1.96875.480469 14.667968 3.480469 28.121093 10.859375 38.941406 21.359375.632812.65625 1.25 1.3125 1.847656 1.992188 5.816406 6.261718 9.777344 14.019531 11.441406 22.398437-13.359375 3.28125-28.976562 13.226563-47.871094 25.378907-31.457031 20.214843-70.609374 45.382812-111.457031 45.382812-38.472656 0-62.671875-17.449219-88.296875-35.910156l-1.679687-1.203125c-.863281-1.046875-1.984375-1.847657-3.253907-2.328125-23.136718-16.558594-47.632812-32.558594-82.769531-32.558594h-79.054687c1.824218-7.910156 5.683594-15.203125 11.199218-21.160156.601563-.679688 1.214844-1.335938 1.847657-1.992188 10.820312-10.5 24.277343-17.878906 38.945312-21.359375.65625-.171875 1.3125-.332031 1.96875-.480469 2.03125-.480468 4.085938-.9375 6.191407-1.304687.246093 0 .503906-.0625.800781-.109375 4.265625-.703125 8.574219-1.148438 12.894531-1.335938 1.6875-.089843 3.421875-.257812 5.207031-.257812 28.847657 0 55.632813 11.113281 69.871094 28.984375 2.753906 3.460937 7.789063 4.03125 11.25 1.28125 3.457031-2.753906 4.03125-7.789063 1.28125-11.25-14.628906-17.140625-34.789063-28.628906-56.992187-32.480469 38.289062-12.464844 78.324218-18.722656 118.589843-18.535156 43.121094 0 70.824219 8.105469 90.265625 17.863281zm-242.265625 334.136719v-224h84.855469l1.496094 1.070312c26.554687 19.136719 54.015625 38.929688 97.648437 38.929688 31.839844 0 61.601563-12.992188 88-28.105469v212.105469zm16-255.503906c16.054688 1.570312 31.515625 6.878906 45.144531 15.503906h-45.144531zm-104 7.503906v-8h88v16h-80c-4.417969 0-8-3.582031-8-8zm72 24v224h-32.511719l-14.9375-224zm336 256h-368v-16h368zm.511719-32h-32.511719v-221.695312c1.601563-1.007813 3.199219-2 4.800781-3 1.007813.449218 2.097657.6875 3.199219.695312h39.449219zm39.488281-248c0 4.417969-3.582031 8-8 8h-35.199219c14.3125-8.9375 27.097657-16 35.199219-16h8zm0 0"/></svg>