<svg height="480pt" viewBox="0 -8 480.0032 480" width="480pt" xmlns="http://www.w3.org/2000/svg"><path d="m472 80.003906h-6.238281l14.078125-70.402344c.886718-4.328124-1.910156-8.554687-6.238282-9.4375-4.328124-.882812-8.554687 1.910157-9.441406 6.238282l-14.71875 73.601562h-418.878906l-14.722656-73.601562c-.882813-4.328125-5.109375-7.121094-9.4375-6.238282-4.332032.882813-7.125 5.109376-6.242188 9.4375l14.082032 70.402344h-6.242188c-4.417969 0-8 3.582032-8 8v16c0 13.253906 10.746094 24 24 24h.523438l15.476562 232.238282v31.761718c0 4.417969 3.582031 8 8 8h24v17.472656c-11.019531 3.894532-17.628906 15.164063-15.652344 26.683594 1.976563 11.519532 11.964844 19.941406 23.652344 19.941406 11.691406 0 21.679688-8.421874 23.65625-19.941406 1.976562-11.519531-4.632812-22.789062-15.65625-26.683594v-17.472656h304v17.472656c-11.019531 3.894532-17.628906 15.164063-15.652344 26.683594 1.976563 11.519532 11.964844 19.941406 23.652344 19.941406 11.691406 0 21.679688-8.421874 23.65625-19.941406 1.976562-11.519531-4.632812-22.789062-15.65625-26.683594v-17.472656h24c4.417969 0 8-3.582031 8-8v-31.761718l15.480469-232.238282h.519531c13.257812 0 24-10.746094 24-24v-16c0-4.417968-3.582031-8-8-8zm-392 368c-4.417969 0-8-3.582031-8-8 0-4.417968 3.582031-8 8-8s8 3.582032 8 8c0 4.417969-3.582031 8-8 8zm320 0c-4.417969 0-8-3.582031-8-8 0-4.417968 3.582031-8 8-8s8 3.582032 8 8c0 4.417969-3.582031 8-8 8zm-296-96v-224h272v224zm16-256h112v16h-112zm128 16v-16h112v16zm-232-8v-8h88v16h-80c-4.417969 0-8-3.582031-8-8zm72 24v224h-32.511719l-14.933593-224zm336 256h-368v-16h368zm.511719-32h-32.511719v-224h47.449219zm39.488281-248c0 4.417969-3.582031 8-8 8h-80v-16h88zm0 0"/></svg>