<svg height="480pt" viewBox="0 0 480 480" width="480pt" xmlns="http://www.w3.org/2000/svg"><path d="m456 256h-.695312c.425781-2.644531.660156-5.320312.695312-8-.015625-24.203125-15.574219-45.65625-38.574219-53.183594-23-7.53125-48.238281.566406-62.5625 20.070313-7.453125-4.117188-15.761719-6.453125-24.269531-6.824219 9.066406-19.03125 6.679688-41.542969-6.183594-58.25-12.859375-16.707031-34.015625-24.773438-54.734375-20.871094s-37.488281 19.109375-43.394531 39.347656c-12.054688 1.195313-23.382812 6.3125-32.25 14.566407-11.65625-23.179688-37.707031-35.320313-62.953125-29.332031-25.246094 5.984374-43.074219 28.53125-43.078125 54.476562v.585938c-2.648438-.394532-5.324219-.589844-8-.585938-27.804688.054688-51.367188 20.484375-55.359375 48h-.640625c-13.253906 0-24 10.746094-24 24s10.746094 24 24 24h.136719c2.207031 73.601562 34.941406 176 119.863281 176h192c74.472656 0 117.816406-64.097656 119.808594-176h.191406c13.253906 0 24-10.746094 24-24s-10.746094-24-24-24zm-376-32c4.960938.007812 9.878906.941406 14.496094 2.753906 2.773437 1.074219 5.917968.523438 8.160156-1.4375 2.238281-1.957031 3.207031-5 2.511719-7.890625-3.796875-14.238281.539062-29.410156 11.289062-39.488281 10.746094-10.078125 26.167969-13.433594 40.128907-8.726562 13.964843 4.703124 24.210937 16.703124 26.671874 31.230468.605469 3.25 3.148438 5.792969 6.398438 6.398438 3.246094.613281 6.535156-.851563 8.246094-3.679688 7.296875-12.015625 20.386718-19.292968 34.441406-19.160156h.105469c4.003906.132812 7.488281-2.71875 8.152343-6.671875 2.84375-17.101563 16.386719-30.421875 33.53125-32.988281 17.144532-2.570313 33.992188 6.199218 41.726563 21.71875 7.730469 15.515625 4.585937 34.246094-7.789063 46.390625-2.628906 2.589843-3.144531 6.648437-1.246093 9.816406 1.902343 3.164063 5.722656 4.621094 9.246093 3.519531 12.476563-3.847656 26.039063-1.394531 36.378907 6.574219 1.875 1.453125 4.304687 1.996094 6.621093 1.484375 2.316407-.515625 4.289063-2.03125 5.378907-4.140625 8.453125-16.398437 27.03125-24.886719 44.964843-20.542969 17.933594 4.34375 30.570313 20.386719 30.585938 38.839844.007812 2.6875-.261719 5.367188-.800781 8h-398.398438c3.824219-18.613281 20.199219-31.980469 39.199219-32zm256 240h-192c-73.34375 0-101.777344-92.800781-103.871094-160h399.78125c-1.117187 53.894531-14.710937 160-103.910156 160zm120-176h-432c-4.417969 0-8-3.582031-8-8s3.582031-8 8-8h432c4.417969 0 8 3.582031 8 8s-3.582031 8-8 8zm0 0"/><path d="m24 136c-4.417969 0-8 3.582031-8 8v8h-8c-4.417969 0-8 3.582031-8 8s3.582031 8 8 8h8v8c0 4.417969 3.582031 8 8 8s8-3.582031 8-8v-8h8c4.417969 0 8-3.582031 8-8s-3.582031-8-8-8h-8v-8c0-4.417969-3.582031-8-8-8zm0 0"/><path d="m136 120c17.671875 0 32-14.328125 32-32s-14.328125-32-32-32-32 14.328125-32 32 14.328125 32 32 32zm0-48c8.835938 0 16 7.164062 16 16s-7.164062 16-16 16-16-7.164062-16-16 7.164062-16 16-16zm0 0"/><path d="m472 48h-8v-8c0-4.417969-3.582031-8-8-8s-8 3.582031-8 8v8h-8c-4.417969 0-8 3.582031-8 8s3.582031 8 8 8h8v8c0 4.417969 3.582031 8 8 8s8-3.582031 8-8v-8h8c4.417969 0 8-3.582031 8-8s-3.582031-8-8-8zm0 0"/><path d="m400 112c0-17.671875-14.328125-32-32-32s-32 14.328125-32 32 14.328125 32 32 32 32-14.328125 32-32zm-48 0c0-8.835938 7.164062-16 16-16s16 7.164062 16 16-7.164062 16-16 16-16-7.164062-16-16zm0 0"/><path d="m264 0c-4.417969 0-8 3.582031-8 8v8h-8c-4.417969 0-8 3.582031-8 8s3.582031 8 8 8h8v8c0 4.417969 3.582031 8 8 8s8-3.582031 8-8v-8h8c4.417969 0 8-3.582031 8-8s-3.582031-8-8-8h-8v-8c0-4.417969-3.582031-8-8-8zm0 0"/></svg>