<svg height="480pt" viewBox="-56 0 480 480" width="480pt" xmlns="http://www.w3.org/2000/svg"><path d="m8 480h352c4.417969 0 8-3.582031 8-8v-464c0-4.417969-3.582031-8-8-8h-352c-4.417969 0-8 3.582031-8 8v464c0 4.417969 3.582031 8 8 8zm344-368v320h-336v-320zm-336 352v-16h336v16zm336-368h-224v-80h224zm-336-80h96v80h-96zm0 0"/><path d="m240 80h88c4.417969 0 8-3.582031 8-8v-32c0-4.417969-3.582031-8-8-8h-88c-4.417969 0-8 3.582031-8 8v32c0 4.417969 3.582031 8 8 8zm8-32h72v16h-72zm0 0"/><path d="m200 56c0 8.835938-7.164062 16-16 16s-16-7.164062-16-16 7.164062-16 16-16 16 7.164062 16 16zm0 0"/><path d="m184 384c61.855469 0 112-50.144531 112-112s-50.144531-112-112-112-112 50.144531-112 112c.066406 61.828125 50.171875 111.933594 112 112zm0-208c53.019531 0 96 42.980469 96 96s-42.980469 96-96 96-96-42.980469-96-96c.058594-52.996094 43.003906-95.941406 96-96zm0 0"/><path d="m184 352c44.183594 0 80-35.816406 80-80s-35.816406-80-80-80-80 35.816406-80 80c.046875 44.164062 35.835938 79.953125 80 80zm0-144c35.347656 0 64 28.652344 64 64s-28.652344 64-64 64-64-28.652344-64-64c.039062-35.328125 28.671875-63.960938 64-64zm0 0"/><path d="m88 48h-48c-4.417969 0-8 3.582031-8 8s3.582031 8 8 8h48c4.417969 0 8-3.582031 8-8s-3.582031-8-8-8zm0 0"/></svg>