<svg height="480pt" viewBox="0 0 480 480" width="480pt" xmlns="http://www.w3.org/2000/svg"><path d="m240 0c-132.546875 0-240 107.453125-240 240s107.453125 240 240 240 240-107.453125 240-240c-.148438-132.484375-107.515625-239.851562-240-240zm0 464c-123.710938 0-224-100.289062-224-224s100.289062-224 224-224 224 100.289062 224 224c-.140625 123.652344-100.347656 223.859375-224 224zm0 0"/><path d="m313.71875 177.601562 27.9375-27.9375c3.03125-3.140624 2.988281-8.128906-.097656-11.214843-3.085938-3.085938-8.074219-3.128907-11.214844-.097657l-30.558594 30.558594c-18.167968-10.621094-38.746094-16.441406-59.785156-16.910156-69.488281 0-124.121094 72.144531-126.398438 75.199219-2.136718 2.84375-2.136718 6.757812 0 9.601562 17.359376 22.15625 38.515626 41.054688 62.476563 55.824219l-37.726563 37.734375c-2.078124 2.007813-2.914062 4.984375-2.179687 7.78125.730469 2.796875 2.914063 4.980469 5.710937 5.714844 2.796876.730469 5.773438-.105469 7.78125-2.183594l41.183594-41.183594c15.359375 7.347657 32.128906 11.277344 49.152344 11.511719 69.488281 0 124.121094-72.144531 126.398438-75.199219 2.136718-2.84375 2.136718-6.757812 0-9.601562-14.976563-19.074219-32.734376-35.796875-52.679688-49.597657zm-183.4375 54.398438c13.109375-15.609375 57.949219-64 109.71875-64 16.746094.382812 33.15625 4.769531 47.855469 12.800781l-21.398438 21.398438c-15.734375-14.207031-39.839843-13.589844-54.828125 1.398437-14.988281 14.988282-15.601562 39.09375-1.398437 54.828125l-22.398438 22.398438c-21.824219-12.878907-41.289062-29.390625-57.550781-48.824219zm133.71875 0c.078125 7.132812-3.054688 13.921875-8.535156 18.492188-5.476563 4.566406-12.71875 6.433593-19.722656 5.074218l27.824218-27.824218c.273438 1.40625.417969 2.828124.433594 4.257812zm-48 0c0-13.253906 10.746094-24 24-24 5.542969.023438 10.902344 1.980469 15.152344 5.535156l-33.601563 33.601563c-3.554687-4.246094-5.519531-9.597657-5.550781-15.136719zm24 64c-12.703125-.164062-25.25-2.789062-36.953125-7.734375l20.152344-20.113281c5.25 2.503906 10.984375 3.816406 16.800781 3.847656 22.082031-.027344 39.972656-17.917969 40-40-.023438-5.828125-1.339844-11.578125-3.847656-16.839844l25.992187-25.992187c17.765625 12.003906 33.777344 26.417969 47.574219 42.832031-13.109375 15.609375-57.949219 64-109.71875 64zm0 0"/></svg>