<svg height="480pt" viewBox="0 0 480 480" width="480pt" xmlns="http://www.w3.org/2000/svg"><path d="m240 0c-132.546875 0-240 107.453125-240 240s107.453125 240 240 240 240-107.453125 240-240c-.148438-132.484375-107.515625-239.851562-240-240zm0 464c-123.710938 0-224-100.289062-224-224s100.289062-224 224-224 224 100.289062 224 224c-.140625 123.652344-100.347656 223.859375-224 224zm0 0"/><path d="m328 144h-176c-13.253906 0-24 10.746094-24 24v160c0 4.417969 3.582031 8 8 8h208c4.417969 0 8-3.582031 8-8v-160c0-13.253906-10.746094-24-24-24zm-176 16h176c4.417969 0 8 3.582031 8 8v24h-192v-24c0-4.417969 3.582031-8 8-8zm-8 160v-112h48v112zm64 0v-112h128v112zm0 0"/><path d="m328 176c0 4.417969-3.582031 8-8 8s-8-3.582031-8-8 3.582031-8 8-8 8 3.582031 8 8zm0 0"/><path d="m304 176c0 4.417969-3.582031 8-8 8s-8-3.582031-8-8 3.582031-8 8-8 8 3.582031 8 8zm0 0"/><path d="m280 176c0 4.417969-3.582031 8-8 8s-8-3.582031-8-8 3.582031-8 8-8 8 3.582031 8 8zm0 0"/></svg>