<!DOCTYPE svg PUBLIC "-//W3C//DTD SVG 1.1//EN" "https://www.w3.org/Graphics/SVG/1.1/DTD/svg11.dtd">
<svg version="1.1" xmlns="http://www.w3.org/2000/svg" xmlns:xlink="http://www.w3.org/1999/xlink" x="0px" y="0px"
	 viewBox="0 0 487.866 487.866" style="enable-background:new 0 0 487.866 487.866;" xml:space="preserve">
<path d="M482.866,94.022H340.24c-11.513-8.147-25.547-12.957-40.691-12.965c-0.017,0-0.033-0.001-0.05-0.001h-50.566v-6.78
	c0-11.228,6.238-21.321,16.28-26.342l25.053-12.526c2.47-1.234,3.471-4.238,2.236-6.708c-1.235-2.471-4.241-3.474-6.708-2.235
	L260.741,38.99c-13.452,6.726-21.808,20.246-21.808,35.286v6.78h-50.571c-0.01,0-0.021,0-0.031,0
	c-15.149,0.005-29.188,4.815-40.704,12.965H5c-2.761,0-5,2.238-5,5v290.656v67.254c0,2.762,2.239,5,5,5h477.866c2.761,0,5-2.238,5-5
	v-67.254V99.022C487.866,96.26,485.627,94.022,482.866,94.022z M278.064,91.056c-5.736,5.253-9.058,11.551-11.984,17.108
	c-2.174,4.13-4.229,8.031-6.943,10.938c-2.827,3.025-6.301,5.044-10.203,6.012V91.056H278.064z M238.933,125.115
	c-3.902-0.968-7.376-2.987-10.203-6.012c-1.885-2.02-5.049-2.125-7.067-0.24c-2.018,1.885-2.125,5.049-0.24,7.066
	c5.902,6.318,13.661,9.725,22.438,9.852c0.024,0.001,0.048,0.001,0.072,0.001s0.048,0,0.072-0.001
	c8.776-0.127,16.535-3.533,22.438-9.852c3.631-3.888,6.099-8.574,8.485-13.106c4.991-9.48,9.715-18.436,25.071-21.754
	c33.238,0.264,60.2,27.375,60.2,60.673v70.336c0,39.868-32.348,72.303-72.11,72.303c-5.073,0-10.199-0.544-15.234-1.617
	l-20.695-4.412c-2.699-0.576-5.466-0.867-8.226-0.867s-5.527,0.291-8.226,0.867l-20.695,4.412
	c-5.035,1.073-10.161,1.617-15.234,1.617c-18.986,0.001-36.966-7.414-50.626-20.878c-13.854-13.654-21.484-31.918-21.484-51.425
	v-70.336c0-33.299,26.961-60.409,60.199-60.673c8.255,1.779,14.006,5.192,18.582,11.033c0.986,1.259,2.455,1.916,3.939,1.916
	c1.079,0,2.166-0.348,3.081-1.064c2.173-1.703,2.555-4.846,0.852-7.02c-1.402-1.79-2.902-3.407-4.503-4.877h29.116V125.115z
	 M136.259,104.022c-11.537,12.584-18.592,29.342-18.592,47.72v70.336c0,22.206,8.688,42.998,24.464,58.547
	c15.543,15.32,36.016,23.757,57.646,23.756c5.773,0,11.601-0.618,17.319-1.838l20.695-4.412c4.03-0.857,8.252-0.857,12.282,0
	l20.695,4.412c5.72,1.22,11.547,1.838,17.319,1.838c45.275,0,82.11-36.921,82.11-82.303v-70.336c0-18.378-7.054-35.135-18.592-47.72
	h126.259v243.06h-9.063c-2.761,0-5,2.238-5,5s2.239,5,5,5h9.063v27.597H10v-27.597h428.784c2.761,0,5-2.238,5-5s-2.239-5-5-5H10
	v-243.06H136.259z M477.866,451.932H10v-57.254h467.866V451.932z M98.866,443.564h358.4c2.761,0,5-2.238,5-5v-25.605
	c0-2.762-2.239-5-5-5h-358.4c-2.761,0-5,2.238-5,5v25.605C93.866,441.326,96.105,443.564,98.866,443.564z M103.866,417.959h348.4
	v15.605h-348.4V417.959z M56.2,443.564c10.224,0,18.542-8.318,18.542-18.542S66.423,406.48,56.2,406.48s-18.542,8.318-18.542,18.542
	S45.976,443.564,56.2,443.564z M56.2,416.48c4.71,0,8.542,3.832,8.542,8.542s-3.832,8.542-8.542,8.542s-8.542-3.832-8.542-8.542
	S51.49,416.48,56.2,416.48z"/>
<g>
</g>
<g>
</g>
<g>
</g>
<g>
</g>
<g>
</g>
<g>
</g>
<g>
</g>
<g>
</g>
<g>
</g>
<g>
</g>
<g>
</g>
<g>
</g>
<g>
</g>
<g>
</g>
<g>
</g>
</svg>
