<!DOCTYPE svg PUBLIC "-//W3C//DTD SVG 1.1//EN" "https://www.w3.org/Graphics/SVG/1.1/DTD/svg11.dtd" [
	<!ENTITY ns_extend "http://ns.adobe.com/Extensibility/1.0/">
	<!ENTITY ns_ai "http://ns.adobe.com/AdobeIllustrator/10.0/">
	<!ENTITY ns_graphs "http://ns.adobe.com/Graphs/1.0/">
	<!ENTITY ns_vars "http://ns.adobe.com/Variables/1.0/">
	<!ENTITY ns_imrep "http://ns.adobe.com/ImageReplacement/1.0/">
	<!ENTITY ns_sfw "http://ns.adobe.com/SaveForWeb/1.0/">
	<!ENTITY ns_custom "http://ns.adobe.com/GenericCustomNamespace/1.0/">
	<!ENTITY ns_adobe_xpath "http://ns.adobe.com/XPath/1.0/">
]>
<svg version="1.1" xmlns:x="&ns_extend;" xmlns:i="&ns_ai;" xmlns:graph="&ns_graphs;"
	 xmlns="http://www.w3.org/2000/svg" xmlns:xlink="http://www.w3.org/1999/xlink" x="0px" y="0px" width="47.4px" height="28.1px"
	 viewBox="0 0 47.4 28.1" style="enable-background:new 0 0 47.4 28.1;" xml:space="preserve">
<style>
	.st0-arrow-left{fill-rule:evenodd;clip-rule:evenodd;}
</style>
<metadata>
	<sfw  xmlns="&ns_sfw;">
		<slices></slices>
		<sliceSourceBounds  bottomLeftOrigin="true" height="26.7" width="44.9" x="1.2" y="0.8"></sliceSourceBounds>
	</sfw>
</metadata>
<path class="st0-arrow-left" d="M1.7,15l13.8,12c0.6,0.5,1.6,0.5,2.1-0.2l0,0c0.6-0.6,0.6-1.5-0.1-2.1L6.9,15.5h37.7
	c0.8,0,1.5-0.7,1.5-1.5s-0.7-1.5-1.5-1.5H6.5l6-5.4l4.7-3.7c0.7-0.5,0.8-1.5,0.3-2.1C17,0.6,16,0.5,15.4,1l-4.8,3.8l-8.9,8
	c-0.3,0.2-0.5,0.7-0.5,1.1S1.4,14.8,1.7,15z"/>
</svg>
