<svg version="1.1" xmlns="http://www.w3.org/2000/svg" xmlns:xlink="http://www.w3.org/1999/xlink" x="0px" y="0px"
	 viewBox="0 0 487.866 487.866" style="enable-background:new 0 0 487.866 487.866;" xml:space="preserve">
<path d="M418.017,0h-72.255h-10.019H49.85c-2.762,0-5,2.239-5,5v477.866c0,2.761,2.238,5,5,5h285.894h10.019h72.255
	c13.785,0,25-11.215,25-25V25C443.017,11.215,431.802,0,418.017,0z M335.743,477.866H88.857v-9.063c0-2.761-2.238-5-5-5
	s-5,2.239-5,5v9.063H54.85V10h24.008v428.784c0,2.761,2.238,5,5,5s5-2.239,5-5V10h246.886h10.019c11.028,0,20,8.972,20,20v427.866
	c0,11.028-8.972,20-20,20H335.743z M433.017,462.866c0,8.271-6.729,15-15,15h-49.918c4.761-5.312,7.663-12.322,7.663-20V30
	c0-7.678-2.902-14.688-7.663-20h49.918c8.271,0,15,6.729,15,15V462.866z M402.174,25.776V462.09c0,2.761-2.238,5-5,5s-5-2.239-5-5
	V25.776c0-2.761,2.238-5,5-5S402.174,23.015,402.174,25.776z M419.407,25.776V462.09c0,2.761-2.238,5-5,5s-5-2.239-5-5V25.776
	c0-2.761,2.238-5,5-5S419.407,23.015,419.407,25.776z M321.414,68.268H122.313c-2.762,0-5,2.239-5,5v119.459c0,2.761,2.238,5,5,5
	h199.101c2.762,0,5-2.239,5-5V73.268C326.414,70.507,324.176,68.268,321.414,68.268z M316.414,187.727H127.313V78.268h189.101
	V187.727z"/>
<g>
</g>
<g>
</g>
<g>
</g>
<g>
</g>
<g>
</g>
<g>
</g>
<g>
</g>
<g>
</g>
<g>
</g>
<g>
</g>
<g>
</g>
<g>
</g>
<g>
</g>
<g>
</g>
<g>
</g>
</svg>
