<svg version="1.1" xmlns="http://www.w3.org/2000/svg" xmlns:xlink="http://www.w3.org/1999/xlink" x="0px" y="0px"
	 viewBox="0 0 487.867 487.867" style="enable-background:new 0 0 487.867 487.867;" xml:space="preserve">
<path d="M482.867,102.737h-14.171v-9.333c0-2.762-2.238-5-5-5H298.433c-24.313,0-45.256,14.651-54.5,35.582
	c-9.244-20.931-30.188-35.582-54.5-35.582H24.17c-2.761,0-5,2.238-5,5v9.333H5c-2.761,0-5,2.239-5,5v275.519c0,2.761,2.239,5,5,5
	h216.004c3.313,7.031,13.398,11.207,22.872,11.207c11.128,0,20.04-4.566,23.032-11.207h215.958c2.762,0,5-2.239,5-5V107.737
	C487.867,104.976,485.628,102.737,482.867,102.737z M29.17,327.773h153.013c22.881,0,43.8,13.011,54.138,33.023H29.17V327.773z
	 M305.683,327.773h153.013v33.023H251.545C261.883,340.784,282.802,327.773,305.683,327.773z M458.696,98.404v219.369H305.683
	c-6.348,0-12.567,0.861-18.521,2.486V99.712c3.623-0.846,7.393-1.308,11.271-1.308H458.696z M277.163,103.21v220.607
	c-11.089,4.902-20.831,12.587-28.173,22.325V147.96c0-0.749-0.029-1.49-0.057-2.232C249.77,126.963,261.087,110.881,277.163,103.21z
	 M29.17,98.404h160.263c3.878,0,7.647,0.462,11.271,1.308v177.503c0,2.761,2.239,5,5,5s5-2.239,5-5V103.21
	c16.081,7.675,27.4,23.765,28.229,42.538c-0.027,0.735-0.056,1.471-0.056,2.213v198.184c-7.342-9.739-17.084-17.425-28.173-22.327
	v-12.98c0-2.761-2.239-5-5-5s-5,2.239-5,5v9.423c-5.953-1.625-12.172-2.486-18.521-2.486H29.17V98.404z M477.867,378.256H262.992
	c-2.762,0-5,2.239-5,5c0,2.531-5.498,6.207-14.115,6.207c-8.089,0-14.002-4.082-14.002-6.207c0-2.761-2.239-5-5-5H10V112.737h9.17
	v210.036v43.023c0,2.761,2.239,5,5,5h219.704c0.002,0,0.004,0,0.005,0c0.002,0,0.004,0,0.006,0h0.094c0.002,0,0.004,0,0.006,0
	c0.002,0,0.004,0,0.005,0h219.704c2.762,0,5-2.239,5-5v-43.023V112.737h9.171V378.256z M191.645,343.688c0,2.761-2.239,5-5,5H43.285
	c-2.761,0-5-2.239-5-5s2.239-5,5-5h143.36C189.406,338.688,191.645,340.927,191.645,343.688z M298.297,343.688c0-2.761,2.238-5,5-5
	h143.359c2.762,0,5,2.239,5,5s-2.238,5-5,5H303.297C300.536,348.688,298.297,346.45,298.297,343.688z"/>
<g>
</g>
<g>
</g>
<g>
</g>
<g>
</g>
<g>
</g>
<g>
</g>
<g>
</g>
<g>
</g>
<g>
</g>
<g>
</g>
<g>
</g>
<g>
</g>
<g>
</g>
<g>
</g>
<g>
</g>
</svg>
