<!DOCTYPE svg PUBLIC "-//W3C//DTD SVG 1.1//EN" "https://www.w3.org/Graphics/SVG/1.1/DTD/svg11.dtd">
<svg version="1.1" xmlns="http://www.w3.org/2000/svg" xmlns:xlink="http://www.w3.org/1999/xlink" x="0px" y="0px"
	 viewBox="0 0 486.557 486.557" style="enable-background:new 0 0 486.557 486.557;" xml:space="preserve">
<path d="M405.901,47.659H185.694V5c0-2.762-2.239-5-5-5h-64.335c-2.761,0-5,2.238-5,5v42.659H80.655
	c-15.074,0-27.338,12.264-27.338,27.339v384.22c0,15.074,12.264,27.339,27.338,27.339h267.167h58.079
	c15.074,0,27.339-12.265,27.339-27.339V74.998C433.24,59.923,420.976,47.659,405.901,47.659z M423.24,74.998v134.689H238.747V57.659
	h167.154C415.462,57.659,423.24,65.438,423.24,74.998z M121.359,10h54.335v80.549h-54.335V10z M405.901,476.557h-58.079H80.655
	c-9.561,0-17.338-7.778-17.338-17.339V74.998c0-7.822,5.209-14.445,12.338-16.597v372.234c0,15.074,12.264,27.339,27.338,27.339
	h279.975c15.074,0,27.338-12.265,27.338-27.339v-6.261c0-2.762-2.238-5-5-5s-5,2.238-5,5v6.261c0,9.561-7.777,17.339-17.338,17.339
	H102.993c-9.561,0-17.338-7.778-17.338-17.339V57.659h25.704v32.89h-7.733c-2.761,0-5,2.238-5,5s2.239,5,5,5h12.733h64.335h11.616
	c2.761,0,5-2.238,5-5s-2.239-5-5-5h-6.616v-32.89h43.053v157.028c0,2.762,2.239,5,5,5h166.559v171.158c0,2.762,2.238,5,5,5
	s5-2.238,5-5V219.688h12.935v239.53C423.24,468.778,415.462,476.557,405.901,476.557z M275.577,244.746
	c-16.003,0-29.021,13.019-29.021,29.021s13.019,29.022,29.021,29.022s29.022-13.02,29.022-29.022S291.58,244.746,275.577,244.746z
	 M275.577,292.79c-10.488,0-19.021-8.533-19.021-19.022c0-10.488,8.533-19.021,19.021-19.021c10.489,0,19.022,8.533,19.022,19.021
	C294.6,284.257,286.066,292.79,275.577,292.79z M145.088,309.565c-16.003,0-29.022,13.02-29.022,29.022s13.019,29.021,29.022,29.021
	s29.022-13.019,29.022-29.021S161.091,309.565,145.088,309.565z M145.088,357.609c-10.489,0-19.022-8.533-19.022-19.021
	c0-10.489,8.533-19.022,19.022-19.022s19.022,8.533,19.022,19.022C164.11,349.076,155.577,357.609,145.088,357.609z
	 M145.088,374.385c-16.003,0-29.022,13.02-29.022,29.022s13.019,29.021,29.022,29.021s29.022-13.019,29.022-29.021
	S161.091,374.385,145.088,374.385z M145.088,422.429c-10.489,0-19.022-8.533-19.022-19.021c0-10.489,8.533-19.022,19.022-19.022
	s19.022,8.533,19.022,19.022C164.11,413.896,155.577,422.429,145.088,422.429z M275.577,374.385
	c-16.003,0-29.021,13.02-29.021,29.022s13.019,29.021,29.021,29.021S304.6,419.41,304.6,403.407S291.58,374.385,275.577,374.385z
	 M275.577,422.429c-10.488,0-19.021-8.533-19.021-19.021c0-10.489,8.533-19.022,19.021-19.022c10.489,0,19.022,8.533,19.022,19.022
	C294.6,413.896,286.066,422.429,275.577,422.429z M275.577,309.565c-16.003,0-29.021,13.02-29.021,29.022
	s13.019,29.021,29.021,29.021s29.022-13.019,29.022-29.021S291.58,309.565,275.577,309.565z M275.577,357.609
	c-10.488,0-19.021-8.533-19.021-19.021c0-10.489,8.533-19.022,19.021-19.022c10.489,0,19.022,8.533,19.022,19.022
	C294.6,349.076,286.066,357.609,275.577,357.609z M341.468,244.746c-16.003,0-29.021,13.019-29.021,29.021
	s13.019,29.022,29.021,29.022s29.022-13.02,29.022-29.022S357.471,244.746,341.468,244.746z M341.468,292.79
	c-10.488,0-19.021-8.533-19.021-19.022c0-10.488,8.533-19.021,19.021-19.021c10.489,0,19.022,8.533,19.022,19.021
	C360.49,284.257,351.957,292.79,341.468,292.79z M211.329,244.746c-16.003,0-29.022,13.019-29.022,29.021
	s13.019,29.022,29.022,29.022s29.022-13.02,29.022-29.022S227.332,244.746,211.329,244.746z M211.329,292.79
	c-10.489,0-19.022-8.533-19.022-19.022c0-10.488,8.533-19.021,19.022-19.021s19.022,8.533,19.022,19.021
	C230.351,284.257,221.817,292.79,211.329,292.79z M341.468,309.565c-16.003,0-29.021,13.02-29.021,29.022
	s13.019,29.021,29.021,29.021s29.022-13.019,29.022-29.021S357.471,309.565,341.468,309.565z M341.468,357.609
	c-10.488,0-19.021-8.533-19.021-19.021c0-10.489,8.533-19.022,19.021-19.022c10.489,0,19.022,8.533,19.022,19.022
	C360.49,349.076,351.957,357.609,341.468,357.609z M211.329,309.565c-16.003,0-29.022,13.02-29.022,29.022
	s13.019,29.021,29.022,29.021s29.022-13.019,29.022-29.021S227.332,309.565,211.329,309.565z M211.329,357.609
	c-10.489,0-19.022-8.533-19.022-19.021c0-10.489,8.533-19.022,19.022-19.022s19.022,8.533,19.022,19.022
	C230.351,349.076,221.817,357.609,211.329,357.609z M211.329,374.385c-16.003,0-29.022,13.02-29.022,29.022
	s13.019,29.021,29.022,29.021s29.022-13.019,29.022-29.021S227.332,374.385,211.329,374.385z M211.329,422.429
	c-10.489,0-19.022-8.533-19.022-19.021c0-10.489,8.533-19.022,19.022-19.022s19.022,8.533,19.022,19.022
	C230.351,413.896,221.817,422.429,211.329,422.429z M145.088,244.746c-16.003,0-29.022,13.019-29.022,29.021
	s13.019,29.022,29.022,29.022s29.022-13.02,29.022-29.022S161.091,244.746,145.088,244.746z M145.088,292.79
	c-10.489,0-19.022-8.533-19.022-19.022c0-10.488,8.533-19.021,19.022-19.021s19.022,8.533,19.022,19.021
	C164.11,284.257,155.577,292.79,145.088,292.79z M341.468,374.385c-16.003,0-29.021,13.02-29.021,29.022
	s13.019,29.021,29.021,29.021s29.022-13.019,29.022-29.021S357.471,374.385,341.468,374.385z M341.468,422.429
	c-10.488,0-19.021-8.533-19.021-19.021c0-10.489,8.533-19.022,19.021-19.022c10.489,0,19.022,8.533,19.022,19.022
	C360.49,413.896,351.957,422.429,341.468,422.429z M262.341,189.02h139.257c2.762,0,5-2.238,5-5v-72.113c0-2.762-2.238-5-5-5
	H262.341c-2.762,0-5,2.238-5,5v72.113C257.341,186.781,259.579,189.02,262.341,189.02z M267.341,116.906h129.257v62.113H267.341
	V116.906z M172.03,79.392c0,2.762-2.239,5-5,5h-35.071c-2.761,0-5-2.238-5-5s2.239-5,5-5h35.071
	C169.791,74.392,172.03,76.63,172.03,79.392z M172.03,65.243c0,2.762-2.239,5-5,5h-35.071c-2.761,0-5-2.238-5-5s2.239-5,5-5h35.071
	C169.791,60.243,172.03,62.481,172.03,65.243z M172.03,29.502c0,2.762-2.239,5-5,5h-35.071c-2.761,0-5-2.238-5-5s2.239-5,5-5h35.071
	C169.791,24.502,172.03,26.74,172.03,29.502z"/>
<g>
</g>
<g>
</g>
<g>
</g>
<g>
</g>
<g>
</g>
<g>
</g>
<g>
</g>
<g>
</g>
<g>
</g>
<g>
</g>
<g>
</g>
<g>
</g>
<g>
</g>
<g>
</g>
<g>
</g>
</svg>
