<svg version="1.1" xmlns="http://www.w3.org/2000/svg" xmlns:xlink="http://www.w3.org/1999/xlink" x="0px" y="0px"
	 viewBox="0 0 490.594 490.594" style="enable-background:new 0 0 490.594 490.594;" xml:space="preserve">
<path d="M407.293,0H83.301c-2.762,0-5,2.239-5,5v480.594c0,1.71,0.874,3.301,2.316,4.219c1.442,0.918,3.255,1.034,4.803,0.31
	l159.462-74.617l160.301,74.621c0.672,0.313,1.392,0.467,2.11,0.467c0.938,0,1.872-0.264,2.688-0.784
	c1.44-0.918,2.313-2.508,2.313-4.216V5C412.293,2.239,410.055,0,407.293,0z M246.987,405.455c-0.669-0.312-1.39-0.467-2.11-0.467
	c-0.724,0-1.448,0.157-2.119,0.471L88.301,477.734V55.057h27.906c2.762,0,5-2.238,5-5c0-2.761-2.238-5-5-5H88.301V10h313.992v35.057
	H154.199c-2.762,0-5,2.239-5,5c0,2.762,2.238,5,5,5h248.095v422.694L246.987,405.455z M332.9,195.242l-59.657,0l-18.435-56.736
	c-1.364-4.198-5.097-6.91-9.511-6.91s-8.146,2.712-9.51,6.91l-18.436,56.737h-59.657c-4.413,0-8.146,2.712-9.511,6.91
	c-1.363,4.198,0.063,8.586,3.634,11.18l48.263,35.065l-18.435,56.737c-1.004,3.087-0.5,6.343,1.382,8.933
	c1.902,2.618,4.947,4.18,8.146,4.18c2.094,0,4.12-0.668,5.859-1.932l48.264-35.065l48.264,35.065c1.74,1.264,3.767,1.933,5.86,1.932
	c3.199,0,6.244-1.563,8.146-4.181c1.882-2.59,2.386-5.845,1.382-8.932l-18.436-56.737l48.264-35.065
	c3.571-2.594,4.997-6.982,3.634-11.18C341.046,197.954,337.313,195.242,332.9,195.242z M284.635,240.308
	c-3.516,2.555-4.975,7.048-3.631,11.18l18.428,56.732l-48.257-35.061c-1.72-1.25-3.752-1.91-5.878-1.91s-4.158,0.66-5.877,1.91
	l-48.262,35.058l18.432-56.729c1.344-4.133-0.115-8.626-3.632-11.182l-48.255-35.065h59.648c4.347,0,8.168-2.777,9.51-6.91
	l18.438-56.729l18.433,56.728c1.343,4.134,5.164,6.911,9.511,6.911l59.65,0.005L284.635,240.308z"/>
<g>
</g>
<g>
</g>
<g>
</g>
<g>
</g>
<g>
</g>
<g>
</g>
<g>
</g>
<g>
</g>
<g>
</g>
<g>
</g>
<g>
</g>
<g>
</g>
<g>
</g>
<g>
</g>
<g>
</g>
</svg>
