<svg version="1.1" xmlns="http://www.w3.org/2000/svg" xmlns:xlink="http://www.w3.org/1999/xlink" x="0px" y="0px"
	 viewBox="0 0 481.512 481.512" style="enable-background:new 0 0 481.512 481.512;" xml:space="preserve">
<path d="M464.729,447.945h-84.335V74.07c0-40.842-33.228-74.07-74.069-74.07H85.854c-40.843,0-74.07,33.228-74.07,74.07v402.442
	c0,2.761,2.238,5,5,5h447.945c2.762,0,5-2.239,5-5v-23.566C469.729,450.184,467.49,447.945,464.729,447.945z M459.729,471.512
	H21.783V74.07c0-35.328,28.742-64.07,64.07-64.07h220.471c35.328,0,64.069,28.742,64.069,64.07v378.875c0,2.761,2.238,5,5,5h84.335
	V471.512z M351.845,452.956c0,2.761-2.238,5-5,5h-11.787c-2.762,0-5-2.239-5-5s2.238-5,5-5h11.787
	C349.606,447.956,351.845,450.195,351.845,452.956z M293.59,447.956h-24.261v-230.76c0-20.236-7.88-39.252-22.184-53.541
	c-14.293-14.308-33.309-22.187-53.544-22.187c-41.756,0-75.728,33.971-75.728,75.728v230.76H40.359c-2.762,0-5,2.239-5,5
	s2.238,5,5,5h253.23c2.762,0,5-2.239,5-5S296.352,447.956,293.59,447.956z M127.874,217.196c0-36.242,29.485-65.728,65.728-65.728
	c17.563,0,34.065,6.838,46.474,19.258c12.416,12.403,19.254,28.906,19.254,46.469v230.749H127.874V217.196z M65.089,394.354V112.753
	c0-2.761,2.238-5,5-5s5,2.239,5,5v281.601c0,2.761-2.238,5-5,5S65.089,397.115,65.089,394.354z M331.089,394.354
	c0,2.761-2.238,5-5,5s-5-2.239-5-5V112.753c0-2.761,2.238-5,5-5s5,2.239,5,5V394.354z"/>
<g>
</g>
<g>
</g>
<g>
</g>
<g>
</g>
<g>
</g>
<g>
</g>
<g>
</g>
<g>
</g>
<g>
</g>
<g>
</g>
<g>
</g>
<g>
</g>
<g>
</g>
<g>
</g>
<g>
</g>
</svg>
