<svg version="1.1" xmlns="http://www.w3.org/2000/svg" xmlns:xlink="http://www.w3.org/1999/xlink" x="0px" y="0px"
	 viewBox="0 0 487.866 487.866" style="enable-background:new 0 0 487.866 487.866;" xml:space="preserve">
<path d="M470.907,111.593V90.038c0-1.444-0.624-2.817-1.712-3.767s-2.531-1.382-3.964-1.187l-26.163,3.568V68.812
	c0-1.551-0.719-3.013-1.947-3.96s-2.827-1.269-4.325-0.875l-196.962,51.839c-0.894-0.839-2.089-1.363-3.412-1.363H17.437
	C7.822,114.453,0,122.275,0,131.89v274.727c0,9.615,7.822,17.437,17.437,17.437H232.41c0.002,0,0.003,0,0.005,0
	c0.002,0,0.005,0,0.007,0h238.007c9.615,0,17.437-7.822,17.437-17.437V129.006C487.866,119.553,480.3,111.85,470.907,111.593z
	 M460.907,95.766v287.078l-147.914,20.174l122.348-32.201c2.197-0.578,3.728-2.564,3.728-4.835V98.745L460.907,95.766z
	 M429.068,362.127l-191.647,50.44V125.738l191.647-50.44V362.127z M10,406.617V131.89c0-4.101,3.336-7.437,7.437-7.437h188.758
	v239.935c0,2.761,2.239,5,5,5s5-2.239,5-5V124.453h11.226v289.601h-11.285c0.023-0.195,0.059-0.385,0.059-0.586v-17.079
	c0-2.761-2.239-5-5-5s-5,2.239-5,5v17.079c0,0.201,0.036,0.392,0.059,0.586H17.437C13.336,414.054,10,410.717,10,406.617z
	 M477.866,406.617c0,4.101-3.336,7.437-7.437,7.437H306.078l160.505-21.892c2.477-0.338,4.324-2.454,4.324-4.954V121.593
	c3.878,0.248,6.959,3.474,6.959,7.413V406.617z M263.043,186.298c-0.74-2.66,0.816-5.417,3.477-6.157l130.77-36.377
	c2.658-0.74,5.417,0.816,6.157,3.477c0.74,2.66-0.816,5.417-3.477,6.157L269.2,189.775c-0.448,0.125-0.899,0.185-1.343,0.185
	C265.668,189.96,263.658,188.51,263.043,186.298z M382.788,189.381c0.74,2.66-0.816,5.417-3.477,6.157l-90.969,25.306
	c-0.448,0.125-0.899,0.185-1.343,0.185c-2.189,0-4.199-1.449-4.814-3.662c-0.74-2.66,0.816-5.417,3.477-6.157l90.969-25.306
	C379.288,185.164,382.048,186.721,382.788,189.381z"/>
<g>
</g>
<g>
</g>
<g>
</g>
<g>
</g>
<g>
</g>
<g>
</g>
<g>
</g>
<g>
</g>
<g>
</g>
<g>
</g>
<g>
</g>
<g>
</g>
<g>
</g>
<g>
</g>
<g>
</g>
</svg>
