<svg version="1.1" xmlns="http://www.w3.org/2000/svg" xmlns:xlink="http://www.w3.org/1999/xlink" x="0px" y="0px"
	 viewBox="0 0 488.088 488.088" style="enable-background:new 0 0 488.088 488.088;" xml:space="preserve">
<path d="M213.362,488.088c-2.762,0-5-2.239-5-5v-17.077c0-2.761,2.238-5,5-5s5,2.239,5,5v17.077
	C218.362,485.849,216.124,488.088,213.362,488.088z M218.362,435.992V84.682c0-1.085-0.353-2.141-1.006-3.008L157.358,1.992
	C156.414,0.738,154.935,0,153.364,0H64.01c-2.762,0-5,2.239-5,5s2.238,5,5,5h86.86l57.492,76.354v349.639c0,2.761,2.238,5,5,5
	S218.362,438.753,218.362,435.992z M439.085,483.088c0-2.761-2.238-5-5-5H59.003V5c0-2.761-2.238-5-5-5s-5,2.239-5,5v478.088
	c0,2.761,2.238,5,5,5h380.082C436.847,488.088,439.085,485.849,439.085,483.088z M439.085,483.088V84.682
	c0-1.307-0.512-2.562-1.425-3.496L359.745,1.504C358.804,0.542,357.516,0,356.17,0H54.003c-2.762,0-5,2.239-5,5s2.238,5,5,5h300.063
	l75.019,76.72v396.368c0,2.761,2.238,5,5,5S439.085,485.849,439.085,483.088z M439.085,84.682c0-2.761-2.238-5-5-5H213.362
	c-2.762,0-5,2.239-5,5s2.238,5,5,5h220.723C436.847,89.682,439.085,87.443,439.085,84.682z M399.143,88.59
	c2.158-1.722,2.513-4.868,0.79-7.027l-21.189-26.561c-0.948-1.189-2.387-1.882-3.908-1.882h-142.79c-1.92,0-3.671,1.1-4.504,2.829
	c-0.834,1.73-0.604,3.784,0.593,5.286l21.157,26.561c1.721,2.161,4.867,2.515,7.026,0.796c2.16-1.721,2.517-4.867,0.796-7.026
	L242.42,63.121h130.008L392.116,87.8c0.987,1.238,2.442,1.882,3.911,1.882C397.121,89.682,398.222,89.325,399.143,88.59z
	 M280.552,273.731V169.592c0-6.064,4.934-10.998,10.998-10.998h85.483v104.217c0,2.761,2.238,5,5,5s5-2.239,5-5V153.594
	c0-2.761-2.238-5-5-5H291.55c-11.578,0-20.998,9.42-20.998,20.998v104.139c0,2.761,2.238,5,5,5S280.552,276.492,280.552,273.731z
	 M387.033,284.651v-21.84c0-2.761-2.238-5-5-5h-95.562c-8.778,0-15.92,7.142-15.92,15.92s7.142,15.92,15.92,15.92h95.562
	C384.795,289.651,387.033,287.412,387.033,284.651z M377.033,267.811v11.84h-90.562c-3.265,0-5.92-2.656-5.92-5.92
	s2.655-5.92,5.92-5.92H377.033z M299.206,262.808v-5.609c0-2.761-2.238-5-5-5s-5,2.239-5,5v5.609c0,2.761,2.238,5,5,5
	S299.206,265.569,299.206,262.808z M299.206,236.628v-82.863c0-2.761-2.238-5-5-5s-5,2.239-5,5v82.863c0,2.761,2.238,5,5,5
	S299.206,239.389,299.206,236.628z M332.832,426.649l42.823-59.581c1.094-1.523,1.244-3.53,0.389-5.199s-2.573-2.719-4.449-2.719
	h-21.066v-53.144c0-2.761-2.238-5-5-5h-33.513c-2.762,0-5,2.239-5,5v53.144h-21.066c-1.876,0-3.594,1.05-4.449,2.719
	s-0.705,3.676,0.389,5.199l42.822,59.581c0.939,1.307,2.451,2.082,4.061,2.082S331.893,427.957,332.832,426.649z M312.016,369.151
	c2.762,0,5-2.239,5-5v-53.144h23.513v53.144c0,2.761,2.238,5,5,5h16.315l-33.072,46.014L295.7,369.151H312.016z"/>
<g>
</g>
<g>
</g>
<g>
</g>
<g>
</g>
<g>
</g>
<g>
</g>
<g>
</g>
<g>
</g>
<g>
</g>
<g>
</g>
<g>
</g>
<g>
</g>
<g>
</g>
<g>
</g>
<g>
</g>
</svg>
