<svg version="1.1" xmlns="http://www.w3.org/2000/svg" xmlns:xlink="http://www.w3.org/1999/xlink" x="0px" y="0px"
	 viewBox="0 0 487.866 487.866" style="enable-background:new 0 0 487.866 487.866;" xml:space="preserve">
<path d="M425.974,0H96.026C74.448,0,56.892,17.555,56.892,39.134V444.69c0,21.748,16.166,39.783,37.111,42.742
	c0.62,0.275,1.302,0.435,2.023,0.435c0.361,0,0.712-0.042,1.052-0.115c0.99,0.068,1.985,0.115,2.991,0.115h325.905
	c2.762,0,5-2.239,5-5v-409.6V5C430.974,2.239,428.736,0,425.974,0z M420.974,10v58.267H203.509V55.524h199.709c2.762,0,5-2.239,5-5
	s-2.238-5-5-5H198.64c-0.045-0.001-0.086-0.013-0.131-0.013h-56.888c-0.045,0-0.086,0.012-0.131,0.013h-34.088c-2.762,0-5,2.239-5,5
	s2.238,5,5,5h29.219v12.742H96.026c-2.191,0-4.324-0.251-6.378-0.712V10.712C91.702,10.251,93.835,10,96.026,10H420.974z
	 M146.622,91.521h38.021c2.762,0,5-2.239,5-5s-2.238-5-5-5h-38.021V55.524h46.888v16.86c-0.051,0.287-0.089,0.58-0.089,0.882
	s0.038,0.594,0.089,0.882V199.4l-20.322-16.248c-0.912-0.73-2.018-1.095-3.122-1.095s-2.21,0.365-3.122,1.095L146.622,199.4V91.521z
	 M79.648,15.054v48.159c-7.694-5.249-12.756-14.083-12.756-24.08S71.954,20.303,79.648,15.054z M101.026,477.866V448.74
	c0-2.761-2.238-5-5-5s-5,2.239-5,5v27.863c-13.911-3.948-24.134-16.755-24.134-31.913V65.226c3.607,4.023,8.034,7.291,13.014,9.552
	c0.644,2.018,2.511,3.489,4.742,3.489c1.082,0,2.077-0.352,2.896-0.937c1.143,0.254,2.304,0.455,3.482,0.606v330.78
	c0,2.761,2.238,5,5,5s5-2.239,5-5V78.267h35.596V209.8c0,1.922,1.102,3.673,2.833,4.506c0.689,0.331,1.43,0.494,2.166,0.494
	c1.114,0,2.22-0.372,3.123-1.095l25.321-20.246l25.322,20.246c1.501,1.2,3.556,1.434,5.289,0.601
	c1.731-0.833,2.833-2.584,2.833-4.506V78.267h217.465v399.6H101.026z M102.403,27.756c0-2.761,2.238-5,5-5h295.815
	c2.762,0,5,2.239,5,5s-2.238,5-5,5H107.403C104.641,32.756,102.403,30.517,102.403,27.756z"/>
<g>
</g>
<g>
</g>
<g>
</g>
<g>
</g>
<g>
</g>
<g>
</g>
<g>
</g>
<g>
</g>
<g>
</g>
<g>
</g>
<g>
</g>
<g>
</g>
<g>
</g>
<g>
</g>
<g>
</g>
</svg>
