<svg version="1.1" xmlns="http://www.w3.org/2000/svg" xmlns:xlink="http://www.w3.org/1999/xlink" x="0px" y="0px"
	 viewBox="0 0 487.108 487.108" style="enable-background:new 0 0 487.108 487.108;" xml:space="preserve">
<path d="M444.554,0H81.614c-24.294,0-44.06,19.765-44.06,44.06v405.659c0,20.617,16.773,37.39,37.39,37.39h369.61
	c2.762,0,5-2.239,5-5v-64.781V5C449.554,2.239,447.316,0,444.554,0z M47.554,44.06c0-18.78,15.279-34.06,34.06-34.06h7.479v346.255
	c0,2.761,2.239,5,5,5s5-2.239,5-5V10h340.461v402.328H99.093v-16.186c0-2.761-2.239-5-5-5s-5,2.239-5,5v16.186H74.944
	c-10.81,0-20.557,4.616-27.39,11.975V44.06z M439.554,477.108H74.944c-15.103,0-27.39-12.287-27.39-27.39
	s12.287-27.391,27.39-27.391h364.61V477.108z M78.837,438.822c0-2.761,2.239-5,5-5h319.276c2.762,0,5,2.239,5,5s-2.238,5-5,5H83.837
	C81.076,443.822,78.837,441.583,78.837,438.822z M78.837,459.318c0-2.761,2.239-5,5-5h319.276c2.762,0,5,2.239,5,5s-2.238,5-5,5
	H83.837C81.076,464.318,78.837,462.08,78.837,459.318z M148.869,169.194c8.274,7.053,20.649,15.49,35.919,24.499
	c-2.708,18.304,0.444,37.289,9.004,53.839c9.249,17.882,24.504,32.219,42.955,40.37c11.402,5.037,23.456,7.59,35.825,7.59
	c26.62,0,52.074-12.137,68.81-32.625c16.624,5.123,38.013,10.739,51.902,10.739c3.13,0,12.653,0,15.616-6.708
	c3.456-7.823-5.493-16.698-12.526-22.693c-8.273-7.053-20.649-15.491-35.918-24.5c2.707-18.304-0.446-37.289-9.008-53.841
	c-9.251-17.883-24.508-32.22-42.959-40.371c-11.401-5.036-23.453-7.589-35.82-7.589c-26.613,0-52.065,12.137-68.807,32.628
	c-16.624-5.123-38.013-10.739-51.902-10.739c-3.129,0-12.653,0-15.616,6.708C132.887,154.324,141.837,163.199,148.869,169.194z
	 M272.572,285.493c-10.969,0-21.663-2.267-31.784-6.738c-31.518-13.922-49.954-45.992-46.605-79.652
	c0.286,0.161,0.58,0.323,0.867,0.484c0.603,0.338,1.21,0.676,1.819,1.015c0.72,0.4,1.443,0.8,2.171,1.201
	c0.616,0.339,1.233,0.678,1.854,1.017c0.743,0.406,1.492,0.812,2.243,1.218c0.615,0.333,1.23,0.666,1.85,0.999
	c0.784,0.421,1.576,0.842,2.368,1.263c0.601,0.32,1.198,0.639,1.804,0.958c0.862,0.455,1.734,0.911,2.606,1.366
	c0.546,0.285,1.087,0.57,1.636,0.855c1.303,0.677,2.617,1.354,3.94,2.03c0.369,0.189,0.741,0.377,1.111,0.566
	c1.186,0.604,2.377,1.209,3.577,1.813c0.568,0.286,1.142,0.571,1.713,0.856c0.909,0.454,1.817,0.909,2.734,1.363
	c0.641,0.317,1.288,0.634,1.932,0.951c0.857,0.421,1.714,0.843,2.577,1.264c0.673,0.328,1.35,0.656,2.027,0.984
	c0.85,0.412,1.701,0.823,2.557,1.234c0.682,0.327,1.365,0.654,2.05,0.98c0.862,0.411,1.726,0.822,2.594,1.232
	c0.69,0.326,1.381,0.652,2.075,0.978c0.875,0.411,1.753,0.821,2.633,1.23c0.685,0.319,1.369,0.638,2.057,0.956
	c0.92,0.426,1.845,0.85,2.77,1.274c0.653,0.299,1.304,0.599,1.959,0.897c1.032,0.47,2.069,0.938,3.106,1.406
	c0.552,0.249,1.102,0.499,1.656,0.748c1.595,0.715,3.195,1.428,4.802,2.138c1.604,0.708,3.205,1.41,4.805,2.105
	c0.565,0.246,1.129,0.488,1.694,0.732c1.041,0.45,2.082,0.9,3.122,1.345c0.649,0.278,1.297,0.552,1.945,0.828
	c0.95,0.404,1.9,0.808,2.848,1.207c0.686,0.289,1.37,0.575,2.054,0.861c0.911,0.381,1.822,0.761,2.731,1.138
	c0.694,0.288,1.387,0.573,2.079,0.858c0.898,0.37,1.795,0.737,2.691,1.102c0.692,0.282,1.382,0.563,2.072,0.842
	c0.906,0.366,1.809,0.729,2.711,1.091c0.665,0.266,1.33,0.533,1.993,0.796c0.939,0.373,1.874,0.741,2.809,1.109
	c0.625,0.246,1.252,0.493,1.875,0.737c1.015,0.396,2.026,0.786,3.036,1.176c0.533,0.206,1.069,0.415,1.601,0.618
	c1.471,0.563,2.935,1.12,4.393,1.668c0.065,0.024,0.13,0.05,0.195,0.074c1.526,0.574,3.044,1.138,4.555,1.694
	c0.472,0.174,0.939,0.343,1.41,0.515c1.039,0.38,2.077,0.76,3.108,1.132c0.558,0.201,1.111,0.397,1.667,0.596
	c0.936,0.335,1.871,0.669,2.8,0.997c0.586,0.207,1.169,0.41,1.752,0.614c0.894,0.313,1.786,0.623,2.674,0.929
	c0.588,0.203,1.173,0.403,1.757,0.602c0.88,0.301,1.756,0.597,2.629,0.891c0.572,0.192,1.142,0.384,1.711,0.573
	c0.352,0.117,0.709,0.239,1.06,0.355C316.234,275.913,294.863,285.493,272.572,285.493z M399.583,262.755
	c-0.685,0.31-2.433,0.851-6.3,0.851c-9.565,0-25.649-3.287-45.719-9.311c0.043-0.067,0.082-0.137,0.124-0.205
	c0.535-0.85,1.058-1.708,1.564-2.576c0.067-0.115,0.13-0.232,0.197-0.347c0.437-0.757,0.862-1.521,1.277-2.29
	c0.144-0.268,0.285-0.536,0.426-0.805c0.345-0.657,0.682-1.318,1.011-1.983c0.129-0.261,0.26-0.521,0.387-0.783
	c0.437-0.906,0.865-1.817,1.271-2.738c0.405-0.917,0.79-1.843,1.164-2.773c0.113-0.28,0.221-0.562,0.33-0.843
	c0.265-0.678,0.521-1.359,0.77-2.043c0.108-0.297,0.216-0.593,0.32-0.891c0.281-0.802,0.551-1.607,0.809-2.417
	c0.048-0.149,0.1-0.297,0.147-0.447c0.298-0.95,0.577-1.906,0.843-2.865c0.023-0.082,0.05-0.163,0.072-0.245
	C390.068,249.1,398.699,259.6,399.583,262.755z M272.667,127.903c10.968,0,21.659,2.267,31.779,6.737
	c33.719,14.894,52.468,50.548,45.596,86.699c-1.127,5.894-2.934,11.677-5.367,17.188c-0.436,0.987-0.899,1.96-1.374,2.928
	c-0.103,0.21-0.206,0.421-0.311,0.63c-0.469,0.935-0.955,1.861-1.46,2.776c-0.094,0.17-0.192,0.338-0.287,0.508
	c-0.467,0.83-0.948,1.652-1.443,2.465c-0.093,0.152-0.183,0.306-0.277,0.458c-0.55,0.888-1.12,1.763-1.704,2.628
	c-0.062,0.091-0.124,0.181-0.186,0.272c-0.129-0.042-0.255-0.082-0.385-0.124c-0.715-0.232-1.439-0.471-2.16-0.708
	c-0.711-0.234-1.42-0.466-2.137-0.705c-0.72-0.24-1.448-0.486-2.173-0.731c-0.725-0.245-1.45-0.489-2.18-0.739
	c-0.731-0.25-1.468-0.505-2.205-0.76c-0.736-0.255-1.472-0.51-2.213-0.769c-0.741-0.26-1.487-0.524-2.233-0.788
	s-1.493-0.53-2.244-0.799c-0.747-0.268-1.497-0.539-2.248-0.811c-0.764-0.277-1.53-0.555-2.298-0.837
	c-0.75-0.275-1.502-0.552-2.256-0.831c-0.77-0.285-1.542-0.572-2.316-0.862c-0.763-0.285-1.528-0.573-2.294-0.862
	c-0.78-0.294-1.562-0.592-2.345-0.89c-0.764-0.292-1.528-0.584-2.296-0.879c-0.797-0.307-1.597-0.617-2.397-0.929
	c-0.761-0.296-1.522-0.592-2.285-0.892c-0.81-0.318-1.623-0.64-2.437-0.962c-0.767-0.304-1.533-0.607-2.303-0.915
	c-0.813-0.325-1.629-0.654-2.445-0.983c-0.772-0.311-1.543-0.622-2.317-0.937c-0.825-0.335-1.652-0.676-2.479-1.015
	c-0.772-0.317-1.543-0.632-2.317-0.953c-0.843-0.349-1.69-0.703-2.535-1.056c-0.757-0.316-1.514-0.63-2.273-0.95
	c-0.9-0.379-1.802-0.763-2.704-1.146c-0.709-0.301-1.417-0.6-2.127-0.903c-1.014-0.434-2.031-0.875-3.048-1.314
	c-0.602-0.26-1.202-0.517-1.804-0.778c-1.619-0.704-3.241-1.415-4.865-2.132c-1.632-0.721-3.257-1.445-4.876-2.171
	c-0.476-0.214-0.948-0.429-1.423-0.643c-1.138-0.513-2.275-1.026-3.406-1.541c-0.587-0.267-1.168-0.536-1.753-0.804
	c-1.013-0.465-2.028-0.929-3.035-1.395c-0.626-0.29-1.247-0.581-1.87-0.872c-0.959-0.447-1.919-0.893-2.872-1.342
	c-0.641-0.302-1.277-0.604-1.915-0.906c-0.928-0.439-1.856-0.879-2.778-1.319c-0.643-0.307-1.282-0.615-1.922-0.923
	c-0.91-0.438-1.82-0.875-2.723-1.313c-0.64-0.311-1.275-0.622-1.912-0.933c-0.892-0.436-1.783-0.872-2.668-1.308
	c-0.636-0.314-1.269-0.628-1.902-0.942c-0.877-0.436-1.752-0.871-2.622-1.307c-0.629-0.315-1.255-0.631-1.88-0.946
	c-0.863-0.435-1.722-0.87-2.577-1.306c-0.619-0.315-1.235-0.63-1.85-0.945c-0.851-0.437-1.698-0.873-2.541-1.31
	c-0.608-0.315-1.214-0.629-1.818-0.944c-0.837-0.437-1.67-0.873-2.499-1.31c-0.597-0.314-1.193-0.629-1.786-0.943
	c-0.821-0.435-1.636-0.87-2.448-1.305c-0.588-0.315-1.176-0.63-1.759-0.945c-0.806-0.435-1.604-0.869-2.401-1.304
	c-0.574-0.313-1.149-0.626-1.718-0.938c-0.794-0.436-1.58-0.872-2.364-1.307c-0.558-0.31-1.119-0.62-1.672-0.929
	c-0.785-0.439-1.558-0.877-2.332-1.315c-0.536-0.303-1.075-0.606-1.606-0.909c-0.147-0.084-0.29-0.167-0.436-0.25
	c0.024-0.103,0.048-0.206,0.073-0.308c0.248-1.025,0.514-2.046,0.803-3.061c0.043-0.152,0.091-0.302,0.135-0.454
	c0.274-0.94,0.566-1.874,0.874-2.804c0.056-0.167,0.108-0.336,0.165-0.503c0.339-1,0.701-1.992,1.079-2.978
	c0.08-0.208,0.163-0.417,0.245-0.625c0.397-1.008,0.807-2.011,1.245-3.002c0.304-0.689,0.618-1.373,0.942-2.053
	c2.265-4.758,5-9.288,8.149-13.491c0,0,0-0.001,0.001-0.001C224.438,139.65,247.991,127.903,272.667,127.903z M151.959,149.793
	c9.566,0,25.649,3.287,45.719,9.311c-0.043,0.067-0.082,0.137-0.124,0.205c-0.534,0.849-1.057,1.706-1.563,2.573
	c-0.071,0.122-0.138,0.247-0.209,0.37c-0.432,0.748-0.852,1.503-1.262,2.264c-0.148,0.274-0.292,0.549-0.436,0.824
	c-0.341,0.649-0.674,1.302-1,1.96c-0.132,0.266-0.265,0.532-0.395,0.8c-0.436,0.904-0.862,1.813-1.268,2.732
	c-0.405,0.917-0.79,1.844-1.164,2.774c-0.112,0.279-0.22,0.56-0.329,0.839c-0.266,0.681-0.524,1.365-0.773,2.052
	c-0.106,0.293-0.213,0.586-0.316,0.88c-0.286,0.816-0.562,1.636-0.824,2.46c-0.043,0.134-0.089,0.266-0.131,0.4
	c-0.3,0.956-0.581,1.918-0.849,2.883c-0.022,0.079-0.048,0.157-0.07,0.236c-31.79-19.056-40.421-29.557-41.306-32.712
	C146.344,150.334,148.093,149.793,151.959,149.793z"/>
<g>
</g>
<g>
</g>
<g>
</g>
<g>
</g>
<g>
</g>
<g>
</g>
<g>
</g>
<g>
</g>
<g>
</g>
<g>
</g>
<g>
</g>
<g>
</g>
<g>
</g>
<g>
</g>
<g>
</g>
</svg>
