<svg version="1.1" xmlns="http://www.w3.org/2000/svg" xmlns:xlink="http://www.w3.org/1999/xlink" x="0px" y="0px"
	 viewBox="0 0 487.877 487.877" style="enable-background:new 0 0 487.877 487.877;" xml:space="preserve">
<path d="M78.223,27.756c0-2.762,2.238-5,5-5h295.815c2.762,0,5,2.238,5,5s-2.238,5-5,5H83.223
	C80.461,32.756,78.223,30.518,78.223,27.756z M83.223,55.524h295.815c2.762,0,5-2.238,5-5s-2.238-5-5-5H83.223c-2.762,0-5,2.238-5,5
	S80.461,55.524,83.223,55.524z M406.793,450.348v32.518c0,2.762-2.238,5-5,5h-91.762c-0.282,0.002-0.563,0.011-0.846,0.011
	s-0.563-0.009-0.846-0.011H75.888c-1.007,0-2.002-0.047-2.991-0.115c-0.34,0.073-0.69,0.115-1.052,0.115
	c-0.722,0-1.404-0.16-2.023-0.435c-20.944-2.959-37.109-20.993-37.109-42.741V39.134C32.712,17.556,50.267,0,71.845,0h329.948
	c2.762,0,5,2.238,5,5v68.267v160.18c14.432,13.002,26.26,28.836,34.609,46.617c0.076,0.132,0.165,0.252,0.23,0.393
	c0.054,0.119,0.079,0.243,0.124,0.363c8.6,18.592,13.41,39.282,13.41,61.077C455.165,384.897,436.473,423.609,406.793,450.348z
	 M445.165,341.897c0-18.676-3.787-36.484-10.629-52.698l-60.834,27.809c2.992,7.729,4.651,16.117,4.651,24.889
	c0,38.139-31.028,69.166-69.167,69.166s-69.166-31.027-69.166-69.166s31.027-69.167,69.166-69.167
	c7.643,0,14.992,1.265,21.872,3.565l29.348-60.353c-15.817-6.456-33.109-10.024-51.22-10.024c-74.979,0-135.979,61-135.979,135.979
	c0,74.697,60.543,135.511,135.134,135.969h1.692C384.622,477.408,445.165,416.594,445.165,341.897z M309.186,282.73
	c-32.624,0-59.166,26.542-59.166,59.167c0,32.624,26.542,59.166,59.166,59.166c32.625,0,59.167-26.542,59.167-59.166
	C368.353,309.272,341.811,282.73,309.186,282.73z M402.205,242.809l-3.495,4.288c-0.988,1.212-2.428,1.841-3.879,1.841
	c-1.11,0-2.228-0.368-3.156-1.124c-2.14-1.744-2.461-4.895-0.717-7.035l3.708-4.55c-7.729-6.265-16.156-11.698-25.145-16.168
	L340.3,280.154c4.338,2.195,8.415,4.829,12.17,7.851l28.723-35.244c1.745-2.139,4.893-2.46,7.035-0.717
	c2.14,1.745,2.461,4.895,0.717,7.035l-29.138,35.754c3.696,3.973,6.927,8.38,9.616,13.135l60.887-27.834
	C423.132,266.112,413.583,253.497,402.205,242.809z M71.845,10c-2.191,0-4.324,0.251-6.378,0.712v56.843
	c2.054,0.461,4.187,0.712,6.378,0.712h324.948V10H71.845z M42.712,39.134c0,9.995,5.062,18.829,12.755,24.079V15.054
	C47.774,20.304,42.712,29.138,42.712,39.134z M256.056,477.866c-54.299-21.291-92.85-74.211-92.85-135.969
	c0-80.493,65.486-145.979,145.979-145.979c21.245,0,41.442,4.565,59.668,12.761c0.182,0.064,0.367,0.114,0.545,0.201
	c0.106,0.052,0.193,0.124,0.294,0.181c9.639,4.408,18.719,9.834,27.1,16.142V78.267H76.845v330.449c0,2.762-2.238,5-5,5
	s-5-2.238-5-5V77.936c-1.178-0.151-2.339-0.352-3.482-0.606c-0.818,0.584-1.813,0.937-2.896,0.937c-2.231,0-4.099-1.471-4.742-3.489
	c-4.979-2.261-9.406-5.528-13.013-9.551V444.69c0,15.158,10.223,27.965,24.133,31.913V448.74c0-2.762,2.238-5,5-5s5,2.238,5,5
	v29.126H256.056z M396.793,458.592c-10.49,7.895-22.072,14.41-34.478,19.274h34.478V458.592z M309.186,315.397
	c14.612,0,26.5,11.888,26.5,26.5s-11.888,26.5-26.5,26.5s-26.5-11.888-26.5-26.5S294.573,315.397,309.186,315.397z M309.186,325.397
	c-9.098,0-16.5,7.402-16.5,16.5s7.402,16.5,16.5,16.5s16.5-7.402,16.5-16.5S318.283,325.397,309.186,325.397z"/>
<g>
</g>
<g>
</g>
<g>
</g>
<g>
</g>
<g>
</g>
<g>
</g>
<g>
</g>
<g>
</g>
<g>
</g>
<g>
</g>
<g>
</g>
<g>
</g>
<g>
</g>
<g>
</g>
<g>
</g>
</svg>
