<svg version="1.1" xmlns="http://www.w3.org/2000/svg" xmlns:xlink="http://www.w3.org/1999/xlink" x="0px" y="0px"
	 viewBox="0 0 487.866 487.866" style="enable-background:new 0 0 487.866 487.866;" xml:space="preserve">
<path d="M456.415,183.389L308.813,1.846C307.863,0.678,306.438,0,304.933,0H35.332c-2.762,0-5,2.239-5,5v477.866
	c0,2.761,2.238,5,5,5h417.203c2.762,0,5-2.239,5-5V186.544C457.535,185.395,457.139,184.281,456.415,183.389z M447.535,477.866
	H155.017v-14.115c0-2.761-2.238-5-5-5s-5,2.239-5,5v14.115H40.332V10h104.686v420.13c0,2.761,2.238,5,5,5s5-2.239,5-5V10h147.537
	l144.98,178.32V477.866z M93.204,47.781c-23.837,0-43.229,19.393-43.229,43.229s19.393,43.229,43.229,43.229
	s43.229-19.393,43.229-43.229S117.041,47.781,93.204,47.781z M93.204,124.24c-18.323,0-33.229-14.906-33.229-33.229
	c0-18.322,14.906-33.229,33.229-33.229s33.229,14.907,33.229,33.229C126.433,109.333,111.527,124.24,93.204,124.24z M93.204,65.178
	c-14.244,0-25.832,11.588-25.832,25.832s11.588,25.833,25.832,25.833s25.832-11.588,25.832-25.833S107.448,65.178,93.204,65.178z
	 M93.204,106.843c-8.729,0-15.832-7.102-15.832-15.833c0-8.729,7.103-15.832,15.832-15.832s15.832,7.103,15.832,15.832
	C109.036,99.741,101.933,106.843,93.204,106.843z M116.867,154.561h-12.06c-2.762,0-5,2.239-5,5c0,5.168-4.204,9.372-9.372,9.372
	s-9.372-4.204-9.372-9.372c0-2.761-2.238-5-5-5h-12.06c-2.762,0-5,2.239-5,5v277.168c0,2.761,2.238,5,5,5h52.863
	c2.762,0,5-2.239,5-5V159.561C121.867,156.8,119.628,154.561,116.867,154.561z M111.867,431.729H69.003V164.561h2.714
	c2.21,8.266,9.765,14.372,18.718,14.372s16.508-6.106,18.718-14.372h2.714V431.729z"/>
<g>
</g>
<g>
</g>
<g>
</g>
<g>
</g>
<g>
</g>
<g>
</g>
<g>
</g>
<g>
</g>
<g>
</g>
<g>
</g>
<g>
</g>
<g>
</g>
<g>
</g>
<g>
</g>
<g>
</g>
</svg>
