<svg version="1.1" xmlns="http://www.w3.org/2000/svg" xmlns:xlink="http://www.w3.org/1999/xlink" x="0px" y="0px"
	 viewBox="0 0 487.866 487.866" style="enable-background:new 0 0 487.866 487.866;" xml:space="preserve">
<path d="M149.485,193.849c0-2.761,2.239-5,5-5h288.559c2.761,0,5,2.239,5,5s-2.239,5-5,5H154.485
	C151.724,198.849,149.485,196.61,149.485,193.849z M109.511,193.849c0,2.761,2.239,5,5,5h9.956c2.761,0,5-2.239,5-5s-2.239-5-5-5
	h-9.956C111.75,188.849,109.511,191.087,109.511,193.849z M443.044,208.76h-322.08c-2.761,0-5,2.239-5,5s2.239,5,5,5h322.08
	c2.761,0,5-2.239,5-5S445.806,208.76,443.044,208.76z M443.044,228.672H124.466c-2.761,0-5,2.239-5,5s2.239,5,5,5h318.578
	c2.761,0,5-2.239,5-5S445.806,228.672,443.044,228.672z M443.044,248.583H124.466c-2.761,0-5,2.239-5,5s2.239,5,5,5h318.578
	c2.761,0,5-2.239,5-5S445.806,248.583,443.044,248.583z M443.044,268.495h-322.08c-2.761,0-5,2.239-5,5s2.239,5,5,5h322.08
	c2.761,0,5-2.239,5-5S445.806,268.495,443.044,268.495z M443.044,288.406H114.511c-2.761,0-5,2.239-5,5s2.239,5,5,5h328.534
	c2.761,0,5-2.239,5-5S445.806,288.406,443.044,288.406z M467.956,172.707v142.452h14.911c2.761,0,5,2.239,5,5v28.313
	c0,2.761-2.239,5-5,5H109.538C49.139,353.471,0,304.333,0,243.933c0-60.4,49.139-109.539,109.538-109.539h373.328
	c2.761,0,5,2.239,5,5v28.312c0,2.761-2.239,5-5,5H467.956z M477.866,325.159H112.802c-10.401,0-20.341-1.987-29.49-5.565
	c-0.36-0.099-0.712-0.231-1.05-0.415c-29.693-12.096-50.687-41.257-50.687-75.246c0-33.978,20.98-63.134,50.659-75.236
	c0.35-0.192,0.713-0.325,1.082-0.427c9.147-3.577,19.086-5.563,29.485-5.563h365.064v-18.312H109.538
	C54.653,144.395,10,189.047,10,243.933c0,54.886,44.653,99.539,99.538,99.539h368.328V325.159z M82.804,308.511
	c4.937-8.061,16.751-30.873,16.751-64.578c0-26.552-12.229-54.208-17.209-64.371c-24.079,11.438-40.77,35.989-40.77,64.371
	C41.576,272.493,58.481,297.167,82.804,308.511z M457.956,172.707H112.802c-7.342,0-14.428,1.118-21.098,3.191
	c5.582,11.454,17.851,39.835,17.851,68.035c0,34.34-11.206,57.98-17.233,68.211c6.49,1.952,13.362,3.015,20.479,3.015h345.154
	V172.707z"/>
<g>
</g>
<g>
</g>
<g>
</g>
<g>
</g>
<g>
</g>
<g>
</g>
<g>
</g>
<g>
</g>
<g>
</g>
<g>
</g>
<g>
</g>
<g>
</g>
<g>
</g>
<g>
</g>
<g>
</g>
</svg>
