<svg version="1.1" xmlns="http://www.w3.org/2000/svg" xmlns:xlink="http://www.w3.org/1999/xlink" x="0px" y="0px"
	 viewBox="0 0 487.867 487.867" style="enable-background:new 0 0 487.867 487.867;" xml:space="preserve">
<path d="M487.854,173.736c-0.007-0.262-0.031-0.522-0.078-0.778c-0.008-0.045-0.011-0.091-0.02-0.136
	c-0.06-0.28-0.147-0.552-0.254-0.817c-0.031-0.077-0.067-0.15-0.102-0.226c-0.092-0.201-0.198-0.395-0.316-0.582
	c-0.04-0.063-0.076-0.127-0.118-0.188c-0.161-0.232-0.34-0.453-0.542-0.656c-0.038-0.038-0.08-0.07-0.119-0.107
	c-0.12-0.114-0.237-0.229-0.369-0.331l-64.328-50.03c-1.214-0.945-2.795-1.278-4.287-0.903l-174.691,43.875
	c-34.002,8.541-70.304,2.388-99.595-16.878l-61.769-40.629c-1.49-0.98-3.388-1.092-4.984-0.294L2.763,141.825
	c-0.182,0.091-0.354,0.195-0.521,0.305c-0.014,0.009-0.03,0.016-0.044,0.026c-0.237,0.161-0.453,0.346-0.657,0.542
	c-0.051,0.049-0.1,0.1-0.149,0.151c-0.179,0.187-0.345,0.385-0.492,0.596c-0.017,0.025-0.038,0.047-0.055,0.073
	c-0.156,0.233-0.286,0.482-0.401,0.738c-0.032,0.071-0.06,0.143-0.089,0.216c-0.094,0.239-0.172,0.483-0.229,0.736
	c-0.008,0.035-0.02,0.067-0.027,0.102c-0.044,0.221-0.075,0.447-0.09,0.676c-0.004,0.069,0.002,0.137,0.001,0.206
	C0.01,146.228,0,146.261,0,146.297v30.009c0,0.003,0,0.005,0,0.008v105.53c0,1.672,0.835,3.233,2.227,4.16l102.435,68.292
	c28.679,19.119,62.14,29.044,95.978,29.044c14.793,0,29.662-1.898,44.229-5.754l239.278-63.344c2.193-0.581,3.721-2.565,3.721-4.833
	V173.861C487.867,173.818,487.855,173.779,487.854,173.736z M78.177,115.287l59.362,39.046
	c31.624,20.801,70.816,27.443,107.526,18.222l172.328-43.281l54.436,42.337l-8.621,2.282c-2.67,0.707-4.261,3.443-3.555,6.113
	c0.707,2.668,3.439,4.259,6.113,3.554l12.101-3.203V200l-219.744,58.172V238.53l177.045-46.869c2.67-0.707,4.261-3.443,3.554-6.113
	c-0.706-2.669-3.439-4.262-6.112-3.554l-190.3,50.378c-45.117,11.945-93.267,3.946-132.101-21.943l-95.267-63.513L78.177,115.287z
	 M10,155.639l94.661,63.109c4.807,3.204,9.75,6.144,14.805,8.829v18.556c-3.137-1.801-6.229-3.698-9.258-5.718L10,173.608V155.639z
	 M129.466,232.485c22.416,10.111,46.695,15.308,71.172,15.308c14.793,0,29.662-1.898,44.229-5.754l3.254-0.862v19.643l-5.814,1.539
	c-37.916,10.037-77.972,5.986-112.842-10.928V232.485z M10,279.168v-93.542l94.661,63.109c4.807,3.205,9.75,6.145,14.805,8.829
	v94.129c-3.137-1.801-6.229-3.698-9.258-5.718L10,279.168z M258.123,363.733v-3.651c0-2.761-2.238-5-5-5s-5,2.239-5,5v6.298
	l-5.814,1.539c-37.916,10.039-77.972,5.986-112.842-10.928v-94.519c22.416,10.111,46.695,15.308,71.172,15.308
	c14.794,0,29.662-1.898,44.229-5.754l3.254-0.862v56.59c0,2.761,2.238,5,5,5s5-2.239,5-5v-59.237l219.744-58.173v95.216
	L258.123,363.733z"/>
<g>
</g>
<g>
</g>
<g>
</g>
<g>
</g>
<g>
</g>
<g>
</g>
<g>
</g>
<g>
</g>
<g>
</g>
<g>
</g>
<g>
</g>
<g>
</g>
<g>
</g>
<g>
</g>
<g>
</g>
</svg>
