<svg version="1.1" xmlns="http://www.w3.org/2000/svg" xmlns:xlink="http://www.w3.org/1999/xlink" x="0px" y="0px"
	 viewBox="0 0 487.866 487.866" style="enable-background:new 0 0 487.866 487.866;" xml:space="preserve">
<path d="M414.466,64.806c-45.625-15.208-106.188-23.584-170.533-23.584S119.025,49.597,73.4,64.806
	C26.067,80.584,0,102.269,0,125.867v29.817c0,23.598,26.067,45.284,73.4,61.062c39.685,13.229,90.674,21.285,145.622,23.159v131.402
	c-40.357,3.435-79.645,16.001-79.645,37.153c0,24.803,53.87,38.186,104.556,38.186s104.556-13.383,104.556-38.186
	c0-21.157-39.264-33.716-79.645-37.153V239.904c54.947-1.874,105.936-9.93,145.622-23.159c47.333-15.778,73.4-37.463,73.4-61.062
	v-29.817C487.866,102.269,461.799,80.584,414.466,64.806z M263.844,399.634c2.761,0,5-2.239,5-5v-13.288
	c43.164,3.778,69.645,16.734,69.645,27.113c0,13.305-40.438,28.186-94.556,28.186s-94.556-14.881-94.556-28.186
	c0-10.372,26.485-23.336,69.645-27.114v13.289c0,8.589,13.419,11.637,24.911,11.637c2.761,0,5-2.239,5-5s-2.239-5-5-5
	c-8.399,0-13.343-1.764-14.911-2.739V240.173c4.945,0.1,9.915,0.157,14.911,0.157s9.966-0.057,14.911-0.157v154.461
	C258.844,397.395,261.083,399.634,263.844,399.634z M477.866,155.684c0,18.676-24.261,37.474-66.563,51.575
	c-44.632,14.878-104.072,23.071-167.37,23.071s-122.738-8.193-167.37-23.071C34.261,193.158,10,174.36,10,155.684v-5.178
	c11.631,13.856,33.169,26.346,63.4,36.423c45.625,15.208,106.188,23.584,170.533,23.584c85.359,0,162.826-14.664,207.223-39.225
	c2.417-1.336,3.292-4.379,1.955-6.795c-1.336-2.416-4.38-3.291-6.795-1.955c-42.341,23.423-119.889,37.975-202.382,37.975
	c-63.298,0-122.738-8.193-167.37-23.071C34.261,163.341,10,144.543,10,125.867c0-18.675,24.261-37.474,66.563-51.575
	c44.632-14.878,104.072-23.071,167.37-23.071s122.738,8.193,167.37,23.071c42.302,14.101,66.563,32.899,66.563,51.575
	c0,6.769-3.162,13.59-9.397,20.273c-1.884,2.019-1.774,5.183,0.245,7.067c2.019,1.884,5.183,1.774,7.067-0.245
	c0.732-0.785,1.42-1.575,2.086-2.368V155.684z"/>
<g>
</g>
<g>
</g>
<g>
</g>
<g>
</g>
<g>
</g>
<g>
</g>
<g>
</g>
<g>
</g>
<g>
</g>
<g>
</g>
<g>
</g>
<g>
</g>
<g>
</g>
<g>
</g>
<g>
</g>
</svg>
