<svg version="1.1" xmlns="http://www.w3.org/2000/svg" xmlns:xlink="http://www.w3.org/1999/xlink" x="0px" y="0px"
	 viewBox="0 0 487.886 487.886" style="enable-background:new 0 0 487.886 487.886;" xml:space="preserve">
<path d="M108.841,442.954H54.765c-2.762,0-5-2.239-5-5V5c0-2.761,2.238-5,5-5h54.075c2.762,0,5,2.239,5,5v432.954
	C113.841,440.715,111.602,442.954,108.841,442.954z M59.765,432.954h44.075V10H59.765V432.954z M433.121,442.941H54.765
	c-2.762,0-5-2.239-5-5V5c0-2.761,2.238-5,5-5h378.355c2.762,0,5,2.239,5,5v432.941C438.121,440.703,435.883,442.941,433.121,442.941
	z M59.765,432.941h368.355V10H59.765V432.941z M438.121,482.886v-66.218c0-2.761-2.238-5-5-5s-5,2.239-5,5v61.218H59.765v-39.945
	c0-2.761-2.238-5-5-5s-5,2.239-5,5v44.945c0,2.761,2.238,5,5,5h378.355C435.883,487.886,438.121,485.648,438.121,482.886z
	 M420.196,453.806c0-2.761-2.238-5-5-5H80.564c-2.762,0-5,2.239-5,5s2.238,5,5,5h334.632
	C417.958,458.806,420.196,456.567,420.196,453.806z M420.196,467.642c0-2.761-2.238-5-5-5H80.564c-2.762,0-5,2.239-5,5s2.238,5,5,5
	h334.632C417.958,472.642,420.196,470.404,420.196,467.642z M140.223,364.886V22.067c0-2.761-2.238-5-5-5s-5,2.239-5,5v342.819
	c0,2.761,2.238,5,5,5S140.223,367.648,140.223,364.886z M140.223,414.608v-15.588c0-2.761-2.238-5-5-5s-5,2.239-5,5v15.588
	c0,2.761,2.238,5,5,5S140.223,417.37,140.223,414.608z M379.911,203.276H178.244c-2.762,0-5-2.239-5-5v-92.333c0-2.761,2.238-5,5-5
	h201.667c2.762,0,5,2.239,5,5v92.333C384.911,201.038,382.673,203.276,379.911,203.276z M183.244,193.276h191.667v-82.333H183.244
	V193.276z"/>
<g>
</g>
<g>
</g>
<g>
</g>
<g>
</g>
<g>
</g>
<g>
</g>
<g>
</g>
<g>
</g>
<g>
</g>
<g>
</g>
<g>
</g>
<g>
</g>
<g>
</g>
<g>
</g>
<g>
</g>
</svg>
