<svg height='100px' width='100px'  fill="#000000" xmlns="http://www.w3.org/2000/svg" xmlns:xlink="http://www.w3.org/1999/xlink" version="1.1" x="0px" y="0px" viewBox="0 0 68 68" enable-background="new 0 0 68 68" xml:space="preserve"><g><g><path d="M31.5,64h-4.4V19.8h18c0,0,0,0,0,0.1l0.8,3.8c0.1,0.8,0.8,1.3,1.6,1.3H49v4.4l-12.7,11c-0.3,0.3-0.4,0.7-0.3,1.1    c0.1,0.4,0.5,0.7,0.9,0.7h26c0.4,0,0.8-0.3,0.9-0.7c0.1-0.4,0-0.8-0.3-1.1L51,29.4l0,0V25h1.6c0.8,0,1.4-0.5,1.6-1.3l0.8-3.8    c0,0,0,0,0-0.1H65c0.4,0,0.8-0.3,1-0.7c0.1-0.4,0-0.9-0.4-1.1l-8.3-5.2c-0.2-0.1-0.3-0.2-0.5-0.2h-6.4C50,12.4,52.3,13.2,15.8,2    c-0.1,0-0.6-0.2-1,0.3l-8.2,8.3h-3c-0.9,0-1.7,0.8-1.7,1.7v7.9c0,0.9,0.8,1.7,1.7,1.7h6.1c0.9,0,1.7-0.8,1.7-1.7v-0.3h3.1    c0,10.5,0,33.4,0,44.2H3c-0.6,0-1,0.4-1,1s0.4,1,1,1c10.7,0,19.4,0,28.5,0c0.6,0,1-0.4,1-1S32,64,31.5,64z M60.4,40.2H39.7    L50,31.2L60.4,40.2z M52.3,23h-4.5l-0.6-3h5.7L52.3,23z M25.1,28.9v6.3h-7L25.1,28.9L25.1,28.9z M16.6,44.8l0-6.3l0,0l7,6.3l0,0    H16.6z M16.6,46.8h7l-7,6.3L16.6,46.8z M25.1,43.5l-7-6.3l0,0h7L25.1,43.5L25.1,43.5z M25.1,48.1L25.1,48.1l0,6.3h-7L25.1,48.1z     M16.6,34L16.6,34l0-6.3h7L16.6,34z M25.1,56.4v6.3l0,0l-7-6.3l0,0H25.1z M25.1,24.4L25.1,24.4l-5-4.5h5V24.4z M16.5,12.7l0-6.9    l5.7,6.9H16.5z M24.8,12.7l-6.4-7.7l25.4,7.7H24.8z M9.4,19.9H4v-7.2h5.4V19.9z M9.8,10.6H9.5l5.1-5.2l0,7.2h-3.1v-0.3    C11.4,11.4,10.7,10.6,9.8,10.6z M11.5,14.7h45l5.1,3.2c-17.6,0-36.4,0-50.1,0V14.7z M17.2,19.8l6.4,5.8l0,0h-7l0-5.8H17.2z     M16.6,57.7l7,6.3h-7L16.6,57.7z"></path><path d="M65,64h-1V46.2c0-0.6-0.4-1-1-1H37c-0.6,0-1,0.4-1,1V64h-1c-0.6,0-1,0.4-1,1s0.4,1,1,1c3.7,0,24.4,0,30,0c0.6,0,1-0.4,1-1    S65.6,64,65,64z M38,47.2h24V64h-7.1V53.9c0-0.6-0.5-1-1-1h-7.8c-0.5,0-1,0.4-1,1V64H38V47.2z M52.9,64h-5.8v-9.1h5.8V64z"></path></g><path d="M59.8,39.3c-0.2,0-0.5-0.1-0.7-0.2l-4.7-4c-0.2-0.2-0.3-0.5-0.3-0.8v-4.4c0-0.6,0.4-1,1-1h4.7c0.6,0,1,0.4,1,1v8.4   c0,0.4-0.2,0.7-0.6,0.9C60.1,39.3,59.9,39.3,59.8,39.3z M56.1,33.9l2.7,2.3v-5.3h-2.7V33.9z"></path></g></svg>