<svg version="1.1" xmlns="http://www.w3.org/2000/svg" xmlns:xlink="http://www.w3.org/1999/xlink" x="0px" y="0px"
	 viewBox="0 0 487.867 487.867" style="enable-background:new 0 0 487.867 487.867;" xml:space="preserve">
<path d="M482.867,73.515H5c-2.762,0-5,2.239-5,5v312.468v18.369c0,2.761,2.238,5,5,5h477.867c2.762,0,5-2.239,5-5v-18.369V78.515
	C487.867,75.754,485.629,73.515,482.867,73.515z M10,83.515h26.759v261.993c0,2.761,2.238,5,5,5s5-2.239,5-5V83.515h431.108v302.468
	H46.759v-8.146c0-2.761-2.238-5-5-5s-5,2.239-5,5v8.146H10V83.515z M10,404.352v-8.369h467.867v8.369H10z M310.692,364.348
	c2.537,1.088,5.478-0.088,6.565-2.626l13.497-31.489h32.865l13.499,31.502c0.813,1.896,2.658,3.032,4.598,3.032
	c0.657,0,1.325-0.13,1.968-0.406c2.538-1.087,3.714-4.027,2.626-6.565l-14.781-34.494c-0.005-0.011-0.009-0.021-0.014-0.032
	l-19.73-46.042c-0.788-1.838-2.596-3.031-4.596-3.031s-3.808,1.192-4.596,3.03l-19.739,46.053c-0.001,0.004-0.003,0.008-0.005,0.012
	l-14.783,34.49C306.979,360.32,308.154,363.26,310.692,364.348z M347.188,291.89l12.145,28.342h-24.293L347.188,291.89z
	 M450.085,339.623c0-8.346-6.79-15.136-15.136-15.136h-20.147c-2.1,0-3.89-1.297-4.631-3.132c-0.012-0.03-0.017-0.062-0.028-0.092
	c-0.102-0.266-0.189-0.539-0.244-0.825c-0.04-0.205-0.048-0.413-0.063-0.621c-0.008-0.112-0.033-0.218-0.033-0.331
	c0-0.003,0.001-0.006,0.001-0.008c-0.003-1.283,0.485-2.567,1.464-3.546l31.745-31.736h-38.28c-2.762,0-5-2.239-5-5s2.238-5,5-5
	h50.354c2.022,0,3.846,1.218,4.619,3.087c0.774,1.869,0.346,4.019-1.084,5.449l-31.763,31.754h8.092
	c13.86,0,25.136,11.276,25.136,25.136c0,13.86-11.275,25.136-25.136,25.136h-30.218c-2.762,0-5-2.239-5-5s2.238-5,5-5h30.218
	C443.295,354.759,450.085,347.969,450.085,339.623z"/>
<g>
</g>
<g>
</g>
<g>
</g>
<g>
</g>
<g>
</g>
<g>
</g>
<g>
</g>
<g>
</g>
<g>
</g>
<g>
</g>
<g>
</g>
<g>
</g>
<g>
</g>
<g>
</g>
<g>
</g>
</svg>
