<svg version="1.1" xmlns="http://www.w3.org/2000/svg" xmlns:xlink="http://www.w3.org/1999/xlink" x="0px" y="0px"
	 viewBox="0 0 487.865 487.865" style="enable-background:new 0 0 487.865 487.865;" xml:space="preserve">
<path d="M337.197,0H150.668c-28.489,0-51.667,23.178-51.667,51.666v384.533c0,28.488,23.178,51.666,51.667,51.666h186.529
	c28.489,0,51.667-23.178,51.667-51.666V51.666C388.864,23.178,365.686,0,337.197,0z M378.864,436.199
	c0,22.975-18.691,41.666-41.667,41.666H150.668c-22.975,0-41.667-18.691-41.667-41.666V51.666c0-22.975,18.691-41.666,41.667-41.666
	h186.529c22.975,0,41.667,18.691,41.667,41.666V436.199z M353.444,69.685H134.421c-2.761,0-5,2.238-5,5v338.484c0,2.762,2.239,5,5,5
	h219.023c2.761,0,5-2.238,5-5V74.685C358.444,71.923,356.206,69.685,353.444,69.685z M139.421,79.685h209.023v244.578h-78.912
	c-2.521,0-4.586,1.872-4.929,4.299H158.599c-2.761,0-5,2.238-5,5s2.239,5,5,5h105.934v16.373H158.599c-2.761,0-5,2.238-5,5
	s2.239,5,5,5h105.934v14.371H158.599c-2.761,0-5,2.238-5,5s2.239,5,5,5h105.934v18.863H139.421V79.685z M274.533,334.263h66.84
	l-66.84,66.836V334.263z M281.605,408.169l66.839-66.835v66.835H281.605z M243.933,423.468c-13.736,0-24.912,11.175-24.912,24.911
	s11.175,24.912,24.912,24.912s24.912-11.176,24.912-24.912S257.669,423.468,243.933,423.468z M243.933,463.291
	c-8.222,0-14.912-6.689-14.912-14.912c0-8.222,6.689-14.911,14.912-14.911s14.912,6.689,14.912,14.911
	C258.844,456.602,252.155,463.291,243.933,463.291z M196.266,40.6c0-7.536,6.131-13.667,13.667-13.667h5.75c2.761,0,5,2.238,5,5
	s-2.239,5-5,5h-5.75c-2.021,0-3.667,1.645-3.667,3.667c0,2.021,1.645,3.666,3.667,3.666h68c2.021,0,3.667-1.645,3.667-3.666
	c0-2.022-1.645-3.667-3.667-3.667H242.7c-2.761,0-5-2.238-5-5s2.239-5,5-5h35.233c7.536,0,13.667,6.131,13.667,13.667
	c0,7.535-6.131,13.666-13.667,13.666h-68C202.397,54.266,196.266,48.135,196.266,40.6z M184.199,153.593h145.067
	c2.761,0,5,2.238,5,5s-2.239,5-5,5H184.199c-2.761,0-5-2.238-5-5S181.438,153.593,184.199,153.593z M153.599,184.208
	c0-2.762,2.239-5,5-5h170.667c2.761,0,5,2.238,5,5s-2.239,5-5,5H158.599C155.838,189.208,153.599,186.97,153.599,184.208z
	 M153.599,209.823c0-2.762,2.239-5,5-5h170.667c2.761,0,5,2.238,5,5s-2.239,5-5,5H158.599
	C155.838,214.823,153.599,212.585,153.599,209.823z M153.599,235.439c0-2.762,2.239-5,5-5h170.667c2.761,0,5,2.238,5,5s-2.239,5-5,5
	H158.599C155.838,240.439,153.599,238.201,153.599,235.439z M153.599,256.716c0-2.762,2.239-5,5-5h170.667c2.761,0,5,2.238,5,5
	s-2.239,5-5,5H158.599C155.838,261.716,153.599,259.478,153.599,256.716z M334.266,282.331c0,2.762-2.239,5-5,5H184.199
	c-2.761,0-5-2.238-5-5s2.239-5,5-5h145.067C332.027,277.331,334.266,279.569,334.266,282.331z M153.599,307.946c0-2.762,2.239-5,5-5
	h170.667c2.761,0,5,2.238,5,5s-2.239,5-5,5H158.599C155.838,312.946,153.599,310.708,153.599,307.946z M170.666,115.93
	c0-2.762,2.239-5,5-5h136.533c2.761,0,5,2.238,5,5s-2.239,5-5,5H175.666C172.905,120.93,170.666,118.691,170.666,115.93z"/>
<g>
</g>
<g>
</g>
<g>
</g>
<g>
</g>
<g>
</g>
<g>
</g>
<g>
</g>
<g>
</g>
<g>
</g>
<g>
</g>
<g>
</g>
<g>
</g>
<g>
</g>
<g>
</g>
<g>
</g>
</svg>
