<svg version="1.1" xmlns="http://www.w3.org/2000/svg" xmlns:xlink="http://www.w3.org/1999/xlink" x="0px" y="0px"
	 viewBox="0 0 487.865 487.865" style="enable-background:new 0 0 487.865 487.865;" xml:space="preserve">
<g>
	<path d="M377.223,0h-266.58C82.153,0,58.976,23.178,58.976,51.666v384.533c0,28.488,23.178,51.666,51.667,51.666h266.58
		c28.489,0,51.667-23.178,51.667-51.666V51.666C428.89,23.178,405.712,0,377.223,0z M418.89,436.199
		c0,22.975-18.691,41.666-41.667,41.666h-266.58c-22.976,0-41.667-18.691-41.667-41.666V51.666C68.976,28.691,87.667,10,110.643,10
		h266.58c22.976,0,41.667,18.691,41.667,41.666V436.199z"/>
	<path d="M393.47,49.672H94.396c-2.762,0-5,2.238-5,5v378.51c0,2.762,2.238,5,5,5H393.47c2.762,0,5-2.238,5-5V54.672
		C398.47,51.91,396.231,49.672,393.47,49.672z M388.47,428.182H99.396V59.672H388.47V428.182z"/>
	<path d="M243.933,440.271c-9.374,0-17,7.626-17,17s7.626,17,17,17s17-7.626,17-17S253.307,440.271,243.933,440.271z
		 M243.933,464.271c-3.859,0-7-3.141-7-7s3.141-7,7-7s7,3.141,7,7S247.792,464.271,243.933,464.271z"/>
	<path d="M107.666,199.285h10.141v10.139c0,2.762,2.238,5,5,5h7.139v10.38c0,2.762,2.238,5,5,5h5.094v88.943h-5.094
		c-2.762,0-5,2.238-5,5v10.144h-2.092c-2.762,0-5,2.238-5,5v10.138h-0.047c-2.762,0-5,2.238-5,5v15.139c0,2.762,2.238,5,5,5h242.252
		c2.762,0,5-2.238,5-5v-15.139c0-2.762-2.238-5-5-5l-0.047-10.138c0-2.762-2.238-5-5-5h-2.092v-10.144c0-2.762-2.238-5-5-5h-5.094
		v-88.943h5.094c2.762,0,5-2.238,5-5v-10.38h7.139c2.762,0,5-2.238,5-5v-10.099l10.101,0.081c0.014,0,0.027,0,0.04,0
		c2.27,0,4.256-1.529,4.835-3.727c0.582-2.21-0.408-4.534-2.406-5.645l-136.267-75.708c-1.511-0.838-3.344-0.839-4.854-0.001
		L105.24,189.913c-1.992,1.105-2.985,3.418-2.415,5.625C103.396,197.744,105.387,199.285,107.666,199.285z M187.463,214.424v10.38
		c0,2.762,2.238,5,5,5h5.094v88.943h-5.094c-2.762,0-5,2.238-5,5v10.144h-2.095v-10.144c0-2.762-2.238-5-5-5h-5.094v-88.943h5.094
		c2.762,0,5-2.238,5-5v-10.38H187.463z M290.402,333.891H254.98v-5.144h5.094h25.234h5.094V333.891z M265.074,318.747v-88.943
		h15.234v88.943H265.074z M285.367,219.804c-0.02,0-0.038-0.006-0.058-0.006h-25.234c-0.02,0-0.038,0.006-0.058,0.006h-5.036v-5.144
		h35.422v5.144H285.367z M249.98,229.804h5.094v88.943h-5.094c-2.762,0-5,2.238-5,5v10.144h-2.096v-10.144c0-2.762-2.238-5-5-5
		h-5.094v-88.943h5.094c2.762,0,5-2.238,5-5v-10.38h2.096v10.38C244.98,227.565,247.219,229.804,249.98,229.804z M197.463,214.66
		h35.422v5.144h-5.036c-0.02,0-0.038-0.006-0.058-0.006h-25.234c-0.02,0-0.038,0.006-0.058,0.006h-5.036V214.66z M207.557,229.804
		h15.234v88.943h-15.234V229.804z M202.557,328.747h25.234h5.094v5.144h-35.422v-5.144H202.557z M139.945,214.66h35.423v5.144
		h-5.036c-0.02,0-0.038-0.006-0.058-0.006h-25.235c-0.02,0-0.038,0.006-0.058,0.006h-5.036V214.66z M150.039,229.804h15.235v88.943
		h-15.235V229.804z M139.945,328.747h5.094h25.235h5.094v5.144h-35.423V328.747z M127.807,364.167v-5.139h0.047h210.341
		c2.762,0,5-2.238,5-5s-2.238-5-5-5H132.854v-5.138h2.092h45.423h12.095h45.422h12.096h45.422h12.095h45.423h2.092v5.158
		c-2.665,0.109-4.797,2.287-4.797,4.979c0,2.762,2.238,5,5,5h4.797l0.047,5.139H127.807z M347.92,333.891h-35.423v-5.144h5.094
		h25.235h5.094V333.891z M337.826,318.747h-15.235v-88.943h15.235V318.747z M347.92,219.804h-5.036c-0.02,0-0.038-0.006-0.058-0.006
		h-25.235c-0.02,0-0.038,0.006-0.058,0.006h-5.036v-5.144h35.423V219.804z M307.497,229.804h5.094v88.943h-5.094
		c-2.762,0-5,2.238-5,5v10.144h-2.095v-10.144c0-2.762-2.238-5-5-5h-5.094v-88.943h5.094c2.762,0,5-2.238,5-5v-10.38h2.095v10.38
		C302.497,227.565,304.735,229.804,307.497,229.804z M243.931,124.417l116.755,64.868h-3.77c-2.762,0-5,2.238-5,5s2.238,5,5,5h3.143
		v5.139H127.807v-5.139h210.387c2.762,0,5-2.238,5-5s-2.238-5-5-5H126.988L243.931,124.417z"/>
	<path d="M218.026,182.313l25.043,4.39c0.285,0.05,0.574,0.075,0.863,0.075s0.578-0.025,0.863-0.075l25.043-4.39
		c2.392-0.419,4.137-2.496,4.137-4.925v-31.875c0-1.478-0.653-2.879-1.784-3.828c-1.13-0.95-2.624-1.354-4.079-1.097l-24.18,4.238
		l-24.18-4.238c-1.452-0.257-2.948,0.146-4.079,1.097c-1.131,0.949-1.784,2.351-1.784,3.828v31.875
		C213.89,179.817,215.635,181.895,218.026,182.313z M263.976,173.188l-15.043,2.637v-21.723l15.043-2.636V173.188z M223.89,151.467
		l15.043,2.636v21.723l-15.043-2.637V151.467z"/>
</g>
<g>
</g>
<g>
</g>
<g>
</g>
<g>
</g>
<g>
</g>
<g>
</g>
<g>
</g>
<g>
</g>
<g>
</g>
<g>
</g>
<g>
</g>
<g>
</g>
<g>
</g>
<g>
</g>
<g>
</g>
</svg>
