<svg version="1.1" xmlns="http://www.w3.org/2000/svg" xmlns:xlink="http://www.w3.org/1999/xlink" x="0px" y="0px"
	 viewBox="0 0 487.867 487.867" style="enable-background:new 0 0 487.867 487.867;" xml:space="preserve">
<g>
	<path d="M114.512,276.646h9.955c2.762,0,5-2.238,5-5s-2.238-5-5-5h-9.955c-2.762,0-5,2.238-5,5S111.75,276.646,114.512,276.646z"/>
	<path d="M482.867,250.505c2.762,0,5-2.238,5-5v-28.313c0-2.762-2.238-5-5-5h-47.504V105.505h41.939c2.762,0,5-2.238,5-5V61.609
		c0-2.762-2.238-5-5-5h-58.104c-0.078-0.001-0.153-0.012-0.231-0.012h-95.566c-0.04,0-0.077,0.011-0.116,0.012H10.564
		c-2.762,0-5,2.238-5,5v38.896c0,2.762,2.238,5,5,5h72.789v109.858C35.557,227.132,0,270.354,0,321.73
		c0,60.4,49.139,109.539,109.538,109.539h373.329c2.762,0,5-2.238,5-5v-28.313c0-2.762-2.238-5-5-5h-14.911V250.505H482.867z
		 M477.867,222.192v18.313h-42.504v-18.313H477.867z M425.363,212.192h-20.85V105.505h20.85V212.192z M419.199,66.609
		c3.419,0.123,6.164,2.936,6.164,6.384v22.512h-25.85h-150.58V66.609H419.199z M472.303,95.505h-36.939V72.993
		c0-2.263-0.461-4.421-1.294-6.384h38.234V95.505z M15.564,66.609h223.369v28.896H88.354H15.564V66.609z M239.813,105.505
		c0.901,1.312,2.409,2.174,4.121,2.174s3.22-0.862,4.121-2.174h146.459v106.676H93.354V105.505H239.813z M477.867,421.27H109.538
		C54.652,421.27,10,376.616,10,321.73s44.652-99.538,99.538-99.538h315.825v18.313H112.802c-10.398,0-20.334,1.985-29.48,5.562
		c-0.373,0.103-0.741,0.237-1.095,0.432c-29.674,12.104-50.65,41.257-50.65,75.232c0,33.989,20.994,63.151,50.688,75.247
		c0.336,0.183,0.688,0.314,1.046,0.413c9.149,3.579,19.09,5.566,29.492,5.566h365.065V421.27z M41.576,321.73
		c0-28.383,16.692-52.933,40.77-64.371c4.981,10.163,17.209,37.819,17.209,64.371c0,33.706-11.815,56.518-16.751,64.578
		C58.481,374.965,41.576,350.292,41.576,321.73z M457.956,392.956H112.802c-7.118,0-13.989-1.063-20.479-3.015
		c6.027-10.231,17.233-33.872,17.233-68.211c0-28.2-12.27-56.581-17.851-68.035c6.669-2.072,13.755-3.19,21.097-3.19h312.562v16.142
		H154.485c-2.762,0-5,2.238-5,5s2.238,5,5,5h270.878v9.911H120.965c-2.762,0-5,2.238-5,5s2.238,5,5,5h292.742
		c-2.896,2.7-5.135,6.093-6.454,9.912H124.467c-2.762,0-5,2.238-5,5s2.238,5,5,5h281.448v9.911H124.467c-2.762,0-5,2.238-5,5
		s2.238,5,5,5h281.448v9.912h-284.95c-2.762,0-5,2.238-5,5s2.238,5,5,5h284.95v9.911H114.512c-2.762,0-5,2.238-5,5s2.238,5,5,5
		h291.403v2.563c0,2.762,2.238,5,5,5s5-2.238,5-5v-39.898h3.444v39.898c0,2.762,2.238,5,5,5s5-2.238,5-5v-39.898h2.726v39.898
		c0,2.762,2.238,5,5,5s5-2.238,5-5v-39.898h2.726v39.898c0,2.762,2.238,5,5,5s5-2.238,5-5v-44.898v-19.438
		c0-7.561-3.451-14.33-8.859-18.818c1.263-0.908,2.094-2.38,2.094-4.055c0-2.762-2.238-5-5-5h-7.682v-9.911h7.682
		c2.762,0,5-2.238,5-5s-2.238-5-5-5h-7.682v-16.142h22.593V392.956z M444.811,328.868h-28.896v-14.438
		c0-7.966,6.481-14.447,14.448-14.447c7.966,0,14.447,6.481,14.447,14.447V328.868z"/>
</g>
<g>
</g>
<g>
</g>
<g>
</g>
<g>
</g>
<g>
</g>
<g>
</g>
<g>
</g>
<g>
</g>
<g>
</g>
<g>
</g>
<g>
</g>
<g>
</g>
<g>
</g>
<g>
</g>
<g>
</g>
</svg>
