<svg version="1.1" xmlns="http://www.w3.org/2000/svg" xmlns:xlink="http://www.w3.org/1999/xlink" x="0px" y="0px"
	 viewBox="0 0 487.866 487.866" style="enable-background:new 0 0 487.866 487.866;" xml:space="preserve">
<path d="M482.866,59.859H5c-2.761,0-5,2.239-5,5v290.894v67.254c0,2.761,2.239,5,5,5h477.866c2.761,0,5-2.239,5-5v-67.254V64.859
	C487.866,62.098,485.627,59.859,482.866,59.859z M477.866,69.859v31.548H49.083c-2.761,0-5,2.239-5,5s2.239,5,5,5h428.784v239.345
	H10V111.407h9.063c2.761,0,5-2.239,5-5s-2.239-5-5-5H10V69.859H477.866z M477.866,418.007H10v-57.254h467.866V418.007z
	 M20.776,382.164c0-2.761,2.239-5,5-5H462.09c2.761,0,5,2.239,5,5s-2.239,5-5,5H25.776
	C23.015,387.164,20.776,384.925,20.776,382.164z M20.776,399.397c0-2.761,2.239-5,5-5H462.09c2.761,0,5,2.239,5,5s-2.239,5-5,5
	H25.776C23.015,404.397,20.776,402.158,20.776,399.397z M354.628,291.615V135.793c0-2.761,2.239-5,5-5s5,2.239,5,5v155.823
	c0,2.761-2.239,5-5,5S354.628,294.377,354.628,291.615z M313.075,260.456v-93.503c0-2.761,2.239-5,5-5s5,2.239,5,5v93.503
	c0,2.761-2.239,5-5,5S313.075,263.217,313.075,260.456z"/>
<g>
</g>
<g>
</g>
<g>
</g>
<g>
</g>
<g>
</g>
<g>
</g>
<g>
</g>
<g>
</g>
<g>
</g>
<g>
</g>
<g>
</g>
<g>
</g>
<g>
</g>
<g>
</g>
<g>
</g>
</svg>
