<svg version="1.1" xmlns="http://www.w3.org/2000/svg" xmlns:xlink="http://www.w3.org/1999/xlink" x="0px" y="0px"
	 viewBox="0 0 487.866 487.866" style="enable-background:new 0 0 487.866 487.866;" xml:space="preserve">
<path d="M482.866,59.978H5c-2.761,0-5,2.239-5,5v290.656v67.254c0,2.761,2.239,5,5,5h477.866c2.761,0,5-2.239,5-5v-67.254V64.978
	C487.866,62.217,485.627,59.978,482.866,59.978z M477.866,69.978v243.06h-9.063c-2.761,0-5,2.239-5,5s2.239,5,5,5h9.063v27.596H10
	v-27.596h428.784c2.761,0,5-2.239,5-5s-2.239-5-5-5H10V69.978H477.866z M477.866,417.888H10v-57.254h467.866V417.888z
	 M123.238,270.641V114.818c0-2.761,2.239-5,5-5s5,2.239,5,5v155.823c0,2.761-2.239,5-5,5S123.238,273.402,123.238,270.641z
	 M164.792,239.481v-93.504c0-2.761,2.239-5,5-5s5,2.239,5,5v93.504c0,2.761-2.239,5-5,5S164.792,242.243,164.792,239.481z
	 M98.866,409.519h358.4c2.761,0,5-2.239,5-5v-25.605c0-2.761-2.239-5-5-5h-358.4c-2.761,0-5,2.239-5,5v25.605
	C93.866,407.28,96.105,409.519,98.866,409.519z M103.866,383.914h348.4v15.605h-348.4V383.914z M56.2,409.519
	c10.224,0,18.542-8.318,18.542-18.542s-8.318-18.542-18.542-18.542s-18.542,8.318-18.542,18.542S45.976,409.519,56.2,409.519z
	 M56.2,382.436c4.71,0,8.542,3.832,8.542,8.542s-3.832,8.542-8.542,8.542s-8.542-3.832-8.542-8.542S51.49,382.436,56.2,382.436z"/>
<g>
</g>
<g>
</g>
<g>
</g>
<g>
</g>
<g>
</g>
<g>
</g>
<g>
</g>
<g>
</g>
<g>
</g>
<g>
</g>
<g>
</g>
<g>
</g>
<g>
</g>
<g>
</g>
<g>
</g>
</svg>
