<svg version="1.1" xmlns="http://www.w3.org/2000/svg" xmlns:xlink="http://www.w3.org/1999/xlink" x="0px" y="0px"
	 viewBox="0 0 487.867 487.867" style="enable-background:new 0 0 487.867 487.867;" xml:space="preserve">
<path d="M487.867,194.235c0-0.3-0.037-0.593-0.09-0.883c-0.014-0.077-0.029-0.153-0.046-0.229c-0.064-0.277-0.143-0.55-0.251-0.81
	c-0.012-0.03-0.03-0.057-0.043-0.086c-0.104-0.235-0.228-0.459-0.366-0.675c-0.042-0.065-0.083-0.128-0.127-0.191
	c-0.163-0.23-0.338-0.452-0.539-0.653c-0.005-0.005-0.01-0.008-0.015-0.013c-0.194-0.193-0.411-0.366-0.638-0.526
	c-0.065-0.047-0.132-0.09-0.2-0.134c-0.063-0.04-0.12-0.087-0.185-0.124L280.839,71.828c-1.552-0.896-3.463-0.894-5.013,0.007
	L2.487,230.682c-0.063,0.037-0.119,0.082-0.179,0.121c-0.066,0.042-0.129,0.085-0.193,0.13c-0.221,0.157-0.432,0.326-0.622,0.513
	c-0.011,0.011-0.023,0.019-0.034,0.03c-0.201,0.201-0.377,0.423-0.539,0.654c-0.043,0.061-0.083,0.123-0.124,0.187
	c-0.136,0.213-0.259,0.435-0.362,0.667c-0.015,0.033-0.034,0.064-0.048,0.098c-0.109,0.261-0.189,0.534-0.252,0.813
	c-0.017,0.074-0.031,0.148-0.044,0.222c-0.052,0.288-0.088,0.579-0.088,0.878c0,0.004-0.001,0.008-0.001,0.012v58.62
	c0,1.786,0.953,3.437,2.5,4.33l204.528,118.084c0.15,0.086,0.306,0.157,0.462,0.227c0.04,0.018,0.077,0.041,0.118,0.058
	c0.264,0.11,0.535,0.189,0.81,0.251c0.074,0.017,0.148,0.031,0.224,0.044c0.294,0.053,0.589,0.089,0.887,0.089
	c0.298,0,0.594-0.036,0.888-0.089c0.075-0.014,0.15-0.027,0.224-0.044c0.276-0.063,0.55-0.142,0.815-0.253
	c0.033-0.014,0.064-0.033,0.097-0.048c0.166-0.073,0.331-0.15,0.49-0.242L485.38,257.186c1.54-0.896,2.487-2.542,2.487-4.323v-58.62
	c0-0.001,0-0.002,0-0.003C487.867,194.238,487.867,194.237,487.867,194.235z M209.521,347.311L37.055,247.739L300.426,94.684
	l172.466,99.572L209.521,347.311z M278.347,81.937l12.095,6.983L27.071,241.974l-12.095-6.983L278.347,81.937z M214.528,403.021
	v-4.751c0-2.762-2.238-5-5-5s-5,2.238-5,5v4.779L10,290.738v-47.073l14.541,8.395c0.046,0.027,0.091,0.054,0.137,0.079
	l179.85,103.836v17.308c0,2.762,2.238,5,5,5s5-2.238,5-5v-17.317l263.339-153.035v47.054L214.528,403.021z M188.53,373.83
	c-0.926,1.604-2.606,2.501-4.335,2.501c-0.848,0-1.708-0.216-2.495-0.671l-153.6-88.681c-2.392-1.381-3.211-4.438-1.83-6.83
	c1.379-2.39,4.437-3.215,6.83-1.83L186.7,367C189.092,368.381,189.911,371.439,188.53,373.83z M461.59,236.625
	c1.388,2.388,0.576,5.448-1.811,6.836L237.913,372.397c-0.791,0.459-1.655,0.678-2.508,0.678c-1.724,0-3.399-0.892-4.328-2.488
	c-1.388-2.388-0.576-5.448,1.811-6.836l221.866-128.936C457.145,233.427,460.201,234.238,461.59,236.625z M416.421,188.783
	l-120.002-68.727c-1.525-0.874-3.396-0.883-4.927-0.024l-72.291,40.455c-1.572,0.88-2.55,2.537-2.559,4.339
	c-0.009,1.801,0.952,3.468,2.515,4.363l120.002,68.727c0.77,0.44,1.628,0.661,2.485,0.661c0.842,0,1.683-0.212,2.441-0.637
	l72.291-40.455c1.572-0.88,2.55-2.537,2.559-4.339C418.944,191.346,417.983,189.679,416.421,188.783z M341.673,227.831
	l-109.882-62.93l62.114-34.76l109.882,62.93L341.673,227.831z"/>
<g>
</g>
<g>
</g>
<g>
</g>
<g>
</g>
<g>
</g>
<g>
</g>
<g>
</g>
<g>
</g>
<g>
</g>
<g>
</g>
<g>
</g>
<g>
</g>
<g>
</g>
<g>
</g>
<g>
</g>
</svg>
