<svg version="1.1" xmlns="http://www.w3.org/2000/svg" xmlns:xlink="http://www.w3.org/1999/xlink" x="0px" y="0px"
	 viewBox="0 0 488.602 488.602" style="enable-background:new 0 0 488.602 488.602;" xml:space="preserve">
<path d="M435.093,0H53.509c-2.761,0-5,2.239-5,5v181.262c0,2.761,2.239,5,5,5h145.587c8.408,14.004,23.132,23.795,40.206,25.411
	v190.92c-31.371,2.167-57.27,24.52-64.747,54.142c-0.022,0.09-0.046,0.178-0.063,0.271c-1.379,5.553-2.123,11.354-2.123,17.327
	v4.269c0,2.761,2.239,5,5,5h133.867c2.762,0,5-2.239,5-5v-4.269c0-5.974-0.745-11.776-2.124-17.33
	c-0.016-0.089-0.04-0.174-0.061-0.262c-7.476-29.625-33.376-51.981-64.749-54.148v-190.92c17.074-1.615,31.798-11.407,40.206-25.411
	h145.586c2.762,0,5-2.239,5-5V5C440.093,2.239,437.855,0,435.093,0z M302.407,457.911h-6.906c-2.762,0-5,2.239-5,5s2.238,5,5,5
	h9.659c0.651,3.473,1.028,7.041,1.071,10.69H182.372c0.042-3.649,0.42-7.217,1.071-10.69h82.04c2.762,0,5-2.239,5-5s-2.238-5-5-5
	h-79.287c8.737-23.623,31.483-40.512,58.106-40.512S293.67,434.288,302.407,457.911z M244.301,206.917
	c-13.288,0-25.176-6.104-33.012-15.654h66.025C269.477,200.812,257.589,206.917,244.301,206.917z M201.608,164.223
	c0-23.542,19.152-42.694,42.693-42.694s42.693,19.152,42.693,42.694c0,6.055-1.275,11.816-3.558,17.039h-78.27
	C202.883,176.039,201.608,170.278,201.608,164.223z M430.093,181.262H294.151c1.833-5.349,2.843-11.077,2.843-17.039
	c0-29.056-23.638-52.694-52.693-52.694c-29.055,0-52.693,23.638-52.693,52.694c0,5.962,1.01,11.69,2.843,17.039H58.509V10h371.584
	V181.262z M85.701,48.388c0-2.761,2.239-5,5-5h307.2c2.762,0,5,2.239,5,5s-2.238,5-5,5h-307.2
	C87.94,53.388,85.701,51.149,85.701,48.388z M326.101,99.589c0,2.761-2.238,5-5,5h-153.6c-2.761,0-5-2.239-5-5s2.239-5,5-5h153.6
	C323.863,94.589,326.101,96.828,326.101,99.589z"/>
<g>
</g>
<g>
</g>
<g>
</g>
<g>
</g>
<g>
</g>
<g>
</g>
<g>
</g>
<g>
</g>
<g>
</g>
<g>
</g>
<g>
</g>
<g>
</g>
<g>
</g>
<g>
</g>
<g>
</g>
</svg>
