<svg version="1.1" xmlns="http://www.w3.org/2000/svg" xmlns:xlink="http://www.w3.org/1999/xlink" x="0px" y="0px"
	 viewBox="0 0 487.867 487.867" style="enable-background:new 0 0 487.867 487.867;" xml:space="preserve">
<path d="M418.017,0h-72.255h-10.019H49.85c-2.761,0-5,2.238-5,5v477.867c0,2.762,2.239,5,5,5h285.893h10.019h72.255
	c13.785,0,25-11.215,25-25V25C443.017,11.215,431.802,0,418.017,0z M335.743,477.867H88.858v-9.064c0-2.762-2.239-5-5-5
	s-5,2.238-5,5v9.064H54.85V10h24.007v428.784c0,2.762,2.239,5,5,5s5-2.238,5-5V10h246.886h10.019c11.028,0,20,8.972,20,20v427.867
	c0,11.028-8.972,20-20,20H335.743z M433.017,462.867c0,8.271-6.729,15-15,15h-49.918c4.761-5.312,7.663-12.322,7.663-20V30
	c0-7.678-2.902-14.688-7.663-20h49.918c8.271,0,15,6.729,15,15V462.867z M402.174,25.777V462.09c0,2.762-2.238,5-5,5s-5-2.238-5-5
	V25.777c0-2.762,2.238-5,5-5S402.174,23.016,402.174,25.777z M419.407,25.777V462.09c0,2.762-2.238,5-5,5s-5-2.238-5-5V25.777
	c0-2.762,2.238-5,5-5S419.407,23.016,419.407,25.777z M223.337,124.438c-52.528,0-95.264,42.735-95.264,95.264
	c0,35.174,19.164,65.954,47.597,82.455v23.646c-0.257,0.602-0.4,1.263-0.4,1.959s0.143,1.357,0.4,1.959v13.286
	c-0.257,0.602-0.4,1.263-0.4,1.959s0.143,1.357,0.4,1.959v15.314c0,2.762,2.239,5,5,5h12.482
	c2.394,14.499,15.013,25.596,30.18,25.596h0.009c15.167,0,27.786-11.097,30.18-25.596h12.482c2.762,0,5-2.238,5-5v-15.734
	c0.159-0.488,0.267-0.999,0.267-1.54s-0.108-1.052-0.267-1.54V329.3c0.159-0.488,0.267-0.999,0.267-1.54s-0.108-1.052-0.267-1.54
	v-24.065c28.434-16.501,47.598-47.281,47.598-82.455C318.601,167.173,275.865,124.438,223.337,124.438z M252.47,299.834
	c-9.094,3.317-18.906,5.13-29.133,5.13s-20.039-1.813-29.133-5.13v-44.416l8.416,8.993c0.946,1.01,2.268,1.583,3.651,1.583
	c1.384,0,2.705-0.573,3.651-1.584l13.416-14.335l13.416,14.336c0.946,1.01,2.268,1.583,3.651,1.583c1.384,0,2.705-0.573,3.651-1.584
	l8.416-8.992V299.834z M261.003,339.965H185.67v-7.204h75.333V339.965z M223.341,382.834h-0.009
	c-9.633,0-17.742-6.647-19.982-15.596h39.973C241.083,376.187,232.974,382.834,223.341,382.834z M248.937,357.238h-51.2H185.67
	v-7.273h75.333v7.273H248.937z M261.003,322.761H185.67v-15.566c0.461,0.199,0.924,0.395,1.389,0.587
	c0.151,0.072,0.305,0.133,0.464,0.19c11.062,4.504,23.151,6.994,35.813,6.994c12.662,0,24.751-2.489,35.813-6.994
	c0.159-0.057,0.313-0.118,0.464-0.19c0.465-0.192,0.928-0.387,1.389-0.587V322.761z M262.47,295.416v-52.657
	c0-2.053-1.254-3.896-3.163-4.65c-1.909-0.753-4.085-0.266-5.487,1.234l-13.416,14.335l-13.416-14.336
	c-0.946-1.01-2.268-1.583-3.651-1.583c-1.384,0-2.705,0.573-3.651,1.584l-13.416,14.335l-13.416-14.336
	c-1.403-1.498-3.578-1.986-5.488-1.233c-1.909,0.754-3.163,2.598-3.163,4.65v52.657c-27.374-14.207-46.13-42.802-46.13-75.714
	c0-47.015,38.249-85.264,85.264-85.264c47.015,0,85.264,38.249,85.264,85.264C308.601,252.613,289.844,281.209,262.47,295.416z
	 M218.27,107.737V64.73c0-2.762,2.239-5,5-5s5,2.238,5,5v43.007c0,2.762-2.239,5-5,5S218.27,110.499,218.27,107.737z
	 M150.475,80.244c-1.058-2.551,0.153-5.477,2.704-6.534c2.549-1.057,5.476,0.152,6.534,2.704l16.471,39.729
	c1.058,2.551-0.153,5.477-2.704,6.534c-0.626,0.259-1.275,0.382-1.913,0.382c-1.961,0-3.823-1.161-4.621-3.086L150.475,80.244z
	 M274.911,117.874l17.896-39.108c1.149-2.512,4.117-3.617,6.627-2.467c2.512,1.149,3.615,4.116,2.467,6.627l-17.896,39.108
	c-0.841,1.837-2.654,2.921-4.55,2.921c-0.696,0-1.403-0.146-2.077-0.454C274.866,123.352,273.763,120.385,274.911,117.874z"/>
<g>
</g>
<g>
</g>
<g>
</g>
<g>
</g>
<g>
</g>
<g>
</g>
<g>
</g>
<g>
</g>
<g>
</g>
<g>
</g>
<g>
</g>
<g>
</g>
<g>
</g>
<g>
</g>
<g>
</g>
</svg>
