<svg version="1.1" xmlns="http://www.w3.org/2000/svg" xmlns:xlink="http://www.w3.org/1999/xlink" x="0px" y="0px"
	 viewBox="0 0 485.091 485.091" style="enable-background:new 0 0 485.091 485.091;" xml:space="preserve">
<path d="M428.403,219.321h-83.384V5.053c0-0.016,0.005-0.032,0.005-0.048c0-1.382-0.561-2.634-1.468-3.539
	C342.651,0.56,341.4,0,340.019,0c-0.015,0-0.029,0.004-0.044,0.004H56.809h0h0h-0.12c-2.761,0-5,2.239-5,5v271.645v203.442
	c0,2.761,2.239,5,5,5h31.679c2.761,0,5-2.239,5-5V281.649h95.023v198.442c0,2.761,2.239,5,5,5h30.837c2.761,0,5-2.239,5-5V281.649
	h75.42v198.438c0,2.761,2.238,5,5,5h30.838c2.762,0,5-2.239,5-5V281.649h36.804v198.438c0,2.761,2.238,5,5,5h30.836
	c2.762,0,5-2.239,5-5V281.649h5.277c2.762,0,5-2.239,5-5v-52.328C433.403,221.56,431.165,219.321,428.403,219.321z M317.285,219.321
	V99.615h17.734v119.706H317.285z M88.108,219.321V99.615h219.177v119.706H88.108z M335.019,89.615H88.108V10.004h246.911V89.615z
	 M83.367,475.091H61.688V281.649h21.679V475.091z M219.228,475.091H198.39V281.649h10.419h10.418V475.091z M335.486,475.086h-20.838
	V281.649h20.838V475.086z M413.125,475.086H392.29V281.649h20.836V475.086z M423.403,271.649h-5.277H387.29h-46.804l-30.835-0.008
	c-0.001,0-0.002,0-0.003,0c-0.027,0-0.052,0.007-0.079,0.008H227.82v-2.58c0-2.761-2.239-5-5-5s-5,2.239-5,5v2.58h-9.011H193.39
	H61.688V10.004h16.42v214.317c0,2.761,2.239,5,5,5H217.82v9.729c0,2.761,2.239,5,5,5s5-2.239,5-5v-9.729h195.583V271.649z"/>
<g>
</g>
<g>
</g>
<g>
</g>
<g>
</g>
<g>
</g>
<g>
</g>
<g>
</g>
<g>
</g>
<g>
</g>
<g>
</g>
<g>
</g>
<g>
</g>
<g>
</g>
<g>
</g>
<g>
</g>
</svg>
