<svg version="1.1" xmlns="http://www.w3.org/2000/svg" xmlns:xlink="http://www.w3.org/1999/xlink" x="0px" y="0px"
	 viewBox="0 0 487.876 487.876" style="enable-background:new 0 0 487.876 487.876;" xml:space="preserve">
<path d="M417.683,0H45.193c-2.761,0-5,2.239-5,5v477.876c0,2.761,2.239,5,5,5h372.489c16.542,0,30-13.458,30-30V30
	C447.683,13.458,434.225,0,417.683,0z M50.193,10h91.874v467.876H50.193V10z M437.683,457.876c0,11.028-8.972,20-20,20H179.559
	v-12.067c0-2.761-2.239-5-5-5s-5,2.239-5,5v12.067h-17.492V10h17.492v425.79c0,2.761,2.239,5,5,5s5-2.239,5-5V10h238.124
	c11.028,0,20,8.972,20,20V457.876z M113.46,102.392H79.327c-2.761,0-5,2.239-5,5V450.21c0,2.761,2.239,5,5,5h34.133
	c2.761,0,5-2.239,5-5V107.392C118.46,104.631,116.221,102.392,113.46,102.392z M108.46,445.21H84.327V112.392h24.133V445.21z
	 M113.46,34.134H79.327c-2.761,0-5,2.239-5,5v34.124c0,2.761,2.239,5,5,5h34.133c2.761,0,5-2.239,5-5V39.134
	C118.46,36.373,116.221,34.134,113.46,34.134z M108.46,68.258H84.327V44.134h24.133V68.258z M410.653,68.268H221.56
	c-2.761,0-5,2.239-5,5v119.459c0,2.761,2.239,5,5,5h189.094c2.761,0,5-2.239,5-5V73.268
	C415.653,70.507,413.415,68.268,410.653,68.268z M405.653,187.727H226.56V78.268h179.094V187.727z"/>
<g>
</g>
<g>
</g>
<g>
</g>
<g>
</g>
<g>
</g>
<g>
</g>
<g>
</g>
<g>
</g>
<g>
</g>
<g>
</g>
<g>
</g>
<g>
</g>
<g>
</g>
<g>
</g>
<g>
</g>
</svg>
