<svg version="1.1" xmlns="http://www.w3.org/2000/svg" xmlns:xlink="http://www.w3.org/1999/xlink" x="0px" y="0px"
	 viewBox="0 0 471.211 471.211" style="enable-background:new 0 0 471.211 471.211;" xml:space="preserve">
<path d="M471.211,105.239c0-24.947-25.149-47.953-70.814-64.78C356.302,24.21,297.778,15.261,235.605,15.261
	S114.909,24.21,70.814,40.459C25.149,57.286,0,80.292,0,105.239v81.25c0,2.102,0.194,4.188,0.548,6.259
	C0.209,193.423,0,194.174,0,194.98v81.25c0,2.102,0.194,4.188,0.548,6.259C0.209,283.164,0,283.915,0,284.722v81.25
	c0,24.946,25.149,47.953,70.814,64.78c44.095,16.249,102.619,25.198,164.792,25.198s120.696-8.949,164.792-25.198
	c45.665-16.827,70.814-39.834,70.814-64.78v-81.25c0-0.807-0.209-1.558-0.548-2.232c0.354-2.072,0.548-4.158,0.548-6.259v-81.25
	c0-0.807-0.209-1.558-0.548-2.232c0.354-2.072,0.548-4.158,0.548-6.259V105.239z M74.271,49.842
	c43.016-15.852,100.312-24.581,161.334-24.581s118.318,8.729,161.334,24.581c40.845,15.052,64.271,35.243,64.271,55.397
	c0,9.464-4.998,18.856-14.854,27.918c-2.033,1.869-2.166,5.032-0.297,7.064c1.869,2.032,5.032,2.166,7.064,0.297
	c3.091-2.842,5.783-5.74,8.086-8.688v54.658c0,20.154-23.426,40.346-64.271,55.397c-13.58,5.004-28.587,9.297-44.682,12.831v-71.079
	c21.615-4.614,41.329-10.52,58.23-17.576c2.548-1.064,3.751-3.992,2.688-6.541c-1.063-2.549-3.993-3.749-6.54-2.688
	c-43.203,18.038-105.541,28.384-171.029,28.384c-61.022,0-118.318-8.729-161.334-24.581C33.426,145.585,10,125.394,10,105.239
	S33.426,64.894,74.271,49.842z M70.814,170.02c44.095,16.249,102.619,25.198,164.792,25.198c37.465,0,73.977-3.348,106.652-9.559
	v71.128c-32.446,6.324-68.831,9.681-106.652,9.681c-61.021,0-118.318-8.729-161.334-24.581C33.426,226.835,10,206.644,10,186.489
	v-54.708C21.302,146.282,41.955,159.385,70.814,170.02z M70.814,251.27c44.096,16.249,102.62,25.198,164.792,25.198
	c37.695,0,74.042-3.295,106.652-9.507v79.568c-32.446,6.324-68.831,9.681-106.652,9.681c-61.021,0-118.318-8.729-161.334-24.581
	C33.426,316.576,10,296.385,10,276.23v-63.2C21.302,227.531,41.955,240.635,70.814,251.27z M461.211,365.972
	c0,20.154-23.426,40.346-64.271,55.397c-13.581,5.004-28.587,9.297-44.682,12.831v-9.161c0-2.762-2.239-5-5-5s-5,2.238-5,5v11.23
	c-32.445,6.324-68.831,9.681-106.652,9.681c-61.022,0-118.318-8.729-161.334-24.581C33.426,406.317,10,386.126,10,365.972v-63.2
	c11.302,14.5,31.955,27.604,60.814,38.239c44.096,16.249,102.62,25.198,164.792,25.198c37.695,0,74.042-3.295,106.652-9.507v39.365
	c0,2.762,2.239,5,5,5s5-2.238,5-5V354.68c17.364-3.719,33.546-8.291,48.14-13.669c28.859-10.635,49.512-23.739,60.814-38.239
	V365.972z M461.211,276.23c0,20.154-23.426,40.346-64.271,55.397c-13.58,5.004-28.587,9.297-44.682,12.831v-79.521
	c17.364-3.719,33.546-8.291,48.14-13.669c28.859-10.635,49.512-23.739,60.814-38.239V276.23z"/>
<g>
</g>
<g>
</g>
<g>
</g>
<g>
</g>
<g>
</g>
<g>
</g>
<g>
</g>
<g>
</g>
<g>
</g>
<g>
</g>
<g>
</g>
<g>
</g>
<g>
</g>
<g>
</g>
<g>
</g>
</svg>
