<svg version="1.1" xmlns="http://www.w3.org/2000/svg" xmlns:xlink="http://www.w3.org/1999/xlink" x="0px" y="0px"
	 viewBox="0 0 487.043 487.043" style="enable-background:new 0 0 487.043 487.043;" xml:space="preserve">
<path d="M392.037,134.842c-0.001-0.299-0.038-0.591-0.09-0.879c-0.014-0.075-0.028-0.149-0.045-0.223
	c-0.064-0.279-0.143-0.554-0.253-0.815c-0.01-0.024-0.024-0.046-0.035-0.07c-0.105-0.24-0.233-0.469-0.375-0.69
	c-0.041-0.063-0.081-0.125-0.125-0.187c-0.163-0.231-0.339-0.453-0.54-0.655c-0.003-0.003-0.007-0.006-0.011-0.01
	c-0.196-0.195-0.414-0.368-0.642-0.53c-0.065-0.046-0.131-0.09-0.198-0.133c-0.063-0.04-0.121-0.087-0.186-0.125L164.617,0.669
	c-1.556-0.897-3.474-0.893-5.025,0.015L97.48,37.02c-0.058,0.034-0.11,0.076-0.166,0.113c-0.068,0.044-0.134,0.089-0.2,0.135
	c-0.211,0.15-0.412,0.312-0.595,0.491c-0.019,0.019-0.041,0.034-0.06,0.053c-0.199,0.2-0.373,0.419-0.534,0.647
	c-0.044,0.063-0.085,0.127-0.127,0.192c-0.132,0.207-0.251,0.422-0.351,0.647c-0.018,0.04-0.041,0.077-0.058,0.118
	c-0.108,0.259-0.187,0.53-0.25,0.807c-0.017,0.075-0.031,0.15-0.045,0.227c-0.051,0.282-0.085,0.568-0.087,0.861
	c0,0.009-0.003,0.016-0.003,0.016v310.858c0,1.786,0.953,3.437,2.5,4.33l224.92,129.857c0.151,0.087,0.307,0.158,0.464,0.228
	c0.039,0.018,0.076,0.04,0.115,0.057c0.264,0.11,0.536,0.189,0.811,0.252c0.074,0.017,0.148,0.03,0.223,0.044
	c0.294,0.053,0.59,0.089,0.887,0.089c0.298,0,0.594-0.036,0.888-0.089c0.075-0.014,0.15-0.027,0.224-0.044
	c0.277-0.063,0.55-0.142,0.815-0.253c0.033-0.014,0.063-0.033,0.096-0.047c0.166-0.074,0.331-0.15,0.49-0.243l62.112-36.095
	c0.046-0.027,0.082-0.064,0.127-0.092c0.155-0.097,0.297-0.207,0.44-0.319c0.12-0.094,0.241-0.186,0.35-0.289
	c0.119-0.113,0.225-0.238,0.333-0.362c0.105-0.121,0.212-0.239,0.304-0.368c0.095-0.133,0.173-0.276,0.255-0.418
	c0.077-0.135,0.158-0.268,0.222-0.409c0.069-0.151,0.119-0.309,0.173-0.468c0.05-0.149,0.103-0.296,0.139-0.449
	c0.036-0.152,0.055-0.308,0.077-0.465c0.024-0.175,0.047-0.348,0.053-0.525c0.002-0.054,0.016-0.105,0.016-0.16V134.857
	c0-0.002-0.001-0.004-0.001-0.004L392.037,134.842z M329.925,174.06l52.112-30.486V443.07l-52.112,30.284V174.06z M162.134,10.783
	l214.953,124.103l-52.178,30.524L109.956,41.307L162.134,10.783z M105.005,49.996l20.907,12.071v257.74c0,2.762,2.239,5,5,5
	s5-2.238,5-5V67.84l184.013,106.24v299.303l-184.013-106.24v-14.324c0-2.762-2.239-5-5-5s-5,2.238-5,5v8.551l-20.907-12.071V49.996z
	 M351.747,177.831v261.955c0,2.762-2.239,5-5,5s-5-2.238-5-5V177.831c0-2.762,2.239-5,5-5S351.747,175.069,351.747,177.831z
	 M372.716,166.654v261.955c0,2.762-2.239,5-5,5s-5-2.238-5-5V166.654c0-2.762,2.239-5,5-5S372.716,163.892,372.716,166.654z
	 M325.497,154.024L137.815,46.775c-2.397-1.37-3.23-4.424-1.86-6.821s4.424-3.23,6.822-1.86l187.683,107.249
	c2.397,1.37,3.23,4.424,1.86,6.821c-0.923,1.615-2.61,2.521-4.346,2.521C327.133,154.684,326.28,154.471,325.497,154.024z
	 M154.722,25.203c1.369-2.397,4.424-3.232,6.821-1.862l187.683,107.175c2.398,1.369,3.232,4.423,1.862,6.821
	c-0.922,1.615-2.61,2.521-4.346,2.521c-0.841,0-1.693-0.212-2.475-0.659L156.585,32.024
	C154.187,30.655,153.353,27.601,154.722,25.203z M160.225,135.676c1.37-2.397,4.424-3.23,6.823-1.859l124.413,71.133
	c2.397,1.371,3.229,4.426,1.859,6.822c-0.923,1.614-2.61,2.52-4.346,2.52c-0.841,0-1.694-0.213-2.477-0.66l-124.413-71.133
	C159.687,141.127,158.855,138.073,160.225,135.676z M266.624,257.022c-0.925,1.609-2.608,2.51-4.34,2.51
	c-0.845,0-1.701-0.215-2.487-0.666l-84.457-48.542c-2.394-1.376-3.219-4.433-1.843-6.826c1.376-2.395,4.43-3.22,6.827-1.844
	l84.457,48.542C267.175,251.572,268,254.628,266.624,257.022z"/>
<g>
</g>
<g>
</g>
<g>
</g>
<g>
</g>
<g>
</g>
<g>
</g>
<g>
</g>
<g>
</g>
<g>
</g>
<g>
</g>
<g>
</g>
<g>
</g>
<g>
</g>
<g>
</g>
<g>
</g>
</svg>
