<svg version="1.1" xmlns="http://www.w3.org/2000/svg" xmlns:xlink="http://www.w3.org/1999/xlink" x="0px" y="0px"
	 viewBox="0 0 487.859 487.859" style="enable-background:new 0 0 487.859 487.859;" xml:space="preserve">
<path d="M487.859,120.235c0-11.709-7.968-21.723-19.376-24.352l-125.68-29c-0.018-0.004-0.036-0.005-0.054-0.009
	c-0.064-0.014-0.13-0.022-0.195-0.034c-0.266-0.047-0.535-0.077-0.806-0.081c-0.025,0-0.048-0.007-0.073-0.007
	c-0.012,0-0.022,0.003-0.034,0.003H5.392c-1.279-0.099-2.557,0.3-3.56,1.123C1.46,68.182,1.145,68.54,0.88,68.929
	c-0.014,0.02-0.027,0.039-0.041,0.059c-0.161,0.244-0.301,0.5-0.417,0.768c-0.019,0.043-0.035,0.086-0.053,0.13
	c-0.107,0.268-0.196,0.542-0.256,0.826c-0.008,0.038-0.012,0.076-0.019,0.114C0.036,71.131,0,71.441,0,71.756v157.162
	c0,2.761,2.238,5,5,5h5.859v182.201c0,2.761,2.238,5,5,5h32.58c2.762,0,5-2.239,5-5v-88.939h76.88v88.939c0,2.761,2.238,5,5,5
	h32.591c2.762,0,5-2.239,5-5v-88.939h152.904v88.936c0,2.761,2.238,5,5,5h32.582c2.762,0,5-2.239,5-5V233.918h66.024v182.197
	c0,2.761,2.238,5,5,5h32.581c2.762,0,5-2.239,5-5V233.918h5.857c2.762,0,5-2.239,5-5v-43.44v0v0V120.235z M477.859,120.235v60.243
	H346.676v-9.08c0-2.761-2.238-5-5-5s-5,2.239-5,5v9.08H172.91v-59.752c0-11.874-8.453-22.183-20.099-24.513L55.57,76.755h281.106
	v56.437c0,2.761,2.238,5,5,5s5-2.239,5-5V78.04l119.561,27.588C473.08,107.205,477.859,113.212,477.859,120.235z M20.859,411.119
	V233.918h22.58v55.543c0,0.016-0.005,0.032-0.005,0.048v32.669c0,0.017,0.005,0.032,0.005,0.048v88.891H20.859z M130.319,233.918
	v50.592h-76.88v-50.592H130.319z M53.439,317.179V294.51h76.88v22.669H53.439z M140.319,411.119v-88.939V289.51v-55.592h22.591
	v55.543c0,0.016-0.005,0.032-0.005,0.048v32.669c0,0.017,0.005,0.032,0.005,0.048v88.891H140.319z M172.91,284.51v-50.592h152.904
	v50.592H172.91z M172.91,294.51h163.765v22.669H172.91V294.51z M358.396,411.115h-22.582v-83.936h5.86c2.762,0,5-2.239,5-5V289.51
	c0-2.761-2.238-5-5-5h-5.86v-50.592h11.291h11.291V411.115z M467.002,411.115h-22.581V233.918h22.581V411.115z M477.859,223.918
	h-5.857h-32.581h-76.024h-16.291h-16.228c-0.021,0-0.042-0.006-0.063-0.006s-0.042,0.006-0.063,0.006H167.91h-32.591H10V77.836
	l140.85,28.183c6.988,1.398,12.061,7.583,12.061,14.707v79.516c0,2.761,2.238,5,5,5s5-2.239,5-5v-9.764h304.949V223.918z"/>
<g>
</g>
<g>
</g>
<g>
</g>
<g>
</g>
<g>
</g>
<g>
</g>
<g>
</g>
<g>
</g>
<g>
</g>
<g>
</g>
<g>
</g>
<g>
</g>
<g>
</g>
<g>
</g>
<g>
</g>
</svg>
