<svg version="1.1" xmlns="http://www.w3.org/2000/svg" xmlns:xlink="http://www.w3.org/1999/xlink" x="0px" y="0px"
	 viewBox="0 0 487.866 487.866" style="enable-background:new 0 0 487.866 487.866;" xml:space="preserve">
<path d="M482.866,69.401H323.578H164.289H5c-2.761,0-5,2.238-5,5v339.064c0,2.762,2.239,5,5,5h159.289h159.289h159.289
	c2.761,0,5-2.238,5-5V74.401C487.866,71.639,485.627,69.401,482.866,69.401z M10,79.401h149.289v329.064H10V79.401z M169.289,79.401
	h149.289v329.064H169.289V79.401z M477.866,408.465H328.578V79.401h149.289V408.465z M146.533,137.422v51.296c0,2.762-2.239,5-5,5
	s-5-2.238-5-5v-51.296c0-2.762,2.239-5,5-5S146.533,134.661,146.533,137.422z M146.533,98.864v8.539c0,2.762-2.239,5-5,5
	s-5-2.238-5-5v-3.539H27.066v118.008h109.467v-3.134c0-2.762,2.239-5,5-5s5,2.238,5,5v8.134c0,2.762-2.239,5-5,5H22.066
	c-2.761,0-5-2.238-5-5V98.864c0-2.762,2.239-5,5-5h119.467C144.294,93.864,146.533,96.102,146.533,98.864z M120.933,115.93
	c0,2.762-2.239,5-5,5H47.667c-2.761,0-5-2.238-5-5s2.239-5,5-5h68.267C118.694,110.93,120.933,113.168,120.933,115.93z
	 M120.933,132.998c0,2.762-2.239,5-5,5H47.667c-2.761,0-5-2.238-5-5s2.239-5,5-5h68.267
	C118.694,127.998,120.933,130.236,120.933,132.998z M115.933,155.065H47.667c-2.761,0-5-2.238-5-5s2.239-5,5-5h68.267
	c2.761,0,5,2.238,5,5S118.694,155.065,115.933,155.065z M34.236,162.131c-2.761,0-5,2.238-5,5v42.673c0,2.762,2.239,5,5,5H48.57
	c2.761,0,5-2.238,5-5v-42.673c0-2.762-2.239-5-5-5H34.236z M43.57,204.804h-4.333v-32.673h4.333V204.804z M146.533,291.025v51.297
	c0,2.762-2.239,5-5,5s-5-2.238-5-5v-51.297c0-2.762,2.239-5,5-5S146.533,288.263,146.533,291.025z M146.533,252.466v8.54
	c0,2.762-2.239,5-5,5s-5-2.238-5-5v-3.54H27.066v118.008h109.467v-3.134c0-2.762,2.239-5,5-5s5,2.238,5,5v8.134c0,2.762-2.239,5-5,5
	H22.066c-2.761,0-5-2.238-5-5V252.466c0-2.762,2.239-5,5-5h119.467C144.294,247.466,146.533,249.705,146.533,252.466z
	 M120.933,269.534c0,2.762-2.239,5-5,5H47.667c-2.761,0-5-2.238-5-5s2.239-5,5-5h68.267
	C118.694,264.534,120.933,266.772,120.933,269.534z M120.933,286.601c0,2.762-2.239,5-5,5H47.667c-2.761,0-5-2.238-5-5s2.239-5,5-5
	h68.267C118.694,281.601,120.933,283.839,120.933,286.601z M115.933,308.667H47.667c-2.761,0-5-2.238-5-5s2.239-5,5-5h68.267
	c2.761,0,5,2.238,5,5S118.694,308.667,115.933,308.667z M34.236,315.735c-2.761,0-5,2.238-5,5v42.672c0,2.762,2.239,5,5,5H48.57
	c2.761,0,5-2.238,5-5v-42.672c0-2.762-2.239-5-5-5H34.236z M43.57,358.407h-4.333v-32.672h4.333V358.407z M308.61,137.422v51.296
	c0,2.762-2.239,5-5,5s-5-2.238-5-5v-51.296c0-2.762,2.239-5,5-5S308.61,134.661,308.61,137.422z M308.61,98.864v8.539
	c0,2.762-2.239,5-5,5s-5-2.238-5-5v-3.539H189.144v118.008H298.61v-3.134c0-2.762,2.239-5,5-5s5,2.238,5,5v8.134
	c0,2.762-2.239,5-5,5H184.144c-2.761,0-5-2.238-5-5V98.864c0-2.762,2.239-5,5-5H303.61C306.372,93.864,308.61,96.102,308.61,98.864z
	 M283.01,115.93c0,2.762-2.239,5-5,5h-68.267c-2.761,0-5-2.238-5-5s2.239-5,5-5h68.267C280.771,110.93,283.01,113.168,283.01,115.93
	z M283.01,132.998c0,2.762-2.239,5-5,5h-68.267c-2.761,0-5-2.238-5-5s2.239-5,5-5h68.267
	C280.771,127.998,283.01,130.236,283.01,132.998z M278.01,155.065h-68.267c-2.761,0-5-2.238-5-5s2.239-5,5-5h68.267
	c2.761,0,5,2.238,5,5S280.771,155.065,278.01,155.065z M196.313,162.131c-2.761,0-5,2.238-5,5v42.673c0,2.762,2.239,5,5,5h14.333
	c2.761,0,5-2.238,5-5v-42.673c0-2.762-2.239-5-5-5H196.313z M205.647,204.804h-4.333v-32.673h4.333V204.804z M308.61,291.025v51.297
	c0,2.762-2.239,5-5,5s-5-2.238-5-5v-51.297c0-2.762,2.239-5,5-5S308.61,288.263,308.61,291.025z M308.61,252.466v8.54
	c0,2.762-2.239,5-5,5s-5-2.238-5-5v-3.54H189.144v118.008H298.61v-3.134c0-2.762,2.239-5,5-5s5,2.238,5,5v8.134c0,2.762-2.239,5-5,5
	H184.144c-2.761,0-5-2.238-5-5V252.466c0-2.762,2.239-5,5-5H303.61C306.372,247.466,308.61,249.705,308.61,252.466z M283.01,269.534
	c0,2.762-2.239,5-5,5h-68.267c-2.761,0-5-2.238-5-5s2.239-5,5-5h68.267C280.771,264.534,283.01,266.772,283.01,269.534z
	 M283.01,286.601c0,2.762-2.239,5-5,5h-68.267c-2.761,0-5-2.238-5-5s2.239-5,5-5h68.267
	C280.771,281.601,283.01,283.839,283.01,286.601z M278.01,308.667h-68.267c-2.761,0-5-2.238-5-5s2.239-5,5-5h68.267
	c2.761,0,5,2.238,5,5S280.771,308.667,278.01,308.667z M196.313,315.735c-2.761,0-5,2.238-5,5v42.672c0,2.762,2.239,5,5,5h14.333
	c2.761,0,5-2.238,5-5v-42.672c0-2.762-2.239-5-5-5H196.313z M205.647,358.407h-4.333v-32.672h4.333V358.407z M470.688,137.422
	v51.296c0,2.762-2.239,5-5,5s-5-2.238-5-5v-51.296c0-2.762,2.239-5,5-5S470.688,134.661,470.688,137.422z M341.221,226.872V98.864
	c0-2.762,2.239-5,5-5h119.467c2.761,0,5,2.238,5,5v8.539c0,2.762-2.239,5-5,5s-5-2.238-5-5v-3.539H351.221v118.008h109.467v-3.134
	c0-2.762,2.239-5,5-5s5,2.238,5,5v8.134c0,2.762-2.239,5-5,5H346.221C343.46,231.872,341.221,229.633,341.221,226.872z
	 M445.088,115.93c0,2.762-2.239,5-5,5h-68.267c-2.761,0-5-2.238-5-5s2.239-5,5-5h68.267
	C442.849,110.93,445.088,113.168,445.088,115.93z M445.088,132.998c0,2.762-2.239,5-5,5h-68.267c-2.761,0-5-2.238-5-5s2.239-5,5-5
	h68.267C442.849,127.998,445.088,130.236,445.088,132.998z M440.088,155.065h-68.267c-2.761,0-5-2.238-5-5s2.239-5,5-5h68.267
	c2.761,0,5,2.238,5,5S442.849,155.065,440.088,155.065z M358.391,162.131c-2.761,0-5,2.238-5,5v42.673c0,2.762,2.239,5,5,5h14.333
	c2.761,0,5-2.238,5-5v-42.673c0-2.762-2.239-5-5-5H358.391z M367.724,204.804h-4.333v-32.673h4.333V204.804z M470.688,291.025
	v51.297c0,2.762-2.239,5-5,5s-5-2.238-5-5v-51.297c0-2.762,2.239-5,5-5S470.688,288.263,470.688,291.025z M341.221,380.474V252.466
	c0-2.762,2.239-5,5-5h119.467c2.761,0,5,2.238,5,5v8.54c0,2.762-2.239,5-5,5s-5-2.238-5-5v-3.54H351.221v118.008h109.467v-3.134
	c0-2.762,2.239-5,5-5s5,2.238,5,5v8.134c0,2.762-2.239,5-5,5H346.221C343.46,385.474,341.221,383.236,341.221,380.474z
	 M445.088,269.534c0,2.762-2.239,5-5,5h-68.267c-2.761,0-5-2.238-5-5s2.239-5,5-5h68.267
	C442.849,264.534,445.088,266.772,445.088,269.534z M445.088,286.601c0,2.762-2.239,5-5,5h-68.267c-2.761,0-5-2.238-5-5s2.239-5,5-5
	h68.267C442.849,281.601,445.088,283.839,445.088,286.601z M440.088,308.667h-68.267c-2.761,0-5-2.238-5-5s2.239-5,5-5h68.267
	c2.761,0,5,2.238,5,5S442.849,308.667,440.088,308.667z M358.391,315.735c-2.761,0-5,2.238-5,5v42.672c0,2.762,2.239,5,5,5h14.333
	c2.761,0,5-2.238,5-5v-42.672c0-2.762-2.239-5-5-5H358.391z M367.724,358.407h-4.333v-32.672h4.333V358.407z"/>
<g>
</g>
<g>
</g>
<g>
</g>
<g>
</g>
<g>
</g>
<g>
</g>
<g>
</g>
<g>
</g>
<g>
</g>
<g>
</g>
<g>
</g>
<g>
</g>
<g>
</g>
<g>
</g>
<g>
</g>
</svg>
