<svg version="1.1" xmlns="http://www.w3.org/2000/svg" xmlns:xlink="http://www.w3.org/1999/xlink" x="0px" y="0px"
	 viewBox="0 0 487.865 487.865" style="enable-background:new 0 0 487.865 487.865;" xml:space="preserve">
<g>
	<path d="M399.236,406.658c2.761,0,5-2.238,5-5V5c0-2.762-2.239-5-5-5h-58.612c-0.066,0-0.128,0.017-0.194,0.02
		c-0.175,0.007-0.344,0.027-0.514,0.052c-0.161,0.023-0.32,0.047-0.476,0.085c-0.156,0.039-0.306,0.089-0.457,0.142
		c-0.159,0.056-0.316,0.112-0.467,0.183c-0.137,0.064-0.266,0.139-0.396,0.215c-0.148,0.086-0.293,0.172-0.43,0.272
		c-0.122,0.089-0.234,0.188-0.348,0.287c-0.126,0.11-0.249,0.221-0.364,0.343c-0.106,0.113-0.201,0.235-0.296,0.359
		c-0.101,0.13-0.199,0.259-0.286,0.399c-0.083,0.133-0.154,0.273-0.225,0.415c-0.075,0.15-0.148,0.3-0.208,0.458
		c-0.055,0.145-0.097,0.295-0.139,0.448c-0.047,0.169-0.089,0.339-0.118,0.515c-0.01,0.064-0.035,0.122-0.043,0.187l-5.424,43.393
		H212.533V5c0-2.762-2.239-5-5-5h-58.612c-0.103,0-0.2,0.024-0.301,0.03c-2.593-0.135-4.893,1.731-5.22,4.35L83.668,482.231
		c-0.026,0.209-0.039,0.416-0.039,0.621c-0.003,2.487,1.849,4.644,4.38,4.96c0.21,0.026,0.419,0.04,0.626,0.04
		c0.076,0,0.148-0.017,0.223-0.021c0.111,0.007,0.217,0.033,0.331,0.033h95.308h0c15.456,0,28.03-12.572,28.036-28.026
		c0,0,0-0.001,0-0.002v-43.651h71.653l-8.256,66.046c-0.026,0.209-0.039,0.416-0.039,0.621l0.001,0.009l0,0.003
		c0,0.024,0.007,0.047,0.007,0.072c0.005,0.296,0.033,0.588,0.088,0.873c0.03,0.158,0.084,0.306,0.129,0.458
		c0.042,0.142,0.077,0.287,0.132,0.423c0.07,0.178,0.159,0.342,0.248,0.509c0.054,0.1,0.102,0.202,0.162,0.298
		c0.107,0.171,0.229,0.329,0.355,0.485c0.063,0.079,0.124,0.158,0.192,0.232c0.14,0.154,0.291,0.294,0.45,0.43
		c0.071,0.061,0.141,0.121,0.215,0.177c0.172,0.132,0.353,0.25,0.542,0.358c0.073,0.042,0.145,0.081,0.22,0.12
		c0.205,0.104,0.415,0.194,0.634,0.27c0.069,0.024,0.14,0.044,0.21,0.065c0.233,0.069,0.469,0.123,0.715,0.158
		c0.028,0.004,0.053,0.015,0.081,0.018c0.089,0.011,0.176,0.01,0.265,0.017c0.12,0.008,0.234,0.036,0.355,0.036h95.307h0h0
		c15.459,0,28.037-12.577,28.037-28.036c0-0.629-0.028-1.252-0.069-1.872c0.032-0.227,0.069-0.453,0.069-0.689v-25.591
		c0-2.762-2.239-5-5-5s-5,2.238-5,5v6.709c-4.879-4.111-11.172-6.595-18.037-6.595c-15.459,0-28.037,12.577-28.037,28.037
		c0,6.864,2.484,13.157,6.595,18.036h-68.203L345.038,10h49.198v391.658C394.236,404.42,396.475,406.658,399.236,406.658z
		 M328.989,57.772l-7.712,61.693H212.533V57.772H328.989z M312.319,191.132h-99.785v-61.666h107.494L312.319,191.132z
		 M303.359,262.812h-90.825v-61.68h98.535L303.359,262.812z M294.397,334.506h-81.863v-61.694h89.575L294.397,334.506z
		 M184.497,477.865c-9.945,0-18.037-8.091-18.037-18.036s8.091-18.037,18.037-18.037s18.037,8.092,18.037,18.037
		S194.442,477.865,184.497,477.865z M202.533,438.387c-4.879-4.111-11.172-6.595-18.037-6.595
		c-15.459,0-28.037,12.577-28.037,28.037c0,6.864,2.484,13.157,6.595,18.036H94.292L152.776,10h49.758v37.772h-21.973
		c-2.761,0-5,2.238-5,5s2.239,5,5,5h21.973v61.693h-30.279c-2.761,0-5,2.238-5,5s2.239,5,5,5h30.279v61.666h-42.226
		c-2.761,0-5,2.238-5,5s2.239,5,5,5h42.226v61.68h-54.172c-2.761,0-5,2.238-5,5s2.239,5,5,5h54.172v61.694h-66.118
		c-2.761,0-5,2.238-5,5s2.239,5,5,5h66.118v61.68h-78.065c-2.761,0-5,2.238-5,5s2.239,5,5,5h78.065V438.387z M212.533,406.186
		v-61.68h80.613l-7.71,61.68H212.533z M376.199,441.792c9.945,0,18.037,8.092,18.037,18.037s-8.091,18.036-18.037,18.036
		s-18.037-8.091-18.037-18.036S366.254,441.792,376.199,441.792z"/>
	<circle cx="376.2" cy="459.829" r="5.98"/>
	<circle cx="184.497" cy="459.829" r="5.98"/>
</g>
<g>
</g>
<g>
</g>
<g>
</g>
<g>
</g>
<g>
</g>
<g>
</g>
<g>
</g>
<g>
</g>
<g>
</g>
<g>
</g>
<g>
</g>
<g>
</g>
<g>
</g>
<g>
</g>
<g>
</g>
</svg>
