<svg version="1.1" xmlns="http://www.w3.org/2000/svg" xmlns:xlink="http://www.w3.org/1999/xlink" x="0px" y="0px"
	 viewBox="0 0 491.6 491.6" style="enable-background:new 0 0 491.6 491.6;" xml:space="preserve">
<path d="M486.6,40.123H5c-2.761,0-5,2.238-5,5v321.073c0,2.762,2.239,5,5,5h205.7v52.81h-45.167c-2.761,0-5,2.238-5,5v17.471
	c0,2.762,2.239,5,5,5h160.533c2.761,0,5-2.238,5-5v-17.471c0-2.762-2.239-5-5-5H280.9v-52.81h205.7c2.761,0,5-2.238,5-5V45.123
	C491.6,42.361,489.361,40.123,486.6,40.123z M270.9,424.006h-2.08c-2.761,0-5,2.238-5,5s2.239,5,5,5h52.246v7.471H170.533v-7.471
	h72.037c2.761,0,5-2.238,5-5s-2.239-5-5-5H220.7v-52.81h50.2V424.006z M481.6,361.196H275.9h-60.2H10V50.123h471.6V361.196z
	 M322.788,99.195h-138c-11.566,0-20.976,9.41-20.976,20.977v153.877c0,17.968,12.426,26.01,24.741,26.01h134.236
	c2.761,0,5-2.238,5-5v-13.833v-18.419V104.195C327.788,101.434,325.549,99.195,322.788,99.195z M233.713,186.546
	c-10.167-14.251-8.546-33.595,3.854-45.995c6.751-6.751,15.727-10.469,25.274-10.469s18.523,3.718,25.274,10.469
	c13.936,13.937,13.936,36.612,0,50.549c-6.748,6.748-15.72,10.465-25.263,10.464c-7.504,0-14.679-2.292-20.75-6.63
	c-2.116-1.514-5.021-1.132-6.704,0.854c-0.02,0.023-0.04,0.048-0.06,0.071l-44.522,44.522l-2.532-2.532l3.149-3.149
	c0.463-0.328,0.867-0.732,1.195-1.195l40.214-40.213c0.01-0.009,0.02-0.017,0.03-0.025
	C234.858,191.588,235.224,188.664,233.713,186.546z M188.552,290.059c-4.432,0-14.741-1.56-14.741-16.01V120.172
	c0-5.635,4.269-10.286,9.741-10.902v119.17l-5.875,5.875c-1.953,1.952-1.953,5.118,0,7.07l9.603,9.604
	c0.938,0.938,2.209,1.465,3.536,1.465s2.598-0.526,3.536-1.465l45.57-45.57c6.94,4.033,14.784,6.146,22.929,6.146c0,0,0,0,0.001,0
	c12.213,0,23.697-4.756,32.333-13.393c17.835-17.836,17.835-46.855,0-64.69c-8.64-8.64-20.127-13.398-32.345-13.398
	s-23.706,4.759-32.345,13.398c-14.846,14.846-17.615,37.474-7.252,55.269l-29.691,29.691V109.195h124.236v148.611H193.157
	c-7.835,0-14.209,6.375-14.209,14.21s6.375,14.209,14.209,14.209h124.631v3.833H188.552z M317.788,276.226H193.157
	c-2.321,0-4.209-1.889-4.209-4.21s1.888-4.209,4.209-4.209h124.631V276.226z M262.84,194.023c7.532,0,14.613-2.933,19.939-8.259
	c10.994-10.994,10.994-28.884,0-39.878c-5.326-5.326-12.407-8.26-19.939-8.26c-7.532,0-14.613,2.934-19.939,8.26
	c-10.995,10.994-10.995,28.884,0,39.879C248.228,191.091,255.309,194.023,262.84,194.023z M249.973,152.957
	c3.437-3.437,8.007-5.33,12.868-5.33c4.861,0,9.431,1.894,12.868,5.33c7.095,7.096,7.095,18.642,0,25.736
	c-3.438,3.438-8.007,5.33-12.869,5.33c-4.861,0-9.431-1.893-12.868-5.329C242.877,171.599,242.877,160.053,249.973,152.957z
	 M35.1,329.023h421.4c2.761,0,5-2.238,5-5V75.229c0-2.762-2.239-5-5-5H35.1c-2.761,0-5,2.238-5,5v248.794
	C30.1,326.785,32.338,329.023,35.1,329.023z M40.1,80.229h411.4v238.794H40.1V80.229z M414.465,341.67h42.667v8.538h-42.667V341.67z
	"/>
<g>
</g>
<g>
</g>
<g>
</g>
<g>
</g>
<g>
</g>
<g>
</g>
<g>
</g>
<g>
</g>
<g>
</g>
<g>
</g>
<g>
</g>
<g>
</g>
<g>
</g>
<g>
</g>
<g>
</g>
</svg>
