<svg version="1.1" xmlns="http://www.w3.org/2000/svg" xmlns:xlink="http://www.w3.org/1999/xlink" x="0px" y="0px"
	 viewBox="0 0 487.867 487.867" style="enable-background:new 0 0 487.867 487.867;" xml:space="preserve">
<path d="M462.867,89.599H25c-13.785,0-25,11.215-25,25v258.668c0,13.785,11.215,25,25,25h437.867c13.785,0,25-11.215,25-25V114.599
	C487.867,100.814,476.652,89.599,462.867,89.599z M477.867,373.267c0,8.271-6.729,15-15,15H25c-8.271,0-15-6.729-15-15V114.599
	c0-8.271,6.729-15,15-15h437.867c8.271,0,15,6.729,15,15V373.267z M137.662,272.061c2.567,3.4,7.6,5.372,12.377,5.372
	c5.565,0,10.186-2.119,12.521-5.372h102.039c2.762,0,5-2.239,5-5v-132.07c0-2.761-2.238-5-5-5h-9.475v-1.526c0-2.761-2.238-5-5-5
	H174.88c-10.335,0-19.457,5.283-24.814,13.289c-5.357-8.006-14.479-13.289-24.814-13.289H50.008c-2.761,0-5,2.239-5,5v1.526h-9.475
	c-2.761,0-5,2.239-5,5v132.07c0,2.761,2.239,5,5,5H137.662z M55.008,237.897h66.943c7.779,0,15.005,3.664,19.67,9.588H55.008
	V237.897z M178.181,237.897h66.943v9.588h-86.614C163.177,241.561,170.402,237.897,178.181,237.897z M245.125,133.465v94.432
	h-66.943c-1.933,0-3.84,0.17-5.709,0.483v-94.754c0.791-0.096,1.592-0.161,2.408-0.161H245.125z M162.472,137.848v93.808
	c-2.659,1.342-5.142,3.011-7.38,4.973v-83.325c0-0.224-0.012-0.445-0.017-0.668C155.275,146.665,158.111,141.356,162.472,137.848z
	 M55.008,133.465h70.244c0.817,0,1.617,0.065,2.408,0.161v78.529c0,2.761,2.239,5,5,5s5-2.239,5-5v-74.307
	c4.361,3.508,7.197,8.817,7.397,14.789c-0.005,0.223-0.017,0.444-0.017,0.668v83.325c-2.238-1.962-4.721-3.631-7.38-4.973v-4.194
	c0-2.761-2.239-5-5-5s-5,2.239-5,5v0.917c-1.869-0.312-3.776-0.483-5.709-0.483H55.008V133.465z M40.534,139.991h4.475v92.906
	v19.588c0,2.761,2.239,5,5,5h100.03c0.002,0,0.004,0,0.005,0c0.002,0,0.004,0,0.006,0h0.032c0.002,0,0.004,0,0.006,0
	c0.002,0,0.004,0,0.005,0h100.03c2.762,0,5-2.239,5-5v-19.588v-92.906h4.475v122.07H159.202c-0.333,0-0.656,0.036-0.971,0.098
	c-0.105,0.021-0.202,0.06-0.305,0.087c-0.205,0.054-0.409,0.108-0.602,0.187c-0.115,0.047-0.219,0.108-0.329,0.163
	c-0.169,0.084-0.338,0.167-0.496,0.269c-0.109,0.07-0.207,0.151-0.309,0.229c-0.144,0.109-0.285,0.219-0.416,0.343
	c-0.096,0.091-0.182,0.189-0.271,0.287c-0.118,0.131-0.232,0.264-0.336,0.407c-0.079,0.109-0.15,0.221-0.221,0.337
	c-0.091,0.15-0.175,0.303-0.251,0.462c-0.059,0.124-0.112,0.249-0.16,0.378c-0.062,0.166-0.113,0.335-0.158,0.508
	c-0.035,0.136-0.067,0.271-0.091,0.411c-0.011,0.067-0.035,0.13-0.044,0.198c-0.541,0.4-1.985,1.007-4.203,1.007
	c-2.02,0-3.578-0.705-4.169-1.148c-0.007-0.042-0.023-0.08-0.03-0.122c-0.024-0.13-0.061-0.252-0.094-0.378
	c-0.048-0.18-0.097-0.357-0.164-0.528c-0.048-0.123-0.104-0.24-0.161-0.358c-0.078-0.162-0.161-0.319-0.255-0.47
	c-0.069-0.111-0.143-0.218-0.22-0.323c-0.106-0.143-0.218-0.279-0.338-0.409c-0.087-0.096-0.175-0.189-0.27-0.277
	c-0.131-0.123-0.271-0.234-0.415-0.343c-0.101-0.076-0.2-0.154-0.307-0.222c-0.158-0.101-0.325-0.185-0.494-0.268
	c-0.109-0.053-0.213-0.112-0.326-0.158c-0.193-0.078-0.395-0.133-0.599-0.186c-0.102-0.027-0.198-0.064-0.302-0.084
	c-0.312-0.061-0.633-0.097-0.963-0.097H40.534V139.991z M448.733,302.937h-409.6c-2.761,0-5,2.239-5,5v51.201c0,2.761,2.239,5,5,5
	h409.6c2.762,0,5-2.239,5-5v-51.201C453.733,305.176,451.495,302.937,448.733,302.937z M443.733,354.138h-399.6v-41.201h399.6
	V354.138z M307.2,161.277c0-2.761,2.238-5,5-5H389c2.762,0,5,2.239,5,5s-2.238,5-5,5h-76.8
	C309.438,166.277,307.2,164.038,307.2,161.277z M307.2,186.883c0-2.761,2.238-5,5-5h119.467c2.762,0,5,2.239,5,5s-2.238,5-5,5H312.2
	C309.438,191.883,307.2,189.644,307.2,186.883z M307.2,212.478c0-2.761,2.238-5,5-5H389c2.762,0,5,2.239,5,5s-2.238,5-5,5h-76.8
	C309.438,217.478,307.2,215.24,307.2,212.478z M307.2,238.084c0-2.761,2.238-5,5-5h119.467c2.762,0,5,2.239,5,5s-2.238,5-5,5H312.2
	C309.438,243.084,307.2,240.845,307.2,238.084z"/>
<g>
</g>
<g>
</g>
<g>
</g>
<g>
</g>
<g>
</g>
<g>
</g>
<g>
</g>
<g>
</g>
<g>
</g>
<g>
</g>
<g>
</g>
<g>
</g>
<g>
</g>
<g>
</g>
<g>
</g>
</svg>
