<svg version="1.1" xmlns="http://www.w3.org/2000/svg" xmlns:xlink="http://www.w3.org/1999/xlink" x="0px" y="0px"
	 viewBox="0 0 489.709 489.709" style="enable-background:new 0 0 489.709 489.709;" xml:space="preserve">
<path d="M389.722,418.534c2.762,0,5,2.238,5,5s-2.238,5-5,5H95.246c-2.762,0-5-2.238-5-5s2.238-5,5-5H389.722z M389.722,437.031
	H95.246c-2.762,0-5,2.238-5,5s2.238,5,5,5h294.476c2.762,0,5-2.238,5-5S392.483,437.031,389.722,437.031z M443.354,5v396.943v59.922
	v22.844c0,2.762-2.238,5-5,5H100.97c-25.194,0-54.615-15.139-54.615-57.805V45.153C46.354,20.256,66.61,0,91.508,0h346.847
	C441.116,0,443.354,2.238,443.354,5z M433.354,406.943h-42.208H102.733c-13.764,0-24.961,11.197-24.961,24.961
	s11.197,24.961,24.961,24.961h330.621V406.943z M433.354,479.709v-12.844H102.733c-19.277,0-34.961-15.684-34.961-34.961
	s15.684-34.961,34.961-34.961h288.413h42.208v-10.396H94.287c-5.576,0-12.191,2.512-18.629,7.072
	c-0.878,0.621-1.887,0.92-2.887,0.92c-1.566,0.001-3.109-0.733-4.084-2.109c-1.596-2.254-1.063-5.374,1.189-6.971
	c8.112-5.747,16.781-8.912,24.41-8.912h1.683v-15.384c0-2.762,2.238-5,5-5s5,2.238,5,5v15.384h327.385V10H105.97v312.765
	c0,2.762-2.238,5-5,5s-5-2.238-5-5V10h-4.462c-19.384,0-35.153,15.77-35.153,35.153v386.751c0,45.5,37.165,47.805,44.615,47.805
	H433.354z M167.074,175.235c0-19.054,36.067-27.409,55.985-30.567l-8.778-79.565c-0.551-5.146,0.931-10.184,4.17-14.199
	c3.239-4.017,7.849-6.53,12.979-7.079c5.129-0.552,10.168,0.932,14.184,4.171c4.017,3.239,6.53,7.849,7.079,12.979l8.031,80.416
	c4.41-0.109,8.876-0.13,13.309-0.064l2.774-22.569c0.705-5.121,3.325-9.598,7.388-12.676c4.063-3.08,9.081-4.39,14.129-3.695
	l58.59,8.071c10.809,1.49,18.39,11.495,16.899,22.302c-1.489,10.808-11.482,18.392-22.301,16.899l-39.302-5.415l-0.003,0.024
	c36.82,5.359,58.635,16.805,58.635,30.968c0,10.314-10.976,18.351-27.781,24.013v119.48c0,17.626-38.412,25.653-74.103,25.653
	s-74.103-8.027-74.103-25.653v-119.48C178.05,193.586,167.074,185.55,167.074,175.235z M204.855,202.174v8.369
	c1.532,1.072,5.332,2.402,11.382,3.663v-9.542C212.287,203.923,208.481,203.093,204.855,202.174z M333.061,318.729v-97.274
	c-3.684,1.324-8.447,2.463-14.402,3.474c-13.32,2.262-30.971,3.508-49.7,3.508c-15.624,0-30.486-0.87-42.721-2.47v80.114
	c0,2.762-2.238,5-5,5s-5-2.238-5-5v-81.695c-4.571-0.872-8.344-1.838-11.382-2.93v97.274c0,1.344,2.995,5.726,16.672,9.813
	c12.6,3.766,29.444,5.84,47.431,5.84s34.831-2.074,47.431-5.84C330.065,324.454,333.061,320.072,333.061,318.729z M333.061,202.174
	c-18.326,4.646-41.277,7.019-64.103,7.019c-14.604,0-29.258-0.973-42.721-2.889v9.598c10.536,1.453,24.791,2.535,42.721,2.535
	c38.311,0,59.871-4.932,64.103-7.894V202.174z M308.131,178.701c5.853-1.112,10.004-2.356,12.354-3.442
	c-1.878-0.892-5.349-2.14-11.549-3.356L308.131,178.701z M302.302,142.878l-3.395-0.468l-4.48,38.225
	c1.184-0.119,2.337-0.245,3.449-0.377l3.812-32.197c0.004-0.045-0.002-0.089,0.003-0.135c0.005-0.04,0.02-0.074,0.026-0.113
	L302.302,142.878z M279.152,181.648c1.757-0.063,3.459-0.141,5.115-0.232l5.302-45.238c0.002-0.017,0.009-0.032,0.011-0.049
	c0.002-0.018,0-0.034,0.002-0.052c0.022-0.163,0.076-0.313,0.113-0.47c0.037-0.154,0.061-0.313,0.111-0.461
	c0.066-0.195,0.16-0.375,0.248-0.557c0.052-0.108,0.093-0.224,0.153-0.327c0.121-0.209,0.266-0.398,0.414-0.586
	c0.049-0.063,0.089-0.132,0.141-0.192c0.169-0.194,0.359-0.365,0.555-0.531c0.048-0.041,0.089-0.089,0.139-0.128
	c0.192-0.15,0.401-0.274,0.614-0.396c0.068-0.039,0.13-0.088,0.2-0.124c0.187-0.095,0.386-0.162,0.584-0.233
	c0.11-0.04,0.214-0.091,0.326-0.123c0.167-0.047,0.342-0.066,0.515-0.096c0.154-0.026,0.304-0.064,0.461-0.076
	c0.161-0.012,0.327,0.005,0.491,0.009c0.157,0.004,0.311-0.01,0.47,0.009c0.017,0.002,0.032,0.009,0.049,0.011
	c0.018,0.002,0.034,0,0.052,0.002l12.481,1.72c0.246-0.007,0.492-0.016,0.743,0.015c0.348,0.041,0.683,0.119,1.003,0.226
	l43.431,5.983c5.328,0.727,10.293-3.013,11.029-8.358c0.736-5.345-3.013-10.293-8.358-11.03l-58.59-8.071
	c-4.954-0.679-9.552,2.797-10.235,7.758L279.152,181.648z M268.958,181.825c0.033,0,0.064,0,0.097,0l1.618-13.166
	c-2.408-0.014-4.823,0.001-7.221,0.046l1.307,13.088C266.134,181.813,267.529,181.825,268.958,181.825z M261.72,151.364l0.734,7.354
	c3.131-0.068,6.301-0.086,9.447-0.056l0.904-7.358C269.112,151.26,265.396,151.282,261.72,151.364z M224.223,64.022l12.78,115.847
	c1.118,0.153,2.277,0.3,3.478,0.439L229.547,72.023c-0.277-2.747,1.725-5.199,4.473-5.477c2.73-0.286,5.199,1.725,5.477,4.473
	l11.129,110.211c1.317,0.089,2.665,0.17,4.052,0.241L242.745,62.003c-0.261-2.439-1.473-4.662-3.41-6.224
	c-1.937-1.563-4.367-2.278-6.841-2.012c-2.475,0.265-4.697,1.477-6.26,3.414C224.672,59.118,223.958,61.548,224.223,64.022z
	 M226.13,172.508c-4.451,1.017-7.129,2.008-8.696,2.751c1.92,0.888,5.043,1.88,9.311,2.82L226.13,172.508z M177.074,175.235
	c0,9.769,35.794,23.957,91.884,23.957s91.884-14.188,91.884-23.957c0-6.828-17.422-16.261-49.811-21.032l-0.916,7.738
	c15.199,2.856,22.047,7.021,22.047,13.294c0,6.157-6.498,10.197-21.071,13.099c-11.305,2.251-26.269,3.491-42.133,3.491
	s-30.827-1.24-42.133-3.491c-14.572-2.901-21.071-6.941-21.071-13.099c0-5.879,6.006-9.868,19.274-12.721l-0.871-7.893
	C193.54,159.52,177.074,168.706,177.074,175.235z"/>
<g>
</g>
<g>
</g>
<g>
</g>
<g>
</g>
<g>
</g>
<g>
</g>
<g>
</g>
<g>
</g>
<g>
</g>
<g>
</g>
<g>
</g>
<g>
</g>
<g>
</g>
<g>
</g>
<g>
</g>
</svg>
