<svg version="1.1" xmlns="http://www.w3.org/2000/svg" xmlns:xlink="http://www.w3.org/1999/xlink" x="0px" y="0px"
	 viewBox="0 0 487.887 487.887" style="enable-background:new 0 0 487.887 487.887;" xml:space="preserve">
<g>
	<path d="M438.081,0H108.14C73.218,0,44.806,28.412,44.806,63.335v379.733c0,24.713,20.105,44.818,44.818,44.818h348.457
		c0.018,0,0.034-0.005,0.051-0.005c0.283-0.003,0.565-0.034,0.843-0.085c0.053-0.009,0.107-0.014,0.16-0.026
		c0.255-0.055,0.505-0.137,0.75-0.232c0.075-0.029,0.15-0.056,0.223-0.088c0.224-0.1,0.44-0.219,0.65-0.353
		c0.077-0.049,0.152-0.1,0.226-0.153c0.195-0.14,0.384-0.292,0.561-0.462c0.07-0.067,0.131-0.14,0.197-0.211
		c0.058-0.063,0.12-0.121,0.175-0.188c0.036-0.043,0.058-0.092,0.092-0.136c0.14-0.179,0.266-0.366,0.381-0.563
		c0.054-0.094,0.106-0.187,0.153-0.283c0.095-0.191,0.176-0.389,0.246-0.593c0.038-0.109,0.072-0.218,0.102-0.329
		c0.053-0.196,0.091-0.396,0.12-0.601c0.018-0.126,0.03-0.251,0.038-0.377c0.007-0.106,0.031-0.206,0.031-0.313V403.25V5
		C443.081,2.238,440.843,0,438.081,0z M424.443,443.068c0-8.73,4.315-17.823,8.638-24.741v51.195
		C428.8,463.232,424.443,454.122,424.443,443.068z M54.806,63.335c0-24.726,16.915-45.57,39.779-51.584v332.512c0,2.762,2.239,5,5,5
		s5-2.238,5-5V10.132c1.177-0.078,2.36-0.132,3.556-0.132h324.94v388.25H104.585v-15.463c0-2.762-2.239-5-5-5s-5,2.238-5,5v15.463
		h-4.961c-14.044,0-26.594,6.498-34.818,16.64V63.335z M54.806,443.068c0-19.199,15.619-34.818,34.818-34.818h338.139
		c-5.813,8.238-13.32,21.46-13.32,34.818c0,15.313,6.585,27.301,12.287,34.818H89.624C70.425,477.887,54.806,462.268,54.806,443.068
		z"/>
	<path d="M398.055,426.945H89.679c-2.761,0-5,2.238-5,5s2.239,5,5,5h308.376c2.762,0,5-2.238,5-5S400.817,426.945,398.055,426.945z"
		/>
	<path d="M398.055,451.526H89.679c-2.761,0-5,2.238-5,5s2.239,5,5,5h308.376c2.762,0,5-2.238,5-5S400.817,451.526,398.055,451.526z"
		/>
	<path d="M123.004,200.69h136.533c2.762,0,5-2.238,5-5V59.157c0-2.762-2.238-5-5-5H123.004c-2.761,0-5,2.238-5,5V195.69
		C118.004,198.452,120.242,200.69,123.004,200.69z M128.004,64.157h126.533V190.69H128.004V64.157z"/>
	<path d="M276.603,200.69h136.533c2.762,0,5-2.238,5-5V59.157c0-2.762-2.238-5-5-5H276.603c-2.762,0-5,2.238-5,5V195.69
		C271.603,198.452,273.842,200.69,276.603,200.69z M281.603,64.157h126.533V190.69H281.603V64.157z"/>
	<path d="M123.004,354.818h136.533c2.762,0,5-2.238,5-5V213.285c0-2.762-2.238-5-5-5H123.004c-2.761,0-5,2.238-5,5v136.533
		C118.004,352.58,120.242,354.818,123.004,354.818z M128.004,218.285h126.533v126.533H128.004V218.285z"/>
	<path d="M276.603,354.818h136.533c2.762,0,5-2.238,5-5V213.285c0-2.762-2.238-5-5-5H276.603c-2.762,0-5,2.238-5,5v136.533
		C271.603,352.58,273.842,354.818,276.603,354.818z M281.603,218.285h126.533v126.533H281.603V218.285z"/>
	<path d="M239.61,122.424h-44.033V78.391c0-2.762-2.239-5-5-5s-5,2.238-5,5v44.033h-44.033c-2.761,0-5,2.238-5,5s2.239,5,5,5h44.033
		v44.033c0,2.762,2.239,5,5,5s5-2.238,5-5v-44.033h44.033c2.761,0,5-2.238,5-5S242.371,122.424,239.61,122.424z"/>
	<path d="M228.784,243.345c-1.953-1.953-5.118-1.953-7.071,0l-31.136,31.136l-31.136-31.136c-1.953-1.953-5.118-1.953-7.071,0
		c-1.953,1.952-1.953,5.118,0,7.07l31.137,31.137l-31.137,31.137c-1.953,1.952-1.953,5.118,0,7.07
		c0.977,0.977,2.256,1.465,3.536,1.465s2.559-0.488,3.536-1.465l31.136-31.136l31.136,31.136c0.977,0.977,2.256,1.465,3.536,1.465
		s2.559-0.488,3.536-1.465c1.953-1.952,1.953-5.118,0-7.07l-31.137-31.137l31.137-31.137
		C230.737,248.463,230.737,245.297,228.784,243.345z"/>
	<path d="M394.276,122.424H298.41c-2.762,0-5,2.238-5,5s2.238,5,5,5h95.866c2.762,0,5-2.238,5-5S397.038,122.424,394.276,122.424z"
		/>
	<path d="M389.01,255.215h-85.333c-2.762,0-5,2.238-5,5s2.238,5,5,5h85.333c2.762,0,5-2.238,5-5S391.771,255.215,389.01,255.215z"/>
	<path d="M389.01,297.888h-85.333c-2.762,0-5,2.238-5,5s2.238,5,5,5h85.333c2.762,0,5-2.238,5-5S391.771,297.888,389.01,297.888z"/>
</g>
<g>
</g>
<g>
</g>
<g>
</g>
<g>
</g>
<g>
</g>
<g>
</g>
<g>
</g>
<g>
</g>
<g>
</g>
<g>
</g>
<g>
</g>
<g>
</g>
<g>
</g>
<g>
</g>
<g>
</g>
</svg>
