<svg version="1.1" xmlns="http://www.w3.org/2000/svg" xmlns:xlink="http://www.w3.org/1999/xlink" x="0px" y="0px"
	 viewBox="0 0 487.867 487.867" style="enable-background:new 0 0 487.867 487.867;" xml:space="preserve">
<path d="M482.867,92.279H470.8v-4.167c0-2.761-2.238-5-5-5L274.9,83.103c-5.012,0-9.993,0.445-14.89,1.308
	c-0.01,0.002-0.021,0.004-0.031,0.006c-10.176,1.797-19.983,5.425-28.931,10.746H5c-2.762,0-5,2.239-5,5v299.601
	c0,2.761,2.238,5,5,5h227.422h250.445c2.762,0,5-2.239,5-5V97.279C487.867,94.518,485.629,92.279,482.867,92.279z M237.422,391.116
	v-18.937c5.854-3.33,12.103-5.851,18.578-7.518v19.564C249.576,385.791,243.344,388.097,237.422,391.116z M237.422,269.717
	c5.854-3.33,12.103-5.851,18.578-7.518v23.869c-6.411,1.448-12.645,3.629-18.578,6.51V269.717z M237.422,258.424v-22.861
	c5.854-3.331,12.103-5.851,18.578-7.518v23.869C249.589,253.362,243.355,255.543,237.422,258.424z M237.422,224.27v-22.861
	c5.854-3.33,12.103-5.851,18.578-7.518v23.869C249.589,219.207,243.355,221.388,237.422,224.27z M237.422,303.871
	c5.854-3.331,12.103-5.851,18.578-7.518v23.869c-6.411,1.448-12.645,3.629-18.578,6.511V303.871z M266,294.483
	c2.945-0.348,5.916-0.535,8.9-0.535c0.001,0,0.002,0,0.003,0l185.896,0.009v24.154l-185.896-0.009c-0.001,0-0.002,0-0.003,0
	c-2.981,0-5.952,0.158-8.9,0.466V294.483z M274.903,283.947c-0.002,0-0.001,0-0.003,0c-2.981,0-5.952,0.158-8.9,0.466v-24.084
	c2.945-0.348,5.915-0.535,8.898-0.535c0.001,0,0.003,0,0.005,0l185.896,0.009v24.154L274.903,283.947z M274.903,249.793
	c-0.003,0-0.003,0-0.006,0c-2.98,0-5.95,0.158-8.897,0.466v-24.085c2.945-0.348,5.916-0.535,8.9-0.535c0.001,0,0.002,0,0.003,0
	l185.896,0.009v24.154L274.903,249.793z M274.903,215.639c-0.001,0-0.002,0-0.003,0c-2.981,0-5.952,0.158-8.9,0.466v-24.084
	c2.945-0.348,5.915-0.535,8.898-0.535c0.001,0,0.003,0,0.005,0l185.896,0.009v24.154L274.903,215.639z M274.903,181.485
	c-0.003,0-0.003,0-0.006,0c-2.98,0-5.95,0.158-8.897,0.466v-24.085c2.945-0.348,5.916-0.535,8.9-0.535c0.001,0,0.002,0,0.003,0
	L460.8,157.34v24.154L274.903,181.485z M256,183.605c-6.411,1.448-12.645,3.629-18.578,6.51v-22.861
	c5.854-3.331,12.103-5.851,18.578-7.518V183.605z M237.422,338.025c5.854-3.331,12.103-5.851,18.578-7.518v23.869
	c-6.411,1.448-12.645,3.629-18.578,6.51V338.025z M266,328.636c2.945-0.348,5.916-0.535,8.9-0.535c0.001,0,0.002,0,0.003,0
	L460.8,328.11v24.154l-185.896-0.009c-0.003,0-0.003,0-0.006,0c-2.98,0-5.95,0.158-8.897,0.466V328.636z M460.8,147.34
	l-185.896-0.009c-0.002,0-0.001,0-0.003,0c-2.981,0-5.952,0.158-8.9,0.466v-24.084c2.945-0.348,5.916-0.535,8.9-0.535
	c0.001,0,0.002,0,0.003,0l185.896,0.009V147.34z M256,149.451c-6.411,1.448-12.645,3.629-18.578,6.51v-22.861
	c5.854-3.331,12.103-5.851,18.578-7.518V149.451z M237.422,121.808v-18.791c5.853-3.329,12.104-5.845,18.578-7.512v19.793
	C249.589,116.745,243.355,118.927,237.422,121.808z M266,362.791c2.945-0.348,5.915-0.535,8.898-0.535c0.001,0,0.003,0,0.005,0
	l185.896,0.009v19.516H276.351c-3.476,0-6.931,0.212-10.351,0.626V362.791z M274.903,93.103L460.8,93.112v20.073l-185.896-0.009
	c-0.001,0-0.002,0-0.003,0c-2.981,0-5.952,0.158-8.9,0.466V93.637C268.946,93.288,271.918,93.103,274.903,93.103z M10,105.163
	h196.195v239.935c0,2.761,2.238,5,5,5s5-2.239,5-5V105.163h11.227v289.601h-11.286c0.023-0.195,0.059-0.386,0.059-0.586v-17.079
	c0-2.761-2.238-5-5-5s-5,2.239-5,5v17.079c0,0.201,0.036,0.392,0.059,0.586H10V105.163z M477.867,394.764H255.289
	c2.199-0.636,4.427-1.168,6.678-1.602c0.026-0.005,0.053-0.01,0.079-0.016c4.688-0.899,9.474-1.366,14.305-1.366H465.8
	c2.762,0,5-2.239,5-5v-284.5h7.067V394.764z"/>
<g>
</g>
<g>
</g>
<g>
</g>
<g>
</g>
<g>
</g>
<g>
</g>
<g>
</g>
<g>
</g>
<g>
</g>
<g>
</g>
<g>
</g>
<g>
</g>
<g>
</g>
<g>
</g>
<g>
</g>
</svg>
