<svg version="1.1" xmlns="http://www.w3.org/2000/svg" xmlns:xlink="http://www.w3.org/1999/xlink" x="0px" y="0px"
	 viewBox="0 0 487.867 487.867" style="enable-background:new 0 0 487.867 487.867;" xml:space="preserve">
<path d="M270.283,228.919c-0.604-2.695,1.093-5.368,3.787-5.971l161.771-36.196c2.694-0.612,5.368,1.093,5.971,3.787
	c0.604,2.694-1.093,5.368-3.787,5.971l-161.771,36.196c-0.367,0.083-0.735,0.122-1.097,0.122
	C272.868,232.828,270.804,231.246,270.283,228.919z M487.867,216.33v7.191c0,7.43-4.895,13.832-11.64,15.223l-201.694,41.607v10.482
	c0,18.639-13.727,33.802-30.6,33.802s-30.6-15.163-30.6-33.802v-10.465L11.695,239.676C4.919,238.308,0,231.9,0,224.44v-7.207
	c0-4.97,2.116-9.514,5.806-12.465c3.276-2.621,7.447-3.612,11.454-2.709l8.341,1.877v-25.691c0-4.517,2.004-8.747,5.499-11.607
	s8.042-3.985,12.464-3.097L165.2,188.052v-2.174c0-1.499,0.672-2.919,1.832-3.868c1.16-0.95,2.686-1.327,4.153-1.034l28.624,5.752
	c2.335,0.47,4.015,2.521,4.015,4.902v4.204l0.744,0.15c17.556,2.619,32.1,15.092,39.365,31.977
	c7.265-16.885,21.809-29.358,39.364-31.976l161.005-32.455c4.429-0.893,8.972,0.237,12.465,3.097
	c3.495,2.86,5.499,7.092,5.499,11.607v24.837l8.285-1.901c4.008-0.923,8.195,0.057,11.486,2.677
	C485.742,206.797,487.867,211.348,487.867,216.33z M249.177,247.425h3.015h16.775l183.3-42.059v-27.131
	c0-1.506-0.668-2.916-1.833-3.869c-1.164-0.953-2.679-1.328-4.154-1.032l-161.133,32.48c-0.088,0.018-0.177,0.033-0.266,0.046
	C265.856,208.64,251.183,226.095,249.177,247.425z M240.676,291.872c0,1.796,1.462,3.258,3.258,3.258s3.258-1.462,3.258-3.258
	v-34.447h-6.516V291.872z M203.824,206.005v14l15.436,2.909c2.714,0.511,4.499,3.125,3.987,5.839
	c-0.452,2.4-2.551,4.075-4.907,4.075c-0.308,0-0.619-0.028-0.932-0.088l-13.584-2.56v13.855l15.065,3.39h16.786h3.015
	C236.714,226.41,222.439,209.169,203.824,206.005z M175.2,217.249v0.006v27.267l8.21-3.948c0.689-0.332,1.431-0.494,2.166-0.494
	c1.158,0,2.306,0.402,3.227,1.18l5.021,4.239v-49.773l-18.624-3.742V217.249z M35.601,206.186l129.6,29.159v-14.063L55.167,198.053
	c-2.701-0.57-4.43-3.224-3.859-5.926c0.57-2.701,3.22-4.424,5.926-3.859L165.2,211.06v-12.807L41.588,173.344
	c-1.473-0.293-2.989,0.079-4.154,1.032s-1.833,2.363-1.833,3.869V206.186z M477.867,216.33c0-1.892-0.771-3.635-2.06-4.662
	c-0.642-0.512-1.687-1.057-3.02-0.752l-198.255,45.491v3.073c0,2.762-2.238,5-5,5s-5-2.238-5-5v-2.056h-7.342v34.447
	c0,7.311-5.947,13.258-13.258,13.258s-13.258-5.947-13.258-13.258v-34.447h-7.342v2.056c0,2.762-2.238,5-5,5s-5-2.238-5-5v-3.056
	l-9.51-2.14v1.979c0,1.946-1.129,3.715-2.894,4.535c-0.673,0.312-1.392,0.465-2.105,0.465c-1.159,0-2.307-0.402-3.227-1.18
	l-10.772-9.095l-12.459,5.992c-1.548,0.744-3.373,0.643-4.828-0.272c-1.456-0.915-2.339-2.515-2.339-4.233v-6.88l-150.136-33.78
	c-1.332-0.299-2.371,0.249-3.012,0.761c-1.285,1.028-2.053,2.77-2.053,4.657v7.207c0,2.675,1.579,5.01,3.674,5.433l205.649,41.503
	c2.333,0.471,4.011,2.521,4.011,4.901v14.557c0,13.124,9.241,23.802,20.6,23.802s20.6-10.678,20.6-23.802v-14.557
	c0-2.372,1.667-4.418,3.99-4.896l205.685-42.43c2.086-0.431,3.659-2.765,3.659-5.43V216.33z"/>
<g>
</g>
<g>
</g>
<g>
</g>
<g>
</g>
<g>
</g>
<g>
</g>
<g>
</g>
<g>
</g>
<g>
</g>
<g>
</g>
<g>
</g>
<g>
</g>
<g>
</g>
<g>
</g>
<g>
</g>
</svg>
