<svg version="1.1" xmlns="http://www.w3.org/2000/svg" xmlns:xlink="http://www.w3.org/1999/xlink" x="0px" y="0px"
	 viewBox="0 0 487.866 487.866" style="enable-background:new 0 0 487.866 487.866;" xml:space="preserve">
<path d="M482.866,96.27h-15.646V85.318c0-2.762-2.239-5-5-5h-183.92c-6.678,0-13.269,1-19.588,2.971
	c-0.078,0.024-0.146,0.067-0.222,0.094c-0.167,0.061-0.328,0.13-0.486,0.207c-0.139,0.068-0.273,0.139-0.403,0.219
	c-0.148,0.09-0.287,0.188-0.425,0.293c-0.119,0.091-0.234,0.183-0.343,0.283c-0.133,0.121-0.254,0.25-0.373,0.384
	c-0.089,0.102-0.176,0.203-0.256,0.311c-0.117,0.156-0.221,0.32-0.319,0.489c-0.059,0.103-0.117,0.205-0.169,0.312
	c-0.09,0.184-0.165,0.374-0.233,0.57c-0.038,0.11-0.073,0.219-0.103,0.331c-0.052,0.197-0.09,0.396-0.119,0.602
	c-0.017,0.125-0.03,0.249-0.038,0.376c-0.006,0.104-0.031,0.202-0.031,0.307v7.478c-3.455-1.057-7.119-1.63-10.915-1.63
	c-3.796,0-7.46,0.573-10.915,1.63v-7.478c0-0.107-0.025-0.207-0.031-0.312c-0.008-0.124-0.02-0.244-0.037-0.366
	c-0.029-0.208-0.067-0.412-0.121-0.611c-0.029-0.109-0.063-0.215-0.1-0.322c-0.068-0.199-0.145-0.392-0.236-0.579
	c-0.051-0.104-0.107-0.203-0.165-0.304c-0.1-0.172-0.205-0.338-0.324-0.496c-0.079-0.106-0.164-0.205-0.251-0.304
	c-0.12-0.136-0.244-0.267-0.378-0.389c-0.108-0.099-0.221-0.19-0.338-0.279c-0.139-0.106-0.28-0.205-0.43-0.296
	c-0.129-0.078-0.261-0.149-0.399-0.216c-0.159-0.078-0.321-0.147-0.489-0.208c-0.076-0.028-0.143-0.07-0.221-0.094
	c-6.319-1.971-12.91-2.971-19.588-2.971H26.335c-2.761,0-5,2.238-5,5V96.27H5c-2.761,0-5,2.238-5,5v288.806c0,2.762,2.239,5,5,5
	h214.121c3.413,7.815,14.598,12.473,25.095,12.473c12.343,0,22.178-5.104,25.259-12.473h213.392c2.761,0,5-2.238,5-5V101.27
	C487.866,98.508,485.627,96.27,482.866,96.27z M31.335,345.583h170.852c7.239,0,14.347,1.134,21.179,3.365v16.698H31.335V345.583z
	 M233.363,144.808c3.346-1.46,7.037-2.276,10.915-2.276s7.569,0.815,10.915,2.276v27.97c-3.455-1.057-7.119-1.63-10.915-1.63
	c-3.796,0-7.46,0.573-10.915,1.63V144.808z M233.363,183.425c3.346-1.46,7.037-2.276,10.915-2.276s7.569,0.815,10.915,2.276v27.97
	c-3.455-1.057-7.119-1.63-10.915-1.63c-3.796,0-7.46,0.573-10.915,1.63V183.425z M233.363,222.042
	c3.346-1.46,7.037-2.276,10.915-2.276s7.569,0.815,10.915,2.276v27.97c-3.455-1.057-7.119-1.63-10.915-1.63
	c-3.796,0-7.46,0.573-10.915,1.63V222.042z M233.363,260.659c3.346-1.46,7.037-2.276,10.915-2.276s7.569,0.815,10.915,2.276v27.971
	c-3.455-1.057-7.119-1.63-10.915-1.63c-3.796,0-7.46,0.573-10.915,1.63V260.659z M265.228,348.936
	c6.82-2.222,13.915-3.353,21.141-3.353h139.854h22.272h8.727v20.05l-191.993-0.494V348.936z M265.193,91.876
	c4.272-1.03,8.665-1.558,13.108-1.558h178.92v245.265h-8.727h-22.272H286.369c-7.207,0-14.302,0.977-21.176,2.909v-31.754
	c4.031,4.771,6.467,10.931,6.467,17.655c0,2.762,2.239,4.995,5,4.995s5-2.244,5-5.006c0-12.87-6.538-24.241-16.467-30.969v-25.293
	c4.031,4.771,6.467,10.931,6.467,17.655c0,2.762,2.239,4.995,5,4.995s5-2.244,5-5.006c0-12.87-6.538-24.241-16.467-30.969v-25.292
	c4.031,4.771,6.467,10.931,6.467,17.655c0,2.762,2.239,4.995,5,4.995s5-2.243,5-5.005c0-12.871-6.538-24.242-16.467-30.969v-25.292
	c4.031,4.771,6.467,10.931,6.467,17.655c0,2.762,2.239,4.995,5,4.995s5-2.243,5-5.005c0-12.871-6.538-24.242-16.467-30.969V152.27
	c4.031,4.771,6.467,10.931,6.467,17.655c0,2.762,2.239,4.995,5,4.995s5-2.243,5-5.005c0-12.871-6.538-24.242-16.467-30.969v-25.292
	c4.031,4.771,6.467,10.931,6.467,17.655c0,2.762,2.239,4.995,5,4.995s5-2.243,5-5.005c0-12.871-6.538-24.242-16.467-30.969V91.876z
	 M244.278,103.915c3.878,0,7.569,0.815,10.915,2.276v27.97c-3.455-1.057-7.119-1.63-10.915-1.63c-3.796,0-7.46,0.573-10.915,1.63
	V106.19C236.709,104.73,240.399,103.915,244.278,103.915z M31.335,90.318h178.92c4.443,0,8.836,0.528,13.108,1.558v8.452
	c-9.929,6.727-16.468,18.099-16.468,30.969v0.01c0,2.762,2.239,4.995,5,4.995s5-2.243,5-5.005c0-6.719,2.437-12.877,6.468-17.647
	v25.295c-9.929,6.727-16.468,18.099-16.468,30.969v0.01c0,2.762,2.239,4.995,5,4.995s5-2.243,5-5.005
	c0-6.719,2.437-12.877,6.468-17.647v25.295c-9.929,6.727-16.468,18.099-16.468,30.969v0.01c0,2.762,2.239,4.995,5,4.995
	s5-2.243,5-5.005c0-6.719,2.437-12.877,6.468-17.647v25.295c-9.929,6.727-16.468,18.099-16.468,30.969v0.01
	c0,2.762,2.239,4.995,5,4.995s5-2.243,5-5.005c0-6.719,2.437-12.877,6.468-17.647v25.294c-9.929,6.727-16.468,18.099-16.468,30.969
	v0.011c0,2.762,2.239,4.995,5,4.995s5-2.244,5-5.006c0-6.719,2.437-12.877,6.468-17.646v25.295
	c-9.929,6.727-16.468,18.099-16.468,30.969v0.011c0,2.762,2.239,4.995,5,4.995s5-2.244,5-5.006c0-6.719,2.437-12.877,6.468-17.646
	v31.756c-6.874-1.933-13.969-2.909-21.176-2.909H31.335V90.318z M477.866,385.076H265.488c-2.761,0-5,2.238-5,5
	c0,3.12-6.191,7.473-16.273,7.473c-8.914,0-16.148-4.521-16.148-7.473c0-2.762-2.239-5-5-5H10V106.27h11.335v234.313v30.063
	c0,2.762,2.239,5,5,5h202.03c2.761,0,5-2.238,5-5v-25.229c0-0.008-0.002-0.016-0.002-0.024v-0.139c0-0.008,0-0.015,0-0.015l0-45.961
	c3.346-1.46,7.037-2.276,10.915-2.276s7.569,0.815,10.915,2.276v45.955c0,0,0,0.011,0,0.017v0.167c0,0.1,0.024,0.194,0.03,0.293
	c0.002,0.029,0.003,0.058,0.006,0.088v24.329c0,2.757,2.231,4.993,4.987,5l201.993,0.52c0.004,0,0.008,0,0.013,0
	c1.324,0,2.594-0.525,3.531-1.46c0.941-0.938,1.469-2.212,1.469-3.54v-30.063V106.27h10.646V385.076z M212.152,356.064
	c0,2.762-2.239,5-5,5H47.607c-2.761,0-5-2.238-5-5s2.239-5,5-5h159.545C209.914,351.064,212.152,353.302,212.152,356.064z
	 M445.948,356.064c0,2.762-2.239,5-5,5H281.403c-2.761,0-5-2.238-5-5s2.239-5,5-5h159.545
	C443.709,351.064,445.948,353.302,445.948,356.064z M59.366,121.056c0-2.762,2.239-5,5-5h123.458c2.761,0,5,2.238,5,5s-2.239,5-5,5
	H64.366C61.604,126.056,59.366,123.818,59.366,121.056z M59.366,149.552c0-2.762,2.239-5,5-5h123.458c2.761,0,5,2.238,5,5
	s-2.239,5-5,5H64.366C61.604,154.552,59.366,152.314,59.366,149.552z M59.366,178.048c0-2.762,2.239-5,5-5h123.458
	c2.761,0,5,2.238,5,5s-2.239,5-5,5H64.366C61.604,183.048,59.366,180.81,59.366,178.048z M59.366,206.544c0-2.762,2.239-5,5-5
	h123.458c2.761,0,5,2.238,5,5s-2.239,5-5,5H64.366C61.604,211.544,59.366,209.306,59.366,206.544z M59.366,235.041
	c0-2.762,2.239-5,5-5h123.458c2.761,0,5,2.238,5,5s-2.239,5-5,5H64.366C61.604,240.041,59.366,237.802,59.366,235.041z
	 M59.366,263.538c0-2.762,2.239-5,5-5h123.458c2.761,0,5,2.238,5,5s-2.239,5-5,5H64.366
	C61.604,268.538,59.366,266.299,59.366,263.538z M59.366,292.034c0-2.762,2.239-5,5-5h123.458c2.761,0,5,2.238,5,5s-2.239,5-5,5
	H64.366C61.604,297.034,59.366,294.795,59.366,292.034z M296.258,121.056c0-2.762,2.239-5,5-5h123.458c2.761,0,5,2.238,5,5
	s-2.239,5-5,5H301.258C298.497,126.056,296.258,123.818,296.258,121.056z M296.258,149.552c0-2.762,2.239-5,5-5h123.458
	c2.761,0,5,2.238,5,5s-2.239,5-5,5H301.258C298.497,154.552,296.258,152.314,296.258,149.552z M296.258,178.048c0-2.762,2.239-5,5-5
	h123.458c2.761,0,5,2.238,5,5s-2.239,5-5,5H301.258C298.497,183.048,296.258,180.81,296.258,178.048z M296.258,206.544
	c0-2.762,2.239-5,5-5h123.458c2.761,0,5,2.238,5,5s-2.239,5-5,5H301.258C298.497,211.544,296.258,209.306,296.258,206.544z
	 M296.258,235.041c0-2.762,2.239-5,5-5h123.458c2.761,0,5,2.238,5,5s-2.239,5-5,5H301.258
	C298.497,240.041,296.258,237.802,296.258,235.041z M296.258,263.538c0-2.762,2.239-5,5-5h123.458c2.761,0,5,2.238,5,5s-2.239,5-5,5
	H301.258C298.497,268.538,296.258,266.299,296.258,263.538z M429.715,292.034c0,2.762-2.239,5-5,5h-6.456c-2.761,0-5-2.238-5-5
	s2.239-5,5-5h6.456C427.477,287.034,429.715,289.272,429.715,292.034z M296.258,292.034c0-2.762,2.239-5,5-5h86.935
	c2.761,0,5,2.238,5,5s-2.239,5-5,5h-86.935C298.497,297.034,296.258,294.795,296.258,292.034z"/>
<g>
</g>
<g>
</g>
<g>
</g>
<g>
</g>
<g>
</g>
<g>
</g>
<g>
</g>
<g>
</g>
<g>
</g>
<g>
</g>
<g>
</g>
<g>
</g>
<g>
</g>
<g>
</g>
<g>
</g>
</svg>
