<svg version="1.1" xmlns="http://www.w3.org/2000/svg" xmlns:xlink="http://www.w3.org/1999/xlink" x="0px" y="0px"
	 viewBox="0 0 487.866 487.866" style="enable-background:new 0 0 487.866 487.866;" xml:space="preserve">
<path d="M468.696,101.721v-9.856c0-2.761-2.239-5-5-5H298.433c-14.76,0-28.272,5.409-38.688,14.333H25c-13.785,0-25,11.215-25,25
	v235.519c0,13.785,11.215,25,25,25h194.875v9.286c0,2.761,2.239,5,5,5h38.117c2.761,0,5-2.239,5-5v-9.286h195.704
	c13.328,0,24.17-10.843,24.17-24.17V125.368C487.866,113.754,479.632,104.031,468.696,101.721z M458.696,239.797v76.437h-80.762
	L458.696,239.797z M370.377,309.617V233.06h80.888L370.377,309.617z M458.696,326.234v33.023H251.544
	c10.338-20.012,31.257-33.023,54.139-33.023H458.696z M458.696,96.865V223.06h-93.318c-2.761,0-5,2.239-5,5v88.173h-54.694
	c-22.636,0-43.625,10.935-56.806,28.516V146.421c0-27.325,22.231-49.556,49.556-49.556H458.696z M477.866,362.546
	c0,7.813-6.357,14.17-14.17,14.17H262.992c-2.761,0-5,2.239-5,5v9.286h-28.117v-9.286c0-0.032-0.009-0.061-0.009-0.092V368.4
	c0-2.761-2.239-5-5-5s-5,2.239-5,5v8.316H25c-8.271,0-15-6.729-15-15V126.198c0-8.271,6.729-15,15-15h194.865v227.184
	c0,2.761,2.239,5,5,5s5-2.239,5-5V111.198h20.583c-7.266,9.872-11.571,22.052-11.571,35.223v217.835
	c0,2.421,1.735,4.495,4.118,4.922c0.296,0.053,0.592,0.079,0.885,0.079c0.021,0,0.041-0.005,0.062-0.005
	c0.016,0,0.031,0.005,0.047,0.005h219.707c2.761,0,5-2.239,5-5v-43.023v-92.066c0.164-0.724,0.17-1.483,0-2.223V112.126
	c5.35,2.027,9.17,7.191,9.17,13.243V362.546z M303.297,337.149h143.36c2.761,0,5,2.239,5,5s-2.239,5-5,5h-143.36
	c-2.761,0-5-2.239-5-5S300.536,337.149,303.297,337.149z M214.8,361.868c0,2.761-2.239,5-5,5H22.066c-2.761,0-5-2.239-5-5
	s2.239-5,5-5H209.8C212.561,356.868,214.8,359.107,214.8,361.868z"/>
<g>
</g>
<g>
</g>
<g>
</g>
<g>
</g>
<g>
</g>
<g>
</g>
<g>
</g>
<g>
</g>
<g>
</g>
<g>
</g>
<g>
</g>
<g>
</g>
<g>
</g>
<g>
</g>
<g>
</g>
</svg>
