<svg version="1.1" xmlns="http://www.w3.org/2000/svg" xmlns:xlink="http://www.w3.org/1999/xlink" x="0px" y="0px"
	 viewBox="0 0 481.363 481.363" style="enable-background:new 0 0 481.363 481.363;" xml:space="preserve">
<path d="M389.291,0H70.51c-2.762,0-5,2.238-5,5v438.824v32.539c0,2.762,2.238,5,5,5h318.781c14.646,0,26.563-11.916,26.563-26.563
	v-32.538v-395.7C415.854,11.916,403.938,0,389.291,0z M75.51,10h313.781c9.133,0,16.563,7.43,16.563,16.563v395.7
	c0,9.132-7.43,16.562-16.563,16.562H75.51V10z M389.291,471.363H75.51v-22.539h313.781c6.26,0,12.017-2.182,16.563-5.818v11.795
	C405.854,463.934,398.424,471.363,389.291,471.363z M337.711,292.838H140.207c-8.702,0-15.781,7.079-15.781,15.78v77.092
	c0,8.702,7.079,15.781,15.781,15.781h197.504c8.702,0,15.781-7.079,15.781-15.781v-77.092
	C353.492,299.917,346.413,292.838,337.711,292.838z M343.492,385.71c0,3.188-2.594,5.781-5.781,5.781H140.207
	c-3.188,0-5.781-2.594-5.781-5.781v-77.092c0-3.188,2.594-5.78,5.781-5.78h197.504c3.188,0,5.781,2.593,5.781,5.78V385.71z
	 M320.606,323.618c0,2.762-2.238,5-5,5H205.47c-2.762,0-5-2.238-5-5s2.238-5,5-5h110.137
	C318.368,318.618,320.606,320.856,320.606,323.618z M157.313,323.618c0-2.762,2.238-5,5-5h10.793c2.762,0,5,2.238,5,5s-2.238,5-5,5
	h-10.793C159.551,328.618,157.313,326.38,157.313,323.618z M320.606,345.543c0,2.762-2.238,5-5,5H162.313c-2.762,0-5-2.238-5-5
	s2.238-5,5-5h153.294C318.368,340.543,320.606,342.781,320.606,345.543z M320.606,367.467c0,2.762-2.238,5-5,5H162.313
	c-2.762,0-5-2.238-5-5s2.238-5,5-5h153.294C318.368,362.467,320.606,364.705,320.606,367.467z M397.687,460.912c0,2.762-2.238,5-5,5
	H96.658c-2.762,0-5-2.238-5-5s2.238-5,5-5h296.028C395.448,455.912,397.687,458.15,397.687,460.912z M323.872,185.049
	c0-47.623-38.744-86.367-86.366-86.367c-47.623,0-86.367,38.744-86.367,86.367c0,47.622,38.744,86.366,86.367,86.366
	C285.128,271.415,323.872,232.671,323.872,185.049z M242.506,180.049v-70.567c16.316,5.148,29.456,34.97,30.593,70.567H242.506z
	 M273.099,190.049c-1.137,35.596-14.277,65.418-30.593,70.566v-70.566H273.099z M232.506,109.482v70.567h-30.593
	C203.05,144.452,216.189,114.63,232.506,109.482z M232.506,190.049v70.566c-16.316-5.148-29.456-34.97-30.593-70.566H232.506z
	 M263.111,256.986c11.517-14.503,19.186-38.713,20-66.937h30.579C311.678,220.997,291.161,246.971,263.111,256.986z M313.69,180.049
	h-30.579c-0.814-28.225-8.483-52.435-20-66.938C291.161,123.126,311.679,149.1,313.69,180.049z M211.901,113.111
	c-11.517,14.503-19.186,38.713-20,66.938h-30.58C163.332,149.1,183.85,123.125,211.901,113.111z M161.32,190.049h30.58
	c0.814,28.224,8.483,52.434,20,66.937C183.85,246.971,163.332,220.997,161.32,190.049z M353.492,63.682c0,2.762-2.238,5-5,5H129.426
	c-2.762,0-5-2.238-5-5s2.238-5,5-5h219.066C351.254,58.682,353.492,60.92,353.492,63.682z"/>
<g>
</g>
<g>
</g>
<g>
</g>
<g>
</g>
<g>
</g>
<g>
</g>
<g>
</g>
<g>
</g>
<g>
</g>
<g>
</g>
<g>
</g>
<g>
</g>
<g>
</g>
<g>
</g>
<g>
</g>
</svg>
