<svg version="1.1" xmlns="http://www.w3.org/2000/svg" xmlns:xlink="http://www.w3.org/1999/xlink" x="0px" y="0px"
	 viewBox="0 0 487.108 487.108" style="enable-background:new 0 0 487.108 487.108;" xml:space="preserve">
<path d="M444.554,0H81.614c-24.295,0-44.06,19.765-44.06,44.06v405.659c0,20.617,16.773,37.39,37.391,37.39h369.609
	c2.762,0,5-2.239,5-5v-64.781V5C449.554,2.239,447.316,0,444.554,0z M47.554,44.06c0-18.78,15.279-34.06,34.06-34.06h7.479v346.255
	c0,2.761,2.238,5,5,5s5-2.239,5-5V10h340.462v402.328H99.092v-16.186c0-2.761-2.238-5-5-5s-5,2.239-5,5v16.186H74.945
	c-10.81,0-20.558,4.616-27.391,11.975V44.06z M439.554,477.108H74.945c-15.104,0-27.391-12.287-27.391-27.39
	s12.287-27.391,27.391-27.391h364.609V477.108z M78.837,438.822c0-2.761,2.238-5,5-5h319.276c2.762,0,5,2.239,5,5s-2.238,5-5,5
	H83.837C81.076,443.822,78.837,441.583,78.837,438.822z M78.837,459.318c0-2.761,2.238-5,5-5h319.276c2.762,0,5,2.239,5,5
	s-2.238,5-5,5H83.837C81.076,464.318,78.837,462.08,78.837,459.318z M146.216,219.453V155.62c0-2.761,2.238-5,5-5h47.867
	c2.762,0,5,2.239,5,5s-2.238,5-5,5h-42.867v21.912h26.911c2.762,0,5,2.239,5,5s-2.238,5-5,5h-26.911v21.921h42.867
	c2.762,0,5,2.239,5,5s-2.238,5-5,5h-47.867C148.455,224.453,146.216,222.214,146.216,219.453z M209.597,179.559c0-2.761,2.238-5,5-5
	h31.911c2.762,0,5,2.239,5,5s-2.238,5-5,5h-31.911C211.835,184.559,209.597,182.32,209.597,179.559z M209.597,195.514
	c0-2.761,2.238-5,5-5h31.911c2.762,0,5,2.239,5,5s-2.238,5-5,5h-31.911C211.835,200.514,209.597,198.275,209.597,195.514z
	 M265.883,219.443v-45.338c0-2.761,2.238-5,5-5s5,2.239,5,5v0.813c0.959-0.227,1.955-0.359,2.982-0.359h7.968
	c3.011,0,5.779,1.039,7.983,2.766c2.205-1.726,4.972-2.766,7.982-2.766h7.968c7.158,0,12.982,5.824,12.982,12.982v31.902
	c0,2.761-2.238,5-5,5s-5-2.239-5-5v-31.902c0-1.645-1.338-2.982-2.982-2.982h-7.968c-1.645,0-2.982,1.338-2.982,2.982v31.902
	c0,2.761-2.238,5-5,5s-5-2.239-5-5v-31.902c0-1.645-1.338-2.982-2.983-2.982h-7.968c-1.645,0-2.982,1.338-2.982,2.982v31.902
	c0,2.761-2.238,5-5,5S265.883,222.205,265.883,219.443z M329.706,201.373c0-14.786,12.029-26.814,26.814-26.814h10.097
	c2.762,0,5,2.239,5,5s-2.238,5-5,5H356.52c-9.271,0-16.814,7.543-16.814,16.814s7.543,16.814,16.814,16.814h10.097
	c2.762,0,5,2.239,5,5s-2.238,5-5,5H356.52C341.735,228.188,329.706,216.159,329.706,201.373z M378.089,170.455v-3.212
	c0-7.462,6.071-13.533,13.533-13.533h0.313c7.29,0,13.221,5.931,13.221,13.221c0,3.616-1.408,7.014-3.964,9.57l-6.032,6.032h4.996
	c2.762,0,5,2.239,5,5s-2.238,5-5,5h-17.066c-2.022,0-3.846-1.218-4.619-3.086c-0.774-1.869-0.347-4.019,1.084-5.449l14.567-14.568
	c0.667-0.667,1.034-1.554,1.034-2.498c0-1.776-1.444-3.221-3.221-3.221h-0.313c-1.948,0-3.533,1.585-3.533,3.533v3.212
	c0,2.761-2.238,5-5,5S378.089,173.216,378.089,170.455z"/>
<g>
</g>
<g>
</g>
<g>
</g>
<g>
</g>
<g>
</g>
<g>
</g>
<g>
</g>
<g>
</g>
<g>
</g>
<g>
</g>
<g>
</g>
<g>
</g>
<g>
</g>
<g>
</g>
<g>
</g>
</svg>
