<svg version="1.1" xmlns="http://www.w3.org/2000/svg" xmlns:xlink="http://www.w3.org/1999/xlink" x="0px" y="0px"
	 viewBox="0 0 471.108 471.108" style="enable-background:new 0 0 471.108 471.108;" xml:space="preserve">
<path d="M235.554,0C160.153,0,98.809,61.343,98.809,136.745c0,52.992,45.828,164.414,59.874,197.301
	c15.146,35.46,31.013,69.007,44.681,94.46c6.798,12.659,12.689,22.63,17.511,29.637c7.404,10.76,11.224,12.965,14.68,12.965
	s7.275-2.205,14.68-12.965c4.821-7.007,10.713-16.978,17.511-29.637c13.668-25.454,29.535-59,44.681-94.46
	c14.046-32.888,59.874-144.31,59.874-197.301C372.299,61.343,310.956,0,235.554,0z M305.267,325.323
	c-33.27,78.634-61.387,128.202-69.713,135.278c-8.326-7.077-36.443-56.645-69.713-135.278
	c-35.712-84.407-57.032-154.903-57.032-188.578C108.809,66.857,165.667,10,235.554,10s126.745,56.857,126.745,126.745
	C362.299,170.419,340.979,240.916,305.267,325.323z M319.437,186.192V88.226c0-2.761-2.238-5-5-5h-7.46
	c-0.328-2.444-2.399-4.336-4.933-4.336h-50c-6.617,0-12.541,3.008-16.489,7.724c-3.948-4.716-9.872-7.724-16.489-7.724h-50
	c-2.534,0-4.606,1.892-4.933,4.336h-7.46c-2.762,0-5,2.239-5,5v97.966c0,2.761,2.238,5,5,5h69.573c2.153,2.372,5.757,3.7,9.292,3.7
	c3.989,0,7.368-1.434,9.367-3.7h69.534C317.199,191.192,319.437,188.953,319.437,186.192z M174.065,158.285h42.807
	c3.652,0,7.328,2.561,10.133,6.019h-52.939V158.285z M252.043,88.89h45v59.396h-42.807c-5.033,0-9.732,2.161-13.666,5.448v-53.337
	c0-0.111-0.015-0.217-0.017-0.328C240.73,93.876,245.809,88.89,252.043,88.89z M297.043,158.285v6.019h-52.939
	c2.805-3.458,6.48-6.019,10.133-6.019H297.043z M174.065,88.89h45c6.234,0,11.314,4.986,11.489,11.178
	c-0.002,0.11-0.017,0.217-0.017,0.328v53.337c-3.934-3.287-8.633-5.448-13.666-5.448h-42.807V88.89z M309.437,181.192h-67.591
	c-0.317,0-0.625,0.037-0.926,0.093c-0.096,0.018-0.186,0.046-0.28,0.07c-0.204,0.051-0.403,0.11-0.596,0.185
	c-0.1,0.039-0.196,0.081-0.293,0.125c-0.183,0.085-0.358,0.181-0.529,0.287c-0.084,0.052-0.168,0.1-0.249,0.157
	c-0.203,0.143-0.393,0.301-0.572,0.471c-0.034,0.032-0.072,0.058-0.105,0.091c-0.206,0.208-0.391,0.436-0.559,0.677
	c-0.048,0.069-0.086,0.144-0.131,0.216c-0.112,0.18-0.215,0.365-0.304,0.56c-0.043,0.095-0.081,0.192-0.118,0.291
	c-0.034,0.089-0.079,0.173-0.108,0.265c-0.337,0.107-0.854,0.211-1.543,0.211c-0.611,0-1.16-0.135-1.526-0.275
	c-0.026-0.077-0.064-0.147-0.094-0.222c-0.038-0.097-0.077-0.192-0.121-0.286c-0.087-0.188-0.186-0.368-0.294-0.543
	c-0.048-0.078-0.092-0.158-0.144-0.233c-0.168-0.24-0.351-0.469-0.557-0.675c-0.004-0.004-0.01-0.008-0.014-0.012
	c-0.203-0.202-0.427-0.381-0.662-0.546c-0.076-0.053-0.156-0.097-0.235-0.146c-0.174-0.108-0.353-0.207-0.541-0.293
	c-0.094-0.044-0.189-0.084-0.287-0.121c-0.194-0.075-0.394-0.135-0.599-0.186c-0.093-0.023-0.182-0.05-0.277-0.068
	c-0.3-0.056-0.607-0.093-0.923-0.093h-67.591V93.226h2.394v60.059v16.019c0,2.761,2.238,5,5,5h66.47c0.002,0,0.004,0,0.005,0
	c0.002,0,0.004,0,0.006,0h0.015c0.002,0,0.004,0,0.006,0c0.002,0,0.004,0,0.005,0h66.47c2.762,0,5-2.239,5-5v-16.019V93.226h2.394
	V181.192z M346.679,136.861c0,46.401-29.251,88.324-72.788,104.32c-2.597,0.954-5.467-0.377-6.418-2.969
	c-0.952-2.592,0.377-5.465,2.969-6.417c39.619-14.556,66.237-52.707,66.237-94.933c0-55.75-45.355-101.105-101.105-101.105
	S134.468,81.111,134.468,136.861s45.355,101.105,101.105,101.105c4.023,0,8.073-0.238,12.037-0.709
	c2.74-0.321,5.229,1.634,5.554,4.376c0.326,2.742-1.634,5.229-4.376,5.555c-4.354,0.517-8.799,0.778-13.215,0.778
	c-61.264,0-111.105-49.842-111.105-111.105S174.31,25.755,235.574,25.755S346.679,75.597,346.679,136.861z"/>
<g>
</g>
<g>
</g>
<g>
</g>
<g>
</g>
<g>
</g>
<g>
</g>
<g>
</g>
<g>
</g>
<g>
</g>
<g>
</g>
<g>
</g>
<g>
</g>
<g>
</g>
<g>
</g>
<g>
</g>
</svg>
