<svg version="1.1" xmlns="http://www.w3.org/2000/svg" xmlns:xlink="http://www.w3.org/1999/xlink" x="0px" y="0px"
	 viewBox="0 0 488.833 488.833" style="enable-background:new 0 0 488.833 488.833;" xml:space="preserve">
<path d="M488.833,93.761c0.068-11.37-5.463-21.569-14.795-27.282c-8.999-5.51-20.126-5.817-29.764-0.821
	c-2.451,1.271-3.409,4.288-2.139,6.74c1.271,2.452,4.29,3.408,6.74,2.139c6.597-3.419,13.864-3.248,19.941,0.472
	c6.318,3.867,10.063,10.855,10.016,18.723v179.85c-5.735-12.471-13.772-23.672-23.568-33.052c-0.206-0.341-0.441-0.669-0.735-0.964
	c-0.37-0.371-0.794-0.648-1.235-0.878c-19.22-17.512-44.758-28.204-72.746-28.204c-51.46,0-94.634,36.142-105.483,84.374
	c-6.943-9.467-18.139-15.63-30.752-15.63c-12.594,0-23.777,6.144-30.722,15.588c-4.788-21.245-15.845-40.141-31.122-54.634
	c-0.154-0.213-0.312-0.425-0.504-0.617c-0.284-0.284-0.599-0.514-0.927-0.715c-19.24-17.607-44.847-28.366-72.921-28.366
	c-43.416,0-80.93,25.728-98.115,62.734V93.701c-0.047-7.837,3.697-14.825,10.016-18.692c6.074-3.721,13.345-3.892,19.941-0.472
	c2.449,1.269,5.469,0.313,6.74-2.139c1.271-2.452,0.313-5.47-2.139-6.74c-9.637-4.994-20.765-4.688-29.764,0.821
	C5.464,72.192-0.068,82.391,0.001,93.731V318.6c0,14.822,3,28.956,8.422,41.829c0.07,0.202,0.156,0.397,0.253,0.591
	c4.887,11.414,11.685,21.82,19.988,30.82c0.144,0.194,0.286,0.389,0.461,0.565c0.084,0.084,0.181,0.143,0.269,0.22
	c19.732,20.972,47.722,34.092,78.722,34.092c45.928,0,85.252-28.789,100.892-69.267c0.663,0.324,1.398,0.522,2.185,0.522
	c2.762,0,5-2.238,5-5v-31.49c0.025-0.958,0.039-1.918,0.039-2.882c0-0.622-0.013-1.241-0.024-1.86
	c0.326-15.225,12.803-27.512,28.104-27.512c15.505,0,28.119,12.614,28.119,28.119v35.625c0,2.762,2.238,5,5,5
	c0.801,0,1.547-0.206,2.217-0.54c15.635,40.487,54.965,69.284,100.899,69.284c59.187,0,107.409-47.809,108.099-106.836
	c0.109-0.411,0.186-0.835,0.186-1.28V93.761z M108.116,220.484c10.896,0,21.381,1.788,31.182,5.081L15.082,349.781
	c-3.293-9.8-5.081-20.285-5.081-31.181C10.001,264.498,54.015,220.484,108.116,220.484z M108.116,416.716
	c-26.573,0-50.707-10.623-68.393-27.84l101.114-101.113c1.953-1.952,1.953-5.118,0-7.07c-1.951-1.953-5.119-1.953-7.07,0
	L32.915,381.544c-5.492-6.551-10.145-13.827-13.794-21.663l130.277-130.277c7.835,3.649,15.111,8.301,21.662,13.793l-9.375,9.376
	c-1.952,1.952-1.952,5.118,0.001,7.071c0.977,0.976,2.256,1.464,3.535,1.464s2.56-0.488,3.536-1.465l9.636-9.637
	c16.813,17.272,27.332,40.695,27.815,66.531c-0.003,0.203-0.015,0.404-0.015,0.608v3.964
	C204.752,374.164,161.311,416.716,108.116,416.716z M380.548,220.484c10.933,0,21.453,1.799,31.282,5.114L287.545,349.882
	c-3.315-9.829-5.114-20.349-5.114-31.282C282.431,264.498,326.446,220.484,380.548,220.484z M380.548,416.716
	c-26.539,0-50.646-10.596-68.325-27.773l101.18-101.18c1.953-1.952,1.953-5.118,0-7.07c-1.951-1.953-5.119-1.953-7.07,0
	L305.407,381.617c-5.498-6.544-10.156-13.814-13.813-21.644l130.326-130.326c7.829,3.656,15.099,8.315,21.643,13.813l-9.314,9.314
	c-1.953,1.952-1.953,5.118,0,7.07c0.976,0.977,2.256,1.465,3.535,1.465s2.56-0.488,3.535-1.465l9.569-9.569
	c17.177,17.68,27.773,41.786,27.773,68.325C478.663,372.702,434.648,416.716,380.548,416.716z"/>
<g>
</g>
<g>
</g>
<g>
</g>
<g>
</g>
<g>
</g>
<g>
</g>
<g>
</g>
<g>
</g>
<g>
</g>
<g>
</g>
<g>
</g>
<g>
</g>
<g>
</g>
<g>
</g>
<g>
</g>
</svg>
