<svg version="1.1" xmlns="http://www.w3.org/2000/svg" xmlns:xlink="http://www.w3.org/1999/xlink" x="0px" y="0px"
	 viewBox="0 0 487.865 487.865" style="enable-background:new 0 0 487.865 487.865;" xml:space="preserve">
<path d="M461.418,1.651C460.469,0.601,459.12,0,457.704,0H306.807h-1.18H30.161c-1.407,0-2.75,0.593-3.697,1.634
	c-0.948,1.04-1.413,2.432-1.281,3.833l37.725,402.415c0.241,2.569,2.397,4.533,4.978,4.533h31.938v6.084
	c-16.864,2.433-29.865,16.975-29.865,34.501c0,19.225,15.64,34.864,34.865,34.864s34.865-15.64,34.865-34.864
	c0-17.527-13.001-32.068-29.865-34.501v-6.084h141.683v6.084c-16.864,2.433-29.865,16.975-29.865,34.501
	c0,19.225,15.64,34.864,34.865,34.864s34.865-15.64,34.865-34.864c0-17.527-13.001-32.068-29.865-34.501v-6.084h7.575h108.173v6.084
	c-16.864,2.433-29.865,16.975-29.865,34.501c0,19.225,15.64,34.864,34.865,34.864s34.865-15.64,34.865-34.864
	c0-17.527-13.001-32.068-29.865-34.501v-6.084h28.722c2.562,0,4.709-1.937,4.973-4.484L462.677,5.516
	C462.823,4.107,462.366,2.703,461.418,1.651z M129.689,453.001c0,13.71-11.154,24.864-24.865,24.864s-24.865-11.154-24.865-24.864
	c0-11.999,8.542-22.04,19.865-24.36v24.36c0,2.762,2.239,5,5,5s5-2.238,5-5v-24.36C121.147,430.961,129.689,441.002,129.689,453.001
	z M281.372,453.001c0,13.71-11.154,24.864-24.865,24.864s-24.865-11.154-24.865-24.864c0-11.999,8.542-22.04,19.865-24.36v24.36
	c0,2.762,2.239,5,5,5s5-2.238,5-5v-24.36C272.83,430.961,281.372,441.002,281.372,453.001z M407.12,453.001
	c0,13.71-11.154,24.864-24.865,24.864s-24.865-11.154-24.865-24.864c0-11.999,8.542-22.04,19.865-24.36v24.36c0,2.762,2.239,5,5,5
	s5-2.238,5-5v-24.36C398.578,430.961,407.12,441.002,407.12,453.001z M411.469,402.415h-27.866
	c-0.431-0.121-0.877-0.207-1.347-0.207s-0.916,0.086-1.347,0.207H274.573l0.688-7.339c0.258-2.749-1.762-5.188-4.511-5.445
	c-2.747-0.248-5.188,1.763-5.445,4.512l-0.776,8.272h-6.674c-0.431-0.121-0.877-0.207-1.347-0.207s-0.916,0.086-1.347,0.207H106.172
	c-0.431-0.121-0.877-0.207-1.347-0.207s-0.916,0.086-1.347,0.207H72.439L35.652,10h265.664L269.03,354.401
	c-0.258,2.75,1.762,5.188,4.511,5.445c2.751,0.249,5.188-1.763,5.445-4.512L311.36,10h140.799L411.469,402.415z M261.108,50.445
	c0,2.762-2.239,5-5,5c-9.648,0-17.497,7.85-17.497,17.497v128.391c0,44.359-36.089,80.448-80.449,80.448
	s-80.449-36.089-80.449-80.448V72.942c0-15.162,12.335-27.497,27.497-27.497h2.652c2.761,0,5,2.238,5,5s-2.239,5-5,5h-2.652
	c-9.648,0-17.497,7.85-17.497,17.497v128.391c0,38.846,31.603,70.448,70.449,70.448s70.449-31.603,70.449-70.448V72.942
	c0-15.162,12.335-27.497,27.497-27.497C258.869,45.445,261.108,47.684,261.108,50.445z"/>
<g>
</g>
<g>
</g>
<g>
</g>
<g>
</g>
<g>
</g>
<g>
</g>
<g>
</g>
<g>
</g>
<g>
</g>
<g>
</g>
<g>
</g>
<g>
</g>
<g>
</g>
<g>
</g>
<g>
</g>
</svg>
