<svg version="1.1" xmlns="http://www.w3.org/2000/svg" xmlns:xlink="http://www.w3.org/1999/xlink" x="0px" y="0px"
	 viewBox="0 0 487.867 487.867" style="enable-background:new 0 0 487.867 487.867;" xml:space="preserve">
<path d="M487.867,176.773c0-0.3-0.037-0.593-0.09-0.883c-0.014-0.077-0.029-0.153-0.046-0.229c-0.064-0.277-0.143-0.55-0.251-0.81
	c-0.012-0.03-0.03-0.057-0.043-0.086c-0.104-0.235-0.228-0.459-0.366-0.675c-0.042-0.065-0.083-0.128-0.127-0.191
	c-0.163-0.23-0.338-0.452-0.539-0.653c-0.005-0.005-0.01-0.008-0.015-0.013c-0.194-0.193-0.411-0.366-0.638-0.526
	c-0.065-0.047-0.132-0.09-0.2-0.134c-0.063-0.04-0.12-0.087-0.185-0.124L280.838,54.366c-1.552-0.896-3.463-0.894-5.013,0.007
	L2.488,213.22c-0.063,0.036-0.118,0.081-0.178,0.12c-0.066,0.043-0.131,0.086-0.195,0.131c-0.221,0.156-0.43,0.325-0.62,0.512
	c-0.011,0.011-0.024,0.02-0.035,0.031c-0.2,0.201-0.376,0.422-0.539,0.653c-0.044,0.062-0.084,0.125-0.125,0.188
	c-0.136,0.212-0.257,0.432-0.359,0.662c-0.016,0.035-0.036,0.067-0.05,0.102c-0.109,0.26-0.188,0.533-0.251,0.81
	c-0.017,0.075-0.031,0.149-0.045,0.225c-0.052,0.287-0.088,0.578-0.088,0.876c0,0.004-0.001,0.008-0.001,0.012v93.544
	c0,1.786,0.953,3.437,2.5,4.33l204.527,118.084c0.151,0.087,0.307,0.158,0.464,0.228c0.039,0.018,0.076,0.04,0.115,0.057
	c0.264,0.11,0.536,0.189,0.811,0.252c0.074,0.017,0.148,0.03,0.223,0.044c0.294,0.053,0.59,0.089,0.887,0.089
	c0.298,0,0.594-0.036,0.888-0.089c0.075-0.014,0.15-0.027,0.224-0.044c0.277-0.063,0.55-0.142,0.815-0.253
	c0.033-0.014,0.063-0.033,0.096-0.047c0.166-0.073,0.331-0.15,0.49-0.243l273.34-158.847c1.54-0.896,2.487-2.542,2.487-4.323V176.78
	c0-0.001,0-0.002,0-0.003C487.866,176.776,487.867,176.775,487.867,176.773z M278.346,64.474l194.545,112.319L209.519,329.848
	L14.976,217.529L278.346,64.474z M214.527,420.482v-6.752c0-2.762-2.239-5-5-5s-5,2.238-5,5v6.78L10,308.2v-81.997l194.527,112.31
	v44.319c0,2.762,2.239,5,5,5s5-2.238,5-5v-44.329l263.339-153.035v81.978L214.527,420.482z M188.53,356.368
	c-0.926,1.604-2.607,2.501-4.335,2.501c-0.848,0-1.708-0.216-2.495-0.671L28.1,269.517c-2.392-1.381-3.211-4.438-1.83-6.83
	c1.381-2.391,4.438-3.212,6.83-1.83l153.6,88.681C189.091,350.919,189.911,353.976,188.53,356.368z M188.53,387.334
	c-0.926,1.604-2.607,2.501-4.335,2.501c-0.848,0-1.708-0.216-2.495-0.671L28.1,300.483c-2.392-1.381-3.211-4.438-1.83-6.83
	c1.381-2.39,4.438-3.212,6.83-1.83l153.6,88.681C189.091,381.885,189.911,384.942,188.53,387.334z M461.589,219.163
	c1.388,2.388,0.576,5.448-1.811,6.836L237.912,354.934c-0.791,0.459-1.655,0.678-2.507,0.678c-1.723,0-3.4-0.892-4.328-2.488
	c-1.387-2.388-0.577-5.448,1.811-6.836l221.866-128.936C457.143,215.964,460.201,216.776,461.589,219.163z M461.589,253.755
	c1.388,2.388,0.576,5.448-1.811,6.836L237.912,389.525c-0.791,0.459-1.655,0.678-2.507,0.678c-1.723,0-3.4-0.892-4.328-2.488
	c-1.387-2.388-0.577-5.448,1.811-6.836l221.866-128.935C457.143,250.556,460.201,251.368,461.589,253.755z M323.703,221.721
	c-0.926,1.604-2.606,2.501-4.335,2.501c-0.848,0-1.708-0.216-2.495-0.671l-88.665-51.19c-2.392-1.381-3.211-4.438-1.83-6.83
	c1.38-2.391,4.438-3.212,6.83-1.83l88.665,51.19C324.264,216.271,325.083,219.329,323.703,221.721z M243.151,127.682l136.261,78.67
	c2.392,1.381,3.211,4.438,1.83,6.83c-0.926,1.604-2.606,2.501-4.335,2.501c-0.848,0-1.708-0.216-2.495-0.671l-136.261-78.67
	c-2.392-1.381-3.211-4.438-1.83-6.83C237.701,127.122,240.758,126.301,243.151,127.682z M284.157,90.609L55.406,223.544
	c-0.791,0.459-1.655,0.678-2.507,0.678c-1.723,0-3.4-0.892-4.328-2.488c-1.387-2.388-0.577-5.448,1.811-6.836l228.75-132.935
	c2.39-1.388,5.447-0.576,6.836,1.811C287.355,86.161,286.543,89.221,284.157,90.609z"/>
<g>
</g>
<g>
</g>
<g>
</g>
<g>
</g>
<g>
</g>
<g>
</g>
<g>
</g>
<g>
</g>
<g>
</g>
<g>
</g>
<g>
</g>
<g>
</g>
<g>
</g>
<g>
</g>
<g>
</g>
</svg>
