<svg version="1.1" xmlns="http://www.w3.org/2000/svg" xmlns:xlink="http://www.w3.org/1999/xlink" x="0px" y="0px"
	 viewBox="0 0 487.867 487.867" style="enable-background:new 0 0 487.867 487.867;" xml:space="preserve">
<path d="M416.422,71.445C370.349,25.373,309.092,0,243.933,0S117.518,25.373,71.446,71.445S0,178.775,0,243.934
	S25.373,370.35,71.446,416.422s107.33,71.445,172.488,71.445s126.416-25.373,172.488-71.445s71.445-107.33,71.445-172.488
	S462.494,117.518,416.422,71.445z M243.933,477.867C114.942,477.867,10,372.925,10,243.934S114.942,10,243.933,10
	s233.934,104.942,233.934,233.934S372.925,477.867,243.933,477.867z M398.589,126.527c-0.874-1.149-2.202-1.864-3.643-1.962
	c-1.438-0.105-2.853,0.432-3.873,1.453l-9.86,9.86c-1.953,1.952-1.953,5.118,0,7.07c1.951,1.953,5.119,1.953,7.07,0l5.749-5.748
	c22.305,31.273,34.064,68.052,34.064,106.732c0,101.548-82.615,184.163-184.163,184.163c-38.681,0-75.459-11.76-106.732-34.064
	l72.437-72.438l106.978,53.613c0.707,0.354,1.475,0.53,2.24,0.53c0.913,0,1.824-0.25,2.627-0.745
	c1.475-0.911,2.373-2.521,2.373-4.255v-92.99h0.766c18.649,0,33.822-15.173,33.822-33.823c0-18.649-15.173-33.822-33.822-33.822
	h-0.766v-2.726l39.093-39.093c1.953-1.952,1.953-5.118,0-7.07c-1.951-1.953-5.119-1.953-7.07,0l-40.553,40.553
	c-0.003,0.003-0.006,0.006-0.009,0.009L126.018,391.073c-1.021,1.021-1.551,2.433-1.453,3.873s0.813,2.769,1.963,3.643
	c33.999,25.847,74.597,39.508,117.406,39.508c107.062,0,194.163-87.102,194.163-194.163
	C438.096,201.125,424.435,160.527,398.589,126.527z M217.089,314.144l96.767-96.768V362.64L217.089,314.144z M324.622,220.103
	c13.136,0,23.822,10.687,23.822,23.822s-10.687,23.823-23.822,23.823h-0.766v-47.646H324.622z M363.302,92.921
	c-0.098-1.44-0.813-2.769-1.962-3.643c-34-25.847-74.598-39.508-117.406-39.508c-107.062,0-194.164,87.102-194.164,194.163
	c0,42.808,13.662,83.406,39.508,117.406c0.874,1.149,2.202,1.864,3.642,1.962c0.113,0.008,0.226,0.012,0.338,0.012
	c1.321,0,2.595-0.523,3.536-1.465L361.848,96.794C362.87,95.773,363.399,94.361,363.302,92.921z M139.418,305.082V179.773h59.172
	v66.137L139.418,305.082z M208.59,177.863l105.266-52.643v5.425L208.59,235.911V177.863z M323.856,120.645v-3.516
	c0-1.733-0.897-3.343-2.371-4.253c-1.476-0.913-3.315-0.995-4.865-0.219l-114.21,57.116h-67.992c-2.761,0-5,2.238-5,5v138.191
	c0,0.628,0.129,1.224,0.341,1.778l-35.924,35.924C71.53,319.392,59.77,282.614,59.77,243.934
	c0-101.548,82.615-184.163,184.164-184.163c38.681,0,75.459,11.76,106.732,34.064L323.856,120.645z"/>
<g>
</g>
<g>
</g>
<g>
</g>
<g>
</g>
<g>
</g>
<g>
</g>
<g>
</g>
<g>
</g>
<g>
</g>
<g>
</g>
<g>
</g>
<g>
</g>
<g>
</g>
<g>
</g>
<g>
</g>
</svg>
