<svg version="1.1" xmlns="http://www.w3.org/2000/svg" xmlns:xlink="http://www.w3.org/1999/xlink" x="0px" y="0px"
	 viewBox="0 0 487.886 487.886" style="enable-background:new 0 0 487.886 487.886;" xml:space="preserve">
<path d="M112.512,472.759h295.146c2.761,0,5-2.239,5-5v-21.086c0-2.761-2.239-5-5-5H112.512c-2.761,0-5,2.239-5,5v21.086
	C107.512,470.52,109.751,472.759,112.512,472.759z M117.512,451.672h285.146v11.086H117.512V451.672z M77.375,472.759
	c8.906,0,16.152-7.246,16.152-16.152c0-8.906-7.246-16.151-16.152-16.151s-16.152,7.246-16.152,16.151
	C61.224,465.513,68.469,472.759,77.375,472.759z M77.375,450.456c3.392,0,6.152,2.759,6.152,6.151s-2.76,6.152-6.152,6.152
	s-6.152-2.76-6.152-6.152S73.983,450.456,77.375,450.456z M465.63,106.801h-44.846V5c0-2.761-2.239-5-5-5H22.256
	c-2.761,0-5,2.239-5,5v241.197v55.385c0,2.761,2.239,5,5,5h7.956v120.919v55.385c0,2.761,2.239,5,5,5H428.74c2.761,0,5-2.239,5-5
	v-55.385v-14.118h31.89c2.761,0,5-2.239,5-5v-55.385V111.801C470.63,109.04,468.391,106.801,465.63,106.801z M460.63,116.801
	v200.236h-6.582c-2.761,0-5,2.239-5,5s2.239,5,5,5h6.582v20.961H77.102v-20.961h352.226c2.761,0,5-2.239,5-5s-2.239-5-5-5H77.102
	v-10.456h338.683c2.761,0,5-2.239,5-5v-55.385V116.801H460.63z M410.784,10v200.236h-6.582c-2.761,0-5,2.239-5,5s2.239,5,5,5h6.582
	v20.961H27.256v-20.961h352.226c2.761,0,5-2.239,5-5s-2.239-5-5-5H27.256V10H410.784z M27.256,251.197h383.528v45.385H27.256
	V251.197z M67.102,306.582v46.417v38.542h-26.89v-84.958H67.102z M423.74,477.886H40.212v-45.385H423.74V477.886z M423.74,422.501
	H40.212V401.54h26.89v6.843c0,2.761,2.239,5,5,5H423.74V422.501z M460.63,403.383H77.102v-45.385H460.63V403.383z M149.402,398.256
	h295.146c2.761,0,5-2.239,5-5V372.17c0-2.761-2.239-5-5-5H149.402c-2.761,0-5,2.239-5,5v21.086
	C144.402,396.018,146.641,398.256,149.402,398.256z M154.402,377.17h285.146v11.086H154.402V377.17z M114.265,398.256
	c8.906,0,16.152-7.246,16.152-16.152c0-8.906-7.246-16.151-16.152-16.151c-8.906,0-16.151,7.246-16.151,16.151
	C98.114,391.011,105.359,398.256,114.265,398.256z M114.265,375.953c3.392,0,6.152,2.759,6.152,6.151s-2.76,6.152-6.152,6.152
	s-6.151-2.76-6.151-6.152S110.873,375.953,114.265,375.953z M118.744,176.205V47.883c0-2.761,2.239-5,5-5s5,2.239,5,5v128.322
	c0,2.761-2.239,5-5,5S118.744,178.966,118.744,176.205z M152.964,150.544V73.543c0-2.761,2.239-5,5-5s5,2.239,5,5v77.001
	c0,2.761-2.239,5-5,5S152.964,153.306,152.964,150.544z M99.556,291.455h295.146c2.761,0,5-2.239,5-5v-21.086c0-2.761-2.239-5-5-5
	H99.556c-2.761,0-5,2.239-5,5v21.086C94.556,289.216,96.795,291.455,99.556,291.455z M104.556,270.369h285.146v11.086H104.556
	V270.369z M64.419,291.455c8.906,0,16.152-7.246,16.152-16.152s-7.246-16.152-16.152-16.152s-16.152,7.246-16.152,16.152
	S55.513,291.455,64.419,291.455z M64.419,269.151c3.392,0,6.152,2.76,6.152,6.152s-2.76,6.152-6.152,6.152s-6.152-2.76-6.152-6.152
	S61.027,269.151,64.419,269.151z"/>
<g>
</g>
<g>
</g>
<g>
</g>
<g>
</g>
<g>
</g>
<g>
</g>
<g>
</g>
<g>
</g>
<g>
</g>
<g>
</g>
<g>
</g>
<g>
</g>
<g>
</g>
<g>
</g>
<g>
</g>
</svg>
