<svg version="1.1" xmlns="http://www.w3.org/2000/svg" xmlns:xlink="http://www.w3.org/1999/xlink" x="0px" y="0px"
	 viewBox="0 0 487.866 487.866" style="enable-background:new 0 0 487.866 487.866;" xml:space="preserve">
<path d="M482.866,102.737h-14.17v-9.333c0-2.761-2.239-5-5-5H298.433c-14.76,0-28.272,5.409-38.688,14.333H5c-2.761,0-5,2.239-5,5
	v275.519c0,2.761,2.239,5,5,5h216.004c3.313,7.031,13.398,11.207,22.872,11.207c11.129,0,20.04-4.566,23.032-11.207h215.957
	c2.761,0,5-2.239,5-5V107.737C487.866,104.976,485.627,102.737,482.866,102.737z M277.163,103.21v220.607
	c-11.145,4.927-20.931,12.663-28.286,22.472V147.96C248.877,128.244,260.453,111.185,277.163,103.21z M305.683,327.773h153.013
	v33.023H251.544C261.882,340.784,282.801,327.773,305.683,327.773z M458.696,98.404v219.369H305.683
	c-6.348,0-12.567,0.861-18.521,2.486V99.712c3.623-0.846,7.393-1.308,11.271-1.308H458.696z M477.866,378.255H262.992
	c-2.761,0-5,2.239-5,5c0,2.531-5.499,6.207-14.115,6.207c-5.409,0-9.833-1.825-12.179-3.67c0.099-0.393,0.168-0.798,0.168-1.222
	v-12.635c0-2.761-2.239-5-5-5s-5,2.239-5,5v6.32H10V112.737h211.866v229.18c0,2.761,2.239,5,5,5s5-2.239,5-5v-229.18h18.582
	c-7.266,9.872-11.571,22.052-11.571,35.223v217.835c0,2.421,1.735,4.495,4.118,4.922c0.296,0.053,0.592,0.079,0.885,0.079
	c0.021,0,0.041-0.005,0.062-0.005c0.016,0,0.031,0.005,0.047,0.005h219.707c2.761,0,5-2.239,5-5v-43.023V112.737h9.17V378.255z
	 M451.657,343.688c0,2.761-2.239,5-5,5h-143.36c-2.761,0-5-2.239-5-5s2.239-5,5-5h143.36
	C449.418,338.688,451.657,340.927,451.657,343.688z M214.8,363.407c0,2.761-2.239,5-5,5H22.066c-2.761,0-5-2.239-5-5s2.239-5,5-5
	H209.8C212.561,358.407,214.8,360.646,214.8,363.407z M307.2,141.526c0-2.761,2.239-5,5-5h119.467c2.761,0,5,2.239,5,5s-2.239,5-5,5
	H312.2C309.438,146.526,307.2,144.287,307.2,141.526z M411.066,167.132c0,2.761-2.239,5-5,5H337.8c-2.761,0-5-2.239-5-5s2.239-5,5-5
	h68.267C408.828,162.132,411.066,164.371,411.066,167.132z"/>
<g>
</g>
<g>
</g>
<g>
</g>
<g>
</g>
<g>
</g>
<g>
</g>
<g>
</g>
<g>
</g>
<g>
</g>
<g>
</g>
<g>
</g>
<g>
</g>
<g>
</g>
<g>
</g>
<g>
</g>
</svg>
