<svg version="1.1" xmlns="http://www.w3.org/2000/svg" xmlns:xlink="http://www.w3.org/1999/xlink" x="0px" y="0px"
	 viewBox="0 0 487.867 487.867" style="enable-background:new 0 0 487.867 487.867;" xml:space="preserve">
<path d="M52.596,170.037H28.798c-2.762,0-5,2.238-5,5v239.012c0,2.762,2.238,5,5,5h23.798c2.762,0,5-2.238,5-5V175.037
	C57.596,172.275,55.357,170.037,52.596,170.037z M47.596,409.049H33.798V180.037h13.798V409.049z M52.596,122.447H28.798
	c-2.762,0-5,2.238-5,5v23.792c0,2.762,2.238,5,5,5h23.798c2.762,0,5-2.238,5-5v-23.792
	C57.596,124.686,55.357,122.447,52.596,122.447z M47.596,146.239H33.798v-13.792h13.798V146.239z M165.237,128.703h-27.556
	c-2.762,0-5,2.238-5,5v276.749c0,2.762,2.238,5,5,5h27.556c2.762,0,5-2.238,5-5V133.703
	C170.237,130.941,167.999,128.703,165.237,128.703z M160.237,405.452h-17.556V138.703h17.556V405.452z M165.237,73.6h-27.556
	c-2.762,0-5,2.238-5,5v27.548c0,2.762,2.238,5,5,5h27.556c2.762,0,5-2.238,5-5V78.6C170.237,75.838,167.999,73.6,165.237,73.6z
	 M160.237,101.147h-17.556V83.6h17.556V101.147z M467.144,131.27h-31.132V71.226c0-13.885-11.297-25.182-25.182-25.182H110.127
	c-2.762,0-5,2.238-5,5v47.605H5c-2.762,0-5,2.238-5,5v333.174c0,2.762,2.238,5,5,5h105.127h122.744h234.272
	c11.427,0,20.724-9.297,20.724-20.724V151.993C487.867,140.566,478.57,131.27,467.144,131.27z M426.012,71.226v60.044h-15.856
	v-25.114c0-2.762-2.238-5-5-5H252.504c-2.762,0-5,2.238-5,5v25.114h-14.633c-2.762,0-5,2.238-5,5v295.554h-8.311v-8.777
	c0-2.762-2.238-5-5-5s-5,2.238-5,5v8.777h-12.192V56.044h12.192v342.768c0,2.762,2.238,5,5,5s5-2.238,5-5V56.044h191.27
	C419.201,56.044,426.012,62.854,426.012,71.226z M257.504,131.27v-20.114h142.651v20.114H257.504z M105.127,431.823h-4.934v-6.899
	c0-2.762-2.238-5-5-5s-5,2.238-5,5v6.899h-9.167V108.649h9.167v295.346c0,2.762,2.238,5,5,5s5-2.238,5-5V108.649h4.934V431.823z
	 M10,108.649h61.026v323.174H10V108.649z M115.127,56.044h72.241v375.779h-72.241V56.044z M237.871,141.27h54.072v290.554h-54.072
	V141.27z M477.867,421.1c0,5.913-4.811,10.724-10.724,10.724h-147.91v-5.734c0-2.762-2.238-5-5-5s-5,2.238-5,5v5.734h-7.29V141.27
	h7.29v265.939c0,2.762,2.238,5,5,5s5-2.238,5-5V141.27h111.769c0.003,0,0.006,0.001,0.01,0.001s0.006-0.001,0.01-0.001h36.122
	c5.913,0,10.724,4.811,10.724,10.724V421.1z M275.807,195.668h-21.468c-2.762,0-5,2.238-5,5v215.61c0,2.762,2.238,5,5,5h21.468
	c2.762,0,5-2.238,5-5v-215.61C280.807,197.906,278.568,195.668,275.807,195.668z M270.807,411.278h-11.468v-205.61h11.468V411.278z
	 M275.807,152.737h-21.468c-2.762,0-5,2.238-5,5v21.462c0,2.762,2.238,5,5,5h21.468c2.762,0,5-2.238,5-5v-21.462
	C280.807,154.976,278.568,152.737,275.807,152.737z M270.807,174.199h-11.468v-11.462h11.468V174.199z M462.723,174.206H343.794
	c-2.762,0-5,2.238-5,5v75.132c0,2.762,2.238,5,5,5h118.929c2.762,0,5-2.238,5-5v-75.132
	C467.723,176.444,465.484,174.206,462.723,174.206z M457.723,249.338H348.794v-65.132h108.929V249.338z"/>
<g>
</g>
<g>
</g>
<g>
</g>
<g>
</g>
<g>
</g>
<g>
</g>
<g>
</g>
<g>
</g>
<g>
</g>
<g>
</g>
<g>
</g>
<g>
</g>
<g>
</g>
<g>
</g>
<g>
</g>
</svg>
