<svg version="1.1" xmlns="http://www.w3.org/2000/svg" xmlns:xlink="http://www.w3.org/1999/xlink" x="0px" y="0px"
	 viewBox="0 0 487.876 487.876" style="enable-background:new 0 0 487.876 487.876;" xml:space="preserve">
<path d="M442.683,0H45.193c-2.762,0-5,2.239-5,5v477.876c0,2.761,2.238,5,5,5h397.49c2.762,0,5-2.239,5-5V5
	C447.683,2.239,445.445,0,442.683,0z M50.193,10h316.745v467.876H50.193V10z M437.683,477.876h-60.745V10h60.745V477.876z
	 M95.338,449.97v15.839c0,2.761-2.238,5-5,5s-5-2.239-5-5V449.97c0-2.761,2.238-5,5-5S95.338,447.208,95.338,449.97z M95.338,22.057
	v400.037c0,2.761-2.238,5-5,5s-5-2.239-5-5V22.057c0-2.761,2.238-5,5-5S95.338,19.296,95.338,22.057z M296.729,105.388
	c-18.673-18.676-43.501-28.961-69.911-28.962c-0.002,0,0,0-0.002,0c-26.407,0-51.236,10.285-69.909,28.957
	c-18.675,18.674-28.959,43.502-28.958,69.911v25.604c0,2.761,2.238,5,5,5h51.2c2.762,0,5-2.239,5-5v-25.607
	c0-20.77,16.897-37.667,37.667-37.667s37.666,16.897,37.666,37.667c0,16.729-9.024,32.277-23.551,40.576
	c-27.934,15.958-45.287,45.856-45.287,78.028v41.331c0,2.761,2.238,5,5,5h51.771c2.762,0,5-2.239,5-5v-42.294
	c0-9.869,5.323-19.042,13.892-23.938c33.536-19.165,54.371-55.065,54.375-93.691C325.685,148.893,315.402,124.063,296.729,105.388z
	 M266.345,260.311c-11.677,6.673-18.93,19.172-18.93,32.621v37.294h-41.771v-36.331c0-28.591,15.422-55.164,40.248-69.346
	c17.635-10.074,28.59-28.949,28.59-49.259c0-26.283-21.384-47.667-47.667-47.667s-47.666,21.383-47.666,47.667v20.607h-41.2v-20.604
	c0-23.738,9.243-46.055,26.028-62.839c16.785-16.785,39.103-26.029,62.841-26.028s46.055,9.246,62.84,26.032
	c16.784,16.787,26.026,39.105,26.024,62.843C315.678,210.349,296.774,242.923,266.345,260.311z M226.816,348.396
	c-16.873,0-30.601,13.727-30.601,30.6s13.728,30.6,30.601,30.6s30.6-13.727,30.6-30.6S243.689,348.396,226.816,348.396z
	 M226.816,399.596c-11.359,0-20.601-9.241-20.601-20.6s9.241-20.6,20.601-20.6c11.358,0,20.6,9.241,20.6,20.6
	S238.174,399.596,226.816,399.596z M390.537,461.409V36.134c0-2.761,2.238-5,5-5s5,2.239,5,5v425.274c0,2.761-2.238,5-5,5
	S390.537,464.17,390.537,461.409z M414.135,461.409V36.134c0-2.761,2.238-5,5-5s5,2.239,5,5v425.274c0,2.761-2.238,5-5,5
	S414.135,464.17,414.135,461.409z"/>
<g>
</g>
<g>
</g>
<g>
</g>
<g>
</g>
<g>
</g>
<g>
</g>
<g>
</g>
<g>
</g>
<g>
</g>
<g>
</g>
<g>
</g>
<g>
</g>
<g>
</g>
<g>
</g>
<g>
</g>
</svg>
