<svg version="1.1" xmlns="http://www.w3.org/2000/svg" xmlns:xlink="http://www.w3.org/1999/xlink" x="0px" y="0px"
	 viewBox="0 0 487.867 487.867" style="enable-background:new 0 0 487.867 487.867;" xml:space="preserve">
<path d="M486.005,89.187c-1.177-0.95-2.721-1.313-4.199-0.994l-15.66,3.401V60.503c0-1.65-0.814-3.195-2.177-4.127
	c-1.362-0.932-3.099-1.13-4.636-0.533l-25.77,10.021V38.782c0-1.785-0.951-3.435-2.496-4.328c-1.545-0.893-3.448-0.896-4.997-0.006
	L243.934,139.201L61.797,34.448c-1.548-0.889-3.451-0.887-4.997,0.006c-1.545,0.894-2.496,2.543-2.496,4.328v27.082l-25.77-10.021
	c-1.537-0.596-3.271-0.399-4.636,0.533c-1.362,0.932-2.177,2.477-2.177,4.127v31.091l-15.66-3.401
	c-1.48-0.318-3.022,0.044-4.199,0.994C0.685,90.136,0,91.567,0,93.079v304.116c0,2.353,1.64,4.387,3.938,4.886l238.934,51.89
	c0.01,0.002,0.02,0.003,0.03,0.005c0.027,0.006,0.055,0.008,0.082,0.013c0.314,0.06,0.632,0.096,0.949,0.096
	s0.636-0.035,0.949-0.096c0.027-0.005,0.055-0.008,0.082-0.013c0.01-0.002,0.02-0.003,0.03-0.005l238.934-51.89
	c2.299-0.5,3.938-2.534,3.938-4.886V93.079C487.867,91.567,487.183,90.136,486.005,89.187z M456.146,93.766l-151.163,32.829
	l151.163-58.782V93.766z M423.563,69.753l-119.861,46.61l119.861-68.937V69.753z M64.304,47.426l119.861,68.937L64.304,69.753
	V47.426z M31.722,67.812l151.163,58.782L31.722,93.766V67.812z M477.867,393.164l-228.934,49.718v-10.854c0-2.761-2.238-5-5-5
	s-5,2.239-5,5v10.854L10,393.164V99.282L238.934,149v253.009c0,2.761,2.238,5,5,5s5-2.239,5-5V149l228.934-49.718V393.164z
	 M274.908,265.233c0.9,0.734,2.019,1.125,3.159,1.125c0.336,0,0.674-0.034,1.009-0.103l170.666-35.145
	c2.323-0.479,3.991-2.525,3.991-4.897v-85.335c0-1.503-0.676-2.926-1.841-3.875c-1.165-0.95-2.694-1.323-4.168-1.022
	l-170.666,35.145c-2.323,0.479-3.991,2.525-3.991,4.897v85.335C273.067,262.861,273.743,264.284,274.908,265.233z M283.067,180.098
	l160.666-33.085v75.125l-160.666,33.085V180.098z"/>
<g>
</g>
<g>
</g>
<g>
</g>
<g>
</g>
<g>
</g>
<g>
</g>
<g>
</g>
<g>
</g>
<g>
</g>
<g>
</g>
<g>
</g>
<g>
</g>
<g>
</g>
<g>
</g>
<g>
</g>
</svg>
