<svg xmlns="http://www.w3.org/2000/svg" width="54" height="54.06" viewBox="0 0 54 54.06">
  <g transform="translate(-3358 -1176.92) rotate(180 3385 1203.95)">
    <ellipse cx="27" cy="27.03" rx="27" ry="27.03" transform="translate(3358 1176.92)" fill="#540b01"/>
    <path d="M3396.423,1208.8a1.112,1.112,0,0,0,.139-1.554,1.081,1.081,0,0,0-1.535-.14,1.115,1.115,0,0,0-.139.14l-7.842,7.926v-26.2a1.093,1.093,0,0,0-2.183,0v26.2l-7.832-7.939a1.092,1.092,0,0,0-1.537,1.552l0,0,9.7,9.818a1.057,1.057,0,0,0,1.506.03l.029-.03Z" fill="#fff"/>
  </g>
</svg>