<svg xmlns="http://www.w3.org/2000/svg" width="44.92" height="44.92" viewBox="0 0 44.92 44.92">
  <g  transform="translate(-3050.08 -1182.08)">
    <circle cx="22.46" cy="22.46" r="22.46" transform="translate(3050.08 1182.08)" fill="#540b01"/>
    <path d="M3064.358,1195.538a1.083,1.083,0,0,0-.639,1.859l7.293,7.35-7.293,7.333a1.092,1.092,0,0,0,0,1.538,1.077,1.077,0,0,0,1.529,0h0l7.31-7.35,7.293,7.35a1.077,1.077,0,0,0,1.529,0,1.092,1.092,0,0,0,0-1.538h0l-7.31-7.333,7.31-7.35a1.086,1.086,0,0,0,.027-1.529,1.091,1.091,0,0,0-1.556-.008l-7.293,7.333-7.31-7.333a1.074,1.074,0,0,0-.773-.321C3064.436,1195.536,3064.4,1195.536,3064.358,1195.538Z" fill="#fff"/>
  </g>
</svg>
