<!DOCTYPE svg PUBLIC "-//W3C//DTD SVG 1.1//EN" "https://www.w3.org/Graphics/SVG/1.1/DTD/svg11.dtd" [
	<!ENTITY ns_extend "http://ns.adobe.com/Extensibility/1.0/">
	<!ENTITY ns_ai "http://ns.adobe.com/AdobeIllustrator/10.0/">
	<!ENTITY ns_graphs "http://ns.adobe.com/Graphs/1.0/">
	<!ENTITY ns_vars "http://ns.adobe.com/Variables/1.0/">
	<!ENTITY ns_imrep "http://ns.adobe.com/ImageReplacement/1.0/">
	<!ENTITY ns_sfw "http://ns.adobe.com/SaveForWeb/1.0/">
	<!ENTITY ns_custom "http://ns.adobe.com/GenericCustomNamespace/1.0/">
	<!ENTITY ns_adobe_xpath "http://ns.adobe.com/XPath/1.0/">
]>
<svg version="1.1" xmlns:x="&ns_extend;" xmlns:i="&ns_ai;" xmlns:graph="&ns_graphs;"
	 xmlns="http://www.w3.org/2000/svg" xmlns:xlink="http://www.w3.org/1999/xlink" x="0px" y="0px" width="94.7px" height="70.5px"
	 viewBox="0 0 94.7 70.5" style="enable-background:new 0 0 94.7 70.5;" xml:space="preserve">
<style>
	.st0-link-eye-white{fill:#FFFFFF;}
</style>
<metadata>
	<sfw  xmlns="&ns_sfw;">
		<slices></slices>
		<sliceSourceBounds  bottomLeftOrigin="true" height="57" width="77.1" x="8.8" y="6.1"></sliceSourceBounds>
	</sfw>
</metadata>
<g>
	<path class="st0-link-eye-white" d="M47.4,22.3c-20,0.2-32.4,16-35.7,20.9l-0.4,0.6l0.4,0.6c4.4,6,16.8,20,35.7,20c0,0,0,0,0.1,0
		c19.8,0,32.6-15.3,36-20l0.4-0.6l-0.4-0.6C80,38.2,67.2,22.1,47.4,22.3z M47.4,62.4L47.4,62.4C30,62.3,18.3,49.8,13.7,43.7
		c3.1-4.3,15.1-19.3,33.6-19.4c18.2-0.2,30.2,14.1,34,19.4C77.6,48.8,65.6,62.4,47.4,62.4z"/>
	<path class="st0-link-eye-white" d="M47.5,31.2c-6.7,0-12.1,5.4-12.1,12.1s5.4,12.1,12.1,12.1S59.6,50,59.6,43.3S54.2,31.2,47.5,31.2z M47.5,53.4
		c-5.6,0-10.1-4.5-10.1-10.1s4.5-10.1,10.1-10.1s10.1,4.5,10.1,10.1S53.1,53.4,47.5,53.4z"/>
	<rect x="27.9" y="11.3" transform="matrix(0.9185 -0.3953 0.3953 0.9185 -3.9944 12.7393)" class="st0-link-eye-white" width="2" height="9.5"/>
	<rect x="11.9" y="22.1" transform="matrix(0.7005 -0.7137 0.7137 0.7005 -15.2854 17.2772)" class="st0-link-eye-white" width="2" height="9.5"/>
	<rect x="46.3" y="7.4" class="st0-link-eye-white" width="2" height="9.2"/>
	<rect x="61.2" y="15" transform="matrix(0.3955 -0.9185 0.9185 0.3955 25.1193 70.2246)" class="st0-link-eye-white" width="9.5" height="2"/>
	<rect x="77.1" y="25.9" transform="matrix(0.7139 -0.7002 0.7002 0.7139 4.6105 65.0074)" class="st0-link-eye-white" width="9.5" height="2"/>
</g>
</svg>
