<svg width="70" height="70" viewBox="0 0 70 70" fill="none" xmlns="http://www.w3.org/2000/svg">
<g clip-path="url(#clip0_1152_764)">
<path d="M14.4713 47.6148C14.4599 47.8877 14.4604 48.2318 14.5947 48.3661C14.7349 48.5063 15.022 48.5623 15.3193 48.6188C16.5076 48.0687 17.4633 46.4814 17.7122 45.1816C16.8338 45.5518 16.1684 45.9775 15.4541 46.4607C15.0834 46.8304 14.7817 47.1794 14.4708 47.6148H14.4713Z" fill="#F4F0F1"/>
<path d="M22.6494 41.3411C21.9291 41.4129 21.0991 42.1462 20.9414 42.8812C21.335 42.9426 23.3773 41.2688 22.6494 41.3411Z" fill="#F4F0F1"/>
<path d="M34.9997 0C15.6698 0 0 15.6698 0 34.9997C0 54.3296 15.6698 69.9995 34.9997 69.9995C54.3296 69.9995 69.9995 54.3296 69.9995 34.9997C69.9995 15.6698 54.3302 0 34.9997 0ZM45.4825 20.4807C46.1762 20.4807 46.7388 21.0433 46.7388 21.737C46.7388 22.4306 46.1767 22.9932 45.4825 22.9932C44.7883 22.9932 44.2263 22.4306 44.2263 21.737C44.2263 21.0433 44.7883 20.4807 45.4825 20.4807ZM46.5349 28.4151V34.6583H44.4263V28.4151H46.5349ZM34.1028 24.6735C35.333 24.6637 36.4952 24.63 37.6683 24.7088C39.4241 24.8273 40.6032 26.2401 40.539 27.9384C40.4982 29.0169 40.0829 29.9355 39.117 30.5482L40.8614 34.6323L38.6424 34.6763L37.1937 31.1407C36.8855 30.9934 36.4327 31.0059 36.0674 31.088L36.0614 34.6567L34.1022 34.6475V24.6729L34.1028 24.6735ZM13.8971 24.1929C15.1904 24.1978 16.401 24.1462 17.6061 24.2343C19.5066 24.3729 20.7558 25.8825 20.7166 27.7258C20.6835 29.2838 19.7963 30.5982 18.2123 30.9901C17.5099 31.1641 16.9049 31.1418 16.0346 31.138L15.9933 34.6551L13.8955 34.648L13.8977 24.1935L13.8971 24.1929ZM18.9347 39.1017C18.9336 39.2985 18.87 39.5546 18.8129 39.6736C18.7499 39.8035 18.4177 39.9215 18.2405 39.8649C17.9589 39.7753 17.7795 39.404 17.7464 39.1621C17.7078 38.8783 17.8383 38.3891 18.1111 38.2956C18.6031 38.1271 18.938 38.6261 18.9347 39.1017ZM21.8185 46.6002C20.6465 46.5061 19.9077 45.5472 19.7148 44.4078L18.708 44.7769C18.4422 46.1734 18.0769 47.4014 17.2213 48.4538C16.6597 49.1448 15.7481 49.7378 14.8648 49.4416C14.1331 49.1959 13.8683 48.3261 13.833 47.6759C13.7297 45.7951 16.401 44.7748 17.9589 44.1714C18.3106 43.3739 17.9127 41.0147 18.1802 40.7858C18.2726 40.7064 18.6047 40.9152 18.639 41.0359C18.8858 41.9078 18.8613 42.7488 18.8564 43.8012L19.8316 43.4451C20.1051 42.3802 20.5796 41.4691 21.4064 40.8201C21.9598 40.3857 22.6671 40.3357 23.0856 40.8462C23.5298 41.3876 23.5129 42.066 22.9753 42.583C22.3094 43.2239 21.4119 43.5343 20.6307 44.0795C20.1121 44.441 20.7231 45.4537 21.2564 45.5842C21.7859 45.7136 22.3197 45.782 22.8214 45.6168L24.8105 44.9612C25.185 46.0065 22.8285 46.6817 21.819 46.6007L21.8185 46.6002ZM24.7963 34.6665L22.6796 34.6301L25.5742 20.7514L27.6095 20.7536L30.5014 34.6252L28.3765 34.6687C28.2966 33.5983 27.529 32.8873 26.5533 32.8993C25.6058 32.9107 24.8817 33.6657 24.7963 34.6665ZM32.6753 42.0013L30.5835 42.1546L29.7013 45.4249C29.443 46.3827 29.5556 47.2949 29.2348 47.3367C29.1517 47.3476 28.9554 47.2367 28.9109 47.1535C28.2379 45.8946 29.2365 43.7473 29.542 42.2644L28.0873 42.5509C27.6758 42.6319 27.4551 42.6232 27.3301 42.1638C27.2627 41.916 27.4279 41.6284 27.8155 41.5441C29.2751 41.2272 30.7303 41.0522 32.2562 41.0342C32.5883 41.0304 32.7846 41.6779 32.6758 42.0018L32.6753 42.0013ZM32.9031 43.0412C32.3187 42.6879 34.1327 40.395 34.399 39.8807C34.5947 39.8573 34.8562 39.9965 34.9263 40.1264C35.0166 40.2928 35.0313 40.6651 34.9345 40.8331C34.6583 41.3109 33.3722 43.325 32.9031 43.0412ZM55.7495 46.6752C54.0084 48.0836 50.5543 48.6729 49.1219 46.3702C47.6276 46.6273 47.1633 46.2474 46.5616 44.8449L45.7239 45.6701C45.6065 45.7853 45.2145 45.9065 45.0743 45.8228C44.9335 45.7391 44.7845 45.4776 44.6584 45.252L44.1366 45.9109C44.0664 45.9995 43.8321 46.1049 43.7245 46.1245C43.1923 46.2224 43.0602 45.2069 42.9624 44.7911C42.5558 45.2183 42.1416 45.6668 41.6806 46.0419C41.3153 46.3387 40.6929 46.2349 40.5059 45.7875C40.3874 45.5037 40.2982 45.1814 40.2036 44.8612L38.7979 46.3588C38.6728 46.492 38.2722 46.642 38.0988 46.6045C37.59 46.4942 37.5275 45.676 37.3046 45.6565C36.7768 45.6097 36.2864 46.7165 34.9513 47.3449C34.3219 47.6412 33.6652 47.4726 33.3716 46.8442C32.4883 44.9541 34.6111 42.0535 36.3979 41.0609C36.9561 40.7505 37.5954 40.6999 38.1651 40.9864C38.606 41.2087 39.0006 41.7877 39.0664 42.4193C39.1702 43.4109 38.7729 44.3176 38.2244 45.1607C38.1646 45.2526 38.1771 45.4836 38.239 45.6059C39.2936 44.6753 40.1574 43.6142 40.8559 42.471C42.247 42.658 40.757 44.2138 41.1228 45.2857C41.9225 44.622 42.5509 43.9751 43.0619 43.1956C43.1874 43.0037 43.3201 42.7689 43.5006 42.758C43.6816 42.7477 44.0023 43.0668 43.9931 43.2445L43.9175 44.7122L44.8884 43.4859C44.9813 43.3679 45.1308 43.2282 45.2395 43.1983C45.3662 43.163 45.6793 43.3842 45.6929 43.5163L45.7728 44.3187C46.0245 44.1159 46.3588 43.7903 46.6192 43.6566C47.0378 43.4418 47.2454 44.0425 47.2367 44.3535C47.2253 44.759 47.3324 45.1384 47.633 45.345C47.9064 45.5331 48.4223 45.6048 48.7023 45.3917C48.5115 44.3915 48.7822 43.4625 49.5149 42.833C50.1173 42.3155 50.9767 42.4552 51.4154 43.1195C51.8171 43.7283 51.81 44.4948 51.3029 45.052C50.9055 45.4885 50.4032 45.8005 49.8188 46.1316C51.1675 47.739 54.1448 46.8095 55.8419 45.7793C56.2344 45.8946 56.0414 46.4409 55.7506 46.6757L55.7495 46.6752ZM52.4352 27.6562C52.9592 28.4771 54.0355 28.8038 55.1048 29.7714C56.205 30.7673 56.4834 32.5149 55.4587 33.7157C54.6237 34.6948 53.3147 34.9019 52.0889 34.5839C51.0702 34.3197 50.1809 33.3907 49.8759 32.2535L51.4355 31.6299C51.7269 32.1828 51.9992 32.7307 52.5803 32.9607C53.0538 33.1477 53.6115 33.0188 53.8828 32.6709C54.1611 32.3138 54.1915 31.712 53.8589 31.3185C53.0701 30.3851 51.8595 30.1617 50.8903 28.8793C50.1521 27.903 50.0993 26.5408 50.8859 25.5949C51.4877 24.8714 52.4096 24.5936 53.3381 24.6028C54.7161 24.6159 55.88 25.4764 56.1703 26.7761L54.5933 27.3828C54.3258 26.7859 53.9882 26.3195 53.3234 26.2809C53.0413 26.2646 52.6243 26.4326 52.4749 26.6223C52.2944 26.8512 52.2509 27.3681 52.4346 27.6562H52.4352Z" fill="#F4F0F1"/>
<path d="M26.576 24.5L25.3398 31.0667L27.8404 31.0254L26.576 24.5Z" fill="#F4F0F1"/>
<path d="M17.7469 29.1592C18.3796 28.8526 18.5878 28.2367 18.59 27.6719C18.5922 27.0946 18.3682 26.4982 17.786 26.1922C17.2598 25.9155 16.5955 25.9269 16.0117 26.0215L16.0128 29.3179C16.5651 29.3831 17.2163 29.4163 17.7469 29.1592Z" fill="#F4F0F1"/>
<path d="M37.6459 29.3064C38.283 29.0357 38.4689 28.4416 38.4602 27.8936C38.452 27.3625 38.2205 26.7923 37.6312 26.5547C37.1713 26.3694 36.6196 26.3884 36.0694 26.4226L36.0684 29.4505C36.5984 29.4761 37.1675 29.5098 37.6459 29.307V29.3064Z" fill="#F4F0F1"/>
<path d="M38.065 41.6767C37.6932 41.4832 37.1164 41.6348 36.7424 41.8854C35.285 42.8612 34.1951 44.3545 33.8092 46.082C33.7836 46.1973 33.8717 46.543 33.9668 46.6012C34.0619 46.6593 34.3082 46.6218 34.4354 46.5468C35.9645 45.6472 37.2425 44.3773 38.1721 42.8226C38.4004 42.4404 38.4608 41.8827 38.065 41.6767Z" fill="#F4F0F1"/>
<path d="M51.0302 43.6476C51.0547 43.4589 50.4481 43.3845 50.2975 43.4774C49.7272 43.8302 49.3168 44.4141 49.4457 45.1832C50.0643 44.869 50.9188 44.5076 51.0308 43.6476H51.0302Z" fill="#F4F0F1"/>
</g>
<defs>
<clipPath id="clip0_1152_764">
<rect width="70" height="70" fill="white"/>
</clipPath>
</defs>
</svg>
